<?xml version="1.0" encoding="utf-8"?>
<!-- Generator: Adobe Illustrator 15.0.0, SVG Export Plug-In . SVG Version: 6.00 Build 0)  -->
<!DOCTYPE svg PUBLIC "-//W3C//DTD SVG 1.1//EN" "http://www.w3.org/Graphics/SVG/1.1/DTD/svg11.dtd">
<svg version="1.1" id="Layer_1" xmlns:ev="http://www.w3.org/2001/xml-events"
	 xmlns="http://www.w3.org/2000/svg" xmlns:xlink="http://www.w3.org/1999/xlink" x="0px" y="0px" width="640px" height="1240px"
	 viewBox="0 0 640 1240" enable-background="new 0 0 640 1240" xml:space="preserve">
<g>
	<polygon fill="#000000" points="400,80 400,120 440,120 480,120 480,80 440,80 	"/>
	<polygon fill="#000000" points="400,160 400,200 440,200 480,200 480,160 440,160 	"/>
	<polygon fill="#000000" points="400,240 400,280 440,280 480,280 480,240 440,240 	"/>
	<polygon fill="#000000" points="80,560 80,520 40,520 0,520 0,560 40,560 	"/>
	<polygon fill="#000000" points="200,560 240,560 240,520 240,480 200,480 160,480 160,520 160,560 	"/>
	<polygon fill="#000000" points="280,560 240,560 240,600 280,600 320,600 320,560 	"/>
	<polygon fill="#000000" points="160,600 160,640 200,640 240,640 240,600 200,600 	"/>
	<polygon fill="#000000" points="240,640 240,680 280,680 320,680 320,640 280,640 	"/>
	<polygon fill="#000000" points="480,680 480,640 480,600 480,560 440,560 400,560 400,600 360,600 320,600 320,640 360,640 400,640 400,680 360,680 320,680 320,720 360,720 400,720 400,760 400,800 400,840 400,880 440,880 480,880 480,840 480,800 480,760 480,720 520,720 560,720 560,680 520,680 	"/>
	<polygon fill="#000000" points="200,880 160,880 160,920 200,920 240,920 240,880 	"/>
	<polygon fill="#000000" points="320,880 320,920 360,920 400,920 400,880 360,880 	"/>
</g>
</svg>
