<?xml version="1.0" encoding="utf-8"?>
<!-- Generator: Adobe Illustrator 15.0.0, SVG Export Plug-In . SVG Version: 6.00 Build 0)  -->
<!DOCTYPE svg PUBLIC "-//W3C//DTD SVG 1.1//EN" "http://www.w3.org/Graphics/SVG/1.1/DTD/svg11.dtd">
<svg version="1.1" id="Layer_1" xmlns:ev="http://www.w3.org/2001/xml-events"
	 xmlns="http://www.w3.org/2000/svg" xmlns:xlink="http://www.w3.org/1999/xlink" x="0px" y="0px" width="1600px" height="1240px"
	 viewBox="0 0 1600 1240" enable-background="new 0 0 1600 1240" xml:space="preserve">
<g>
	<polygon fill="#000000" points="960,80 960,120 1000,120 1040,120 1040,80 1000,80 	"/>
	<polygon fill="#000000" points="1040,120 1040,160 1080,160 1120,160 1120,120 1080,120 	"/>
	<polygon fill="#000000" points="1120,160 1120,200 1160,200 1200,200 1200,160 1160,160 	"/>
	<polygon fill="#000000" points="1200,240 1200,280 1240,280 1280,280 1280,240 1240,240 	"/>
	<polygon fill="#000000" points="80,560 80,520 40,520 0,520 0,560 40,560 	"/>
	<polygon fill="#000000" points="200,560 240,560 240,520 240,480 200,480 160,480 160,520 160,560 	"/>
	<polygon fill="#000000" points="280,600 320,600 320,560 280,560 240,560 240,600 	"/>
	<polygon fill="#000000" points="200,600 160,600 160,640 200,640 240,640 240,600 	"/>
	<polygon fill="#000000" points="280,640 240,640 240,680 280,680 320,680 320,640 	"/>
	<polygon fill="#000000" points="480,800 480,760 480,720 520,720 560,720 560,680 520,680 480,680 480,640 480,600 480,560 440,560 400,560 400,600 360,600 320,600 320,640 360,640 400,640 400,680 360,680 320,680 320,720 360,720 400,720 400,760 400,800 440,800 	"/>
	<polygon fill="#000000" points="960,760 960,800 1000,800 1040,800 1040,760 1000,760 	"/>
	<polygon fill="#000000" points="1160,800 1200,800 1200,760 1160,760 1120,760 1120,800 	"/>
	<polygon fill="#000000" points="1240,800 1200,800 1200,840 1240,840 1280,840 1280,800 	"/>
	<polygon fill="#000000" points="480,880 480,840 440,840 400,840 400,880 440,880 	"/>
	<polygon fill="#000000" points="1040,880 1040,840 1000,840 960,840 960,880 1000,880 	"/>
	<polygon fill="#000000" points="1120,840 1120,880 1160,880 1200,880 1200,840 1160,840 	"/>
	<polygon fill="#000000" points="1440,840 1440,800 1440,760 1400,760 1360,760 1360,800 1360,840 1320,840 1280,840 1280,880 1320,880 1360,880 1360,920 1360,960 1360,1000 1360,1040 1400,1040 1440,1040 1440,1000 1440,960 1440,920 1440,880 1480,880 1520,880 1520,840 1480,840 	"/>
	<polygon fill="#000000" points="1200,880 1200,920 1240,920 1280,920 1280,880 1240,880 	"/>
	<polygon fill="#000000" points="1360,1080 1360,1120 1400,1120 1440,1120 1440,1080 1400,1080 	"/>
</g>
</svg>
