<?xml version="1.0" encoding="utf-8"?>
<!-- Generator: Adobe Illustrator 15.0.0, SVG Export Plug-In . SVG Version: 6.00 Build 0)  -->
<!DOCTYPE svg PUBLIC "-//W3C//DTD SVG 1.1//EN" "http://www.w3.org/Graphics/SVG/1.1/DTD/svg11.dtd">
<svg version="1.1" id="Layer_1" xmlns:ev="http://www.w3.org/2001/xml-events"
	 xmlns="http://www.w3.org/2000/svg" xmlns:xlink="http://www.w3.org/1999/xlink" x="0px" y="0px" width="1280px" height="1240px"
	 viewBox="0 0 1280 1240" enable-background="new 0 0 1280 1240" xml:space="preserve">
<g>
	<polygon fill="#000000" points="720,80 720,120 760,120 800,120 800,80 760,80 	"/>
	<polygon fill="#000000" points="720,160 720,200 760,200 800,200 800,160 760,160 	"/>
	<polygon fill="#000000" points="200,240 160,240 160,280 200,280 240,280 240,240 	"/>
	<polygon fill="#000000" points="400,280 400,240 360,240 320,240 320,280 360,280 	"/>
	<polygon fill="#000000" points="720,240 720,280 760,280 800,280 800,240 760,240 	"/>
	<polygon fill="#000000" points="400,360 400,320 360,320 320,320 320,360 360,360 	"/>
	<polygon fill="#000000" points="400,440 400,400 360,400 320,400 320,440 360,440 	"/>
	<polygon fill="#000000" points="560,560 560,520 560,480 520,480 480,480 480,520 480,560 520,560 	"/>
	<polygon fill="#000000" points="600,560 560,560 560,600 600,600 640,600 640,560 	"/>
	<polygon fill="#000000" points="560,640 560,600 520,600 480,600 480,640 520,640 	"/>
	<polygon fill="#000000" points="560,640 560,680 600,680 640,680 640,640 600,640 	"/>
	<polygon fill="#000000" points="800,680 800,640 800,600 800,560 760,560 720,560 720,600 680,600 640,600 640,640 680,640 720,640 720,680 680,680 640,680 640,720 680,720 720,720 720,760 720,800 720,840 720,880 760,880 800,880 800,840 800,800 800,760 800,720 840,720 880,720 880,680 840,680 	"/>
	<polygon fill="#000000" points="720,920 720,960 760,960 800,960 800,920 760,920 	"/>
	<polygon fill="#000000" points="280,1160 240,1160 240,1200 280,1200 320,1200 320,1160 	"/>
	<polygon fill="#000000" points="920,1160 880,1160 880,1200 920,1200 960,1200 960,1160 	"/>
	<polygon fill="#000000" points="1040,1160 1040,1200 1080,1200 1120,1200 1120,1160 1080,1160 	"/>
</g>
</svg>
