<?xml version="1.0" encoding="utf-8"?>
<!-- Generator: Adobe Illustrator 15.0.0, SVG Export Plug-In . SVG Version: 6.00 Build 0)  -->
<!DOCTYPE svg PUBLIC "-//W3C//DTD SVG 1.1//EN" "http://www.w3.org/Graphics/SVG/1.1/DTD/svg11.dtd">
<svg version="1.1" id="Layer_1" xmlns:ev="http://www.w3.org/2001/xml-events"
	 xmlns="http://www.w3.org/2000/svg" xmlns:xlink="http://www.w3.org/1999/xlink" x="0px" y="0px" width="2560px" height="1240px"
	 viewBox="0 0 2560 1240" enable-background="new 0 0 2560 1240" xml:space="preserve">
<g>
	<polygon fill="#000000" points="400,80 400,120 440,120 480,120 480,80 440,80 	"/>
	<polygon fill="#000000" points="1360,80 1360,120 1400,120 1440,120 1440,80 1400,80 	"/>
	<polygon fill="#000000" points="1920,80 1920,120 1960,120 2000,120 2000,80 1960,80 	"/>
	<polygon fill="#000000" points="2000,120 2000,160 2040,160 2080,160 2080,120 2040,120 	"/>
	<polygon fill="#000000" points="400,160 400,200 440,200 480,200 480,160 440,160 	"/>
	<polygon fill="#000000" points="1360,160 1360,200 1400,200 1440,200 1440,160 1400,160 	"/>
	<polygon fill="#000000" points="2080,160 2080,200 2120,200 2160,200 2160,160 2120,160 	"/>
	<polygon fill="#000000" points="400,240 400,280 440,280 480,280 480,240 440,240 	"/>
	<polygon fill="#000000" points="1360,240 1360,280 1400,280 1440,280 1440,240 1400,240 	"/>
	<polygon fill="#000000" points="2160,240 2160,280 2200,280 2240,280 2240,240 2200,240 	"/>
	<polygon fill="#000000" points="80,560 80,520 40,520 0,520 0,560 40,560 	"/>
	<polygon fill="#000000" points="200,560 240,560 240,520 240,480 200,480 160,480 160,520 160,560 	"/>
	<polygon fill="#000000" points="1040,560 1040,520 1000,520 960,520 960,560 1000,560 	"/>
	<polygon fill="#000000" points="1160,560 1200,560 1200,520 1200,480 1160,480 1120,480 1120,520 1120,560 	"/>
	<polygon fill="#000000" points="280,560 240,560 240,600 280,600 320,600 320,560 	"/>
	<polygon fill="#000000" points="1240,560 1200,560 1200,600 1240,600 1280,600 1280,560 	"/>
	<polygon fill="#000000" points="160,600 160,640 200,640 240,640 240,600 200,600 	"/>
	<polygon fill="#000000" points="1120,600 1120,640 1160,640 1200,640 1200,600 1160,600 	"/>
	<polygon fill="#000000" points="240,640 240,680 280,680 320,680 320,640 280,640 	"/>
	<polygon fill="#000000" points="1200,640 1200,680 1240,680 1280,680 1280,640 1240,640 	"/>
	<polygon fill="#000000" points="480,680 480,640 480,600 480,560 440,560 400,560 400,600 360,600 320,600 320,640 360,640 400,640 400,680 360,680 320,680 320,720 360,720 400,720 400,760 400,800 440,800 480,800 480,760 480,720 520,720 560,720 560,680 520,680 	"/>
	<polygon fill="#000000" points="1440,680 1440,640 1440,600 1440,560 1400,560 1360,560 1360,600 1320,600 1280,600 1280,640 1320,640 1360,640 1360,680 1320,680 1280,680 1280,720 1320,720 1360,720 1360,760 1360,800 1400,800 1440,800 1440,760 1440,720 1480,720 1520,720 1520,680 1480,680 	"/>
	<polygon fill="#000000" points="2000,800 2000,760 1960,760 1920,760 1920,800 1960,800 	"/>
	<polygon fill="#000000" points="2120,800 2160,800 2160,760 2120,760 2080,760 2080,800 	"/>
	<polygon fill="#000000" points="2200,800 2160,800 2160,840 2200,840 2240,840 2240,800 	"/>
	<polygon fill="#000000" points="400,840 400,880 440,880 480,880 480,840 440,840 	"/>
	<polygon fill="#000000" points="1360,840 1360,880 1400,880 1440,880 1440,840 1400,840 	"/>
	<polygon fill="#000000" points="2000,880 2000,840 1960,840 1920,840 1920,880 1960,880 	"/>
	<polygon fill="#000000" points="2080,840 2080,880 2120,880 2160,880 2160,840 2120,840 	"/>
	<polygon fill="#000000" points="2400,840 2400,800 2400,760 2360,760 2320,760 2320,800 2320,840 2280,840 2240,840 2240,880 2280,880 2320,880 2320,920 2320,960 2320,1000 2320,1040 2360,1040 2400,1040 2400,1000 2400,960 2400,920 2400,880 2440,880 2480,880 2480,840 2440,840 	"/>
	<polygon fill="#000000" points="2160,880 2160,920 2200,920 2240,920 2240,880 2200,880 	"/>
	<polygon fill="#000000" points="2320,1080 2320,1120 2360,1120 2400,1120 2400,1080 2360,1080 	"/>
</g>
</svg>
