<?xml version="1.0" encoding="utf-8"?>
<!-- Generator: Adobe Illustrator 15.0.0, SVG Export Plug-In . SVG Version: 6.00 Build 0)  -->
<!DOCTYPE svg PUBLIC "-//W3C//DTD SVG 1.1//EN" "http://www.w3.org/Graphics/SVG/1.1/DTD/svg11.dtd">
<svg version="1.1" id="Layer_1" xmlns:ev="http://www.w3.org/2001/xml-events"
	 xmlns="http://www.w3.org/2000/svg" xmlns:xlink="http://www.w3.org/1999/xlink" x="0px" y="0px" width="1600px" height="1240px"
	 viewBox="0 0 1600 1240" enable-background="new 0 0 1600 1240" xml:space="preserve">
<g>
	<polygon fill="#000000" points="280,40 320,40 320,0 280,0 240,0 240,40 	"/>
	<polygon fill="#000000" points="440,40 480,40 480,0 440,0 400,0 400,40 	"/>
	<polygon fill="#000000" points="120,80 80,80 80,120 120,120 160,120 160,80 	"/>
	<polygon fill="#000000" points="280,80 240,80 240,120 280,120 320,120 320,80 	"/>
	<polygon fill="#000000" points="440,80 400,80 400,120 440,120 480,120 480,80 	"/>
	<polygon fill="#000000" points="840,480 800,480 800,520 840,520 880,520 880,480 	"/>
	<polygon fill="#000000" points="1040,480 1040,440 1000,440 960,440 960,480 960,520 920,520 880,520 880,560 840,560 800,560 800,600 840,600 880,600 880,640 920,640 960,640 960,600 1000,600 1040,600 1040,560 1040,520 	"/>
	<polygon fill="#000000" points="760,520 720,520 720,560 760,560 800,560 800,520 	"/>
	<polygon fill="#000000" points="720,600 720,640 760,640 800,640 800,600 760,600 	"/>
	<polygon fill="#000000" points="800,640 800,680 840,680 880,680 880,640 840,640 	"/>
	<polygon fill="#000000" points="720,680 720,720 720,760 760,760 800,760 800,720 800,680 760,680 	"/>
	<polygon fill="#000000" points="640,760 640,800 680,800 720,800 720,760 680,760 	"/>
</g>
</svg>
