<?xml version="1.0" encoding="utf-8"?>
<!-- Generator: Adobe Illustrator 15.0.0, SVG Export Plug-In . SVG Version: 6.00 Build 0)  -->
<!DOCTYPE svg PUBLIC "-//W3C//DTD SVG 1.1//EN" "http://www.w3.org/Graphics/SVG/1.1/DTD/svg11.dtd">
<svg version="1.1" id="Layer_1" xmlns:ev="http://www.w3.org/2001/xml-events"
	 xmlns="http://www.w3.org/2000/svg" xmlns:xlink="http://www.w3.org/1999/xlink" x="0px" y="0px" width="1600px" height="1240px"
	 viewBox="0 0 1600 1240" enable-background="new 0 0 1600 1240" xml:space="preserve">
<g>
	<polygon fill="#000000" points="440,120 480,120 480,80 440,80 400,80 400,120 	"/>
	<polygon fill="#000000" points="1160,80 1120,80 1120,120 1160,120 1200,120 1200,80 	"/>
	<polygon fill="#000000" points="1360,80 1320,80 1280,80 1280,120 1240,120 1200,120 1200,160 1160,160 1120,160 1120,200 1160,200 1200,200 1200,240 1240,240 1280,240 1280,200 1280,160 1320,160 1360,160 1360,120 	"/>
	<polygon fill="#000000" points="1080,120 1040,120 1040,160 1080,160 1120,160 1120,120 	"/>
	<polygon fill="#000000" points="400,160 400,200 440,200 480,200 480,160 440,160 	"/>
	<polygon fill="#000000" points="1040,200 1040,160 1000,160 960,160 960,200 1000,200 	"/>
	<polygon fill="#000000" points="1040,200 1040,240 1080,240 1120,240 1120,200 1080,200 	"/>
	<polygon fill="#000000" points="400,240 400,280 440,280 480,280 480,240 440,240 	"/>
	<polygon fill="#000000" points="1160,240 1120,240 1120,280 1160,280 1200,280 1200,240 	"/>
	<polygon fill="#000000" points="1040,280 1040,320 1080,320 1120,320 1120,280 1080,280 	"/>
	<polygon fill="#000000" points="1040,320 1000,320 960,320 960,360 960,400 1000,400 1040,400 1040,360 	"/>
	<polygon fill="#000000" points="880,400 880,440 920,440 960,440 960,400 920,400 	"/>
	<polygon fill="#000000" points="80,560 80,520 40,520 0,520 0,560 40,560 	"/>
	<polygon fill="#000000" points="200,560 240,560 240,520 240,480 200,480 160,480 160,520 160,560 	"/>
	<polygon fill="#000000" points="280,560 240,560 240,600 280,600 320,600 320,560 	"/>
	<polygon fill="#000000" points="160,600 160,640 200,640 240,640 240,600 200,600 	"/>
	<polygon fill="#000000" points="240,640 240,680 280,680 320,680 320,640 280,640 	"/>
	<polygon fill="#000000" points="480,680 480,640 480,600 480,560 440,560 400,560 400,600 360,600 320,600 320,640 360,640 400,640 400,680 360,680 320,680 320,720 360,720 400,720 400,760 400,800 440,800 480,800 480,760 480,720 520,720 560,720 560,680 520,680 	"/>
	<polygon fill="#000000" points="400,840 400,880 440,880 480,880 480,840 440,840 	"/>
</g>
</svg>
