<?xml version="1.0" encoding="utf-8"?>
<!-- Generator: Adobe Illustrator 15.0.0, SVG Export Plug-In . SVG Version: 6.00 Build 0)  -->
<!DOCTYPE svg PUBLIC "-//W3C//DTD SVG 1.1//EN" "http://www.w3.org/Graphics/SVG/1.1/DTD/svg11.dtd">
<svg version="1.1" id="Layer_1" xmlns:ev="http://www.w3.org/2001/xml-events"
	 xmlns="http://www.w3.org/2000/svg" xmlns:xlink="http://www.w3.org/1999/xlink" x="0px" y="0px" width="1600px" height="1240px"
	 viewBox="0 0 1600 1240" enable-background="new 0 0 1600 1240" xml:space="preserve">
<g>
	<polygon fill="#000000" points="960,80 960,120 1000,120 1040,120 1040,80 1000,80 	"/>
	<polygon fill="#000000" points="1040,120 1040,160 1080,160 1120,160 1120,120 1080,120 	"/>
	<polygon fill="#000000" points="1120,160 1120,200 1160,200 1200,200 1200,160 1160,160 	"/>
	<polygon fill="#000000" points="1200,240 1200,280 1240,280 1280,280 1280,240 1240,240 	"/>
	<polygon fill="#000000" points="80,560 80,520 40,520 0,520 0,560 40,560 	"/>
	<polygon fill="#000000" points="200,560 240,560 240,520 240,480 200,480 160,480 160,520 160,560 	"/>
	<polygon fill="#000000" points="1160,520 1120,520 1120,560 1160,560 1200,560 1200,520 	"/>
	<polygon fill="#000000" points="280,600 320,600 320,560 280,560 240,560 240,600 	"/>
	<polygon fill="#000000" points="400,560 400,600 440,600 480,600 480,560 440,560 	"/>
	<polygon fill="#000000" points="1240,560 1200,560 1200,600 1240,600 1280,600 1280,560 	"/>
	<polygon fill="#000000" points="1360,560 1360,600 1320,600 1280,600 1280,640 1320,640 1360,640 1360,680 1320,680 1280,680 1280,720 1320,720 1360,720 1360,760 1360,800 1360,840 1360,880 1400,880 1440,880 1440,840 1440,800 1440,760 1440,720 1440,680 1440,640 1440,600 1440,560 1400,560 	"/>
	<polygon fill="#000000" points="240,640 240,600 200,600 160,600 160,640 200,640 	"/>
	<polygon fill="#000000" points="360,600 320,600 320,640 360,640 400,640 400,600 	"/>
	<polygon fill="#000000" points="1160,600 1120,600 1120,640 1160,640 1200,640 1200,600 	"/>
	<polygon fill="#000000" points="280,640 240,640 240,680 280,680 320,680 320,640 	"/>
	<polygon fill="#000000" points="1200,640 1200,680 1240,680 1280,680 1280,640 1240,640 	"/>
		"/>
	<polygon fill="#000000" points="1360,920 1360,960 1400,960 1440,960 1440,920 1400,920 	"/>
	<polygon fill="#000000" points="1360,1000 1360,1040 1400,1040 1440,1040 1440,1000 1400,1000 	"/>
</g>
</svg>
