<?xml version="1.0" encoding="utf-8"?>
<!-- Generator: Adobe Illustrator 15.0.0, SVG Export Plug-In . SVG Version: 6.00 Build 0)  -->
<!DOCTYPE svg PUBLIC "-//W3C//DTD SVG 1.1//EN" "http://www.w3.org/Graphics/SVG/1.1/DTD/svg11.dtd">
<svg version="1.1" id="Layer_1" xmlns:ev="http://www.w3.org/2001/xml-events"
	 xmlns="http://www.w3.org/2000/svg" xmlns:xlink="http://www.w3.org/1999/xlink" x="0px" y="0px" width="1520px" height="1240px"
	 viewBox="0 0 1520 1240" enable-background="new 0 0 1520 1240" xml:space="preserve">
<g>
	<polygon fill="#000000" points="1200,120 1200,80 1160,80 1120,80 1120,120 1160,120 	"/>
	<polygon fill="#000000" points="1360,80 1320,80 1280,80 1280,120 1320,120 1360,120 1360,160 1320,160 1280,160 1280,200 1320,200 1360,200 1360,240 1360,280 1400,280 1440,280 1440,240 1440,200 1440,160 1440,120 1440,80 1400,80 	"/>
	<polygon fill="#000000" points="1200,120 1200,160 1240,160 1280,160 1280,120 1240,120 	"/>
	<polygon fill="#000000" points="1360,320 1360,360 1400,360 1440,360 1440,320 1400,320 	"/>
	<polygon fill="#000000" points="1360,400 1360,440 1400,440 1440,440 1440,400 1400,400 	"/>
	<polygon fill="#000000" points="1040,800 1040,760 1000,760 960,760 960,800 1000,800 	"/>
	<polygon fill="#000000" points="1160,800 1200,800 1200,760 1160,760 1120,760 1120,800 	"/>
	<polygon fill="#000000" points="1240,800 1200,800 1200,840 1240,840 1280,840 1280,800 	"/>
	<polygon fill="#000000" points="1040,880 1040,840 1000,840 960,840 960,880 1000,880 	"/>
	<polygon fill="#000000" points="1120,840 1120,880 1160,880 1200,880 1200,840 1160,840 	"/>
	<polygon fill="#000000" points="1440,840 1440,800 1440,760 1400,760 1360,760 1360,800 1360,840 1320,840 1280,840 1280,880 1320,880 1360,880 1360,920 1360,960 1360,1000 1360,1040 1400,1040 1440,1040 1440,1000 1440,960 1440,920 1440,880 1480,880 1520,880 1520,840 1480,840 	"/>
	<polygon fill="#000000" points="1200,880 1200,920 1240,920 1280,920 1280,880 1240,880 	"/>
	<polygon fill="#000000" points="1360,1080 1360,1120 1400,1120 1440,1120 1440,1080 1400,1080 	"/>
</g>
</svg>
