<?xml version="1.0" encoding="utf-8"?>
<!-- Generator: Adobe Illustrator 15.0.0, SVG Export Plug-In . SVG Version: 6.00 Build 0)  -->
<!DOCTYPE svg PUBLIC "-//W3C//DTD SVG 1.1//EN" "http://www.w3.org/Graphics/SVG/1.1/DTD/svg11.dtd">
<svg version="1.1" id="Layer_1" xmlns:ev="http://www.w3.org/2001/xml-events"
	 xmlns="http://www.w3.org/2000/svg" xmlns:xlink="http://www.w3.org/1999/xlink" x="0px" y="0px" width="1280px" height="1240px"
	 viewBox="0 0 1280 1240" enable-background="new 0 0 1280 1240" xml:space="preserve">
<g>
	<polygon fill="#8A46AE" points="520,40 560,40 560,0 520,0 480,0 480,40 	"/>
	<polygon fill="#3E31A2" points="600,40 640,40 640,0 600,0 560,0 560,40 	"/>
	<polygon fill="#8A46AE" points="680,40 720,40 720,0 680,0 640,0 640,40 	"/>
	<polygon fill="#3E31A2" points="760,40 800,40 800,80 800,120 840,120 880,120 880,80 880,40 880,0 840,0 800,0 760,0 720,0 720,40 	"/>
	<polygon fill="#3E31A2" points="400,80 400,40 440,40 480,40 480,0 440,0 400,0 360,0 320,0 320,40 320,80 360,80 	"/>
	<polygon fill="#8A46AE" points="760,80 800,80 800,40 760,40 720,40 720,80 	"/>
	<polygon fill="#3E31A2" points="320,120 320,80 280,80 240,80 240,120 280,120 	"/>
	<polygon fill="#8A46AE" points="360,120 400,120 400,80 360,80 320,80 320,120 	"/>
	<polygon fill="#7C70DA" points="480,120 480,80 520,80 560,80 600,80 640,80 680,80 720,80 720,40 680,40 640,40 600,40 560,40 520,40 480,40 440,40 400,40 400,80 400,120 440,120 	"/>
	<polygon fill="#3E31A2" points="520,80 480,80 480,120 520,120 560,120 560,80 	"/>
	<polygon fill="#8A46AE" points="640,120 640,80 600,80 560,80 560,120 600,120 	"/>
	<polygon fill="#3E31A2" points="680,120 720,120 720,80 680,80 640,80 640,120 	"/>
	<polygon fill="#000000" points="720,80 720,120 760,120 800,120 800,80 760,80 	"/>
	<polygon fill="#3E31A2" points="160,160 200,160 240,160 240,120 200,120 160,120 120,120 80,120 80,160 120,160 	"/>
	<polygon fill="#8A46AE" points="280,160 320,160 320,120 280,120 240,120 240,160 	"/>
	<polygon fill="#7C70DA" points="400,160 400,120 360,120 320,120 320,160 360,160 	"/>
	<polygon fill="#8A46AE" points="440,160 480,160 520,160 560,160 560,120 520,120 480,120 440,120 400,120 400,160 	"/>
	<polygon fill="#3E31A2" points="640,160 640,120 600,120 560,120 560,160 600,160 	"/>
	<polygon fill="#3E31A2" points="720,120 720,160 760,160 800,160 800,120 760,120 	"/>
	<polygon fill="#8A46AE" points="800,120 800,160 840,160 880,160 880,120 840,120 	"/>
	<polygon fill="#8A46AE" points="400,200 400,160 360,160 320,160 320,200 360,200 	"/>
	<polygon fill="#8A46AE" points="640,200 640,240 680,240 720,240 720,200 720,160 720,120 680,120 640,120 640,160 600,160 560,160 560,200 600,200 	"/>
	<polygon fill="#000000" points="720,160 720,200 760,200 800,200 800,160 760,160 	"/>
	<polygon fill="#3E31A2" points="800,160 800,200 840,200 880,200 880,160 840,160 	"/>
	<polygon fill="#7C70DA" points="80,240 80,200 120,200 160,200 200,200 240,200 280,200 320,200 320,160 280,160 240,160 200,160 160,160 120,160 80,160 40,160 0,160 0,200 0,240 40,240 	"/>
	<polygon fill="#8A46AE" points="120,200 80,200 80,240 120,240 160,240 160,200 	"/>
	<polygon fill="#3E31A2" points="200,200 160,200 160,240 200,240 240,240 240,200 	"/>
	<polygon fill="#8A46AE" points="280,200 240,200 240,240 280,240 320,240 320,200 	"/>
	<polygon fill="#3E31A2" points="360,200 320,200 320,240 360,240 400,240 400,200 	"/>
	<polygon fill="#8A46AE" points="520,200 480,200 480,240 520,240 560,240 560,200 	"/>
	<polygon fill="#7C70DA" points="640,240 640,200 600,200 560,200 560,240 600,240 	"/>
	<polygon fill="#3E31A2" points="720,200 720,240 760,240 800,240 800,200 760,200 	"/>
	<polygon fill="#8A46AE" points="800,200 800,240 840,240 880,240 880,200 840,200 	"/>
	<polygon fill="#8A46AE" points="40,240 0,240 0,280 40,280 80,280 80,240 	"/>
	<polygon fill="#3E31A2" points="120,240 80,240 80,280 120,280 160,280 160,240 	"/>
	<polygon fill="#000000" points="200,240 160,240 160,280 200,280 240,280 240,240 	"/>
	<polygon fill="#3E31A2" points="280,240 240,240 240,280 280,280 320,280 320,240 	"/>
	<polygon fill="#000000" points="400,280 400,240 360,240 320,240 320,280 360,280 	"/>
	<polygon fill="#8A46AE" points="600,240 560,240 560,280 600,280 640,280 640,240 	"/>
	<polygon fill="#7C70DA" points="720,280 720,240 680,240 640,240 640,280 680,280 	"/>
	<polygon fill="#000000" points="720,240 720,280 760,280 800,280 800,240 760,240 	"/>
	<polygon fill="#7C70DA" points="800,240 800,280 840,280 880,280 880,240 840,240 	"/>
	<polygon fill="#3E31A2" points="400,320 400,280 360,280 320,280 320,320 360,320 	"/>
	<polygon fill="#8A46AE" points="480,280 480,320 520,320 560,320 560,280 520,280 	"/>
	<polygon fill="#8A46AE" points="680,280 640,280 640,320 680,320 720,320 720,280 	"/>
	<polygon fill="#3E31A2" points="720,280 720,320 720,360 720,400 760,400 800,400 800,360 800,320 800,280 760,280 	"/>
	<polygon fill="#8A46AE" points="800,280 800,320 840,320 880,320 880,280 840,280 	"/>
	<polygon fill="#000000" points="400,360 400,320 360,320 320,320 320,360 360,360 	"/>
	<polygon fill="#7C70DA" points="800,320 800,360 840,360 880,360 880,320 840,320 	"/>
	<polygon fill="#3E31A2" points="400,400 400,360 360,360 320,360 320,400 360,400 	"/>
	<polygon fill="#8A46AE" points="680,360 640,360 640,400 680,400 720,400 720,360 	"/>
	<polygon fill="#8A46AE" points="800,360 800,400 840,400 880,400 880,360 840,360 	"/>
	<polygon fill="#000000" points="400,440 400,400 360,400 320,400 320,440 360,440 	"/>
	<polygon fill="#8A46AE" points="560,440 560,400 520,400 480,400 480,440 520,440 	"/>
	<polygon fill="#8A46AE" points="720,400 720,440 760,440 800,440 800,400 760,400 	"/>
	<polygon fill="#7C70DA" points="800,400 800,440 840,440 880,440 880,400 840,400 	"/>
	<polygon fill="#3E31A2" points="560,480 560,440 520,440 480,440 480,480 520,480 	"/>
	<polygon fill="#8A46AE" points="600,480 640,480 640,440 600,440 560,440 560,480 	"/>
	<polygon fill="#3E31A2" points="720,440 720,480 760,480 800,480 800,440 760,440 	"/>
	<polygon fill="#8A46AE" points="800,440 800,480 840,480 880,480 880,440 840,440 	"/>
	<polygon fill="#7C70DA" points="480,520 480,480 480,440 480,400 520,400 560,400 560,440 600,440 640,440 640,480 640,520 680,520 720,520 720,480 720,440 720,400 680,400 640,400 640,360 680,360 720,360 720,320 680,320 640,320 640,280 600,280 560,280 560,320 520,320 480,320 480,280 520,280 560,280 560,240 520,240 480,240 480,200 520,200 560,200 560,160 520,160 480,160 440,160 400,160 400,200 400,240 400,280 400,320 400,360 400,400 400,440 400,480 400,520 440,520 	"/>
	<polygon fill="#3E31A2" points="560,480 560,520 560,560 600,560 640,560 640,520 640,480 600,480 	"/>
	<polygon fill="#8A46AE" points="720,480 720,520 760,520 800,520 800,480 760,480 	"/>
	<polygon fill="#7C70DA" points="800,480 800,520 800,560 800,600 840,600 880,600 880,560 880,520 880,480 840,480 	"/>
	<polygon fill="#8A46AE" points="480,560 480,520 440,520 400,520 400,560 440,560 	"/>
	<polygon fill="#000000" points="560,560 560,520 560,480 520,480 480,480 480,520 480,560 520,560 	"/>
	<polygon fill="#8A46AE" points="680,520 640,520 640,560 680,560 720,560 720,520 	"/>
	<polygon fill="#3E31A2" points="720,520 720,560 760,560 800,560 800,520 760,520 	"/>
	<polygon fill="#7C70DA" points="480,600 480,560 440,560 400,560 400,600 440,600 	"/>
	<polygon fill="#3E31A2" points="560,600 560,560 520,560 480,560 480,600 520,600 	"/>
	<polygon fill="#000000" points="600,560 560,560 560,600 600,600 640,600 640,560 	"/>
	<polygon fill="#3E31A2" points="640,560 640,600 680,600 720,600 720,560 680,560 	"/>
	<polygon fill="#8A46AE" points="480,640 480,600 440,600 400,600 400,640 440,640 	"/>
	<polygon fill="#000000" points="560,640 560,600 520,600 480,600 480,640 520,640 	"/>
	<polygon fill="#3E31A2" points="560,600 560,640 600,640 640,640 640,600 600,600 	"/>
	<polygon fill="#8A46AE" points="800,600 800,640 840,640 880,640 880,600 840,600 	"/>
	<polygon fill="#7C70DA" points="480,680 480,640 440,640 400,640 400,680 440,680 	"/>
	<polygon fill="#000000" points="560,640 560,680 600,680 640,680 640,640 600,640 	"/>
	<polygon fill="#3E31A2" points="680,680 720,680 720,640 680,640 640,640 640,680 	"/>
	<polygon fill="#3E31A2" points="800,640 800,680 840,680 880,680 880,640 840,640 	"/>
	<polygon fill="#3E31A2" points="400,720 400,680 400,640 400,600 400,560 400,520 400,480 400,440 360,440 320,440 320,480 320,520 320,560 320,600 320,640 320,680 320,720 360,720 	"/>
	<polygon fill="#8A46AE" points="480,720 480,680 440,680 400,680 400,720 440,720 	"/>
	<polygon fill="#3E31A2" points="560,680 560,640 520,640 480,640 480,680 480,720 480,760 480,800 520,800 560,800 560,760 600,760 640,760 640,800 680,800 720,800 720,760 720,720 680,720 640,720 640,680 600,680 	"/>
	<polygon fill="#000000" points="800,680 800,640 800,600 800,560 760,560 720,560 720,600 680,600 640,600 640,640 680,640 720,640 720,680 680,680 640,680 640,720 680,720 720,720 720,760 720,800 720,840 720,880 760,880 800,880 800,840 800,800 800,760 800,720 840,720 880,720 880,680 840,680 	"/>
	<polygon fill="#8A46AE" points="400,760 400,720 360,720 320,720 320,760 360,760 	"/>
	<polygon fill="#7C70DA" points="480,760 480,720 440,720 400,720 400,760 440,760 	"/>
	<polygon fill="#3E31A2" points="800,720 800,760 800,800 840,800 880,800 880,760 880,720 840,720 	"/>
	<polygon fill="#3E31A2" points="400,800 400,760 360,760 320,760 320,800 360,800 	"/>
	<polygon fill="#8A46AE" points="480,800 480,760 440,760 400,760 400,800 440,800 	"/>
	<polygon fill="#8A46AE" points="640,800 640,760 600,760 560,760 560,800 600,800 	"/>
	<polygon fill="#8A46AE" points="400,840 400,800 360,800 320,800 320,840 360,840 	"/>
	<polygon fill="#8A46AE" points="560,840 560,800 520,800 480,800 480,840 520,840 	"/>
	<polygon fill="#3E31A2" points="600,840 640,840 640,800 600,800 560,800 560,840 	"/>
	<polygon fill="#8A46AE" points="640,800 640,840 680,840 720,840 720,800 680,800 	"/>
	<polygon fill="#8A46AE" points="800,800 800,840 840,840 880,840 880,800 840,800 	"/>
	<polygon fill="#3E31A2" points="400,880 400,840 360,840 320,840 320,880 360,880 	"/>
	<polygon fill="#3E31A2" points="560,880 560,840 520,840 480,840 480,880 520,880 	"/>
	<polygon fill="#8A46AE" points="560,840 560,880 600,880 640,880 640,840 600,840 	"/>
	<polygon fill="#3E31A2" points="640,840 640,880 680,880 720,880 720,840 680,840 	"/>
	<polygon fill="#3E31A2" points="800,840 800,880 840,880 880,880 880,840 840,840 	"/>
	<polygon fill="#8A46AE" points="400,920 400,880 360,880 320,880 320,920 360,920 	"/>
	<polygon fill="#3E31A2" points="560,880 560,920 600,920 640,920 640,880 600,880 	"/>
	<polygon fill="#8A46AE" points="640,880 640,920 600,920 560,920 560,880 520,880 480,880 480,920 480,960 520,960 560,960 560,1000 600,1000 640,1000 640,960 680,960 720,960 720,920 720,880 680,880 	"/>
	<polygon fill="#3E31A2" points="760,920 800,920 800,880 760,880 720,880 720,920 	"/>
	<polygon fill="#8A46AE" points="800,880 800,920 840,920 880,920 880,880 840,880 	"/>
	<polygon fill="#3E31A2" points="400,960 400,920 360,920 320,920 320,960 360,960 	"/>
	<polygon fill="#000000" points="720,920 720,960 760,960 800,960 800,920 760,920 	"/>
	<polygon fill="#7C70DA" points="800,920 800,960 840,960 880,960 880,920 840,920 	"/>
	<polygon fill="#8A46AE" points="400,1000 400,960 360,960 320,960 320,1000 360,1000 	"/>
	<polygon fill="#7C70DA" points="720,1000 720,960 680,960 640,960 640,1000 680,1000 	"/>
	<polygon fill="#3E31A2" points="720,960 720,1000 720,1040 720,1080 720,1120 760,1120 800,1120 800,1080 800,1040 800,1000 800,960 760,960 	"/>
	<polygon fill="#8A46AE" points="800,960 800,1000 840,1000 880,1000 880,960 840,960 	"/>
	<polygon fill="#8A46AE" points="520,1000 480,1000 480,1040 520,1040 560,1040 560,1000 	"/>
	<polygon fill="#7C70DA" points="640,1040 640,1000 600,1000 560,1000 560,1040 600,1040 	"/>
	<polygon fill="#8A46AE" points="680,1040 720,1040 720,1000 680,1000 640,1000 640,1040 	"/>
	<polygon fill="#7C70DA" points="800,1000 800,1040 840,1040 880,1040 880,1000 840,1000 	"/>
	<polygon fill="#8A46AE" points="200,1080 240,1080 240,1040 200,1040 160,1040 160,1080 	"/>
	<polygon fill="#3E31A2" points="280,1080 320,1080 360,1080 400,1080 400,1040 400,1000 360,1000 320,1000 320,1040 280,1040 240,1040 240,1080 	"/>
	<polygon fill="#8A46AE" points="600,1040 560,1040 560,1080 600,1080 640,1080 640,1040 	"/>
	<polygon fill="#7C70DA" points="720,1080 720,1040 680,1040 640,1040 640,1080 680,1080 	"/>
	<polygon fill="#8A46AE" points="800,1040 800,1080 840,1080 880,1080 880,1040 840,1040 	"/>
	<polygon fill="#3E31A2" points="920,1080 960,1080 960,1040 920,1040 880,1040 880,1080 	"/>
	<polygon fill="#8A46AE" points="1000,1080 1040,1080 1040,1040 1000,1040 960,1040 960,1080 	"/>
	<polygon fill="#3E31A2" points="1160,1040 1120,1040 1080,1040 1040,1040 1040,1080 1080,1080 1120,1080 1120,1120 1160,1120 1200,1120 1200,1080 1200,1040 	"/>
	<polygon fill="#3E31A2" points="80,1120 80,1080 120,1080 160,1080 160,1040 120,1040 80,1040 40,1040 0,1040 0,1080 0,1120 40,1120 	"/>
	<polygon fill="#8A46AE" points="720,1120 720,1080 680,1080 640,1080 640,1120 680,1120 	"/>
	<polygon fill="#7C70DA" points="960,1080 920,1080 880,1080 840,1080 800,1080 800,1120 840,1120 880,1120 920,1120 960,1120 1000,1120 1040,1120 1040,1080 1000,1080 	"/>
	<polygon fill="#8A46AE" points="1080,1120 1120,1120 1120,1080 1080,1080 1040,1080 1040,1120 	"/>
	<polygon fill="#8A46AE" points="80,1160 80,1120 40,1120 0,1120 0,1160 40,1160 	"/>
	<polygon fill="#7C70DA" points="160,1120 200,1120 240,1120 280,1120 320,1120 320,1160 360,1160 400,1160 400,1120 440,1120 480,1120 480,1160 520,1160 560,1160 560,1120 600,1120 640,1120 640,1080 600,1080 560,1080 560,1040 520,1040 480,1040 480,1000 520,1000 560,1000 560,960 520,960 480,960 480,920 480,880 480,840 480,800 440,800 400,800 400,840 400,880 400,920 400,960 400,1000 400,1040 400,1080 360,1080 320,1080 280,1080 240,1080 200,1080 160,1080 120,1080 80,1080 80,1120 80,1160 80,1200 120,1200 160,1200 160,1160 	"/>
	<polygon fill="#8A46AE" points="280,1120 240,1120 200,1120 160,1120 160,1160 200,1160 240,1160 280,1160 320,1160 320,1120 	"/>
	<polygon fill="#8A46AE" points="440,1120 400,1120 400,1160 440,1160 480,1160 480,1120 	"/>
	<polygon fill="#8A46AE" points="600,1120 560,1120 560,1160 600,1160 640,1160 640,1120 	"/>
	<polygon fill="#7C70DA" points="680,1120 640,1120 640,1160 680,1160 720,1160 720,1120 	"/>
	<polygon fill="#8A46AE" points="720,1120 720,1160 760,1160 800,1160 840,1160 880,1160 880,1120 840,1120 800,1120 760,1120 	"/>
	<polygon fill="#3E31A2" points="920,1160 960,1160 960,1120 920,1120 880,1120 880,1160 	"/>
	<polygon fill="#8A46AE" points="1000,1160 1040,1160 1040,1120 1000,1120 960,1120 960,1160 	"/>
	<polygon fill="#3E31A2" points="1040,1120 1040,1160 1080,1160 1120,1160 1120,1120 1080,1120 	"/>
	<polygon fill="#8A46AE" points="1120,1120 1120,1160 1160,1160 1200,1160 1200,1120 1160,1120 	"/>
	<polygon fill="#3E31A2" points="80,1200 80,1160 40,1160 0,1160 0,1200 40,1200 	"/>
	<polygon fill="#3E31A2" points="200,1160 160,1160 160,1200 200,1200 240,1200 240,1160 	"/>
	<polygon fill="#000000" points="280,1160 240,1160 240,1200 280,1200 320,1200 320,1160 	"/>
	<polygon fill="#3E31A2" points="440,1160 400,1160 360,1160 320,1160 320,1200 360,1200 400,1200 440,1200 480,1200 480,1160 	"/>
	<polygon fill="#8A46AE" points="520,1160 480,1160 480,1200 520,1200 560,1200 560,1160 	"/>
	<polygon fill="#3E31A2" points="600,1160 560,1160 560,1200 600,1200 640,1200 640,1160 	"/>
	<polygon fill="#8A46AE" points="680,1160 640,1160 640,1200 680,1200 720,1200 720,1160 	"/>
	<polygon fill="#3E31A2" points="840,1160 800,1160 760,1160 720,1160 720,1200 760,1200 800,1200 840,1200 880,1200 880,1160 	"/>
	<polygon fill="#000000" points="920,1160 880,1160 880,1200 920,1200 960,1200 960,1160 	"/>
	<polygon fill="#3E31A2" points="1000,1160 960,1160 960,1200 1000,1200 1040,1200 1040,1160 	"/>
	<polygon fill="#000000" points="1040,1160 1040,1200 1080,1200 1120,1200 1120,1160 1080,1160 	"/>
	<polygon fill="#7C70DA" points="1120,1160 1120,1200 1080,1200 1040,1200 1000,1200 960,1200 960,1240 1000,1240 1040,1240 1080,1240 1120,1240 1160,1240 1200,1240 1200,1200 1200,1160 1160,1160 	"/>
	<polygon fill="#8A46AE" points="120,1200 80,1200 40,1200 0,1200 0,1240 40,1240 80,1240 120,1240 160,1240 160,1200 	"/>
	<polygon fill="#7C70DA" points="200,1200 160,1200 160,1240 200,1240 240,1240 240,1200 	"/>
	<polygon fill="#8A46AE" points="280,1200 240,1200 240,1240 280,1240 320,1240 320,1200 	"/>
	<polygon fill="#7C70DA" points="360,1200 320,1200 320,1240 360,1240 400,1240 400,1200 	"/>
	<polygon fill="#8A46AE" points="440,1200 400,1200 400,1240 440,1240 480,1240 480,1200 	"/>
	<polygon fill="#7C70DA" points="680,1200 640,1200 600,1200 560,1200 520,1200 480,1200 480,1240 520,1240 560,1240 600,1240 640,1240 680,1240 720,1240 720,1200 	"/>
	<polygon fill="#8A46AE" points="760,1200 720,1200 720,1240 760,1240 800,1240 800,1200 	"/>
	<polygon fill="#7C70DA" points="840,1200 800,1200 800,1240 840,1240 880,1240 880,1200 	"/>
	<polygon fill="#8A46AE" points="920,1200 880,1200 880,1240 920,1240 960,1240 960,1200 	"/>
</g>
</svg>
