<?xml version="1.0" encoding="utf-8"?>
<!-- Generator: Adobe Illustrator 15.0.0, SVG Export Plug-In . SVG Version: 6.00 Build 0)  -->
<!DOCTYPE svg PUBLIC "-//W3C//DTD SVG 1.1//EN" "http://www.w3.org/Graphics/SVG/1.1/DTD/svg11.dtd">
<svg version="1.1" id="Layer_1" xmlns:ev="http://www.w3.org/2001/xml-events"
	 xmlns="http://www.w3.org/2000/svg" xmlns:xlink="http://www.w3.org/1999/xlink" x="0px" y="0px" width="640px" height="1240px"
	 viewBox="0 0 640 1240" enable-background="new 0 0 640 1240" xml:space="preserve">
<g>
	<polygon fill="#3E31A2" points="80,1080 80,1040 120,1040 160,1040 160,1000 120,1000 80,1000 40,1000 0,1000 0,1040 0,1080 40,1080 	"/>
	<polygon fill="#3E31A2" points="400,1080 400,1120 400,1160 360,1160 320,1160 320,1200 360,1200 400,1200 440,1200 480,1200 480,1160 480,1120 480,1080 440,1080 	"/>
	<polygon fill="#3E31A2" points="200,1160 160,1160 160,1200 200,1200 240,1200 240,1160 	"/>
</g>
</svg>
