<?xml version="1.0" encoding="utf-8"?>
<!-- Generator: Adobe Illustrator 15.0.0, SVG Export Plug-In . SVG Version: 6.00 Build 0)  -->
<!DOCTYPE svg PUBLIC "-//W3C//DTD SVG 1.1//EN" "http://www.w3.org/Graphics/SVG/1.1/DTD/svg11.dtd">
<svg version="1.1" id="Layer_1" xmlns:ev="http://www.w3.org/2001/xml-events"
	 xmlns="http://www.w3.org/2000/svg" xmlns:xlink="http://www.w3.org/1999/xlink" x="0px" y="0px" width="2560px" height="1240px"
	 viewBox="0 0 2560 1240" enable-background="new 0 0 2560 1240" xml:space="preserve">
<g>
	<polygon fill="#3E31A2" points="280,40 320,40 320,0 280,0 240,0 240,40 	"/>
	<polygon fill="#3E31A2" points="440,40 480,40 480,80 480,120 520,120 560,120 560,80 560,40 560,0 520,0 480,0 440,0 400,0 400,40 	"/>
	<polygon fill="#3E31A2" points="1240,40 1280,40 1280,0 1240,0 1200,0 1200,40 	"/>
	<polygon fill="#3E31A2" points="1400,40 1440,40 1440,80 1440,120 1480,120 1520,120 1520,80 1520,40 1520,0 1480,0 1440,0 1400,0 1360,0 1360,40 	"/>
	<polygon fill="#3E31A2" points="2440,0 2400,0 2360,0 2320,0 2280,0 2240,0 2200,0 2160,0 2120,0 2080,0 2040,0 2000,0 1960,0 1920,0 1920,40 1920,80 1920,120 1920,160 1920,200 1960,200 2000,200 2000,160 2000,120 2000,80 2000,40 2040,40 2080,40 2120,40 2160,40 2200,40 2240,40 2280,40 2320,40 2360,40 2400,40 2400,80 2400,120 2400,160 2400,200 2440,200 2480,200 2480,160 2480,120 2480,80 2480,40 2480,0 	"/>
	<polygon fill="#3E31A2" points="80,120 80,80 80,40 120,40 160,40 160,0 120,0 80,0 40,0 0,0 0,40 0,80 0,120 40,120 	"/>
	<polygon fill="#3E31A2" points="240,120 240,80 200,80 160,80 160,120 200,120 	"/>
	<polygon fill="#3E31A2" points="360,120 400,120 400,80 360,80 320,80 320,120 	"/>
	<polygon fill="#3E31A2" points="1040,120 1040,80 1040,40 1080,40 1120,40 1120,0 1080,0 1040,0 1000,0 960,0 960,40 960,80 960,120 1000,120 	"/>
	<polygon fill="#3E31A2" points="1200,120 1200,80 1160,80 1120,80 1120,120 1160,120 	"/>
	<polygon fill="#3E31A2" points="1320,120 1360,120 1360,80 1320,80 1280,80 1280,120 	"/>
	<polygon fill="#3E31A2" points="2200,120 2240,120 2240,80 2200,80 2160,80 2160,120 	"/>
	<polygon fill="#3E31A2" points="320,160 320,120 280,120 240,120 240,160 280,160 	"/>
	<polygon fill="#3E31A2" points="400,120 400,160 440,160 480,160 480,120 440,120 	"/>
	<polygon fill="#3E31A2" points="1280,160 1280,120 1240,120 1200,120 1200,160 1240,160 	"/>
	<polygon fill="#3E31A2" points="1360,120 1360,160 1400,160 1440,160 1440,120 1400,120 	"/>
	<polygon fill="#3E31A2" points="2280,160 2320,160 2320,120 2280,120 2240,120 2240,160 	"/>
	<polygon fill="#3E31A2" points="480,160 480,200 520,200 560,200 560,160 520,160 	"/>
	<polygon fill="#3E31A2" points="1440,160 1440,200 1480,200 1520,200 1520,160 1480,160 	"/>
	<polygon fill="#3E31A2" points="400,200 400,240 440,240 480,240 480,200 440,200 	"/>
	<polygon fill="#3E31A2" points="1360,200 1360,240 1400,240 1440,240 1440,200 1400,200 	"/>
	<polygon fill="#3E31A2" points="2000,280 2000,240 1960,240 1920,240 1920,280 1960,280 	"/>
	<polygon fill="#3E31A2" points="2160,280 2160,240 2120,240 2080,240 2080,280 2120,280 	"/>
	<polygon fill="#3E31A2" points="2400,240 2400,280 2440,280 2480,280 2480,240 2440,240 	"/>
	<polygon fill="#3E31A2" points="2320,280 2320,240 2320,200 2280,200 2240,200 2240,160 2200,160 2160,160 2160,120 2120,120 2080,120 2080,160 2080,200 2120,200 2160,200 2160,240 2200,240 2240,240 2240,280 2200,280 2160,280 2160,320 2200,320 2240,320 2240,360 2280,360 2320,360 2320,320 2360,320 2400,320 2400,280 2360,280 	"/>
	<polygon fill="#3E31A2" points="2160,360 2160,320 2120,320 2080,320 2080,360 2120,360 	"/>
	<polygon fill="#3E31A2" points="2400,320 2400,360 2440,360 2480,360 2480,320 2440,320 	"/>
	<polygon fill="#3E31A2" points="480,400 480,360 480,320 480,280 440,280 400,280 400,320 400,360 400,400 440,400 	"/>
	<polygon fill="#3E31A2" points="1440,400 1440,360 1440,320 1440,280 1400,280 1360,280 1360,320 1360,360 1360,400 1400,400 	"/>
	<polygon fill="#3E31A2" points="2160,360 2160,400 2200,400 2240,400 2240,360 2200,360 	"/>
	<polygon fill="#3E31A2" points="2320,360 2320,400 2360,400 2400,400 2400,360 2360,360 	"/>
	<polygon fill="#3E31A2" points="2160,440 2160,400 2120,400 2080,400 2080,440 2120,440 	"/>
	<polygon fill="#3E31A2" points="2240,400 2240,440 2280,440 2320,440 2320,400 2280,400 	"/>
	<polygon fill="#3E31A2" points="240,480 240,440 200,440 160,440 160,480 200,480 	"/>
	<polygon fill="#3E31A2" points="480,480 480,440 440,440 400,440 400,480 440,480 	"/>
	<polygon fill="#3E31A2" points="1200,480 1200,440 1160,440 1120,440 1120,480 1160,480 	"/>
	<polygon fill="#3E31A2" points="1440,480 1440,440 1400,440 1360,440 1360,480 1400,480 	"/>
	<polygon fill="#3E31A2" points="2320,440 2320,480 2320,520 2320,560 2360,560 2400,560 2400,520 2400,480 2400,440 2360,440 	"/>
	<polygon fill="#3E31A2" points="80,520 80,480 80,440 80,400 80,360 40,360 0,360 0,400 0,440 0,480 0,520 40,520 	"/>
	<polygon fill="#3E31A2" points="240,480 240,520 240,560 280,560 320,560 320,520 320,480 280,480 	"/>
	<polygon fill="#3E31A2" points="1040,520 1040,480 1040,440 1040,400 1040,360 1000,360 960,360 960,400 960,440 960,480 960,520 1000,520 	"/>
	<polygon fill="#3E31A2" points="1200,480 1200,520 1200,560 1240,560 1280,560 1280,520 1280,480 1240,480 	"/>
	<polygon fill="#3E31A2" points="440,560 480,560 480,520 440,520 400,520 400,560 	"/>
	<polygon fill="#3E31A2" points="1400,560 1440,560 1440,520 1400,520 1360,520 1360,560 	"/>
	<polygon fill="#3E31A2" points="240,600 240,560 200,560 160,560 160,600 200,600 	"/>
	<polygon fill="#3E31A2" points="320,560 320,600 360,600 400,600 400,560 360,560 	"/>
	<polygon fill="#3E31A2" points="1200,600 1200,560 1160,560 1120,560 1120,600 1160,600 	"/>
	<polygon fill="#3E31A2" points="1280,560 1280,600 1320,600 1360,600 1360,560 1320,560 	"/>
	<polygon fill="#3E31A2" points="240,600 240,640 280,640 320,640 320,600 280,600 	"/>
	<polygon fill="#3E31A2" points="1200,600 1200,640 1240,640 1280,640 1280,600 1240,600 	"/>
	<polygon fill="#3E31A2" points="2320,600 2320,640 2360,640 2400,640 2400,600 2360,600 	"/>
	<polygon fill="#3E31A2" points="360,680 400,680 400,640 360,640 320,640 320,680 	"/>
	<polygon fill="#3E31A2" points="480,640 480,680 520,680 560,680 560,640 520,640 	"/>
	<polygon fill="#3E31A2" points="1320,680 1360,680 1360,640 1320,640 1280,640 1280,680 	"/>
	<polygon fill="#3E31A2" points="1440,640 1440,680 1480,680 1520,680 1520,640 1480,640 	"/>
	<polygon fill="#3E31A2" points="80,720 80,680 80,640 80,600 80,560 40,560 0,560 0,600 0,640 0,680 0,720 40,720 	"/>
	<polygon fill="#3E31A2" points="1040,720 1040,680 1040,640 1040,600 1040,560 1000,560 960,560 960,600 960,640 960,680 960,720 1000,720 	"/>
	<polygon fill="#3E31A2" points="480,720 480,760 480,800 520,800 560,800 560,760 560,720 520,720 	"/>
	<polygon fill="#3E31A2" points="1440,720 1440,760 1440,800 1480,800 1520,800 1520,760 1520,720 1480,720 	"/>
	<polygon fill="#3E31A2" points="2000,760 2000,720 1960,720 1920,720 1920,760 1960,760 	"/>
	<polygon fill="#3E31A2" points="2320,720 2320,760 2360,760 2400,760 2400,720 2360,720 	"/>
	<polygon fill="#3E31A2" points="80,800 80,760 40,760 0,760 0,800 40,800 	"/>
	<polygon fill="#3E31A2" points="240,800 240,760 280,760 320,760 320,800 360,800 400,800 400,760 400,720 360,720 320,720 320,680 280,680 240,680 240,640 200,640 160,640 160,680 160,720 160,760 160,800 200,800 	"/>
	<polygon fill="#3E31A2" points="1040,800 1040,760 1000,760 960,760 960,800 1000,800 	"/>
	<polygon fill="#3E31A2" points="1200,800 1200,760 1240,760 1280,760 1280,800 1320,800 1360,800 1360,760 1360,720 1320,720 1280,720 1280,680 1240,680 1200,680 1200,640 1160,640 1120,640 1120,680 1120,720 1120,760 1120,800 1160,800 	"/>
	<polygon fill="#3E31A2" points="2200,800 2240,800 2240,760 2200,760 2160,760 2160,800 	"/>
	<polygon fill="#3E31A2" points="320,840 320,800 280,800 240,800 240,840 280,840 	"/>
	<polygon fill="#3E31A2" points="440,840 480,840 480,800 440,800 400,800 400,840 	"/>
	<polygon fill="#3E31A2" points="1280,840 1280,800 1240,800 1200,800 1200,840 1240,840 	"/>
	<polygon fill="#3E31A2" points="1400,840 1440,840 1440,800 1400,800 1360,800 1360,840 	"/>
	<polygon fill="#3E31A2" points="2000,840 2000,800 1960,800 1920,800 1920,840 1960,840 	"/>
	<polygon fill="#3E31A2" points="2080,800 2080,840 2120,840 2160,840 2160,800 2120,800 	"/>
	<polygon fill="#3E31A2" points="2240,800 2240,840 2280,840 2320,840 2320,800 2280,800 	"/>
	<polygon fill="#3E31A2" points="2400,800 2400,840 2440,840 2480,840 2480,800 2440,800 	"/>
	<polygon fill="#3E31A2" points="80,880 80,840 40,840 0,840 0,880 40,880 	"/>
	<polygon fill="#3E31A2" points="240,880 240,840 200,840 160,840 160,880 200,880 	"/>
	<polygon fill="#3E31A2" points="360,840 320,840 320,880 360,880 400,880 400,840 	"/>
	<polygon fill="#3E31A2" points="480,840 480,880 520,880 560,880 560,840 520,840 	"/>
	<polygon fill="#3E31A2" points="1040,880 1040,840 1000,840 960,840 960,880 1000,880 	"/>
	<polygon fill="#3E31A2" points="1200,880 1200,840 1160,840 1120,840 1120,880 1160,880 	"/>
	<polygon fill="#3E31A2" points="1320,840 1280,840 1280,880 1320,880 1360,880 1360,840 	"/>
	<polygon fill="#3E31A2" points="1440,840 1440,880 1480,880 1520,880 1520,840 1480,840 	"/>
	<polygon fill="#3E31A2" points="2160,840 2160,880 2200,880 2240,880 2240,840 2200,840 	"/>
	<polygon fill="#3E31A2" points="240,880 240,920 280,920 320,920 320,880 280,880 	"/>
	<polygon fill="#3E31A2" points="400,880 400,920 400,960 440,960 480,960 480,920 480,880 440,880 	"/>
	<polygon fill="#3E31A2" points="1200,880 1200,920 1240,920 1280,920 1280,880 1240,880 	"/>
	<polygon fill="#3E31A2" points="1360,880 1360,920 1360,960 1400,960 1440,960 1440,920 1440,880 1400,880 	"/>
	<polygon fill="#3E31A2" points="2400,880 2400,920 2400,960 2440,960 2480,960 2480,920 2480,880 2440,880 	"/>
	<polygon fill="#3E31A2" points="1040,960 1040,920 1000,920 960,920 960,960 1000,960 	"/>
	<polygon fill="#3E31A2" points="2000,960 2000,920 2000,880 1960,880 1920,880 1920,920 1920,960 1960,960 	"/>
	<polygon fill="#3E31A2" points="2200,920 2160,920 2160,880 2120,880 2080,880 2080,920 2080,960 2120,960 2160,960 2160,1000 2200,1000 2240,1000 2240,960 2280,960 2320,960 2320,920 2320,880 2280,880 2240,880 2240,920 	"/>
	<polygon fill="#3E31A2" points="400,1000 400,1040 440,1040 480,1040 480,1000 440,1000 	"/>
	<polygon fill="#3E31A2" points="1360,1000 1360,1040 1400,1040 1440,1040 1440,1000 1400,1000 	"/>
	<polygon fill="#3E31A2" points="2000,1040 2000,1000 1960,1000 1920,1000 1920,1040 1960,1040 	"/>
	<polygon fill="#3E31A2" points="2160,1040 2160,1000 2120,1000 2080,1000 2080,1040 2120,1040 	"/>
	<polygon fill="#3E31A2" points="2240,1000 2240,1040 2280,1040 2320,1040 2320,1000 2280,1000 	"/>
	<polygon fill="#3E31A2" points="2400,1000 2400,1040 2440,1040 2480,1040 2480,1000 2440,1000 	"/>
	<polygon fill="#3E31A2" points="920,1080 960,1080 1000,1080 1040,1080 1040,1040 1040,1000 1000,1000 960,1000 960,1040 920,1040 880,1040 880,1080 	"/>
	<polygon fill="#3E31A2" points="1880,1080 1920,1080 1920,1040 1880,1040 1840,1040 1840,1080 	"/>
	<polygon fill="#3E31A2" points="2160,1040 2160,1080 2200,1080 2240,1080 2240,1040 2200,1040 	"/>
	<polygon fill="#3E31A2" points="2360,1080 2400,1080 2400,1040 2360,1040 2320,1040 2320,1080 	"/>
	<polygon fill="#3E31A2" points="2160,1120 2160,1080 2120,1080 2080,1080 2080,1120 2120,1120 	"/>
	<polygon fill="#3E31A2" points="2280,1120 2320,1120 2320,1080 2280,1080 2240,1080 2240,1120 	"/>
	<polygon fill="#3E31A2" points="2400,1080 2400,1120 2440,1120 2480,1120 2480,1080 2440,1080 	"/>
	<polygon fill="#3E31A2" points="2320,1120 2320,1160 2280,1160 2240,1160 2200,1160 2160,1160 2120,1160 2080,1160 2040,1160 2000,1160 1960,1160 1920,1160 1880,1160 1840,1160 1840,1200 1880,1200 1920,1200 1960,1200 2000,1200 2040,1200 2080,1200 2120,1200 2160,1200 2200,1200 2240,1200 2280,1200 2320,1200 2360,1200 2400,1200 2400,1160 2400,1120 2360,1120 	"/>
	<polygon fill="#3E31A2" points="440,1160 400,1160 400,1200 440,1200 480,1200 480,1160 	"/>
	<polygon fill="#3E31A2" points="600,1160 560,1160 560,1200 600,1200 640,1200 640,1160 	"/>
	<polygon fill="#3E31A2" points="920,1160 880,1160 840,1160 800,1160 760,1160 720,1160 720,1200 760,1200 800,1200 840,1200 880,1200 920,1200 960,1200 960,1160 	"/>
	<polygon fill="#3E31A2" points="1400,1160 1360,1160 1320,1160 1280,1160 1240,1160 1200,1160 1160,1160 1120,1160 1080,1160 1040,1160 1040,1200 1080,1200 1120,1200 1160,1200 1200,1200 1240,1200 1280,1200 1320,1200 1360,1200 1400,1200 1440,1200 1440,1160 	"/>
	<polygon fill="#3E31A2" points="1560,1160 1520,1160 1520,1200 1560,1200 1600,1200 1600,1160 	"/>
	<polygon fill="#3E31A2" points="1720,1160 1680,1160 1680,1200 1720,1200 1760,1200 1760,1160 	"/>
</g>
</svg>
