<?xml version="1.0" encoding="utf-8"?>
<!-- Generator: Adobe Illustrator 15.0.0, SVG Export Plug-In . SVG Version: 6.00 Build 0)  -->
<!DOCTYPE svg PUBLIC "-//W3C//DTD SVG 1.1//EN" "http://www.w3.org/Graphics/SVG/1.1/DTD/svg11.dtd">
<svg version="1.1" id="Layer_1" xmlns:ev="http://www.w3.org/2001/xml-events"
	 xmlns="http://www.w3.org/2000/svg" xmlns:xlink="http://www.w3.org/1999/xlink" x="0px" y="0px" width="1600px" height="1240px"
	 viewBox="0 0 1600 1240" enable-background="new 0 0 1600 1240" xml:space="preserve">
<g>
	<polygon fill="#3E31A2" points="360,40 400,40 400,0 360,0 320,0 320,40 	"/>
	<polygon fill="#3E31A2" points="520,40 560,40 600,40 640,40 680,40 720,40 760,40 800,40 840,40 880,40 880,0 840,0 800,0 760,0 720,0 680,0 640,0 600,0 560,0 520,0 480,0 480,40 	"/>
	<polygon fill="#3E31A2" points="1000,40 1040,40 1040,0 1000,0 960,0 960,40 	"/>
	<polygon fill="#3E31A2" points="1160,40 1200,40 1200,0 1160,0 1120,0 1120,40 	"/>
	<polygon fill="#3E31A2" points="1320,40 1360,40 1360,0 1320,0 1280,0 1280,40 	"/>
	<polygon fill="#3E31A2" points="1480,0 1440,0 1440,40 1480,40 1520,40 1520,0 	"/>
	<polygon fill="#3E31A2" points="80,40 120,40 160,40 200,40 240,40 240,0 200,0 160,0 120,0 80,0 40,0 0,0 0,40 0,80 0,120 40,120 80,120 80,80 	"/>
	<polygon fill="#3E31A2" points="1360,40 1360,80 1320,80 1280,80 1280,120 1280,160 1280,200 1320,200 1360,200 1360,160 1360,120 1400,120 1440,120 1440,80 1440,40 1400,40 	"/>
	<polygon fill="#3E31A2" points="200,80 160,80 160,120 200,120 240,120 240,80 	"/>
	<polygon fill="#3E31A2" points="360,80 320,80 320,120 360,120 400,120 400,80 	"/>
	<polygon fill="#3E31A2" points="680,80 640,80 600,80 560,80 520,80 480,80 480,120 520,120 560,120 600,120 640,120 680,120 720,120 720,80 	"/>
	<polygon fill="#3E31A2" points="840,80 800,80 800,120 840,120 880,120 880,80 	"/>
	<polygon fill="#3E31A2" points="1040,120 1040,80 1000,80 960,80 960,120 1000,120 	"/>
	<polygon fill="#3E31A2" points="1440,120 1440,160 1480,160 1520,160 1520,120 1480,120 	"/>
	<polygon fill="#3E31A2" points="960,240 960,200 920,200 880,200 880,240 920,240 	"/>
	<polygon fill="#3E31A2" points="1200,200 1200,240 1200,280 1240,280 1280,280 1280,240 1280,200 1240,200 	"/>
	<polygon fill="#3E31A2" points="1360,200 1360,240 1400,240 1440,240 1440,200 1400,200 	"/>
	<polygon fill="#3E31A2" points="880,320 880,280 840,280 800,280 800,320 840,320 	"/>
	<polygon fill="#3E31A2" points="1120,280 1120,320 1120,360 1160,360 1200,360 1200,320 1200,280 1160,280 	"/>
	<polygon fill="#3E31A2" points="1280,280 1280,320 1320,320 1360,320 1360,280 1320,280 	"/>
	<polygon fill="#3E31A2" points="800,400 800,360 760,360 720,360 720,400 760,400 	"/>
	<polygon fill="#3E31A2" points="1040,360 1040,400 1080,400 1120,400 1120,360 1080,360 	"/>
	<polygon fill="#3E31A2" points="1200,360 1200,400 1240,400 1280,400 1280,360 1240,360 	"/>
	<polygon fill="#3E31A2" points="720,480 720,440 680,440 640,440 640,480 680,480 	"/>
	<polygon fill="#3E31A2" points="1120,440 1120,480 1160,480 1200,480 1200,440 1160,440 	"/>
	<polygon fill="#3E31A2" points="880,480 880,520 920,520 960,520 960,480 920,480 	"/>
	<polygon fill="#3E31A2" points="640,560 640,520 600,520 560,520 560,560 600,560 	"/>
	<polygon fill="#3E31A2" points="800,520 800,560 840,560 880,560 880,520 840,520 	"/>
	<polygon fill="#3E31A2" points="1040,520 1040,560 1080,560 1120,560 1120,520 1080,520 	"/>
	<polygon fill="#3E31A2" points="720,560 720,600 760,600 800,600 800,560 760,560 	"/>
	<polygon fill="#3E31A2" points="840,640 880,640 880,600 840,600 800,600 800,640 	"/>
	<polygon fill="#3E31A2" points="960,600 960,640 1000,640 1040,640 1040,600 1000,600 	"/>
	<polygon fill="#3E31A2" points="560,680 560,640 560,600 520,600 480,600 480,640 480,680 520,680 	"/>
	<polygon fill="#3E31A2" points="760,640 720,640 680,640 640,640 640,680 680,680 720,680 760,680 800,680 800,640 	"/>
	<polygon fill="#3E31A2" points="880,640 880,680 840,680 800,680 800,720 800,760 760,760 720,760 720,800 760,800 800,800 840,800 880,800 880,760 880,720 920,720 960,720 960,680 960,640 920,640 	"/>
	<polygon fill="#3E31A2" points="480,720 480,680 440,680 400,680 400,720 440,720 	"/>
	<polygon fill="#3E31A2" points="640,720 640,680 600,680 560,680 560,720 600,720 	"/>
	<polygon fill="#3E31A2" points="680,720 640,720 640,760 680,760 720,760 720,720 	"/>
	<polygon fill="#3E31A2" points="400,800 400,760 360,760 320,760 320,800 360,800 	"/>
	<polygon fill="#3E31A2" points="640,800 640,840 680,840 720,840 720,800 680,800 	"/>
	<polygon fill="#3E31A2" points="320,880 320,840 280,840 240,840 240,880 280,880 	"/>
	<polygon fill="#3E31A2" points="560,840 560,880 560,920 600,920 640,920 640,880 640,840 600,840 	"/>
	<polygon fill="#3E31A2" points="720,840 720,880 760,880 800,880 800,840 760,840 	"/>
	<polygon fill="#3E31A2" points="240,960 240,920 200,920 160,920 160,960 200,960 	"/>
	<polygon fill="#3E31A2" points="640,920 640,960 680,960 720,960 720,920 680,920 	"/>
	<polygon fill="#3E31A2" points="160,1040 160,1000 120,1000 80,1000 80,1040 120,1040 	"/>
	<polygon fill="#3E31A2" points="560,1000 560,1040 600,1040 640,1040 640,1000 600,1000 	"/>
	<polygon fill="#3E31A2" points="920,1080 960,1080 960,1040 920,1040 880,1040 880,1080 	"/>
	<polygon fill="#3E31A2" points="1080,1080 1120,1080 1120,1040 1080,1040 1040,1040 1040,1080 	"/>
	<polygon fill="#3E31A2" points="1240,1080 1280,1080 1320,1080 1360,1080 1400,1080 1440,1080 1440,1120 1480,1120 1520,1120 1520,1080 1520,1040 1480,1040 1440,1040 1400,1040 1360,1040 1320,1040 1280,1040 1240,1040 1200,1040 1200,1080 	"/>
	<polygon fill="#3E31A2" points="280,1160 240,1160 240,1200 280,1200 320,1200 320,1160 	"/>
	<polygon fill="#3E31A2" points="560,1160 520,1160 480,1160 440,1160 400,1160 400,1200 440,1200 480,1200 520,1200 560,1200 600,1200 640,1200 640,1160 600,1160 	"/>
	<polygon fill="#3E31A2" points="760,1200 800,1200 800,1160 760,1160 720,1160 720,1200 	"/>
	<polygon fill="#3E31A2" points="920,1200 960,1200 1000,1200 1040,1200 1080,1200 1120,1200 1160,1200 1200,1200 1240,1200 1280,1200 1320,1200 1360,1200 1400,1200 1440,1200 1440,1160 1440,1120 1400,1120 1360,1120 1360,1160 1320,1160 1280,1160 1280,1120 1240,1120 1200,1120 1200,1160 1160,1160 1120,1160 1080,1160 1040,1160 1000,1160 960,1160 920,1160 880,1160 880,1200 	"/>
</g>
</svg>
