<?xml version="1.0" encoding="utf-8"?>
<!-- Generator: Adobe Illustrator 15.0.0, SVG Export Plug-In . SVG Version: 6.00 Build 0)  -->
<!DOCTYPE svg PUBLIC "-//W3C//DTD SVG 1.1//EN" "http://www.w3.org/Graphics/SVG/1.1/DTD/svg11.dtd">
<svg version="1.1" id="Layer_1" xmlns:ev="http://www.w3.org/2001/xml-events"
	 xmlns="http://www.w3.org/2000/svg" xmlns:xlink="http://www.w3.org/1999/xlink" x="0px" y="0px" width="1280px" height="1240px"
	 viewBox="0 0 1280 1240" enable-background="new 0 0 1280 1240" xml:space="preserve">
<g>
	<polygon fill="#3E31A2" points="280,80 320,80 320,40 280,40 240,40 240,80 	"/>
	<polygon fill="#3E31A2" points="480,40 440,40 400,40 400,80 440,80 480,80 480,120 480,160 520,160 560,160 560,120 560,80 560,40 520,40 	"/>
	<polygon fill="#3E31A2" points="920,80 960,80 960,40 920,40 880,40 880,80 	"/>
	<polygon fill="#3E31A2" points="1160,40 1120,40 1080,40 1040,40 1040,80 1080,80 1120,80 1120,120 1120,160 1160,160 1200,160 1200,120 1200,80 1200,40 	"/>
	<polygon fill="#3E31A2" points="80,160 80,120 80,80 120,80 160,80 160,40 120,40 80,40 40,40 0,40 0,80 0,120 0,160 40,160 	"/>
	<polygon fill="#3E31A2" points="200,120 160,120 160,160 200,160 240,160 240,120 	"/>
	<polygon fill="#3E31A2" points="360,120 320,120 320,160 360,160 400,160 400,120 	"/>
	<polygon fill="#3E31A2" points="720,160 720,120 720,80 760,80 800,80 800,40 760,40 720,40 680,40 640,40 640,80 640,120 640,160 680,160 	"/>
	<polygon fill="#3E31A2" points="840,120 800,120 800,160 840,160 880,160 880,120 	"/>
	<polygon fill="#3E31A2" points="1000,120 960,120 960,160 1000,160 1040,160 1040,120 	"/>
	<polygon fill="#3E31A2" points="440,160 400,160 400,200 440,200 480,200 480,160 	"/>
	<polygon fill="#3E31A2" points="1080,160 1040,160 1040,200 1080,200 1120,200 1120,160 	"/>
</g>
</svg>
