<?xml version="1.0" encoding="utf-8"?>
<!-- Generator: Adobe Illustrator 15.0.0, SVG Export Plug-In . SVG Version: 6.00 Build 0)  -->
<!DOCTYPE svg PUBLIC "-//W3C//DTD SVG 1.1//EN" "http://www.w3.org/Graphics/SVG/1.1/DTD/svg11.dtd">
<svg version="1.1" id="Layer_1" xmlns:ev="http://www.w3.org/2001/xml-events"
	 xmlns="http://www.w3.org/2000/svg" xmlns:xlink="http://www.w3.org/1999/xlink" x="0px" y="0px" width="1600px" height="1240px"
	 viewBox="0 0 1600 1240" enable-background="new 0 0 1600 1240" xml:space="preserve">
<g>
	<polygon fill="#3E31A2" points="280,40 320,40 320,0 280,0 240,0 240,40 	"/>
	<polygon fill="#3E31A2" points="440,40 480,40 520,40 560,40 600,40 640,40 680,40 720,40 760,40 800,40 840,40 880,40 880,0 840,0 800,0 760,0 720,0 680,0 640,0 600,0 560,0 520,0 480,0 440,0 400,0 400,40 	"/>
	<polygon fill="#3E31A2" points="1000,80 1040,80 1040,40 1000,40 960,40 960,80 	"/>
	<polygon fill="#3E31A2" points="80,120 80,80 80,40 120,40 160,40 160,0 120,0 80,0 40,0 0,0 0,40 0,80 0,120 40,120 	"/>
	<polygon fill="#3E31A2" points="240,120 240,80 200,80 160,80 160,120 200,120 	"/>
	<polygon fill="#3E31A2" points="360,120 400,120 400,80 360,80 320,80 320,120 	"/>
	<polygon fill="#3E31A2" points="520,120 560,120 600,120 640,120 680,120 720,120 760,120 800,120 800,80 760,80 720,80 680,80 640,80 600,80 560,80 520,80 480,80 480,120 	"/>
	<polygon fill="#3E31A2" points="920,120 960,120 960,80 920,80 880,80 880,120 	"/>
	<polygon fill="#3E31A2" points="1080,120 1120,120 1120,80 1080,80 1040,80 1040,120 	"/>
	<polygon fill="#3E31A2" points="320,160 320,120 280,120 240,120 240,160 280,160 	"/>
	<polygon fill="#3E31A2" points="480,160 480,120 440,120 400,120 400,160 440,160 	"/>
	<polygon fill="#3E31A2" points="840,160 880,160 880,120 840,120 800,120 800,160 	"/>
	<polygon fill="#3E31A2" points="1000,160 1040,160 1040,120 1000,120 960,120 960,160 	"/>
	<polygon fill="#3E31A2" points="1160,160 1200,160 1200,120 1160,120 1120,120 1120,160 	"/>
	<polygon fill="#3E31A2" points="1080,200 1120,200 1120,160 1080,160 1040,160 1040,200 	"/>
	<polygon fill="#3E31A2" points="1240,200 1280,200 1280,160 1240,160 1200,160 1200,200 	"/>
	<polygon fill="#3E31A2" points="480,240 480,200 440,200 400,200 400,240 440,240 	"/>
	<polygon fill="#3E31A2" points="880,200 880,240 920,240 960,240 960,200 920,200 	"/>
	<polygon fill="#3E31A2" points="1120,280 1160,280 1200,280 1200,240 1200,200 1160,200 1120,200 1120,240 	"/>
	<polygon fill="#3E31A2" points="1320,280 1360,280 1360,240 1320,240 1280,240 1280,280 	"/>
	<polygon fill="#3E31A2" points="1200,360 1240,360 1280,360 1280,320 1280,280 1240,280 1200,280 1200,320 	"/>
	<polygon fill="#3E31A2" points="1400,360 1440,360 1440,320 1400,320 1360,320 1360,360 	"/>
	<polygon fill="#3E31A2" points="480,400 480,360 480,320 480,280 440,280 400,280 400,320 400,360 400,400 440,400 	"/>
	<polygon fill="#3E31A2" points="1280,440 1280,480 1320,480 1360,480 1360,440 1360,400 1360,360 1320,360 1280,360 1280,400 	"/>
	<polygon fill="#3E31A2" points="240,480 240,440 200,440 160,440 160,480 200,480 	"/>
	<polygon fill="#3E31A2" points="480,480 480,440 440,440 400,440 400,480 440,480 	"/>
	<polygon fill="#3E31A2" points="1480,440 1440,440 1440,480 1480,480 1520,480 1520,440 	"/>
	<polygon fill="#3E31A2" points="80,520 80,480 80,440 80,400 80,360 40,360 0,360 0,400 0,440 0,480 0,520 40,520 	"/>
	<polygon fill="#3E31A2" points="240,480 240,520 240,560 280,560 320,560 320,520 320,480 280,480 	"/>
	<polygon fill="#3E31A2" points="1360,480 1360,520 1360,560 1400,560 1440,560 1440,520 1440,480 1400,480 	"/>
	<polygon fill="#3E31A2" points="440,560 480,560 480,520 440,520 400,520 400,560 	"/>
	<polygon fill="#3E31A2" points="240,600 240,560 200,560 160,560 160,600 200,600 	"/>
	<polygon fill="#3E31A2" points="360,600 400,600 400,560 360,560 320,560 320,600 	"/>
	<polygon fill="#3E31A2" points="320,640 320,600 280,600 240,600 240,640 280,640 	"/>
	<polygon fill="#3E31A2" points="1360,600 1360,640 1360,680 1320,680 1280,680 1240,680 1200,680 1160,680 1120,680 1120,720 1160,720 1200,720 1240,720 1280,720 1320,720 1360,720 1400,720 1440,720 1440,680 1440,640 1440,600 1400,600 	"/>
	<polygon fill="#3E31A2" points="400,680 400,640 360,640 320,640 320,680 360,680 	"/>
	<polygon fill="#3E31A2" points="520,640 480,640 480,680 520,680 560,680 560,640 	"/>
	<polygon fill="#3E31A2" points="80,720 80,680 80,640 80,600 80,560 40,560 0,560 0,600 0,640 0,680 0,720 40,720 	"/>
	<polygon fill="#3E31A2" points="640,720 640,680 600,680 560,680 560,720 600,720 	"/>
	<polygon fill="#3E31A2" points="800,680 760,680 720,680 720,720 760,720 800,720 840,720 880,720 880,680 840,680 	"/>
	<polygon fill="#3E31A2" points="1000,720 1040,720 1040,680 1000,680 960,680 960,720 	"/>
	<polygon fill="#3E31A2" points="920,760 960,760 960,720 920,720 880,720 880,760 	"/>
	<polygon fill="#3E31A2" points="1040,720 1040,760 1080,760 1120,760 1120,720 1080,720 	"/>
	<polygon fill="#3E31A2" points="80,800 80,760 40,760 0,760 0,800 40,800 	"/>
	<polygon fill="#3E31A2" points="240,800 240,760 280,760 320,760 320,800 360,800 400,800 400,760 400,720 360,720 320,720 320,680 280,680 240,680 240,640 200,640 160,640 160,680 160,720 160,760 160,800 200,800 	"/>
	<polygon fill="#3E31A2" points="560,800 560,760 560,720 520,720 480,720 480,760 480,800 520,800 	"/>
	<polygon fill="#3E31A2" points="840,760 800,760 800,800 840,800 880,800 880,760 	"/>
	<polygon fill="#3E31A2" points="960,760 960,800 1000,800 1040,800 1040,760 1000,760 	"/>
	<polygon fill="#3E31A2" points="1120,760 1120,800 1160,800 1200,800 1200,760 1160,760 	"/>
	<polygon fill="#3E31A2" points="1280,760 1280,800 1320,800 1360,800 1360,760 1320,760 	"/>
	<polygon fill="#3E31A2" points="320,840 320,800 280,800 240,800 240,840 280,840 	"/>
	<polygon fill="#3E31A2" points="440,840 480,840 480,800 440,800 400,800 400,840 	"/>
	<polygon fill="#3E31A2" points="1040,800 1040,840 1080,840 1120,840 1120,800 1080,800 	"/>
	<polygon fill="#3E31A2" points="1200,800 1200,840 1160,840 1120,840 1120,880 1160,880 1200,880 1200,920 1240,920 1280,920 1280,960 1320,960 1360,960 1360,920 1360,880 1320,880 1280,880 1280,840 1280,800 1240,800 	"/>
	<polygon fill="#3E31A2" points="1400,840 1440,840 1440,800 1400,800 1360,800 1360,840 	"/>
	<polygon fill="#3E31A2" points="80,880 80,840 40,840 0,840 0,880 40,880 	"/>
	<polygon fill="#3E31A2" points="240,880 240,840 200,840 160,840 160,880 200,880 	"/>
	<polygon fill="#3E31A2" points="360,840 320,840 320,880 360,880 400,880 400,840 	"/>
	<polygon fill="#3E31A2" points="560,880 560,840 520,840 480,840 480,880 520,880 	"/>
	<polygon fill="#3E31A2" points="880,840 880,880 920,880 960,880 960,840 920,840 	"/>
	<polygon fill="#3E31A2" points="240,880 240,920 280,920 320,920 320,880 280,880 	"/>
	<polygon fill="#3E31A2" points="1480,920 1520,920 1520,880 1480,880 1440,880 1440,920 	"/>
	<polygon fill="#3E31A2" points="480,1040 480,1000 480,960 480,920 480,880 440,880 400,880 400,920 400,960 400,1000 400,1040 440,1040 	"/>
	<polygon fill="#3E31A2" points="1360,1040 1360,1080 1360,1120 1360,1160 1320,1160 1280,1160 1240,1160 1200,1160 1160,1160 1120,1160 1080,1160 1040,1160 1040,1200 1080,1200 1120,1200 1160,1200 1200,1200 1240,1200 1280,1200 1320,1200 1360,1200 1400,1200 1440,1200 1440,1160 1440,1120 1440,1080 1440,1040 1440,1000 1440,960 1400,960 1360,960 1360,1000 	"/>
	<polygon fill="#3E31A2" points="480,1120 480,1080 440,1080 400,1080 400,1120 440,1120 	"/>
	<polygon fill="#3E31A2" points="280,1160 240,1160 240,1200 280,1200 320,1200 320,1160 	"/>
	<polygon fill="#3E31A2" points="440,1160 400,1160 400,1200 440,1200 480,1200 480,1160 	"/>
	<polygon fill="#3E31A2" points="600,1160 560,1160 560,1200 600,1200 640,1200 640,1160 	"/>
	<polygon fill="#3E31A2" points="760,1160 720,1160 720,1200 760,1200 800,1200 800,1160 	"/>
	<polygon fill="#3E31A2" points="920,1160 880,1160 880,1200 920,1200 960,1200 960,1160 	"/>
</g>
</svg>
