<?xml version="1.0" encoding="utf-8"?>
<!-- Generator: Adobe Illustrator 15.0.0, SVG Export Plug-In . SVG Version: 6.00 Build 0)  -->
<!DOCTYPE svg PUBLIC "-//W3C//DTD SVG 1.1//EN" "http://www.w3.org/Graphics/SVG/1.1/DTD/svg11.dtd">
<svg version="1.1" id="Layer_1" xmlns:ev="http://www.w3.org/2001/xml-events"
	 xmlns="http://www.w3.org/2000/svg" xmlns:xlink="http://www.w3.org/1999/xlink" x="0px" y="0px" width="1520px" height="1240px"
	 viewBox="0 0 1520 1240" enable-background="new 0 0 1520 1240" xml:space="preserve">
<g>
	<polygon fill="#3E31A2" points="80,40 120,40 160,40 160,0 120,0 80,0 40,0 0,0 0,40 40,40 	"/>
	<polygon fill="#3E31A2" points="280,40 320,40 320,0 280,0 240,0 240,40 	"/>
	<polygon fill="#3E31A2" points="440,40 480,40 520,40 560,40 600,40 640,40 680,40 720,40 760,40 800,40 840,40 880,40 880,0 840,0 800,0 760,0 720,0 680,0 640,0 600,0 560,0 520,0 480,0 440,0 400,0 400,40 	"/>
	<polygon fill="#3E31A2" points="1000,80 1040,80 1040,40 1000,40 960,40 960,80 	"/>
	<polygon fill="#3E31A2" points="40,80 0,80 0,120 40,120 80,120 80,80 	"/>
	<polygon fill="#3E31A2" points="200,80 160,80 160,120 200,120 240,120 240,80 	"/>
	<polygon fill="#3E31A2" points="760,80 720,80 680,80 640,80 600,80 560,80 520,80 480,80 440,80 400,80 360,80 320,80 320,120 360,120 400,120 440,120 480,120 520,120 560,120 600,120 640,120 680,120 720,120 760,120 800,120 800,80 	"/>
	<polygon fill="#3E31A2" points="920,80 880,80 880,120 920,120 960,120 960,80 	"/>
	<polygon fill="#3E31A2" points="1080,120 1120,120 1120,80 1080,80 1040,80 1040,120 	"/>
	<polygon fill="#3E31A2" points="840,120 800,120 800,160 840,160 880,160 880,120 	"/>
	<polygon fill="#3E31A2" points="1000,120 960,120 960,160 1000,160 1040,160 1040,120 	"/>
	<polygon fill="#3E31A2" points="1160,160 1200,160 1200,120 1160,120 1120,120 1120,160 	"/>
	<polygon fill="#3E31A2" points="1120,200 1120,160 1080,160 1040,160 1040,200 1080,200 	"/>
	<polygon fill="#3E31A2" points="1240,200 1280,200 1280,160 1240,160 1200,160 1200,200 	"/>
	<polygon fill="#3E31A2" points="920,200 880,200 880,240 920,240 960,240 960,200 	"/>
	<polygon fill="#3E31A2" points="1200,280 1200,240 1200,200 1160,200 1120,200 1120,240 1120,280 1160,280 	"/>
	<polygon fill="#3E31A2" points="1320,280 1360,280 1360,240 1320,240 1280,240 1280,280 	"/>
	<polygon fill="#3E31A2" points="1200,360 1240,360 1280,360 1280,320 1280,280 1240,280 1200,280 1200,320 	"/>
	<polygon fill="#3E31A2" points="1400,360 1440,360 1440,320 1400,320 1360,320 1360,360 	"/>
	<polygon fill="#3E31A2" points="1280,440 1280,480 1320,480 1360,480 1360,440 1360,400 1360,360 1320,360 1280,360 1280,400 	"/>
	<polygon fill="#3E31A2" points="1480,440 1440,440 1440,480 1480,480 1520,480 1520,440 	"/>
	<polygon fill="#3E31A2" points="1360,480 1360,520 1360,560 1400,560 1440,560 1440,520 1440,480 1400,480 	"/>
	<polygon fill="#3E31A2" points="1360,600 1360,640 1400,640 1440,640 1440,600 1400,600 	"/>
	<polygon fill="#3E31A2" points="720,680 720,640 680,640 640,640 640,680 680,680 	"/>
	<polygon fill="#3E31A2" points="640,720 640,680 600,680 560,680 560,720 600,720 	"/>
	<polygon fill="#3E31A2" points="920,680 880,680 880,720 920,720 960,720 960,680 	"/>
	<polygon fill="#3E31A2" points="1080,680 1040,680 1040,720 1080,720 1120,720 1120,680 	"/>
	<polygon fill="#3E31A2" points="1240,680 1200,680 1200,720 1240,720 1280,720 1280,680 	"/>
	<polygon fill="#3E31A2" points="1360,680 1360,720 1400,720 1440,720 1440,680 1400,680 	"/>
	<polygon fill="#3E31A2" points="560,760 560,720 520,720 480,720 480,760 520,760 	"/>
	<polygon fill="#3E31A2" points="800,720 800,760 840,760 880,760 880,720 840,720 	"/>
	<polygon fill="#3E31A2" points="480,800 480,760 440,760 400,760 400,800 440,800 	"/>
	<polygon fill="#3E31A2" points="720,760 720,800 720,840 720,880 720,920 760,920 800,920 800,880 800,840 800,800 800,760 760,760 	"/>
	<polygon fill="#3E31A2" points="880,760 880,800 920,800 960,800 960,760 920,760 	"/>
	<polygon fill="#3E31A2" points="400,880 400,840 360,840 320,840 320,880 360,880 	"/>
	<polygon fill="#3E31A2" points="600,880 560,880 560,920 600,920 640,920 640,880 	"/>
	<polygon fill="#3E31A2" points="680,1040 720,1040 720,1000 680,1000 640,1000 640,1040 	"/>
	<polygon fill="#3E31A2" points="800,1000 800,1040 840,1040 880,1040 880,1000 840,1000 	"/>
	<polygon fill="#3E31A2" points="720,1120 720,1160 680,1160 640,1160 600,1160 560,1160 560,1200 600,1200 640,1200 680,1200 720,1200 760,1200 800,1200 800,1160 800,1120 760,1120 	"/>
</g>
</svg>
