<?xml version="1.0" encoding="utf-8"?>
<!-- Generator: Adobe Illustrator 15.0.0, SVG Export Plug-In . SVG Version: 6.00 Build 0)  -->
<!DOCTYPE svg PUBLIC "-//W3C//DTD SVG 1.1//EN" "http://www.w3.org/Graphics/SVG/1.1/DTD/svg11.dtd">
<svg version="1.1" id="Layer_1" xmlns:ev="http://www.w3.org/2001/xml-events"
	 xmlns="http://www.w3.org/2000/svg" xmlns:xlink="http://www.w3.org/1999/xlink" x="0px" y="0px" width="1280px" height="1240px"
	 viewBox="0 0 1280 1240" enable-background="new 0 0 1280 1240" xml:space="preserve">
<g>
	<polygon fill="#7C70DA" points="480,120 480,80 520,80 560,80 600,80 640,80 680,80 720,80 720,40 680,40 640,40 600,40 560,40 520,40 480,40 440,40 400,40 400,80 400,120 440,120 	"/>
	<polygon fill="#7C70DA" points="400,160 400,120 360,120 320,120 320,160 360,160 	"/>
	<polygon fill="#7C70DA" points="80,240 80,200 120,200 160,200 200,200 240,200 280,200 320,200 320,160 280,160 240,160 200,160 160,160 120,160 80,160 40,160 0,160 0,200 0,240 40,240 	"/>
	<polygon fill="#7C70DA" points="640,240 640,200 600,200 560,200 560,240 600,240 	"/>
	<polygon fill="#7C70DA" points="720,280 720,240 680,240 640,240 640,280 680,280 	"/>
	<polygon fill="#7C70DA" points="800,240 800,280 840,280 880,280 880,240 840,240 	"/>
	<polygon fill="#7C70DA" points="800,320 800,360 840,360 880,360 880,320 840,320 	"/>
	<polygon fill="#7C70DA" points="800,400 800,440 840,440 880,440 880,400 840,400 	"/>
	<polygon fill="#7C70DA" points="480,520 480,480 480,440 480,400 520,400 560,400 560,440 600,440 640,440 640,480 640,520 680,520 720,520 720,480 720,440 720,400 680,400 640,400 640,360 680,360 720,360 720,320 680,320 640,320 640,280 600,280 560,280 560,320 520,320 480,320 480,280 520,280 560,280 560,240 520,240 480,240 480,200 520,200 560,200 560,160 520,160 480,160 440,160 400,160 400,200 400,240 400,280 400,320 400,360 400,400 400,440 400,480 400,520 440,520 	"/>
	<polygon fill="#7C70DA" points="800,480 800,520 800,560 800,600 840,600 880,600 880,560 880,520 880,480 840,480 	"/>
	<polygon fill="#7C70DA" points="480,600 480,560 440,560 400,560 400,600 440,600 	"/>
	<polygon fill="#7C70DA" points="480,680 480,640 440,640 400,640 400,680 440,680 	"/>
	<polygon fill="#7C70DA" points="480,760 480,720 440,720 400,720 400,760 440,760 	"/>
	<polygon fill="#7C70DA" points="800,920 800,960 840,960 880,960 880,920 840,920 	"/>
	<polygon fill="#7C70DA" points="720,1000 720,960 680,960 640,960 640,1000 680,1000 	"/>
	<polygon fill="#7C70DA" points="640,1040 640,1000 600,1000 560,1000 560,1040 600,1040 	"/>
	<polygon fill="#7C70DA" points="800,1000 800,1040 840,1040 880,1040 880,1000 840,1000 	"/>
	<polygon fill="#7C70DA" points="720,1080 720,1040 680,1040 640,1040 640,1080 680,1080 	"/>
	<polygon fill="#7C70DA" points="960,1080 920,1080 880,1080 840,1080 800,1080 800,1120 840,1120 880,1120 920,1120 960,1120 1000,1120 1040,1120 1040,1080 1000,1080 	"/>
	<polygon fill="#7C70DA" points="160,1120 200,1120 240,1120 280,1120 320,1120 320,1160 360,1160 400,1160 400,1120 440,1120 480,1120 480,1160 520,1160 560,1160 560,1120 600,1120 640,1120 640,1080 600,1080 560,1080 560,1040 520,1040 480,1040 480,1000 520,1000 560,1000 560,960 520,960 480,960 480,920 480,880 480,840 480,800 440,800 400,800 400,840 400,880 400,920 400,960 400,1000 400,1040 400,1080 360,1080 320,1080 280,1080 240,1080 200,1080 160,1080 120,1080 80,1080 80,1120 80,1160 80,1200 120,1200 160,1200 160,1160 	"/>
	<polygon fill="#7C70DA" points="680,1120 640,1120 640,1160 680,1160 720,1160 720,1120 	"/>
	<polygon fill="#7C70DA" points="1120,1160 1120,1200 1080,1200 1040,1200 1000,1200 960,1200 960,1240 1000,1240 1040,1240 1080,1240 1120,1240 1160,1240 1200,1240 1200,1200 1200,1160 1160,1160 	"/>
	<polygon fill="#7C70DA" points="200,1200 160,1200 160,1240 200,1240 240,1240 240,1200 	"/>
	<polygon fill="#7C70DA" points="360,1200 320,1200 320,1240 360,1240 400,1240 400,1200 	"/>
	<polygon fill="#7C70DA" points="680,1200 640,1200 600,1200 560,1200 520,1200 480,1200 480,1240 520,1240 560,1240 600,1240 640,1240 680,1240 720,1240 720,1200 	"/>
	<polygon fill="#7C70DA" points="840,1200 800,1200 800,1240 840,1240 880,1240 880,1200 	"/>
</g>
</svg>
