<?xml version="1.0" encoding="utf-8"?>
<!-- Generator: Adobe Illustrator 15.0.0, SVG Export Plug-In . SVG Version: 6.00 Build 0)  -->
<!DOCTYPE svg PUBLIC "-//W3C//DTD SVG 1.1//EN" "http://www.w3.org/Graphics/SVG/1.1/DTD/svg11.dtd">
<svg version="1.1" id="Layer_1" xmlns:ev="http://www.w3.org/2001/xml-events"
	 xmlns="http://www.w3.org/2000/svg" xmlns:xlink="http://www.w3.org/1999/xlink" x="0px" y="0px" width="1920px" height="1240px"
	 viewBox="0 0 1920 1240" enable-background="new 0 0 1920 1240" xml:space="preserve">
<g>
	<polygon fill="#7C70DA" points="120,40 80,40 80,80 120,80 160,80 160,40 	"/>
	<polygon fill="#7C70DA" points="240,160 240,120 240,80 200,80 160,80 160,120 160,160 200,160 	"/>
	<polygon fill="#7C70DA" points="320,240 320,200 320,160 280,160 240,160 240,200 240,240 280,240 	"/>
	<polygon fill="#7C70DA" points="400,280 400,240 360,240 320,240 320,280 360,280 	"/>
	<polygon fill="#7C70DA" points="1200,280 1240,280 1280,280 1280,240 1280,200 1240,200 1200,200 1200,240 	"/>
	<polygon fill="#7C70DA" points="480,360 480,320 480,280 440,280 400,280 400,320 400,360 440,360 	"/>
	<polygon fill="#7C70DA" points="560,400 560,360 520,360 480,360 480,400 520,400 	"/>
	<polygon fill="#7C70DA" points="1120,400 1160,400 1200,400 1200,360 1200,320 1160,320 1120,320 1120,360 	"/>
	<polygon fill="#7C70DA" points="640,480 640,440 640,400 600,400 560,400 560,440 560,480 600,480 	"/>
	<polygon fill="#7C70DA" points="1040,520 1080,520 1120,520 1120,480 1120,440 1120,400 1080,400 1040,400 1040,440 1040,480 	"/>
	<polygon fill="#7C70DA" points="720,560 720,520 720,480 680,480 640,480 640,520 640,560 680,560 	"/>
	<polygon fill="#7C70DA" points="800,560 760,560 720,560 720,600 720,640 720,680 720,720 760,720 800,720 800,680 800,640 
		800,600 	"/>
	<polygon fill="#7C70DA" points="1000,600 1040,600 1040,560 1040,520 1000,520 960,520 960,560 960,600 	"/>
	<polygon fill="#7C70DA" points="920,600 880,600 880,640 920,640 960,640 960,600 	"/>
	<polygon fill="#7C70DA" points="720,760 720,800 760,800 800,800 800,760 760,760 	"/>
	<polygon fill="#7C70DA" points="1120,920 1120,960 1160,960 1200,960 1200,920 1160,920 	"/>
	<polygon fill="#7C70DA" points="960,1000 960,960 920,960 880,960 880,1000 920,1000 	"/>
	<polygon fill="#7C70DA" points="960,1000 960,1040 1000,1040 1040,1040 1040,1000 1000,1000 	"/>
	<polygon fill="#7C70DA" points="1120,1000 1120,1040 1160,1040 1200,1040 1200,1000 1160,1000 	"/>
	<polygon fill="#7C70DA" points="960,1080 960,1040 920,1040 880,1040 880,1080 920,1080 	"/>
	<polygon fill="#7C70DA" points="1040,1120 1040,1080 1000,1080 960,1080 960,1120 1000,1120 	"/>
	<polygon fill="#7C70DA" points="1120,1080 1120,1120 1120,1160 1120,1200 1080,1200 1040,1200 1040,1240 1080,1240 1120,1240 
		1160,1240 1200,1240 1200,1200 1200,1160 1200,1120 1200,1080 1160,1080 	"/>
	<polygon fill="#7C70DA" points="920,1200 880,1200 840,1200 800,1200 800,1160 840,1160 880,1160 920,1160 960,1160 960,1120 
		920,1120 880,1120 880,1080 840,1080 800,1080 800,1040 840,1040 880,1040 880,1000 840,1000 800,1000 800,960 800,920 800,880 
		800,840 760,840 720,840 720,880 720,920 720,960 720,1000 680,1000 640,1000 640,1040 680,1040 720,1040 720,1080 680,1080 
		640,1080 640,1120 640,1160 680,1160 720,1160 720,1200 680,1200 640,1200 640,1240 680,1240 720,1240 760,1240 800,1240 840,1240 
		880,1240 920,1240 960,1240 960,1200 	"/>
</g>
</svg>
