<?xml version="1.0" encoding="utf-8"?>
<!-- Generator: Adobe Illustrator 15.0.0, SVG Export Plug-In . SVG Version: 6.00 Build 0)  -->
<!DOCTYPE svg PUBLIC "-//W3C//DTD SVG 1.1//EN" "http://www.w3.org/Graphics/SVG/1.1/DTD/svg11.dtd">
<svg version="1.1" id="Layer_1" xmlns:ev="http://www.w3.org/2001/xml-events"
	 xmlns="http://www.w3.org/2000/svg" xmlns:xlink="http://www.w3.org/1999/xlink" x="0px" y="0px" width="1600px" height="1240px"
	 viewBox="0 0 1600 1240" enable-background="new 0 0 1600 1240" xml:space="preserve">
<g>
	<polygon fill="#7C70DA" points="680,80 720,80 720,40 680,40 640,40 640,80 	"/>
	<polygon fill="#7C70DA" points="800,40 800,80 840,80 880,80 880,40 840,40 	"/>
	<polygon fill="#7C70DA" points="880,120 880,160 920,160 960,160 960,120 920,120 	"/>
	<polygon fill="#7C70DA" points="960,160 960,200 960,240 1000,240 1040,240 1040,200 1040,160 1000,160 	"/>
	<polygon fill="#7C70DA" points="320,240 320,200 280,200 240,200 240,240 280,240 	"/>
	<polygon fill="#7C70DA" points="400,280 400,240 360,240 320,240 320,280 360,280 	"/>
	<polygon fill="#7C70DA" points="560,280 560,240 520,240 480,240 480,280 520,280 	"/>
	<polygon fill="#7C70DA" points="80,320 80,360 80,400 80,440 80,480 80,520 120,520 160,520 160,480 160,440 160,400 200,400 240,400 240,440 280,440 320,440 320,480 320,520 360,520 400,520 400,480 400,440 400,400 360,400 320,400 320,360 360,360 400,360 400,320 360,320 320,320 320,280 280,280 240,280 240,320 200,320 160,320 160,280 200,280 240,280 240,240 200,240 160,240 160,200 200,200 240,200 240,160 200,160 160,160 160,120 160,80 200,80 240,80 280,80 320,80 360,80 400,80 440,80 480,80 520,80 560,80 560,40 520,40 480,40 440,40 400,40 360,40 320,40 280,40 240,40 200,40 160,40 120,40 80,40 80,80 80,120 80,160 40,160 0,160 0,200 40,200 80,200 80,240 40,240 0,240 0,280 0,320 40,320 	"/>
	<polygon fill="#7C70DA" points="560,360 560,320 520,320 480,320 480,360 520,360 	"/>
	<polygon fill="#7C70DA" points="560,440 560,400 520,400 480,400 480,440 520,440 	"/>
	<polygon fill="#7C70DA" points="1240,440 1200,440 1200,480 1240,480 1280,480 1280,440 	"/>
	<polygon fill="#7C70DA" points="1280,560 1280,520 1240,520 1200,520 1200,560 1240,560 	"/>
	<polygon fill="#7C70DA" points="160,600 160,560 120,560 80,560 80,600 120,600 	"/>
	<polygon fill="#7C70DA" points="520,600 560,600 560,560 560,520 560,480 520,480 480,480 480,520 480,560 480,600 	"/>
	<polygon fill="#7C70DA" points="1280,560 1280,600 1320,600 1360,600 1360,560 1320,560 	"/>
	<polygon fill="#7C70DA" points="1440,560 1440,600 1480,600 1520,600 1520,560 1480,560 	"/>
	<polygon fill="#7C70DA" points="1200,600 1200,640 1240,640 1280,640 1280,600 1240,600 	"/>
	<polygon fill="#7C70DA" points="160,680 160,640 120,640 80,640 80,680 120,680 	"/>
	<polygon fill="#7C70DA" points="640,680 640,640 600,640 560,640 560,680 600,680 	"/>
	<polygon fill="#7C70DA" points="760,680 800,680 800,640 760,640 720,640 720,680 	"/>
	<polygon fill="#7C70DA" points="1160,640 1120,640 1120,600 1160,600 1200,600 1200,560 1160,560 1120,560 1120,520 1120,480 1120,440 1120,400 1120,360 1120,320 1120,280 1120,240 1080,240 1040,240 1040,280 1040,320 1040,360 1040,400 1000,400 960,400 960,440 1000,440 1040,440 1040,480 1000,480 960,480 960,520 1000,520 1040,520 1040,560 1000,560 960,560 960,600 1000,600 1040,600 1040,640 1000,640 960,640 920,640 880,640 880,680 920,680 960,680 1000,680 1040,680 1080,680 1120,680 1160,680 1200,680 1200,640 	"/>
	<polygon fill="#7C70DA" points="1280,640 1280,680 1320,680 1360,680 1360,640 1320,640 	"/>
	<polygon fill="#7C70DA" points="1440,640 1440,680 1440,720 1400,720 1360,720 1320,720 1280,720 1240,720 1200,720 1200,760 1240,760 1280,760 1320,760 1360,760 1400,760 1440,760 1480,760 1520,760 1520,720 1520,680 1520,640 1480,640 	"/>
	<polygon fill="#7C70DA" points="160,760 160,720 120,720 80,720 80,760 120,760 	"/>
	<polygon fill="#7C70DA" points="640,720 640,760 680,760 720,760 720,720 680,720 	"/>
	<polygon fill="#7C70DA" points="840,760 880,760 880,720 840,720 800,720 800,760 	"/>
	<polygon fill="#7C70DA" points="880,760 880,800 920,800 960,800 960,760 920,760 	"/>
	<polygon fill="#7C70DA" points="960,800 960,840 960,880 1000,880 1040,880 1040,840 1040,800 1000,800 	"/>
	<polygon fill="#7C70DA" points="1280,800 1280,840 1320,840 1360,840 1360,800 1320,800 	"/>
	<polygon fill="#7C70DA" points="1360,840 1360,880 1360,920 1400,920 1440,920 1440,880 1440,840 1400,840 	"/>
	<polygon fill="#7C70DA" points="1040,880 1040,920 1040,960 1000,960 960,960 960,1000 1000,1000 1040,1000 1040,1040 1000,1040 960,1040 960,1080 920,1080 880,1080 880,1040 840,1040 800,1040 800,1080 760,1080 720,1080 720,1040 680,1040 640,1040 640,1080 600,1080 560,1080 560,1120 600,1120 640,1120 640,1160 680,1160 720,1160 720,1120 760,1120 800,1120 800,1160 840,1160 880,1160 880,1120 920,1120 960,1120 960,1160 1000,1160 1040,1160 1040,1120 1080,1120 1120,1120 1120,1080 1160,1080 1200,1080 1200,1040 1160,1040 1120,1040 1120,1000 1160,1000 1200,1000 1200,960 1160,960 1120,960 1120,920 1120,880 1080,880 	"/>
	<polygon fill="#7C70DA" points="400,1000 400,960 360,960 320,960 320,1000 360,1000 	"/>
	<polygon fill="#7C70DA" points="560,1000 560,960 520,960 480,960 480,1000 520,1000 	"/>
	<polygon fill="#7C70DA" points="1280,960 1280,1000 1320,1000 1360,1000 1360,960 1320,960 	"/>
	<polygon fill="#7C70DA" points="1440,960 1440,1000 1480,1000 1520,1000 1520,960 1480,960 	"/>
	<polygon fill="#7C70DA" points="320,1040 320,1000 280,1000 240,1000 240,1040 280,1040 	"/>
	<polygon fill="#7C70DA" points="1200,1000 1200,1040 1240,1040 1280,1040 1280,1000 1240,1000 	"/>
	<polygon fill="#7C70DA" points="400,1080 400,1040 360,1040 320,1040 320,1080 360,1080 	"/>
	<polygon fill="#7C70DA" points="560,1080 560,1040 520,1040 480,1040 480,1080 520,1080 	"/>
	<polygon fill="#7C70DA" points="1280,1040 1280,1080 1320,1080 1360,1080 1360,1040 1320,1040 	"/>
	<polygon fill="#7C70DA" points="1440,1040 1440,1080 1480,1080 1520,1080 1520,1040 1480,1040 	"/>
	<polygon fill="#7C70DA" points="1240,1120 1280,1120 1280,1080 1240,1080 1200,1080 1200,1120 	"/>
	<polygon fill="#7C70DA" points="520,1120 480,1120 480,1160 520,1160 560,1160 560,1120 	"/>
	<polygon fill="#7C70DA" points="1160,1120 1120,1120 1120,1160 1160,1160 1200,1160 1200,1120 	"/>
	<polygon fill="#7C70DA" points="1280,1120 1280,1160 1320,1160 1360,1160 1360,1120 1320,1120 	"/>
	<polygon fill="#7C70DA" points="1440,1120 1440,1160 1440,1200 1400,1200 1360,1200 1320,1200 1280,1200 1240,1200 1200,1200 1160,1200 1120,1200 1080,1200 1040,1200 1000,1200 960,1200 920,1200 880,1200 840,1200 800,1200 760,1200 720,1200 680,1200 640,1200 600,1200 560,1200 520,1200 480,1200 440,1200 400,1200 360,1200 320,1200 280,1200 240,1200 200,1200 160,1200 160,1160 200,1160 240,1160 280,1160 320,1160 360,1160 400,1160 400,1120 360,1120 320,1120 320,1080 280,1080 240,1080 240,1120 200,1120 160,1120 160,1080 200,1080 240,1080 240,1040 200,1040 160,1040 160,1000 200,1000 240,1000 240,960 200,960 160,960 160,920 160,880 160,840 160,800 120,800 80,800 80,840 80,880 80,920 80,960 80,1000 80,1040 40,1040 0,1040 0,1080 40,1080 80,1080 80,1120 40,1120 0,1120 0,1160 40,1160 80,1160 80,1200 40,1200 0,1200 0,1240 40,1240 80,1240 120,1240 160,1240 200,1240 240,1240 280,1240 320,1240 360,1240 400,1240 440,1240 480,1240 520,1240 560,1240 600,1240 640,1240 680,1240 720,1240 760,1240 800,1240 840,1240 880,1240 920,1240 960,1240 1000,1240 1040,1240 1080,1240 1120,1240 1160,1240 1200,1240 1240,1240 1280,1240 1320,1240 1360,1240 1400,1240 1440,1240 1480,1240 1520,1240 1520,1200 1520,1160 1520,1120 1480,1120 	"/>
</g>
</svg>
