<?xml version="1.0" encoding="utf-8"?>
<!-- Generator: Adobe Illustrator 15.0.0, SVG Export Plug-In . SVG Version: 6.00 Build 0)  -->
<!DOCTYPE svg PUBLIC "-//W3C//DTD SVG 1.1//EN" "http://www.w3.org/Graphics/SVG/1.1/DTD/svg11.dtd">
<svg version="1.1" id="Layer_1" xmlns:ev="http://www.w3.org/2001/xml-events"
	 xmlns="http://www.w3.org/2000/svg" xmlns:xlink="http://www.w3.org/1999/xlink" x="0px" y="0px" width="1200px" height="1240px"
	 viewBox="0 0 1200 1240" enable-background="new 0 0 1200 1240" xml:space="preserve">
<g>
	<polygon fill="#7C70DA" points="680,80 720,80 720,40 680,40 640,40 640,80 	"/>
	<polygon fill="#7C70DA" points="960,40 920,40 880,40 840,40 800,40 800,80 840,80 880,80 920,80 960,80 1000,80 1040,80 1040,40 1000,40 	"/>
	<polygon fill="#7C70DA" points="520,120 560,120 560,80 520,80 480,80 480,120 	"/>
	<polygon fill="#7C70DA" points="440,160 480,160 480,120 440,120 400,120 400,160 	"/>
	<polygon fill="#7C70DA" points="400,360 400,320 360,320 320,320 320,360 360,360 	"/>
	<polygon fill="#7C70DA" points="480,320 480,360 520,360 560,360 560,320 520,320 	"/>
	<polygon fill="#7C70DA" points="160,400 160,440 200,440 240,440 280,440 320,440 320,480 320,520 360,520 400,520 400,480 400,440 400,400 360,400 320,400 320,360 280,360 240,360 240,320 280,320 320,320 320,280 320,240 360,240 400,240 400,200 400,160 360,160 320,160 320,200 280,200 240,200 240,240 240,280 200,280 160,280 160,320 160,360 	"/>
	<polygon fill="#7C70DA" points="480,400 480,440 520,440 560,440 560,400 520,400 	"/>
	<polygon fill="#7C70DA" points="120,520 160,520 160,480 160,440 120,440 80,440 80,480 80,520 	"/>
	<polygon fill="#7C70DA" points="480,480 480,520 480,560 480,600 520,600 560,600 560,560 560,520 560,480 520,480 	"/>
	<polygon fill="#7C70DA" points="160,600 160,560 120,560 80,560 80,600 120,600 	"/>
	<polygon fill="#7C70DA" points="160,680 160,640 120,640 80,640 80,680 120,680 	"/>
	<polygon fill="#7C70DA" points="160,760 160,720 120,720 80,720 80,760 120,760 	"/>
	<polygon fill="#7C70DA" points="520,960 560,960 560,920 520,920 480,920 480,960 	"/>
	<polygon fill="#7C70DA" points="680,960 720,960 760,960 800,960 800,920 760,920 720,920 680,920 640,920 640,960 	"/>
	<polygon fill="#7C70DA" points="400,1000 400,960 360,960 320,960 320,1000 360,1000 	"/>
	<polygon fill="#7C70DA" points="320,1040 320,1000 280,1000 240,1000 240,1040 280,1040 	"/>
	<polygon fill="#7C70DA" points="800,1000 800,1040 760,1040 720,1040 720,1080 760,1080 800,1080 840,1080 880,1080 880,1040 880,1000 840,1000 	"/>
	<polygon fill="#7C70DA" points="400,1080 400,1040 360,1040 320,1040 320,1080 360,1080 	"/>
	<polygon fill="#7C70DA" points="520,1040 480,1040 480,1080 520,1080 560,1080 560,1040 	"/>
	<polygon fill="#7C70DA" points="480,1120 480,1160 480,1200 440,1200 400,1200 360,1200 320,1200 280,1200 240,1200 200,1200 160,1200 160,1160 200,1160 240,1160 280,1160 320,1160 360,1160 400,1160 400,1120 360,1120 320,1120 320,1080 280,1080 240,1080 240,1040 200,1040 160,1040 160,1000 200,1000 240,1000 240,960 200,960 160,960 160,920 160,880 160,840 160,800 120,800 80,800 80,840 80,880 80,920 80,960 80,1000 80,1040 40,1040 0,1040 0,1080 40,1080 80,1080 80,1120 40,1120 0,1120 0,1160 40,1160 80,1160 80,1200 40,1200 0,1200 0,1240 40,1240 80,1240 120,1240 160,1240 200,1240 240,1240 280,1240 320,1240 360,1240 400,1240 440,1240 480,1240 520,1240 560,1240 560,1200 560,1160 560,1120 520,1120 	"/>
</g>
</svg>
