<?xml version="1.0" encoding="utf-8"?>
<!-- Generator: Adobe Illustrator 15.0.0, SVG Export Plug-In . SVG Version: 6.00 Build 0)  -->
<!DOCTYPE svg PUBLIC "-//W3C//DTD SVG 1.1//EN" "http://www.w3.org/Graphics/SVG/1.1/DTD/svg11.dtd">
<svg version="1.1" id="Layer_1" xmlns:ev="http://www.w3.org/2001/xml-events"
	 xmlns="http://www.w3.org/2000/svg" xmlns:xlink="http://www.w3.org/1999/xlink" x="0px" y="0px" width="640px" height="1240px"
	 viewBox="0 0 640 1240" enable-background="new 0 0 640 1240" xml:space="preserve">
<g>
	<polygon fill="#7C70DA" points="520,1000 480,1000 480,1040 520,1040 560,1040 560,1000 	"/>
	<polygon fill="#7C70DA" points="280,1040 240,1040 200,1040 160,1040 120,1040 80,1040 80,1080 80,1120 80,1160 120,1160 160,1160 160,1120 160,1080 200,1080 240,1080 280,1080 320,1080 320,1120 360,1120 400,1120 400,1080 440,1080 480,1080 480,1040 440,1040 400,1040 400,1000 360,1000 320,1000 320,1040 	"/>
	<polygon fill="#7C70DA" points="480,1080 480,1120 480,1160 480,1200 440,1200 400,1200 360,1200 320,1200 280,1200 240,1200 240,1240 280,1240 320,1240 360,1240 400,1240 440,1240 480,1240 520,1240 560,1240 560,1200 560,1160 560,1120 560,1080 520,1080 	"/>
	<polygon fill="#7C70DA" points="240,1120 240,1160 280,1160 320,1160 320,1120 280,1120 	"/>
	<polygon fill="#7C70DA" points="80,1200 80,1160 40,1160 0,1160 0,1200 40,1200 	"/>
	<polygon fill="#7C70DA" points="120,1200 80,1200 80,1240 120,1240 160,1240 160,1200 	"/>
</g>
</svg>
