<?xml version="1.0" encoding="utf-8"?>
<!-- Generator: Adobe Illustrator 15.0.0, SVG Export Plug-In . SVG Version: 6.00 Build 0)  -->
<!DOCTYPE svg PUBLIC "-//W3C//DTD SVG 1.1//EN" "http://www.w3.org/Graphics/SVG/1.1/DTD/svg11.dtd">
<svg version="1.1" id="Layer_1" xmlns:ev="http://www.w3.org/2001/xml-events"
	 xmlns="http://www.w3.org/2000/svg" xmlns:xlink="http://www.w3.org/1999/xlink" x="0px" y="0px" width="2560px" height="1240px"
	 viewBox="0 0 2560 1240" enable-background="new 0 0 2560 1240" xml:space="preserve">
<g>
	<polygon fill="#7C70DA" points="2280,80 2320,80 2320,40 2280,40 2240,40 2240,80 	"/>
	<polygon fill="#7C70DA" points="2080,160 2080,120 2080,80 2120,80 2160,80 2160,40 2120,40 2080,40 2040,40 2000,40 2000,80 2000,120 2000,160 2040,160 	"/>
	<polygon fill="#7C70DA" points="320,240 320,200 280,200 240,200 240,240 280,240 	"/>
	<polygon fill="#7C70DA" points="1280,240 1280,200 1240,200 1200,200 1200,240 1240,240 	"/>
	<polygon fill="#7C70DA" points="2040,240 2080,240 2080,200 2040,200 2000,200 2000,240 	"/>
	<polygon fill="#7C70DA" points="400,280 400,240 360,240 320,240 320,280 360,280 	"/>
	<polygon fill="#7C70DA" points="480,240 480,280 520,280 560,280 560,240 520,240 	"/>
	<polygon fill="#7C70DA" points="1360,280 1360,240 1320,240 1280,240 1280,280 1320,280 	"/>
	<polygon fill="#7C70DA" points="1440,240 1440,280 1480,280 1520,280 1520,240 1480,240 	"/>
	<polygon fill="#7C70DA" points="80,320 80,360 80,400 80,440 80,480 80,520 120,520 160,520 160,480 160,440 160,400 200,400 240,400 240,440 280,440 320,440 320,480 320,520 360,520 400,520 400,480 400,440 400,400 360,400 320,400 320,360 360,360 400,360 400,320 360,320 320,320 320,280 280,280 240,280 240,320 200,320 160,320 160,280 200,280 240,280 240,240 200,240 160,240 160,200 200,200 240,200 240,160 200,160 160,160 160,120 160,80 200,80 240,80 280,80 320,80 360,80 400,80 400,40 360,40 320,40 280,40 240,40 200,40 160,40 120,40 80,40 80,80 80,120 80,160 40,160 0,160 0,200 40,200 80,200 80,240 40,240 0,240 0,280 0,320 40,320 	"/>
	<polygon fill="#7C70DA" points="1040,320 1040,360 1040,400 1040,440 1040,480 1040,520 1080,520 1120,520 1120,480 1120,440 1120,400 1160,400 1200,400 1200,440 1240,440 1280,440 1280,480 1280,520 1320,520 1360,520 1360,480 1360,440 1360,400 1320,400 1280,400 1280,360 1320,360 1360,360 1360,320 1320,320 1280,320 1280,280 1240,280 1200,280 1200,320 1160,320 1120,320 1120,280 1160,280 1200,280 1200,240 1160,240 1120,240 1120,200 1160,200 1200,200 1200,160 1160,160 1120,160 1120,120 1120,80 1160,80 1200,80 1240,80 1280,80 1320,80 1360,80 1360,40 1320,40 1280,40 1240,40 1200,40 1160,40 1120,40 1080,40 1040,40 1040,80 1040,120 1040,160 1000,160 960,160 960,200 1000,200 1040,200 1040,240 1000,240 960,240 960,280 960,320 1000,320 	"/>
	<polygon fill="#7C70DA" points="480,320 480,360 520,360 560,360 560,320 520,320 	"/>
	<polygon fill="#7C70DA" points="1440,320 1440,360 1480,360 1520,360 1520,320 1480,320 	"/>
	<polygon fill="#7C70DA" points="480,400 480,440 520,440 560,440 560,400 520,400 	"/>
	<polygon fill="#7C70DA" points="1440,400 1440,440 1480,440 1520,440 1520,400 1480,400 	"/>
	<polygon fill="#7C70DA" points="480,480 480,520 480,560 480,600 520,600 560,600 560,560 560,520 560,480 520,480 	"/>
	<polygon fill="#7C70DA" points="1440,480 1440,520 1440,560 1440,600 1480,600 1520,600 1520,560 1520,520 1520,480 1480,480 	"/>
	<polygon fill="#7C70DA" points="2240,480 2240,520 2280,520 2320,520 2320,480 2280,480 	"/>
	<polygon fill="#7C70DA" points="2400,480 2400,520 2440,520 2480,520 2480,480 2440,480 	"/>
	<polygon fill="#7C70DA" points="2240,560 2240,520 2200,520 2160,520 2160,560 2200,560 	"/>
	<polygon fill="#7C70DA" points="160,600 160,560 120,560 80,560 80,600 120,600 	"/>
	<polygon fill="#7C70DA" points="1120,600 1120,560 1080,560 1040,560 1040,600 1080,600 	"/>
	<polygon fill="#7C70DA" points="2240,560 2240,600 2280,600 2320,600 2320,560 2280,560 	"/>
	<polygon fill="#7C70DA" points="2400,560 2400,600 2440,600 2480,600 2480,560 2440,560 	"/>
	<polygon fill="#7C70DA" points="2200,600 2160,600 2160,640 2200,640 2240,640 2240,600 	"/>
	<polygon fill="#7C70DA" points="160,680 160,640 120,640 80,640 80,680 120,680 	"/>
	<polygon fill="#7C70DA" points="1120,680 1120,640 1080,640 1040,640 1040,680 1080,680 	"/>
	<polygon fill="#7C70DA" points="2000,680 2000,720 2000,760 2040,760 2080,760 2080,720 2120,720 2160,720 2160,760 2200,760 2240,760 2280,760 2320,760 2320,720 2320,680 2320,640 2280,640 2240,640 2240,680 2200,680 2160,680 2160,640 2120,640 2080,640 2080,600 2120,600 2160,600 2160,560 2120,560 2080,560 2080,520 2120,520 2160,520 2160,480 2120,480 2080,480 2080,440 2080,400 2080,360 2080,320 2080,280 2040,280 2000,280 2000,320 2000,360 2000,400 1960,400 1920,400 1920,440 1960,440 2000,440 2000,480 1960,480 1920,480 1920,520 1960,520 2000,520 2000,560 1960,560 1920,560 1920,600 1960,600 2000,600 2000,640 1960,640 1920,640 1920,680 1960,680 	"/>
	<polygon fill="#7C70DA" points="2400,640 2400,680 2400,720 2400,760 2400,800 2440,800 2480,800 2480,760 2480,720 2480,680 2480,640 2440,640 	"/>
	<polygon fill="#7C70DA" points="160,760 160,720 120,720 80,720 80,760 120,760 	"/>
	<polygon fill="#7C70DA" points="1120,760 1120,720 1080,720 1040,720 1040,760 1080,760 	"/>
	<polygon fill="#7C70DA" points="2080,840 2080,800 2040,800 2000,800 2000,840 2040,840 	"/>
	<polygon fill="#7C70DA" points="2080,920 2080,880 2040,880 2000,880 2000,920 2040,920 	"/>
	<polygon fill="#7C70DA" points="400,1000 400,960 360,960 320,960 320,1000 360,1000 	"/>
	<polygon fill="#7C70DA" points="480,960 480,1000 520,1000 560,1000 560,960 520,960 	"/>
	<polygon fill="#7C70DA" points="1360,1000 1360,960 1320,960 1280,960 1280,1000 1320,1000 	"/>
	<polygon fill="#7C70DA" points="1440,960 1440,1000 1480,1000 1520,1000 1520,960 1480,960 	"/>
	<polygon fill="#7C70DA" points="320,1040 320,1000 280,1000 240,1000 240,1040 280,1040 	"/>
	<polygon fill="#7C70DA" points="1280,1040 1280,1000 1240,1000 1200,1000 1200,1040 1240,1040 	"/>
	<polygon fill="#7C70DA" points="400,1080 400,1040 360,1040 320,1040 320,1080 360,1080 	"/>
	<polygon fill="#7C70DA" points="480,1040 480,1080 440,1080 400,1080 400,1120 440,1120 480,1120 480,1160 520,1160 560,1160 560,1120 600,1120 640,1120 640,1160 680,1160 720,1160 720,1120 760,1120 800,1120 800,1160 840,1160 880,1160 880,1120 920,1120 960,1120 960,1160 1000,1160 1040,1160 1040,1120 1080,1120 1120,1120 1120,1080 1160,1080 1200,1080 1200,1040 1160,1040 1120,1040 1120,1000 1160,1000 1200,1000 1200,960 1160,960 1120,960 1120,920 1120,880 1120,840 1120,800 1080,800 1040,800 1040,840 1040,880 1040,920 1040,960 1040,1000 1040,1040 1040,1080 1000,1080 960,1080 920,1080 880,1080 840,1080 800,1080 760,1080 720,1080 720,1040 680,1040 640,1040 640,1080 600,1080 560,1080 560,1040 520,1040 	"/>
	<polygon fill="#7C70DA" points="1320,1040 1280,1040 1280,1080 1320,1080 1360,1080 1360,1040 	"/>
	<polygon fill="#7C70DA" points="1440,1040 1440,1080 1400,1080 1360,1080 1360,1120 1400,1120 1440,1120 1440,1160 1480,1160 1520,1160 1520,1120 1560,1120 1600,1120 1600,1160 1640,1160 1680,1160 1680,1120 1720,1120 1760,1120 1760,1160 1800,1160 1840,1160 1840,1120 1880,1120 1920,1120 1920,1160 1960,1160 2000,1160 2000,1120 2040,1120 2080,1120 2080,1080 2080,1040 2080,1000 2080,960 2040,960 2000,960 2000,1000 2000,1040 2000,1080 1960,1080 1920,1080 1880,1080 1840,1080 1800,1080 1760,1080 1720,1080 1680,1080 1680,1040 1640,1040 1600,1040 1600,1080 1560,1080 1520,1080 1520,1040 1480,1040 	"/>
	<polygon fill="#7C70DA" points="1160,1160 1200,1160 1240,1160 1280,1160 1320,1160 1360,1160 1360,1120 1320,1120 1280,1120 1280,1080 1240,1080 1200,1080 1200,1120 1160,1120 1120,1120 1120,1160 	"/>
	<polygon fill="#7C70DA" points="1960,1200 1920,1200 1880,1200 1840,1200 1800,1200 1760,1200 1720,1200 1680,1200 1640,1200 1600,1200 1560,1200 1520,1200 1480,1200 1440,1200 1400,1200 1360,1200 1320,1200 1280,1200 1240,1200 1200,1200 1160,1200 1120,1200 1080,1200 1040,1200 1000,1200 960,1200 920,1200 880,1200 840,1200 800,1200 760,1200 720,1200 680,1200 640,1200 600,1200 560,1200 520,1200 480,1200 440,1200 400,1200 360,1200 320,1200 280,1200 240,1200 200,1200 160,1200 160,1160 200,1160 240,1160 280,1160 320,1160 360,1160 400,1160 400,1120 360,1120 320,1120 320,1080 280,1080 240,1080 240,1120 200,1120 160,1120 160,1080 200,1080 240,1080 240,1040 200,1040 160,1040 160,1000 200,1000 240,1000 240,960 200,960 160,960 160,920 160,880 160,840 160,800 120,800 80,800 80,840 80,880 80,920 80,960 80,1000 80,1040 40,1040 0,1040 0,1080 40,1080 80,1080 80,1120 40,1120 0,1120 0,1160 40,1160 80,1160 80,1200 40,1200 0,1200 0,1240 40,1240 80,1240 120,1240 160,1240 200,1240 240,1240 280,1240 320,1240 360,1240 400,1240 440,1240 480,1240 520,1240 560,1240 600,1240 640,1240 680,1240 720,1240 760,1240 800,1240 840,1240 880,1240 920,1240 960,1240 1000,1240 1040,1240 1080,1240 1120,1240 1160,1240 1200,1240 1240,1240 1280,1240 1320,1240 1360,1240 1400,1240 1440,1240 1480,1240 1520,1240 1560,1240 1600,1240 1640,1240 1680,1240 1720,1240 1760,1240 1800,1240 1840,1240 1880,1240 1920,1240 1960,1240 2000,1240 2000,1200 	"/>
	<polygon fill="#7C70DA" points="2120,1200 2080,1200 2080,1240 2120,1240 2160,1240 2160,1200 	"/>
	<polygon fill="#7C70DA" points="2280,1200 2240,1200 2240,1240 2280,1240 2320,1240 2320,1200 	"/>
	<polygon fill="#7C70DA" points="2400,1200 2400,1240 2440,1240 2480,1240 2480,1200 2440,1200 	"/>
</g>
</svg>
