<?xml version="1.0" encoding="utf-8"?>
<!-- Generator: Adobe Illustrator 15.0.0, SVG Export Plug-In . SVG Version: 6.00 Build 0)  -->
<!DOCTYPE svg PUBLIC "-//W3C//DTD SVG 1.1//EN" "http://www.w3.org/Graphics/SVG/1.1/DTD/svg11.dtd">
<svg version="1.1" id="Layer_1" xmlns:ev="http://www.w3.org/2001/xml-events"
	 xmlns="http://www.w3.org/2000/svg" xmlns:xlink="http://www.w3.org/1999/xlink" x="0px" y="0px" width="1520px" height="1240px"
	 viewBox="0 0 1520 1240" enable-background="new 0 0 1520 1240" xml:space="preserve">
<g>
	<polygon fill="#7C70DA" points="520,40 480,40 440,40 400,40 360,40 320,40 280,40 240,40 200,40 160,40 120,40 80,40 80,80 120,80 160,80 200,80 240,80 280,80 320,80 360,80 400,80 440,80 480,80 520,80 560,80 560,40 	"/>
	<polygon fill="#7C70DA" points="680,40 640,40 640,80 680,80 720,80 720,40 	"/>
	<polygon fill="#7C70DA" points="800,40 800,80 840,80 880,80 880,40 840,40 	"/>
	<polygon fill="#7C70DA" points="960,160 960,120 920,120 880,120 880,160 920,160 	"/>
	<polygon fill="#7C70DA" points="1040,240 1040,200 1040,160 1000,160 960,160 960,200 960,240 1000,240 	"/>
	<polygon fill="#7C70DA" points="1240,440 1200,440 1200,480 1240,480 1280,480 1280,440 	"/>
	<polygon fill="#7C70DA" points="1280,560 1280,520 1240,520 1200,520 1200,560 1240,560 	"/>
	<polygon fill="#7C70DA" points="1280,560 1280,600 1320,600 1360,600 1360,560 1320,560 	"/>
	<polygon fill="#7C70DA" points="1440,560 1440,600 1480,600 1520,600 1520,560 1480,560 	"/>
	<polygon fill="#7C70DA" points="1280,640 1280,600 1240,600 1200,600 1200,640 1240,640 	"/>
	<polygon fill="#7C70DA" points="840,680 880,680 920,680 960,680 1000,680 1040,680 1080,680 1120,680 1160,680 1200,680 1200,640 1160,640 1120,640 1120,600 1160,600 1200,600 1200,560 1160,560 1120,560 1120,520 1120,480 1120,440 1120,400 1120,360 1120,320 1120,280 1120,240 1080,240 1040,240 1040,280 1040,320 1040,360 1040,400 1000,400 960,400 960,440 1000,440 1040,440 1040,480 1000,480 960,480 960,520 1000,520 1040,520 1040,560 1000,560 960,560 960,600 1000,600 1040,600 1040,640 1000,640 960,640 920,640 880,640 840,640 800,640 800,680 	"/>
	<polygon fill="#7C70DA" points="1280,640 1280,680 1320,680 1360,680 1360,640 1320,640 	"/>
	<polygon fill="#7C70DA" points="1440,640 1440,680 1440,720 1400,720 1360,720 1320,720 1280,720 1240,720 1200,720 1160,720 1120,720 1080,720 1040,720 1000,720 960,720 920,720 880,720 880,760 920,760 960,760 1000,760 1040,760 1080,760 1120,760 1160,760 1200,760 1240,760 1280,760 1320,760 1360,760 1400,760 1440,760 1480,760 1520,760 1520,720 1520,680 1520,640 1480,640 	"/>
	<polygon fill="#7C70DA" points="680,720 720,720 760,720 800,720 800,680 760,680 720,680 680,680 640,680 640,720 	"/>
	<polygon fill="#7C70DA" points="600,760 640,760 640,720 600,720 560,720 560,760 	"/>
	<polygon fill="#7C70DA" points="720,800 720,760 680,760 640,760 640,800 680,800 	"/>
	<polygon fill="#7C70DA" points="800,800 800,840 840,840 880,840 880,800 840,800 	"/>
	<polygon fill="#7C70DA" points="680,880 720,880 720,840 680,840 640,840 640,880 	"/>
	<polygon fill="#7C70DA" points="800,880 800,920 760,920 720,920 680,920 640,920 600,920 560,920 520,920 480,920 480,880 520,880 560,880 560,840 600,840 640,840 640,800 600,800 560,800 560,760 520,760 480,760 480,800 480,840 440,840 400,840 400,880 400,920 360,920 320,920 320,960 360,960 400,960 440,960 480,960 520,960 560,960 600,960 640,960 680,960 720,960 760,960 800,960 840,960 880,960 880,920 880,880 840,880 	"/>
	<polygon fill="#7C70DA" points="800,1080 800,1120 840,1120 880,1120 880,1080 840,1080 	"/>
	<polygon fill="#7C70DA" points="680,1160 720,1160 720,1120 680,1120 640,1120 640,1160 	"/>
	<polygon fill="#7C70DA" points="800,1160 800,1200 760,1200 720,1200 680,1200 640,1200 600,1200 560,1200 520,1200 480,1200 480,1160 520,1160 560,1160 560,1120 520,1120 480,1120 480,1080 520,1080 560,1080 560,1120 600,1120 640,1120 640,1080 680,1080 720,1080 760,1080 800,1080 800,1040 760,1040 720,1040 680,1040 640,1040 600,1040 560,1040 520,1040 480,1040 480,1000 440,1000 400,1000 400,1040 360,1040 320,1040 320,1080 360,1080 400,1080 400,1120 360,1120 320,1120 320,1160 360,1160 400,1160 400,1200 360,1200 320,1200 320,1240 360,1240 400,1240 440,1240 480,1240 520,1240 560,1240 600,1240 640,1240 680,1240 720,1240 760,1240 800,1240 840,1240 880,1240 880,1200 880,1160 840,1160 	"/>
</g>
</svg>
