<?xml version="1.0" encoding="utf-8"?>
<!-- Generator: Adobe Illustrator 15.0.0, SVG Export Plug-In . SVG Version: 6.00 Build 0)  -->
<!DOCTYPE svg PUBLIC "-//W3C//DTD SVG 1.1//EN" "http://www.w3.org/Graphics/SVG/1.1/DTD/svg11.dtd">
<svg version="1.1" id="Layer_1" xmlns:ev="http://www.w3.org/2001/xml-events"
	 xmlns="http://www.w3.org/2000/svg" xmlns:xlink="http://www.w3.org/1999/xlink" x="0px" y="0px" width="1600px" height="1240px"
	 viewBox="0 0 1600 1240" enable-background="new 0 0 1600 1240" xml:space="preserve">
<g>
	<polygon fill="#7C70DA" points="280,40 240,40 200,40 160,40 160,80 200,80 240,80 280,80 320,80 320,40 	"/>
	<polygon fill="#7C70DA" points="440,40 400,40 400,80 440,80 480,80 480,40 	"/>
	<polygon fill="#7C70DA" points="600,40 560,40 560,80 600,80 640,80 640,40 	"/>
	<polygon fill="#7C70DA" points="760,40 720,40 720,80 760,80 800,80 800,40 	"/>
	<polygon fill="#7C70DA" points="1120,80 1160,80 1200,80 1240,80 1280,80 1280,40 1240,40 1200,40 1160,40 1120,40 1080,40 1040,40 1000,40 960,40 920,40 880,40 880,80 920,80 960,80 1000,80 1040,80 1080,80 	"/>
	<polygon fill="#7C70DA" points="1280,160 1280,120 1240,120 1200,120 1200,160 1240,160 	"/>
	<polygon fill="#7C70DA" points="1160,240 1120,240 1120,280 1160,280 1200,280 1200,240 	"/>
	<polygon fill="#7C70DA" points="800,440 840,440 880,440 880,480 920,480 960,480 960,440 1000,440 1040,440 1040,400 1000,400 960,400 960,360 1000,360 1040,360 1040,320 1080,320 1120,320 1120,280 1080,280 1040,280 1040,240 1080,240 1120,240 1120,200 1160,200 1200,200 1200,160 1160,160 1120,160 1120,120 1080,120 1040,120 1040,160 1000,160 960,160 960,200 960,240 960,280 920,280 880,280 880,320 880,360 840,360 800,360 800,400 	"/>
	<polygon fill="#7C70DA" points="1120,400 1120,440 1160,440 1200,440 1200,400 1160,400 	"/>
	<polygon fill="#7C70DA" points="1080,440 1040,440 1040,480 1080,480 1120,480 1120,440 	"/>
	<polygon fill="#7C70DA" points="720,520 760,520 800,520 800,480 800,440 760,440 720,440 720,480 	"/>
	<polygon fill="#7C70DA" points="640,600 680,600 720,600 720,560 720,520 680,520 640,520 640,560 	"/>
	<polygon fill="#7C70DA" points="560,680 600,680 640,680 640,640 640,600 600,600 560,600 560,640 	"/>
	<polygon fill="#7C70DA" points="480,760 520,760 560,760 560,720 560,680 520,680 480,680 480,720 	"/>
	<polygon fill="#7C70DA" points="400,840 440,840 480,840 480,800 480,760 440,760 400,760 400,800 	"/>
	<polygon fill="#7C70DA" points="560,880 560,840 520,840 480,840 480,880 520,880 	"/>
	<polygon fill="#7C70DA" points="640,880 640,920 680,920 720,920 720,880 680,880 	"/>
	<polygon fill="#7C70DA" points="440,960 400,960 400,1000 440,1000 480,1000 480,960 	"/>
	<polygon fill="#7C70DA" points="560,960 560,1000 600,1000 640,1000 640,960 600,960 	"/>
	<polygon fill="#7C70DA" points="520,1000 480,1000 480,1040 480,1080 520,1080 560,1080 560,1040 560,1000 	"/>
	<polygon fill="#7C70DA" points="440,1080 400,1080 400,1120 400,1160 440,1160 480,1160 480,1120 480,1080 	"/>
	<polygon fill="#7C70DA" points="360,1160 320,1160 320,1200 280,1200 240,1200 200,1200 160,1200 160,1160 200,1160 240,1160 280,1160 320,1160 320,1120 280,1120 240,1120 240,1080 280,1080 320,1080 320,1040 360,1040 400,1040 400,1000 360,1000 320,1000 320,960 360,960 400,960 400,920 440,920 480,920 480,880 440,880 400,880 400,840 360,840 320,840 320,880 320,920 280,920 240,920 240,960 240,1000 200,1000 160,1000 160,1040 160,1080 120,1080 80,1080 80,1120 40,1120 0,1120 0,1160 40,1160 80,1160 80,1200 40,1200 0,1200 0,1240 40,1240 80,1240 120,1240 160,1240 200,1240 240,1240 280,1240 320,1240 360,1240 400,1240 400,1200 400,1160 	"/>
</g>
</svg>
