<?xml version="1.0" encoding="utf-8"?>
<!-- Generator: Adobe Illustrator 15.0.0, SVG Export Plug-In . SVG Version: 6.00 Build 0)  -->
<!DOCTYPE svg PUBLIC "-//W3C//DTD SVG 1.1//EN" "http://www.w3.org/Graphics/SVG/1.1/DTD/svg11.dtd">
<svg version="1.1" id="Layer_1" xmlns:ev="http://www.w3.org/2001/xml-events"
	 xmlns="http://www.w3.org/2000/svg" xmlns:xlink="http://www.w3.org/1999/xlink" x="0px" y="0px" width="1599.987px"
	 height="1240px" viewBox="0 0 1599.987 1240" enable-background="new 0 0 1599.987 1240" xml:space="preserve">
<g>
	<polygon fill="#7C70DA" points="1320,80 1360,80 1360,40 1320,40 1280,40 1280,80 	"/>
	<polygon fill="#7C70DA" points="1120,160 1120,120 1120,80 1160,80 1200,80 1200,40 1160,40 1120,40 1080,40 1040,40 1040,80 
		1040,120 1040,160 1080,160 	"/>
	<polygon fill="#7C70DA" points="1080,240 1120,240 1120,200 1080,200 1040,200 1040,240 	"/>
	<polygon fill="#7C70DA" points="1280,480 1280,520 1320,520 1360,520 1360,480 1320,480 	"/>
	<polygon fill="#7C70DA" points="1440,480 1440,520 1480,520 1520,520 1520,480 1480,480 	"/>
	<polygon fill="#7C70DA" points="1280,560 1280,520 1240,520 1200,520 1200,560 1240,560 	"/>
	<polygon fill="#7C70DA" points="1280,560 1280,600 1320,600 1360,600 1360,560 1320,560 	"/>
	<polygon fill="#7C70DA" points="1440,560 1440,600 1480,600 1520,600 1520,560 1480,560 	"/>
	<polygon fill="#7C70DA" points="1240,600 1200,600 1200,640 1240,640 1280,640 1280,600 	"/>
	<polygon fill="#7C70DA" points="1440,640 1440,680 1440,720 1440,760 1440,800 1480,800 1520,800 1520,760 1520,720 1520,680 
		1520,640 1480,640 	"/>
	<polygon fill="#7C70DA" points="1040,720 1040,760 1080,760 1120,760 1160,760 1200,760 1240,760 1280,760 1320,760 1360,760 
		1360,720 1360,680 1360,640 1320,640 1280,640 1280,680 1240,680 1200,680 1200,640 1160,640 1120,640 1120,600 1160,600 1200,600 
		1200,560 1160,560 1120,560 1120,520 1160,520 1200,520 1200,480 1160,480 1120,480 1120,440 1120,400 1120,360 1120,320 1120,280 
		1080,280 1040,280 1040,320 1040,360 1040,400 1000,400 960,400 960,440 1000,440 1040,440 1040,480 1000,480 960,480 960,520 
		1000,520 1040,520 1040,560 1000,560 960,560 960,600 1000,600 1040,600 1040,640 1000,640 960,640 960,680 960,720 1000,720 	"/>
	<polygon fill="#7C70DA" points="1120,840 1120,800 1080,800 1040,800 1040,840 1080,840 	"/>
	<polygon fill="#7C70DA" points="1120,920 1120,880 1080,880 1040,880 1040,920 1080,920 	"/>
	<polygon fill="#7C70DA" points="360,1080 400,1080 400,1040 360,1040 320,1040 320,1080 	"/>
	<polygon fill="#7C70DA" points="440,1080 400,1080 400,1120 440,1120 480,1120 480,1160 520,1160 560,1160 560,1120 600,1120 
		640,1120 640,1160 680,1160 720,1160 720,1120 760,1120 800,1120 800,1160 840,1160 880,1160 880,1120 920,1120 960,1120 960,1160 
		1000,1160 1040,1160 1040,1120 1080,1120 1120,1120 1120,1080 1120,1040 1120,1000 1120,960 1080,960 1040,960 1040,1000 
		1040,1040 1040,1080 1000,1080 960,1080 920,1080 880,1080 840,1080 800,1080 760,1080 720,1080 720,1040 680,1040 640,1040 
		640,1080 600,1080 560,1080 560,1040 520,1040 480,1040 480,1080 	"/>
	<polygon fill="#7C70DA" points="1000,1200 960,1200 920,1200 880,1200 840,1200 800,1200 760,1200 720,1200 680,1200 640,1200 
		600,1200 560,1200 520,1200 480,1200 440,1200 400,1200 360,1200 320,1200 280,1200 240,1200 200,1200 160,1200 160,1160 200,1160 
		240,1160 280,1160 320,1160 360,1160 400,1160 400,1120 360,1120 320,1120 320,1080 280,1080 240,1080 240,1120 200,1120 160,1120 
		160,1080 200,1080 240,1080 240,1040 200,1040 160,1040 120,1040 80,1040 40,1040 0,1040 0,1080 40,1080 80,1080 80,1120 40,1120 
		0,1120 0,1160 40,1160 80,1160 80,1200 40,1200 0,1200 0,1240 40,1240 80,1240 120,1240 160,1240 200,1240 240,1240 280,1240 
		320,1240 360,1240 400,1240 440,1240 480,1240 520,1240 560,1240 600,1240 640,1240 680,1240 720,1240 760,1240 800,1240 840,1240 
		880,1240 920,1240 960,1240 1000,1240 1040,1240 1040,1200 	"/>
	<polygon fill="#7C70DA" points="1160,1200 1120,1200 1120,1240 1160,1240 1200,1240 1200,1200 	"/>
	<polygon fill="#7C70DA" points="1320,1200 1280,1200 1280,1240 1320,1240 1360,1240 1360,1200 	"/>
	<polygon fill="#7C70DA" points="1440,1200 1440,1240 1480,1240 1520,1240 1520,1200 1480,1200 	"/>
</g>
</svg>
