<?xml version="1.0" encoding="utf-8"?>
<!-- Generator: Adobe Illustrator 15.0.0, SVG Export Plug-In . SVG Version: 6.00 Build 0)  -->
<!DOCTYPE svg PUBLIC "-//W3C//DTD SVG 1.1//EN" "http://www.w3.org/Graphics/SVG/1.1/DTD/svg11.dtd">
<svg version="1.1" id="Layer_1" xmlns:ev="http://www.w3.org/2001/xml-events"
	 xmlns="http://www.w3.org/2000/svg" xmlns:xlink="http://www.w3.org/1999/xlink" x="0px" y="0px" width="640px" height="1240px"
	 viewBox="0 0 640 1240" enable-background="new 0 0 640 1240" xml:space="preserve">
<g>
	<polygon fill="#7C70DA" points="280,1080 320,1080 360,1080 400,1080 440,1080 480,1080 480,1040 440,1040 400,1040 360,1040 320,1040 280,1040 240,1040 240,1080 	"/>
	<polygon fill="#7C70DA" points="200,1160 240,1160 240,1120 240,1080 200,1080 160,1080 160,1120 160,1160 	"/>
	<polygon fill="#7C70DA" points="160,1160 120,1160 80,1160 80,1200 80,1240 120,1240 160,1240 160,1200 	"/>
</g>
</svg>
