<?xml version="1.0" encoding="utf-8"?>
<!-- Generator: Adobe Illustrator 15.0.0, SVG Export Plug-In . SVG Version: 6.00 Build 0)  -->
<!DOCTYPE svg PUBLIC "-//W3C//DTD SVG 1.1//EN" "http://www.w3.org/Graphics/SVG/1.1/DTD/svg11.dtd">
<svg version="1.1" id="Layer_1" xmlns:ev="http://www.w3.org/2001/xml-events"
	 xmlns="http://www.w3.org/2000/svg" xmlns:xlink="http://www.w3.org/1999/xlink" x="0px" y="0px" width="640px" height="1240px"
	 viewBox="0 0 640 1240" enable-background="new 0 0 640 1240" xml:space="preserve">
<g>
	<polygon fill="#8A46AE" points="520,40 480,40 480,80 480,120 520,120 560,120 560,80 560,40 	"/>
	<polygon fill="#8A46AE" points="200,120 240,120 240,80 240,40 200,40 160,40 160,80 160,120 	"/>
	<polygon fill="#8A46AE" points="360,80 320,80 320,120 360,120 400,120 400,80 	"/>
	<polygon fill="#8A46AE" points="320,120 280,120 240,120 240,160 240,200 280,200 320,200 320,160 	"/>
	<polygon fill="#8A46AE" points="440,120 400,120 400,160 400,200 440,200 480,200 480,160 480,120 	"/>
	<polygon fill="#8A46AE" points="160,200 160,160 120,160 80,160 80,200 120,200 	"/>
	<polygon fill="#8A46AE" points="160,200 160,240 160,280 200,280 240,280 240,240 240,200 200,200 	"/>
	<polygon fill="#8A46AE" points="360,200 320,200 320,240 320,280 360,280 400,280 400,240 400,200 	"/>
	<polygon fill="#8A46AE" points="80,320 80,280 40,280 0,280 0,320 40,320 	"/>
	<polygon fill="#8A46AE" points="240,280 240,320 280,320 320,320 320,280 280,280 	"/>
	<polygon fill="#8A46AE" points="200,320 160,320 120,320 80,320 80,360 120,360 160,360 200,360 240,360 240,320 	"/>
</g>
</svg>
