<?xml version="1.0" encoding="utf-8"?>
<!-- Generator: Adobe Illustrator 15.0.0, SVG Export Plug-In . SVG Version: 6.00 Build 0)  -->
<!DOCTYPE svg PUBLIC "-//W3C//DTD SVG 1.1//EN" "http://www.w3.org/Graphics/SVG/1.1/DTD/svg11.dtd">
<svg version="1.1" id="Layer_1" xmlns:ev="http://www.w3.org/2001/xml-events"
	 xmlns="http://www.w3.org/2000/svg" xmlns:xlink="http://www.w3.org/1999/xlink" x="0px" y="0px" width="1520px" height="1240px"
	 viewBox="0 0 1520 1240" enable-background="new 0 0 1520 1240" xml:space="preserve">
<g>
	<polygon fill="#8A46AE" points="200,40 240,40 240,0 200,0 160,0 160,40 	"/>
	<polygon fill="#8A46AE" points="360,40 400,40 400,0 360,0 320,0 320,40 	"/>
	<polygon fill="#8A46AE" points="80,80 80,40 40,40 0,40 0,80 40,80 	"/>
	<polygon fill="#8A46AE" points="600,40 560,40 560,80 600,80 640,80 640,40 	"/>
	<polygon fill="#8A46AE" points="760,40 720,40 720,80 760,80 800,80 800,40 	"/>
	<polygon fill="#8A46AE" points="920,80 960,80 960,40 920,40 880,40 880,80 	"/>
	<polygon fill="#8A46AE" points="120,80 80,80 80,120 120,120 160,120 160,80 	"/>
	<polygon fill="#8A46AE" points="280,80 240,80 240,120 280,120 320,120 320,80 	"/>
	<polygon fill="#8A46AE" points="880,120 880,80 840,80 800,80 800,120 840,120 	"/>
	<polygon fill="#8A46AE" points="960,200 960,160 920,160 880,160 880,200 920,200 	"/>
	<polygon fill="#8A46AE" points="1080,200 1040,200 1040,240 1080,240 1120,240 1120,200 	"/>
	<polygon fill="#8A46AE" points="1200,200 1200,240 1240,240 1280,240 1280,200 1240,200 	"/>
	<polygon fill="#8A46AE" points="1280,280 1280,320 1280,360 1320,360 1360,360 1360,320 1360,280 1320,280 	"/>
	<polygon fill="#8A46AE" points="1040,400 1040,360 1040,320 1040,280 1040,240 1000,240 960,240 960,280 960,320 960,360 960,400 1000,400 	"/>
	<polygon fill="#8A46AE" points="1360,360 1360,400 1360,440 1360,480 1400,480 1440,480 1440,440 1440,400 1440,360 1400,360 	"/>
	<polygon fill="#8A46AE" points="1040,480 1040,440 1000,440 960,440 960,480 1000,480 	"/>
	<polygon fill="#8A46AE" points="1240,520 1280,520 1280,560 1320,560 1360,560 1360,520 1360,480 1320,480 1280,480 1240,480 1200,480 1200,440 1240,440 1280,440 1280,400 1280,360 1240,360 1200,360 1200,320 1200,280 1160,280 1120,280 1120,320 1120,360 1120,400 1120,440 1120,480 1120,520 1120,560 1160,560 1200,560 1200,520 	"/>
	<polygon fill="#8A46AE" points="1440,480 1440,520 1440,560 1480,560 1520,560 1520,520 1520,480 1480,480 	"/>
	<polygon fill="#8A46AE" points="1040,560 1040,520 1000,520 960,520 960,560 1000,560 	"/>
	<polygon fill="#8A46AE" points="1280,600 1280,560 1240,560 1200,560 1200,600 1240,600 	"/>
	<polygon fill="#8A46AE" points="1360,560 1360,600 1400,600 1440,600 1440,560 1400,560 	"/>
	<polygon fill="#8A46AE" points="1040,640 1040,600 1000,600 960,600 960,640 1000,640 	"/>
	<polygon fill="#8A46AE" points="1160,600 1120,600 1120,640 1160,640 1200,640 1200,600 	"/>
	<polygon fill="#8A46AE" points="1280,600 1280,640 1320,640 1360,640 1360,600 1320,600 	"/>
	<polygon fill="#8A46AE" points="1440,600 1440,640 1480,640 1520,640 1520,600 1480,600 	"/>
	<polygon fill="#8A46AE" points="760,680 800,680 800,640 760,640 720,640 720,680 	"/>
	<polygon fill="#8A46AE" points="1280,680 1280,640 1240,640 1200,640 1200,680 1240,680 	"/>
	<polygon fill="#8A46AE" points="1360,640 1360,680 1400,680 1440,680 1440,640 1400,640 	"/>
	<polygon fill="#8A46AE" points="840,680 800,680 800,720 840,720 880,720 880,680 	"/>
	<polygon fill="#8A46AE" points="1000,680 960,680 960,720 1000,720 1040,720 1040,680 	"/>
	<polygon fill="#8A46AE" points="1160,680 1120,680 1120,720 1160,720 1200,720 1200,680 	"/>
	<polygon fill="#8A46AE" points="1320,680 1280,680 1280,720 1320,720 1360,720 1360,680 	"/>
	<polygon fill="#8A46AE" points="760,720 720,720 680,720 640,720 640,760 680,760 720,760 760,760 800,760 800,720 	"/>
	<polygon fill="#8A46AE" points="600,760 560,760 560,800 600,800 640,800 640,760 	"/>
	<polygon fill="#8A46AE" points="840,760 800,760 800,800 840,800 880,800 880,760 	"/>
	<polygon fill="#8A46AE" points="480,840 480,800 440,800 400,800 400,840 440,840 	"/>
	<polygon fill="#8A46AE" points="720,840 720,800 680,800 640,800 640,840 680,840 	"/>
	<polygon fill="#8A46AE" points="640,880 640,840 600,840 560,840 560,880 600,880 	"/>
	<polygon fill="#8A46AE" points="800,840 800,880 840,880 880,880 880,840 840,840 	"/>
	<polygon fill="#8A46AE" points="400,920 400,880 360,880 320,880 320,920 360,920 	"/>
	<polygon fill="#8A46AE" points="520,880 480,880 480,920 520,920 560,920 560,880 	"/>
	<polygon fill="#8A46AE" points="680,880 640,880 640,920 680,920 720,920 720,880 	"/>
	<polygon fill="#8A46AE" points="400,1040 400,1000 360,1000 320,1000 320,1040 360,1040 	"/>
	<polygon fill="#8A46AE" points="520,1040 560,1040 600,1040 640,1040 640,1000 600,1000 560,1000 520,1000 480,1000 480,1040 	"/>
	<polygon fill="#8A46AE" points="760,1040 800,1040 800,1000 760,1000 720,1000 720,1040 	"/>
	<polygon fill="#8A46AE" points="800,1040 800,1080 840,1080 880,1080 880,1040 840,1040 	"/>
	<polygon fill="#8A46AE" points="400,1120 400,1080 360,1080 320,1080 320,1120 360,1120 	"/>
	<polygon fill="#8A46AE" points="520,1080 480,1080 480,1120 520,1120 560,1120 560,1080 	"/>
	<polygon fill="#8A46AE" points="720,1080 680,1080 640,1080 640,1120 680,1120 720,1120 760,1120 800,1120 800,1080 760,1080 	"/>
	<polygon fill="#8A46AE" points="640,1160 640,1120 600,1120 560,1120 560,1160 600,1160 	"/>
	<polygon fill="#8A46AE" points="800,1120 800,1160 840,1160 880,1160 880,1120 840,1120 	"/>
	<polygon fill="#8A46AE" points="400,1200 400,1160 360,1160 320,1160 320,1200 360,1200 	"/>
	<polygon fill="#8A46AE" points="520,1160 480,1160 480,1200 520,1200 560,1200 560,1160 	"/>
</g>
</svg>
