<?xml version="1.0" encoding="utf-8"?>
<!-- Generator: Adobe Illustrator 15.0.0, SVG Export Plug-In . SVG Version: 6.00 Build 0)  -->
<!DOCTYPE svg PUBLIC "-//W3C//DTD SVG 1.1//EN" "http://www.w3.org/Graphics/SVG/1.1/DTD/svg11.dtd">
<svg version="1.1" id="Layer_1" xmlns:ev="http://www.w3.org/2001/xml-events"
	 xmlns="http://www.w3.org/2000/svg" xmlns:xlink="http://www.w3.org/1999/xlink" x="0px" y="0px" width="1920px" height="1240px"
	 viewBox="0 0 1920 1240" enable-background="new 0 0 1920 1240" xml:space="preserve">
<g>
	<polygon fill="#8A46AE" points="320,80 360,80 400,80 440,80 480,80 480,40 440,40 400,40 360,40 320,40 280,40 240,40 240,80 
		280,80 	"/>
	<polygon fill="#8A46AE" points="1760,80 1760,40 1720,40 1680,40 1680,80 1720,80 	"/>
	<polygon fill="#8A46AE" points="160,120 160,80 120,80 80,80 80,120 120,120 	"/>
	<polygon fill="#8A46AE" points="1280,160 1320,160 1360,160 1360,120 1360,80 1400,80 1440,80 1480,80 1520,80 1560,80 1600,80 
		1600,40 1560,40 1520,40 1480,40 1440,40 1400,40 1360,40 1320,40 1280,40 1280,80 1280,120 	"/>
	<polygon fill="#8A46AE" points="240,200 240,160 200,160 160,160 160,200 200,200 	"/>
	<polygon fill="#8A46AE" points="1280,200 1280,160 1240,160 1200,160 1200,200 1240,200 	"/>
	<polygon fill="#8A46AE" points="1600,160 1600,200 1640,200 1680,200 1680,160 1640,160 	"/>
	<polygon fill="#8A46AE" points="360,200 320,200 320,240 360,240 400,240 400,200 	"/>
	<polygon fill="#8A46AE" points="640,240 640,280 680,280 720,280 720,240 680,240 	"/>
	<polygon fill="#8A46AE" points="400,320 400,280 360,280 320,280 320,320 360,320 	"/>
	<polygon fill="#8A46AE" points="1200,320 1200,360 1240,360 1280,360 1280,320 1280,280 1240,280 1200,280 1160,280 1120,280 
		1120,320 1160,320 	"/>
	<polygon fill="#8A46AE" points="1440,280 1440,320 1480,320 1520,320 1520,280 1480,280 	"/>
	<polygon fill="#8A46AE" points="520,320 480,320 480,360 520,360 560,360 560,320 	"/>
	<polygon fill="#8A46AE" points="440,360 400,360 400,400 440,400 480,400 480,360 	"/>
	<polygon fill="#8A46AE" points="600,360 560,360 560,400 600,400 640,400 640,360 	"/>
	<polygon fill="#8A46AE" points="720,360 720,400 760,400 800,400 800,360 760,360 	"/>
	<polygon fill="#8A46AE" points="1120,400 1120,360 1080,360 1040,360 1040,400 1080,400 	"/>
	<polygon fill="#8A46AE" points="1360,360 1360,400 1400,400 1440,400 1440,360 1400,360 	"/>
	<polygon fill="#8A46AE" points="560,440 560,400 520,400 480,400 480,440 520,440 	"/>
	<polygon fill="#8A46AE" points="1120,400 1120,440 1160,440 1200,440 1200,400 1160,400 	"/>
	<polygon fill="#8A46AE" points="1280,400 1280,440 1320,440 1360,440 1360,400 1320,400 	"/>
	<polygon fill="#8A46AE" points="680,440 640,440 640,480 680,480 720,480 720,440 	"/>
	<polygon fill="#8A46AE" points="640,520 640,480 600,480 560,480 560,520 600,520 	"/>
	<polygon fill="#8A46AE" points="800,480 800,520 840,520 880,520 880,480 840,480 	"/>
	<polygon fill="#8A46AE" points="1040,520 1040,480 1000,480 960,480 960,520 1000,520 	"/>
	<polygon fill="#8A46AE" points="1200,480 1200,520 1240,520 1280,520 1280,480 1240,480 	"/>
	<polygon fill="#8A46AE" points="800,560 800,520 760,520 720,520 720,560 760,560 	"/>
	<polygon fill="#8A46AE" points="1160,520 1120,520 1120,560 1160,560 1200,560 1200,520 	"/>
	<polygon fill="#8A46AE" points="800,560 800,600 800,640 840,640 880,640 880,600 880,560 840,560 	"/>
	<polygon fill="#8A46AE" points="720,640 720,600 720,560 680,560 640,560 640,600 640,640 680,640 	"/>
	<polygon fill="#8A46AE" points="960,600 960,640 1000,640 1040,640 1040,600 1000,600 	"/>
	<polygon fill="#8A46AE" points="880,640 880,680 920,680 960,680 960,640 920,640 	"/>
	<polygon fill="#8A46AE" points="720,720 720,680 680,680 640,680 640,720 680,720 	"/>
	<polygon fill="#8A46AE" points="720,720 720,760 760,760 800,760 800,720 760,720 	"/>
	<polygon fill="#8A46AE" points="920,720 880,720 880,760 920,760 960,760 960,720 	"/>
	<polygon fill="#8A46AE" points="720,800 720,760 680,760 640,760 640,800 680,800 	"/>
	<polygon fill="#8A46AE" points="1120,760 1120,800 1160,800 1200,800 1200,760 1160,760 	"/>
	<polygon fill="#8A46AE" points="720,800 720,840 760,840 800,840 800,800 760,800 	"/>
	<polygon fill="#8A46AE" points="960,840 960,800 920,800 880,800 880,840 920,840 	"/>
	<polygon fill="#8A46AE" points="840,880 880,880 880,840 840,840 800,840 800,880 	"/>
	<polygon fill="#8A46AE" points="1000,880 1040,880 1040,840 1000,840 960,840 960,880 	"/>
	<polygon fill="#8A46AE" points="1120,840 1120,880 1120,920 1160,920 1200,920 1200,880 1200,840 1160,840 	"/>
	<polygon fill="#8A46AE" points="920,960 960,960 960,1000 1000,1000 1040,1000 1040,960 1040,920 1000,920 960,920 960,880 
		920,880 880,880 880,920 840,920 800,920 800,960 800,1000 840,1000 880,1000 880,960 	"/>
	<polygon fill="#8A46AE" points="720,1000 720,960 720,920 720,880 720,840 680,840 640,840 640,880 640,920 640,960 640,1000 
		680,1000 	"/>
	<polygon fill="#8A46AE" points="1120,960 1120,1000 1160,1000 1200,1000 1200,960 1160,960 	"/>
	<polygon fill="#8A46AE" points="960,1040 960,1000 920,1000 880,1000 880,1040 920,1040 	"/>
	<polygon fill="#8A46AE" points="720,1080 720,1040 680,1040 640,1040 640,1080 680,1080 	"/>
	<polygon fill="#8A46AE" points="840,1040 800,1040 800,1080 840,1080 880,1080 880,1040 	"/>
	<polygon fill="#8A46AE" points="960,1040 960,1080 1000,1080 1040,1080 1040,1040 1000,1040 	"/>
	<polygon fill="#8A46AE" points="1120,1040 1120,1080 1160,1080 1200,1080 1200,1040 1160,1040 	"/>
	<polygon fill="#8A46AE" points="920,1080 880,1080 880,1120 920,1120 960,1120 960,1080 	"/>
	<polygon fill="#8A46AE" points="1040,1080 1040,1120 1080,1120 1120,1120 1120,1080 1080,1080 	"/>
	<polygon fill="#8A46AE" points="1040,1160 1040,1120 1000,1120 960,1120 960,1160 1000,1160 	"/>
	<polygon fill="#8A46AE" points="720,1200 720,1160 680,1160 640,1160 640,1200 680,1200 	"/>
	<polygon fill="#8A46AE" points="920,1160 880,1160 840,1160 800,1160 800,1200 840,1200 880,1200 920,1200 960,1200 960,1160 	"/>
	<polygon fill="#8A46AE" points="1040,1160 1040,1200 1080,1200 1120,1200 1120,1160 1080,1160 	"/>
	<polygon fill="#8A46AE" points="1000,1200 960,1200 960,1240 1000,1240 1040,1240 1040,1200 	"/>
</g>
</svg>
