<?xml version="1.0" encoding="utf-8"?>
<!-- Generator: Adobe Illustrator 15.0.0, SVG Export Plug-In . SVG Version: 6.00 Build 0)  -->
<!DOCTYPE svg PUBLIC "-//W3C//DTD SVG 1.1//EN" "http://www.w3.org/Graphics/SVG/1.1/DTD/svg11.dtd">
<svg version="1.1" id="Layer_1" xmlns:ev="http://www.w3.org/2001/xml-events"
	 xmlns="http://www.w3.org/2000/svg" xmlns:xlink="http://www.w3.org/1999/xlink" x="0px" y="0px" width="1600px" height="1240px"
	 viewBox="0 0 1600 1240" enable-background="new 0 0 1600 1240" xml:space="preserve">
<g>
	<polygon fill="#8A46AE" points="200,40 240,40 240,0 200,0 160,0 160,40 	"/>
	<polygon fill="#8A46AE" points="360,40 400,40 400,0 360,0 320,0 320,40 	"/>
	<polygon fill="#8A46AE" points="480,80 480,40 440,40 400,40 400,80 440,80 	"/>
	<polygon fill="#8A46AE" points="1240,80 1280,80 1280,40 1240,40 1200,40 1200,80 	"/>
	<polygon fill="#8A46AE" points="1400,80 1440,80 1440,40 1400,40 1360,40 1360,80 	"/>
	<polygon fill="#8A46AE" points="280,120 320,120 320,80 280,80 240,80 240,120 	"/>
	<polygon fill="#8A46AE" points="80,160 80,120 40,120 0,120 0,160 40,160 	"/>
	<polygon fill="#8A46AE" points="200,120 160,120 160,160 200,160 240,160 240,120 	"/>
	<polygon fill="#8A46AE" points="480,120 480,160 520,160 560,160 560,120 520,120 	"/>
	<polygon fill="#8A46AE" points="320,200 320,240 360,240 400,240 400,200 400,160 400,120 360,120 320,120 320,160 280,160 240,160 240,200 280,200 	"/>
	<polygon fill="#8A46AE" points="1120,200 1120,160 1080,160 1040,160 1040,200 1080,200 	"/>
	<polygon fill="#8A46AE" points="80,240 80,200 40,200 0,200 0,240 40,240 	"/>
	<polygon fill="#8A46AE" points="200,200 160,200 160,240 200,240 240,240 240,200 	"/>
	<polygon fill="#8A46AE" points="480,200 480,240 520,240 560,240 560,200 520,200 	"/>
	<polygon fill="#8A46AE" points="1040,240 1040,200 1000,200 960,200 960,240 1000,240 	"/>
	<polygon fill="#8A46AE" points="1200,240 1200,200 1160,200 1120,200 1120,240 1160,240 	"/>
	<polygon fill="#8A46AE" points="1440,200 1440,240 1480,240 1520,240 1520,200 1480,200 	"/>
	<polygon fill="#8A46AE" points="280,240 240,240 240,280 280,280 320,280 320,240 	"/>
	<polygon fill="#8A46AE" points="1080,240 1040,240 1040,280 1080,280 1120,280 1120,240 	"/>
	<polygon fill="#8A46AE" points="1240,280 1280,280 1280,240 1240,240 1200,240 1200,280 	"/>
	<polygon fill="#8A46AE" points="160,280 160,320 200,320 240,320 240,280 200,280 	"/>
	<polygon fill="#8A46AE" points="360,280 320,280 320,320 360,320 400,320 400,280 	"/>
	<polygon fill="#8A46AE" points="480,280 480,320 520,320 560,320 560,280 520,280 	"/>
	<polygon fill="#8A46AE" points="1200,320 1200,280 1160,280 1120,280 1120,320 1160,320 	"/>
	<polygon fill="#8A46AE" points="1440,280 1440,320 1480,320 1520,320 1520,280 1480,280 	"/>
	<polygon fill="#8A46AE" points="80,360 80,320 40,320 0,320 0,360 40,360 	"/>
	<polygon fill="#8A46AE" points="1240,360 1280,360 1280,320 1240,320 1200,320 1200,360 	"/>
	<polygon fill="#8A46AE" points="360,360 320,360 320,400 360,400 400,400 400,360 	"/>
	<polygon fill="#8A46AE" points="480,360 480,400 520,400 560,400 560,360 520,360 	"/>
	<polygon fill="#8A46AE" points="1040,400 1040,360 1040,320 1040,280 1000,280 960,280 960,320 960,360 960,400 1000,400 	"/>
	<polygon fill="#8A46AE" points="1200,400 1200,360 1160,360 1120,360 1120,400 1160,400 	"/>
	<polygon fill="#8A46AE" points="1320,400 1360,400 1360,360 1320,360 1280,360 1280,400 	"/>
	<polygon fill="#8A46AE" points="1440,360 1440,400 1440,440 1440,480 1480,480 1520,480 1520,440 1520,400 1520,360 1480,360 	"/>
	<polygon fill="#8A46AE" points="240,440 240,400 200,400 160,400 160,440 200,440 	"/>
	<polygon fill="#8A46AE" points="480,440 480,400 440,400 400,400 400,440 440,440 	"/>
	<polygon fill="#8A46AE" points="280,480 320,480 320,440 280,440 240,440 240,480 	"/>
	<polygon fill="#8A46AE" points="480,440 480,480 520,480 560,480 560,440 520,440 	"/>
	<polygon fill="#8A46AE" points="1040,480 1040,440 1000,440 960,440 960,480 1000,480 	"/>
	<polygon fill="#8A46AE" points="480,520 480,480 440,480 400,480 400,520 440,520 	"/>
	<polygon fill="#8A46AE" points="1280,520 1280,480 1320,480 1360,480 1360,440 1320,440 1280,440 1280,400 1240,400 1200,400 1200,440 1160,440 1120,440 1120,480 1160,480 1200,480 1200,520 1240,520 	"/>
	<polygon fill="#8A46AE" points="160,560 160,520 120,520 80,520 80,560 120,560 	"/>
	<polygon fill="#8A46AE" points="360,560 400,560 400,520 360,520 320,520 320,560 	"/>
	<polygon fill="#8A46AE" points="1040,560 1040,520 1000,520 960,520 960,560 1000,560 	"/>
	<polygon fill="#8A46AE" points="1160,520 1120,520 1120,560 1160,560 1200,560 1200,520 	"/>
	<polygon fill="#8A46AE" points="1280,520 1280,560 1320,560 1360,560 1360,520 1320,520 	"/>
	<polygon fill="#8A46AE" points="1440,520 1440,560 1480,560 1520,560 1520,520 1480,520 	"/>
	<polygon fill="#8A46AE" points="1280,600 1280,560 1240,560 1200,560 1200,600 1240,600 	"/>
	<polygon fill="#8A46AE" points="1360,560 1360,600 1400,600 1440,600 1440,560 1400,560 	"/>
	<polygon fill="#8A46AE" points="160,640 160,600 120,600 80,600 80,640 120,640 	"/>
	<polygon fill="#8A46AE" points="480,600 480,640 520,640 560,640 560,600 520,600 	"/>
	<polygon fill="#8A46AE" points="1040,640 1040,600 1000,600 960,600 960,640 1000,640 	"/>
	<polygon fill="#8A46AE" points="1160,600 1120,600 1120,640 1160,640 1200,640 1200,600 	"/>
	<polygon fill="#8A46AE" points="1320,600 1280,600 1280,640 1320,640 1360,640 1360,600 	"/>
	<polygon fill="#8A46AE" points="1440,600 1440,640 1480,640 1520,640 1520,600 1480,600 	"/>
	<polygon fill="#8A46AE" points="1200,640 1200,680 1240,680 1280,680 1280,640 1240,640 	"/>
	<polygon fill="#8A46AE" points="1360,640 1360,680 1360,720 1400,720 1440,720 1440,680 1440,640 1400,640 	"/>
	<polygon fill="#8A46AE" points="160,720 160,680 120,680 80,680 80,720 120,720 	"/>
	<polygon fill="#8A46AE" points="1040,720 1040,680 1000,680 960,680 960,720 1000,720 	"/>
	<polygon fill="#8A46AE" points="80,760 80,720 40,720 0,720 0,760 40,760 	"/>
	<polygon fill="#8A46AE" points="1200,760 1200,720 1160,720 1120,720 1120,760 1160,760 	"/>
	<polygon fill="#8A46AE" points="120,760 80,760 80,800 120,800 160,800 160,760 	"/>
	<polygon fill="#8A46AE" points="320,800 320,760 280,760 240,760 240,800 280,800 	"/>
	<polygon fill="#8A46AE" points="1120,800 1120,760 1080,760 1040,760 1040,800 1080,800 	"/>
	<polygon fill="#8A46AE" points="1280,760 1280,800 1320,800 1360,800 1360,760 1320,760 	"/>
	<polygon fill="#8A46AE" points="80,840 80,800 40,800 0,800 0,840 40,840 	"/>
	<polygon fill="#8A46AE" points="240,840 240,800 200,800 160,800 160,840 200,840 	"/>
	<polygon fill="#8A46AE" points="320,800 320,840 360,840 400,840 400,800 360,800 	"/>
	<polygon fill="#8A46AE" points="480,800 480,840 520,840 560,840 560,800 520,800 	"/>
	<polygon fill="#8A46AE" points="280,840 240,840 240,880 280,880 320,880 320,840 	"/>
	<polygon fill="#8A46AE" points="1120,880 1120,840 1080,840 1040,840 1040,880 1080,880 	"/>
	<polygon fill="#8A46AE" points="80,920 80,880 40,880 0,880 0,920 40,920 	"/>
	<polygon fill="#8A46AE" points="480,880 480,920 520,920 560,920 560,880 520,880 	"/>
	<polygon fill="#8A46AE" points="680,920 720,920 720,880 680,880 640,880 640,920 	"/>
	<polygon fill="#8A46AE" points="600,960 640,960 640,920 600,920 560,920 560,960 	"/>
	<polygon fill="#8A46AE" points="760,960 800,960 800,920 760,920 720,920 720,960 	"/>
	<polygon fill="#8A46AE" points="80,1000 80,960 40,960 0,960 0,1000 40,1000 	"/>
	<polygon fill="#8A46AE" points="320,1000 320,960 360,960 400,960 400,1000 440,1000 480,1000 520,1000 560,1000 560,960 520,960 480,960 480,920 440,920 400,920 400,880 360,880 320,880 320,920 280,920 240,920 240,880 200,880 160,880 160,920 160,960 200,960 240,960 240,1000 280,1000 	"/>
	<polygon fill="#8A46AE" points="680,960 640,960 640,1000 680,1000 720,1000 720,960 	"/>
	<polygon fill="#8A46AE" points="840,960 800,960 800,1000 840,1000 880,1000 880,960 	"/>
	<polygon fill="#8A46AE" points="1000,960 960,960 960,1000 1000,1000 1040,1000 1040,960 	"/>
	<polygon fill="#8A46AE" points="1160,1000 1200,1000 1200,960 1160,960 1120,960 1120,1000 	"/>
	<polygon fill="#8A46AE" points="1280,960 1280,1000 1320,1000 1360,1000 1360,960 1320,960 	"/>
	<polygon fill="#8A46AE" points="1440,960 1440,1000 1480,1000 1520,1000 1520,960 1480,960 	"/>
	<polygon fill="#8A46AE" points="200,1000 160,1000 160,1040 200,1040 240,1040 240,1000 	"/>
	<polygon fill="#8A46AE" points="360,1000 320,1000 320,1040 360,1040 400,1040 400,1000 	"/>
	<polygon fill="#8A46AE" points="1080,1000 1040,1000 1040,1040 1080,1040 1120,1040 1120,1000 	"/>
	<polygon fill="#8A46AE" points="1240,1040 1280,1040 1280,1000 1240,1000 1200,1000 1200,1040 	"/>
	<polygon fill="#8A46AE" points="280,1040 240,1040 240,1080 280,1080 320,1080 320,1040 	"/>
	<polygon fill="#8A46AE" points="440,1040 400,1040 400,1080 440,1080 480,1080 480,1040 	"/>
	<polygon fill="#8A46AE" points="680,1040 640,1040 600,1040 560,1040 560,1080 600,1080 640,1080 680,1080 720,1080 720,1040 	"/>
	<polygon fill="#8A46AE" points="840,1040 800,1040 800,1080 840,1080 880,1080 880,1040 	"/>
	<polygon fill="#8A46AE" points="1200,1080 1200,1040 1160,1040 1120,1040 1120,1080 1160,1080 	"/>
	<polygon fill="#8A46AE" points="1280,1040 1280,1080 1320,1080 1360,1080 1360,1040 1320,1040 	"/>
	<polygon fill="#8A46AE" points="1440,1040 1440,1080 1480,1080 1520,1080 1520,1040 1480,1040 	"/>
	<polygon fill="#8A46AE" points="1040,1120 1040,1080 1040,1040 1000,1040 960,1040 960,1080 960,1120 1000,1120 	"/>
	<polygon fill="#8A46AE" points="1240,1160 1280,1160 1320,1160 1360,1160 1360,1120 1320,1120 1280,1120 1280,1080 1240,1080 1200,1080 1200,1120 1160,1120 1120,1120 1120,1160 1120,1200 1160,1200 1200,1200 1200,1160 	"/>
	<polygon fill="#8A46AE" points="1440,1120 1440,1160 1440,1200 1480,1200 1520,1200 1520,1160 1520,1120 1480,1120 	"/>
	<polygon fill="#8A46AE" points="1040,1200 1040,1160 1000,1160 960,1160 960,1200 1000,1200 	"/>
	<polygon fill="#8A46AE" points="1080,1200 1040,1200 1040,1240 1080,1240 1120,1240 1120,1200 	"/>
	<polygon fill="#8A46AE" points="1240,1200 1200,1200 1200,1240 1240,1240 1280,1240 1280,1200 	"/>
	<polygon fill="#8A46AE" points="1400,1200 1360,1200 1360,1240 1400,1240 1440,1240 1440,1200 	"/>
</g>
</svg>
