<?xml version="1.0" encoding="utf-8"?>
<!-- Generator: Adobe Illustrator 15.0.0, SVG Export Plug-In . SVG Version: 6.00 Build 0)  -->
<!DOCTYPE svg PUBLIC "-//W3C//DTD SVG 1.1//EN" "http://www.w3.org/Graphics/SVG/1.1/DTD/svg11.dtd">
<svg version="1.1" id="Layer_1" xmlns:ev="http://www.w3.org/2001/xml-events"
	 xmlns="http://www.w3.org/2000/svg" xmlns:xlink="http://www.w3.org/1999/xlink" x="0px" y="0px" width="640px" height="1240px"
	 viewBox="0 0 640 1240" enable-background="new 0 0 640 1240" xml:space="preserve">
<g>
	<polygon fill="#8A46AE" points="200,1040 240,1040 280,1040 320,1040 320,1000 280,1000 240,1000 200,1000 160,1000 160,1040 	"/>
	<polygon fill="#8A46AE" points="440,1040 480,1040 480,1000 440,1000 400,1000 400,1040 	"/>
	<polygon fill="#8A46AE" points="480,1040 480,1080 520,1080 560,1080 560,1040 520,1040 	"/>
	<polygon fill="#8A46AE" points="80,1160 80,1120 80,1080 40,1080 0,1080 0,1120 0,1160 40,1160 	"/>
	<polygon fill="#8A46AE" points="240,1160 240,1120 280,1120 320,1120 320,1080 280,1080 240,1080 200,1080 160,1080 160,1120 160,1160 200,1160 	"/>
	<polygon fill="#8A46AE" points="360,1160 400,1160 400,1120 360,1120 320,1120 320,1160 	"/>
	<polygon fill="#8A46AE" points="120,1160 80,1160 80,1200 120,1200 160,1200 160,1160 	"/>
	<polygon fill="#8A46AE" points="280,1160 240,1160 240,1200 280,1200 320,1200 320,1160 	"/>
	<polygon fill="#8A46AE" points="40,1200 0,1200 0,1240 40,1240 80,1240 80,1200 	"/>
	<polygon fill="#8A46AE" points="200,1200 160,1200 160,1240 200,1240 240,1240 240,1200 	"/>
</g>
</svg>
