<?xml version="1.0" encoding="utf-8"?>
<!-- Generator: Adobe Illustrator 15.0.0, SVG Export Plug-In . SVG Version: 6.00 Build 0)  -->
<!DOCTYPE svg PUBLIC "-//W3C//DTD SVG 1.1//EN" "http://www.w3.org/Graphics/SVG/1.1/DTD/svg11.dtd">
<svg version="1.1" id="Layer_1" xmlns:ev="http://www.w3.org/2001/xml-events"
	 xmlns="http://www.w3.org/2000/svg" xmlns:xlink="http://www.w3.org/1999/xlink" x="0px" y="0px" width="2560px" height="1240px"
	 viewBox="0 0 2560 1240" enable-background="new 0 0 2560 1240" xml:space="preserve">
<g>
	<polygon fill="#8A46AE" points="200,40 240,40 240,0 200,0 160,0 160,40 	"/>
	<polygon fill="#8A46AE" points="360,40 400,40 400,0 360,0 320,0 320,40 	"/>
	<polygon fill="#8A46AE" points="840,40 880,40 880,0 840,0 800,0 800,40 	"/>
	<polygon fill="#8A46AE" points="1000,40 1040,40 1040,0 1000,0 960,0 960,40 	"/>
	<polygon fill="#8A46AE" points="1160,40 1200,40 1200,0 1160,0 1120,0 1120,40 	"/>
	<polygon fill="#8A46AE" points="1320,40 1360,40 1360,0 1320,0 1280,0 1280,40 	"/>
	<polygon fill="#8A46AE" points="600,40 560,40 560,80 600,80 640,80 640,40 	"/>
	<polygon fill="#8A46AE" points="720,40 720,80 760,80 800,80 800,40 760,40 	"/>
	<polygon fill="#8A46AE" points="1560,40 1520,40 1520,80 1560,80 1600,80 1600,40 	"/>
	<polygon fill="#8A46AE" points="1720,40 1680,40 1680,80 1720,80 1760,80 1760,40 	"/>
	<polygon fill="#8A46AE" points="1880,80 1920,80 1920,40 1880,40 1840,40 1840,80 	"/>
	<polygon fill="#8A46AE" points="280,120 320,120 320,80 280,80 240,80 240,120 	"/>
	<polygon fill="#8A46AE" points="840,80 800,80 800,120 840,120 880,120 880,80 	"/>
	<polygon fill="#8A46AE" points="1240,120 1280,120 1280,80 1240,80 1200,80 1200,120 	"/>
	<polygon fill="#8A46AE" points="1840,120 1840,80 1800,80 1760,80 1760,120 1800,120 	"/>
	<polygon fill="#8A46AE" points="80,160 80,120 40,120 0,120 0,160 40,160 	"/>
	<polygon fill="#8A46AE" points="200,120 160,120 160,160 200,160 240,160 240,120 	"/>
	<polygon fill="#8A46AE" points="480,120 480,160 480,200 480,240 520,240 560,240 560,200 560,160 560,120 520,120 	"/>
	<polygon fill="#8A46AE" points="1040,160 1040,120 1040,80 1000,80 960,80 960,120 960,160 1000,160 	"/>
	<polygon fill="#8A46AE" points="1160,120 1120,120 1120,160 1160,160 1200,160 1200,120 	"/>
	<polygon fill="#8A46AE" points="1440,120 1440,160 1440,200 1440,240 1480,240 1520,240 1520,200 1520,160 1520,120 1480,120 	"/>
	<polygon fill="#8A46AE" points="320,200 320,240 360,240 400,240 400,200 400,160 400,120 360,120 320,120 320,160 280,160 240,160 240,200 280,200 	"/>
	<polygon fill="#8A46AE" points="1280,200 1280,240 1320,240 1360,240 1360,200 1360,160 1360,120 1320,120 1280,120 1280,160 1240,160 1200,160 1200,200 1240,200 	"/>
	<polygon fill="#8A46AE" points="1920,200 1920,160 1880,160 1840,160 1840,200 1880,200 	"/>
	<polygon fill="#8A46AE" points="80,240 80,200 40,200 0,200 0,240 40,240 	"/>
	<polygon fill="#8A46AE" points="200,200 160,200 160,240 200,240 240,240 240,200 	"/>
	<polygon fill="#8A46AE" points="1040,240 1040,200 1000,200 960,200 960,240 1000,240 	"/>
	<polygon fill="#8A46AE" points="1160,200 1120,200 1120,240 1160,240 1200,240 1200,200 	"/>
	<polygon fill="#8A46AE" points="2040,200 2000,200 2000,240 2040,240 2080,240 2080,200 	"/>
	<polygon fill="#8A46AE" points="2160,200 2160,240 2200,240 2240,240 2240,200 2200,200 	"/>
	<polygon fill="#8A46AE" points="280,240 240,240 240,280 280,280 320,280 320,240 	"/>
	<polygon fill="#8A46AE" points="1240,240 1200,240 1200,280 1240,280 1280,280 1280,240 	"/>
	<polygon fill="#8A46AE" points="160,280 160,320 200,320 240,320 240,280 200,280 	"/>
	<polygon fill="#8A46AE" points="360,280 320,280 320,320 360,320 400,320 400,280 	"/>
	<polygon fill="#8A46AE" points="480,280 480,320 520,320 560,320 560,280 520,280 	"/>
	<polygon fill="#8A46AE" points="1120,280 1120,320 1160,320 1200,320 1200,280 1160,280 	"/>
	<polygon fill="#8A46AE" points="1320,280 1280,280 1280,320 1320,320 1360,320 1360,280 	"/>
	<polygon fill="#8A46AE" points="1440,280 1440,320 1480,320 1520,320 1520,280 1480,280 	"/>
	<polygon fill="#8A46AE" points="2240,280 2240,320 2240,360 2280,360 2320,360 2320,320 2320,280 2280,280 	"/>
	<polygon fill="#8A46AE" points="80,360 80,320 40,320 0,320 0,360 40,360 	"/>
	<polygon fill="#8A46AE" points="1040,360 1040,320 1000,320 960,320 960,360 1000,360 	"/>
	<polygon fill="#8A46AE" points="360,360 320,360 320,400 360,400 400,400 400,360 	"/>
	<polygon fill="#8A46AE" points="480,360 480,400 520,400 560,400 560,360 520,360 	"/>
	<polygon fill="#8A46AE" points="1320,360 1280,360 1280,400 1320,400 1360,400 1360,360 	"/>
	<polygon fill="#8A46AE" points="1440,360 1440,400 1480,400 1520,400 1520,360 1480,360 	"/>
	<polygon fill="#8A46AE" points="2000,400 2000,360 2000,320 2000,280 2000,240 1960,240 1920,240 1920,280 1920,320 1920,360 1920,400 1960,400 	"/>
	<polygon fill="#8A46AE" points="2320,360 2320,400 2320,440 2320,480 2360,480 2400,480 2400,440 2400,400 2400,360 2360,360 	"/>
	<polygon fill="#8A46AE" points="240,440 240,400 200,400 160,400 160,440 200,440 	"/>
	<polygon fill="#8A46AE" points="400,400 400,440 440,440 480,440 480,400 440,400 	"/>
	<polygon fill="#8A46AE" points="1200,440 1200,400 1160,400 1120,400 1120,440 1160,440 	"/>
	<polygon fill="#8A46AE" points="1360,400 1360,440 1400,440 1440,440 1440,400 1400,400 	"/>
	<polygon fill="#8A46AE" points="280,480 320,480 320,440 280,440 240,440 240,480 	"/>
	<polygon fill="#8A46AE" points="480,440 480,480 520,480 560,480 560,440 520,440 	"/>
	<polygon fill="#8A46AE" points="1240,480 1280,480 1280,440 1240,440 1200,440 1200,480 	"/>
	<polygon fill="#8A46AE" points="1440,440 1440,480 1480,480 1520,480 1520,440 1480,440 	"/>
	<polygon fill="#8A46AE" points="2000,480 2000,440 1960,440 1920,440 1920,480 1960,480 	"/>
	<polygon fill="#8A46AE" points="400,480 400,520 440,520 480,520 480,480 440,480 	"/>
	<polygon fill="#8A46AE" points="1360,480 1360,520 1400,520 1440,520 1440,480 1400,480 	"/>
	<polygon fill="#8A46AE" points="2200,520 2240,520 2240,560 2280,560 2320,560 2320,520 2320,480 2280,480 2240,480 2200,480 2160,480 2160,440 2200,440 2240,440 2240,400 2240,360 2200,360 2160,360 2160,320 2160,280 2120,280 2080,280 2080,320 2080,360 2080,400 2080,440 2080,480 2080,520 2080,560 2120,560 2160,560 2160,520 	"/>
	<polygon fill="#8A46AE" points="2400,480 2400,520 2400,560 2440,560 2480,560 2480,520 2480,480 2440,480 	"/>
	<polygon fill="#8A46AE" points="160,560 160,520 120,520 80,520 80,560 120,560 	"/>
	<polygon fill="#8A46AE" points="360,520 320,520 320,560 360,560 400,560 400,520 	"/>
	<polygon fill="#8A46AE" points="1120,560 1120,520 1080,520 1040,520 1040,560 1080,560 	"/>
	<polygon fill="#8A46AE" points="1320,520 1280,520 1280,560 1320,560 1360,560 1360,520 	"/>
	<polygon fill="#8A46AE" points="2000,560 2000,520 1960,520 1920,520 1920,560 1960,560 	"/>
	<polygon fill="#8A46AE" points="2240,600 2240,560 2200,560 2160,560 2160,600 2200,600 	"/>
	<polygon fill="#8A46AE" points="2320,560 2320,600 2360,600 2400,600 2400,560 2360,560 	"/>
	<polygon fill="#8A46AE" points="160,640 160,600 120,600 80,600 80,640 120,640 	"/>
	<polygon fill="#8A46AE" points="480,600 480,640 520,640 560,640 560,600 520,600 	"/>
	<polygon fill="#8A46AE" points="1120,640 1120,600 1080,600 1040,600 1040,640 1080,640 	"/>
	<polygon fill="#8A46AE" points="1440,600 1440,640 1480,640 1520,640 1520,600 1480,600 	"/>
	<polygon fill="#8A46AE" points="2000,640 2000,600 1960,600 1920,600 1920,640 1960,640 	"/>
	<polygon fill="#8A46AE" points="2120,600 2080,600 2080,640 2120,640 2160,640 2160,600 	"/>
	<polygon fill="#8A46AE" points="2280,600 2240,600 2240,640 2280,640 2320,640 2320,600 	"/>
	<polygon fill="#8A46AE" points="2400,600 2400,640 2440,640 2480,640 2480,600 2440,600 	"/>
	<polygon fill="#8A46AE" points="2160,640 2160,680 2200,680 2240,680 2240,640 2200,640 	"/>
	<polygon fill="#8A46AE" points="160,720 160,680 120,680 80,680 80,720 120,720 	"/>
	<polygon fill="#8A46AE" points="1120,720 1120,680 1080,680 1040,680 1040,720 1080,720 	"/>
	<polygon fill="#8A46AE" points="2400,680 2400,640 2360,640 2320,640 2320,680 2320,720 2360,720 2400,720 2440,720 2480,720 2480,680 2440,680 	"/>
	<polygon fill="#8A46AE" points="80,760 80,720 40,720 0,720 0,760 40,760 	"/>
	<polygon fill="#8A46AE" points="1040,760 1040,720 1000,720 960,720 960,760 1000,760 	"/>
	<polygon fill="#8A46AE" points="120,760 80,760 80,800 120,800 160,800 160,760 	"/>
	<polygon fill="#8A46AE" points="320,800 320,760 280,760 240,760 240,800 280,800 	"/>
	<polygon fill="#8A46AE" points="1080,760 1040,760 1040,800 1080,800 1120,800 1120,760 	"/>
	<polygon fill="#8A46AE" points="1280,800 1280,760 1240,760 1200,760 1200,800 1240,800 	"/>
	<polygon fill="#8A46AE" points="2080,800 2080,760 2040,760 2000,760 2000,800 2040,800 	"/>
	<polygon fill="#8A46AE" points="2240,760 2240,800 2280,800 2320,800 2320,760 2280,760 	"/>
	<polygon fill="#8A46AE" points="80,840 80,800 40,800 0,800 0,840 40,840 	"/>
	<polygon fill="#8A46AE" points="240,840 240,800 200,800 160,800 160,840 200,840 	"/>
	<polygon fill="#8A46AE" points="320,800 320,840 360,840 400,840 400,800 360,800 	"/>
	<polygon fill="#8A46AE" points="480,800 480,840 520,840 560,840 560,800 520,800 	"/>
	<polygon fill="#8A46AE" points="1040,840 1040,800 1000,800 960,800 960,840 1000,840 	"/>
	<polygon fill="#8A46AE" points="1200,840 1200,800 1160,800 1120,800 1120,840 1160,840 	"/>
	<polygon fill="#8A46AE" points="1280,800 1280,840 1320,840 1360,840 1360,800 1320,800 	"/>
	<polygon fill="#8A46AE" points="1440,800 1440,840 1480,840 1520,840 1520,800 1480,800 	"/>
	<polygon fill="#8A46AE" points="240,840 240,880 280,880 320,880 320,840 280,840 	"/>
	<polygon fill="#8A46AE" points="1200,840 1200,880 1240,880 1280,880 1280,840 1240,840 	"/>
	<polygon fill="#8A46AE" points="2080,880 2080,840 2040,840 2000,840 2000,880 2040,880 	"/>
	<polygon fill="#8A46AE" points="480,880 480,920 480,960 520,960 560,960 560,920 560,880 520,880 	"/>
	<polygon fill="#8A46AE" points="1440,880 1440,920 1440,960 1480,960 1520,960 1520,920 1520,880 1480,880 	"/>
	<polygon fill="#8A46AE" points="2040,920 2000,920 2000,960 2040,960 2080,960 2080,920 	"/>
	<polygon fill="#8A46AE" points="320,1000 320,960 360,960 400,960 400,920 400,880 360,880 320,880 320,920 280,920 240,920 240,880 200,880 160,880 160,920 160,960 200,960 240,960 240,1000 280,1000 	"/>
	<polygon fill="#8A46AE" points="400,960 400,1000 440,1000 480,1000 480,960 440,960 	"/>
	<polygon fill="#8A46AE" points="1280,1000 1280,960 1320,960 1360,960 1360,920 1360,880 1320,880 1280,880 1280,920 1240,920 1200,920 1200,880 1160,880 1120,880 1120,920 1120,960 1160,960 1200,960 1200,1000 1240,1000 	"/>
	<polygon fill="#8A46AE" points="1360,960 1360,1000 1400,1000 1440,1000 1440,960 1400,960 	"/>
	<polygon fill="#8A46AE" points="2000,1000 2000,960 1960,960 1920,960 1920,1000 1960,1000 	"/>
	<polygon fill="#8A46AE" points="2160,1000 2160,960 2120,960 2080,960 2080,1000 2120,1000 	"/>
	<polygon fill="#8A46AE" points="2240,960 2240,1000 2280,1000 2320,1000 2320,960 2280,960 	"/>
	<polygon fill="#8A46AE" points="2400,960 2400,1000 2440,1000 2480,1000 2480,960 2440,960 	"/>
	<polygon fill="#8A46AE" points="80,1040 80,1000 80,960 80,920 80,880 40,880 0,880 0,920 0,960 0,1000 0,1040 40,1040 	"/>
	<polygon fill="#8A46AE" points="200,1000 160,1000 160,1040 200,1040 240,1040 240,1000 	"/>
	<polygon fill="#8A46AE" points="320,1000 320,1040 360,1040 400,1040 400,1000 360,1000 	"/>
	<polygon fill="#8A46AE" points="480,1000 480,1040 520,1040 560,1040 560,1000 520,1000 	"/>
	<polygon fill="#8A46AE" points="1040,1040 1040,1000 1040,960 1040,920 1040,880 1000,880 960,880 960,920 960,960 960,1000 960,1040 1000,1040 	"/>
	<polygon fill="#8A46AE" points="1160,1000 1120,1000 1120,1040 1160,1040 1200,1040 1200,1000 	"/>
	<polygon fill="#8A46AE" points="1280,1000 1280,1040 1320,1040 1360,1040 1360,1000 1320,1000 	"/>
	<polygon fill="#8A46AE" points="1440,1000 1440,1040 1480,1040 1520,1040 1520,1000 1480,1000 	"/>
	<polygon fill="#8A46AE" points="2200,1040 2240,1040 2240,1000 2200,1000 2160,1000 2160,1040 	"/>
	<polygon fill="#8A46AE" points="280,1040 240,1040 240,1080 280,1080 320,1080 320,1040 	"/>
	<polygon fill="#8A46AE" points="400,1040 400,1080 440,1080 480,1080 480,1040 440,1040 	"/>
	<polygon fill="#8A46AE" points="1240,1040 1200,1040 1200,1080 1240,1080 1280,1080 1280,1040 	"/>
	<polygon fill="#8A46AE" points="1360,1040 1360,1080 1400,1080 1440,1080 1440,1040 1400,1040 	"/>
	<polygon fill="#8A46AE" points="2160,1080 2160,1040 2120,1040 2080,1040 2080,1080 2120,1080 	"/>
	<polygon fill="#8A46AE" points="2240,1040 2240,1080 2280,1080 2320,1080 2320,1040 2280,1040 	"/>
	<polygon fill="#8A46AE" points="2400,1040 2400,1080 2440,1080 2480,1080 2480,1040 2440,1040 	"/>
	<polygon fill="#8A46AE" points="80,1120 80,1080 40,1080 0,1080 0,1120 40,1120 	"/>
	<polygon fill="#8A46AE" points="360,1080 320,1080 320,1120 360,1120 400,1120 400,1080 	"/>
	<polygon fill="#8A46AE" points="480,1080 480,1120 520,1120 560,1120 560,1080 520,1080 	"/>
	<polygon fill="#8A46AE" points="1040,1120 1040,1080 1000,1080 960,1080 960,1120 1000,1120 	"/>
	<polygon fill="#8A46AE" points="1320,1080 1280,1080 1280,1120 1320,1120 1360,1120 1360,1080 	"/>
	<polygon fill="#8A46AE" points="1440,1080 1440,1120 1480,1120 1520,1120 1520,1080 1480,1080 	"/>
	<polygon fill="#8A46AE" points="2000,1120 2000,1080 2000,1040 1960,1040 1920,1040 1920,1080 1920,1120 1960,1120 	"/>
	<polygon fill="#8A46AE" points="400,1120 400,1160 440,1160 480,1160 480,1120 440,1120 	"/>
	<polygon fill="#8A46AE" points="1360,1120 1360,1160 1400,1160 1440,1160 1440,1120 1400,1120 	"/>
	<polygon fill="#8A46AE" points="2200,1160 2240,1160 2280,1160 2320,1160 2320,1120 2280,1120 2240,1120 2240,1080 2200,1080 2160,1080 2160,1120 2120,1120 2080,1120 2080,1160 2080,1200 2120,1200 2160,1200 2160,1160 	"/>
	<polygon fill="#8A46AE" points="2400,1120 2400,1160 2400,1200 2440,1200 2480,1200 2480,1160 2480,1120 2440,1120 	"/>
	<polygon fill="#8A46AE" points="80,1200 80,1160 40,1160 0,1160 0,1200 40,1200 	"/>
	<polygon fill="#8A46AE" points="360,1160 320,1160 280,1160 240,1160 200,1160 160,1160 160,1200 200,1200 240,1200 280,1200 320,1200 360,1200 400,1200 400,1160 	"/>
	<polygon fill="#8A46AE" points="1040,1200 1040,1160 1000,1160 960,1160 960,1200 1000,1200 	"/>
	<polygon fill="#8A46AE" points="1320,1160 1280,1160 1240,1160 1200,1160 1160,1160 1120,1160 1120,1200 1160,1200 1200,1200 1240,1200 1280,1200 1320,1200 1360,1200 1360,1160 	"/>
	<polygon fill="#8A46AE" points="2000,1200 2000,1160 1960,1160 1920,1160 1920,1200 1960,1200 	"/>
	<polygon fill="#8A46AE" points="2040,1200 2000,1200 2000,1240 2040,1240 2080,1240 2080,1200 	"/>
	<polygon fill="#8A46AE" points="2200,1200 2160,1200 2160,1240 2200,1240 2240,1240 2240,1200 	"/>
	<polygon fill="#8A46AE" points="2360,1200 2320,1200 2320,1240 2360,1240 2400,1240 2400,1200 	"/>
</g>
</svg>
