<?xml version="1.0" encoding="utf-8"?>
<!-- Generator: Adobe Illustrator 15.0.0, SVG Export Plug-In . SVG Version: 6.00 Build 0)  -->
<!DOCTYPE svg PUBLIC "-//W3C//DTD SVG 1.1//EN" "http://www.w3.org/Graphics/SVG/1.1/DTD/svg11.dtd">
<svg version="1.1" id="Layer_1" xmlns:ev="http://www.w3.org/2001/xml-events"
	 xmlns="http://www.w3.org/2000/svg" xmlns:xlink="http://www.w3.org/1999/xlink" x="0px" y="0px" width="1280px" height="1240px"
	 viewBox="0 0 1280 1240" enable-background="new 0 0 1280 1240" xml:space="preserve">
<g>
	<polygon fill="#8A46AE" points="520,40 560,40 560,0 520,0 480,0 480,40 	"/>
	<polygon fill="#8A46AE" points="680,40 720,40 720,0 680,0 640,0 640,40 	"/>
	<polygon fill="#8A46AE" points="760,80 800,80 800,40 760,40 720,40 720,80 	"/>
	<polygon fill="#8A46AE" points="360,120 400,120 400,80 360,80 320,80 320,120 	"/>
	<polygon fill="#8A46AE" points="640,120 640,80 600,80 560,80 560,120 600,120 	"/>
	<polygon fill="#8A46AE" points="280,160 320,160 320,120 280,120 240,120 240,160 	"/>
	<polygon fill="#8A46AE" points="440,160 480,160 520,160 560,160 560,120 520,120 480,120 440,120 400,120 400,160 	"/>
	<polygon fill="#8A46AE" points="800,120 800,160 840,160 880,160 880,120 840,120 	"/>
	<polygon fill="#8A46AE" points="400,200 400,160 360,160 320,160 320,200 360,200 	"/>
	<polygon fill="#8A46AE" points="640,200 640,240 680,240 720,240 720,200 720,160 720,120 680,120 640,120 640,160 600,160 560,160 560,200 600,200 	"/>
	<polygon fill="#8A46AE" points="120,200 80,200 80,240 120,240 160,240 160,200 	"/>
	<polygon fill="#8A46AE" points="280,200 240,200 240,240 280,240 320,240 320,200 	"/>
	<polygon fill="#8A46AE" points="520,200 480,200 480,240 520,240 560,240 560,200 	"/>
	<polygon fill="#8A46AE" points="800,200 800,240 840,240 880,240 880,200 840,200 	"/>
	<polygon fill="#8A46AE" points="40,240 0,240 0,280 40,280 80,280 80,240 	"/>
	<polygon fill="#8A46AE" points="600,240 560,240 560,280 600,280 640,280 640,240 	"/>
	<polygon fill="#8A46AE" points="480,280 480,320 520,320 560,320 560,280 520,280 	"/>
	<polygon fill="#8A46AE" points="680,280 640,280 640,320 680,320 720,320 720,280 	"/>
	<polygon fill="#8A46AE" points="800,280 800,320 840,320 880,320 880,280 840,280 	"/>
	<polygon fill="#8A46AE" points="680,360 640,360 640,400 680,400 720,400 720,360 	"/>
	<polygon fill="#8A46AE" points="800,360 800,400 840,400 880,400 880,360 840,360 	"/>
	<polygon fill="#8A46AE" points="560,440 560,400 520,400 480,400 480,440 520,440 	"/>
	<polygon fill="#8A46AE" points="720,400 720,440 760,440 800,440 800,400 760,400 	"/>
	<polygon fill="#8A46AE" points="600,480 640,480 640,440 600,440 560,440 560,480 	"/>
	<polygon fill="#8A46AE" points="800,440 800,480 840,480 880,480 880,440 840,440 	"/>
	<polygon fill="#8A46AE" points="720,480 720,520 760,520 800,520 800,480 760,480 	"/>
	<polygon fill="#8A46AE" points="480,560 480,520 440,520 400,520 400,560 440,560 	"/>
	<polygon fill="#8A46AE" points="680,520 640,520 640,560 680,560 720,560 720,520 	"/>
	<polygon fill="#8A46AE" points="480,640 480,600 440,600 400,600 400,640 440,640 	"/>
	<polygon fill="#8A46AE" points="800,600 800,640 840,640 880,640 880,600 840,600 	"/>
	<polygon fill="#8A46AE" points="480,720 480,680 440,680 400,680 400,720 440,720 	"/>
	<polygon fill="#8A46AE" points="400,760 400,720 360,720 320,720 320,760 360,760 	"/>
	<polygon fill="#8A46AE" points="480,800 480,760 440,760 400,760 400,800 440,800 	"/>
	<polygon fill="#8A46AE" points="640,800 640,760 600,760 560,760 560,800 600,800 	"/>
	<polygon fill="#8A46AE" points="400,840 400,800 360,800 320,800 320,840 360,840 	"/>
	<polygon fill="#8A46AE" points="560,840 560,800 520,800 480,800 480,840 520,840 	"/>
	<polygon fill="#8A46AE" points="640,800 640,840 680,840 720,840 720,800 680,800 	"/>
	<polygon fill="#8A46AE" points="800,800 800,840 840,840 880,840 880,800 840,800 	"/>
	<polygon fill="#8A46AE" points="560,840 560,880 600,880 640,880 640,840 600,840 	"/>
	<polygon fill="#8A46AE" points="400,920 400,880 360,880 320,880 320,920 360,920 	"/>
	<polygon fill="#8A46AE" points="640,880 640,920 600,920 560,920 560,880 520,880 480,880 480,920 480,960 520,960 560,960 560,1000 600,1000 640,1000 640,960 680,960 720,960 720,920 720,880 680,880 	"/>
	<polygon fill="#8A46AE" points="800,880 800,920 840,920 880,920 880,880 840,880 	"/>
	<polygon fill="#8A46AE" points="400,1000 400,960 360,960 320,960 320,1000 360,1000 	"/>
	<polygon fill="#8A46AE" points="800,960 800,1000 840,1000 880,1000 880,960 840,960 	"/>
	<polygon fill="#8A46AE" points="520,1000 480,1000 480,1040 520,1040 560,1040 560,1000 	"/>
	<polygon fill="#8A46AE" points="680,1040 720,1040 720,1000 680,1000 640,1000 640,1040 	"/>
	<polygon fill="#8A46AE" points="200,1080 240,1080 240,1040 200,1040 160,1040 160,1080 	"/>
	<polygon fill="#8A46AE" points="600,1040 560,1040 560,1080 600,1080 640,1080 640,1040 	"/>
	<polygon fill="#8A46AE" points="800,1040 800,1080 840,1080 880,1080 880,1040 840,1040 	"/>
	<polygon fill="#8A46AE" points="1000,1080 1040,1080 1040,1040 1000,1040 960,1040 960,1080 	"/>
	<polygon fill="#8A46AE" points="720,1120 720,1080 680,1080 640,1080 640,1120 680,1120 	"/>
	<polygon fill="#8A46AE" points="1080,1120 1120,1120 1120,1080 1080,1080 1040,1080 1040,1120 	"/>
	<polygon fill="#8A46AE" points="80,1160 80,1120 40,1120 0,1120 0,1160 40,1160 	"/>
	<polygon fill="#8A46AE" points="280,1120 240,1120 200,1120 160,1120 160,1160 200,1160 240,1160 280,1160 320,1160 320,1120 	"/>
	<polygon fill="#8A46AE" points="440,1120 400,1120 400,1160 440,1160 480,1160 480,1120 	"/>
	<polygon fill="#8A46AE" points="600,1120 560,1120 560,1160 600,1160 640,1160 640,1120 	"/>
	<polygon fill="#8A46AE" points="720,1120 720,1160 760,1160 800,1160 840,1160 880,1160 880,1120 840,1120 800,1120 760,1120 	"/>
	<polygon fill="#8A46AE" points="1000,1160 1040,1160 1040,1120 1000,1120 960,1120 960,1160 	"/>
	<polygon fill="#8A46AE" points="1120,1120 1120,1160 1160,1160 1200,1160 1200,1120 1160,1120 	"/>
	<polygon fill="#8A46AE" points="520,1160 480,1160 480,1200 520,1200 560,1200 560,1160 	"/>
	<polygon fill="#8A46AE" points="680,1160 640,1160 640,1200 680,1200 720,1200 720,1160 	"/>
	<polygon fill="#8A46AE" points="120,1200 80,1200 40,1200 0,1200 0,1240 40,1240 80,1240 120,1240 160,1240 160,1200 	"/>
	<polygon fill="#8A46AE" points="280,1200 240,1200 240,1240 280,1240 320,1240 320,1200 	"/>
	<polygon fill="#8A46AE" points="440,1200 400,1200 400,1240 440,1240 480,1240 480,1200 	"/>
	<polygon fill="#8A46AE" points="760,1200 720,1200 720,1240 760,1240 800,1240 800,1200 	"/>
	<polygon fill="#8A46AE" points="920,1200 880,1200 880,1240 920,1240 960,1240 960,1200 	"/>
</g>
</svg>
