<?xml version="1.0" encoding="utf-8"?>
<!-- Generator: Adobe Illustrator 15.0.0, SVG Export Plug-In . SVG Version: 6.00 Build 0)  -->
<!DOCTYPE svg PUBLIC "-//W3C//DTD SVG 1.1//EN" "http://www.w3.org/Graphics/SVG/1.1/DTD/svg11.dtd">
<svg version="1.1" id="Layer_1" xmlns:ev="http://www.w3.org/2001/xml-events"
	 xmlns="http://www.w3.org/2000/svg" xmlns:xlink="http://www.w3.org/1999/xlink" x="0px" y="0px" width="1280px" height="1240px"
	 viewBox="0 0 1280 1240" enable-background="new 0 0 1280 1240" xml:space="preserve">
<g>
	<polygon fill="#8A46AE" points="200,80 240,80 240,40 200,40 160,40 160,80 	"/>
	<polygon fill="#8A46AE" points="360,80 400,80 400,40 360,40 320,40 320,80 	"/>
	<polygon fill="#8A46AE" points="840,80 880,80 880,40 840,40 800,40 800,80 	"/>
	<polygon fill="#8A46AE" points="1000,80 1040,80 1040,40 1000,40 960,40 960,80 	"/>
	<polygon fill="#8A46AE" points="440,120 480,120 480,80 440,80 400,80 400,120 	"/>
	<polygon fill="#8A46AE" points="1080,120 1120,120 1120,80 1080,80 1040,80 1040,120 	"/>
	<polygon fill="#8A46AE" points="280,120 240,120 240,160 280,160 320,160 320,120 	"/>
	<polygon fill="#8A46AE" points="920,120 880,120 880,160 920,160 960,160 960,120 	"/>
	<polygon fill="#8A46AE" points="40,160 0,160 0,200 40,200 80,200 80,160 	"/>
	<polygon fill="#8A46AE" points="200,160 160,160 160,200 200,200 240,200 240,160 	"/>
	<polygon fill="#8A46AE" points="360,160 320,160 320,200 360,200 400,200 400,160 	"/>
	<polygon fill="#8A46AE" points="480,160 480,200 520,200 560,200 560,160 520,160 	"/>
	<polygon fill="#8A46AE" points="680,160 640,160 640,200 680,200 720,200 720,160 	"/>
	<polygon fill="#8A46AE" points="840,160 800,160 800,200 840,200 880,200 880,160 	"/>
	<polygon fill="#8A46AE" points="1000,160 960,160 960,200 1000,200 1040,200 1040,160 	"/>
	<polygon fill="#8A46AE" points="1120,160 1120,200 1160,200 1200,200 1200,160 1160,160 	"/>
</g>
</svg>
