<?xml version="1.0" encoding="utf-8"?>
<!-- Generator: Adobe Illustrator 15.0.0, SVG Export Plug-In . SVG Version: 6.00 Build 0)  -->
<!DOCTYPE svg PUBLIC "-//W3C//DTD SVG 1.1//EN" "http://www.w3.org/Graphics/SVG/1.1/DTD/svg11.dtd">
<svg version="1.1" id="Layer_1" xmlns:ev="http://www.w3.org/2001/xml-events"
	 xmlns="http://www.w3.org/2000/svg" xmlns:xlink="http://www.w3.org/1999/xlink" x="0px" y="0px" width="1600px" height="1240px"
	 viewBox="0 0 1600 1240" enable-background="new 0 0 1600 1240" xml:space="preserve">
<g>
	<polygon fill="#8A46AE" points="920,40 960,40 960,0 920,0 880,0 880,40 	"/>
	<polygon fill="#8A46AE" points="1080,40 1120,40 1120,0 1080,0 1040,0 1040,40 	"/>
	<polygon fill="#8A46AE" points="1240,40 1280,40 1280,0 1240,0 1200,0 1200,40 	"/>
	<polygon fill="#8A46AE" points="1400,40 1440,40 1440,0 1400,0 1360,0 1360,40 	"/>
	<polygon fill="#8A46AE" points="120,40 80,40 80,80 120,80 160,80 160,40 	"/>
	<polygon fill="#8A46AE" points="360,40 320,40 320,80 360,80 400,80 400,40 	"/>
	<polygon fill="#8A46AE" points="520,40 480,40 480,80 520,80 560,80 560,40 	"/>
	<polygon fill="#8A46AE" points="680,40 640,40 640,80 680,80 720,80 720,40 	"/>
	<polygon fill="#8A46AE" points="840,40 800,40 800,80 840,80 880,80 880,40 	"/>
	<polygon fill="#8A46AE" points="1320,80 1360,80 1360,40 1320,40 1280,40 1280,80 	"/>
	<polygon fill="#8A46AE" points="1440,40 1440,80 1440,120 1480,120 1520,120 1520,80 1520,40 1480,40 	"/>
	<polygon fill="#8A46AE" points="760,80 720,80 720,120 760,120 800,120 800,80 	"/>
	<polygon fill="#8A46AE" points="920,80 880,80 880,120 920,120 960,120 960,80 	"/>
	<polygon fill="#8A46AE" points="1240,120 1280,120 1280,80 1240,80 1200,80 1160,80 1120,80 1080,80 1040,80 1040,120 1080,120 1120,120 1120,160 1160,160 1200,160 1200,120 	"/>
	<polygon fill="#8A46AE" points="1040,160 1040,120 1000,120 960,120 960,160 1000,160 	"/>
	<polygon fill="#8A46AE" points="1400,120 1360,120 1360,160 1360,200 1400,200 1440,200 1440,160 1440,120 	"/>
	<polygon fill="#8A46AE" points="1240,160 1200,160 1200,200 1240,200 1280,200 1280,160 	"/>
	<polygon fill="#8A46AE" points="1200,240 1200,200 1160,200 1120,200 1120,240 1160,240 	"/>
	<polygon fill="#8A46AE" points="1320,200 1280,200 1280,240 1280,280 1320,280 1360,280 1360,240 1360,200 	"/>
	<polygon fill="#8A46AE" points="960,280 960,240 920,240 880,240 880,280 920,280 	"/>
	<polygon fill="#8A46AE" points="1080,240 1040,240 1040,280 1080,280 1120,280 1120,240 	"/>
	<polygon fill="#8A46AE" points="1240,280 1200,280 1200,320 1200,360 1240,360 1280,360 1280,320 1280,280 	"/>
	<polygon fill="#8A46AE" points="880,360 880,320 840,320 800,320 800,360 840,360 	"/>
	<polygon fill="#8A46AE" points="1080,320 1040,320 1040,360 1080,360 1120,360 1120,320 	"/>
	<polygon fill="#8A46AE" points="1000,360 960,360 960,400 1000,400 1040,400 1040,360 	"/>
	<polygon fill="#8A46AE" points="1160,360 1120,360 1120,400 1160,400 1200,400 1200,360 	"/>
	<polygon fill="#8A46AE" points="800,440 800,400 760,400 720,400 720,440 760,440 	"/>
	<polygon fill="#8A46AE" points="1040,400 1040,440 1080,440 1120,440 1120,400 1080,400 	"/>
	<polygon fill="#8A46AE" points="880,480 880,440 840,440 800,440 800,480 840,480 	"/>
	<polygon fill="#8A46AE" points="720,520 720,480 680,480 640,480 640,520 680,520 	"/>
	<polygon fill="#8A46AE" points="1040,480 1040,520 1080,520 1120,520 1120,480 1080,480 	"/>
	<polygon fill="#8A46AE" points="640,600 640,560 600,560 560,560 560,600 600,600 	"/>
	<polygon fill="#8A46AE" points="720,640 720,600 680,600 640,600 640,640 680,640 	"/>
	<polygon fill="#8A46AE" points="680,720 720,720 720,680 680,680 640,680 640,720 	"/>
	<polygon fill="#8A46AE" points="480,760 480,720 440,720 400,720 400,760 440,760 	"/>
	<polygon fill="#8A46AE" points="640,760 640,720 600,720 560,720 560,760 520,760 480,760 480,800 480,840 520,840 560,840 600,840 640,840 640,800 	"/>
	<polygon fill="#8A46AE" points="400,840 400,800 360,800 320,800 320,840 360,840 	"/>
	<polygon fill="#8A46AE" points="720,800 720,840 760,840 800,840 800,800 760,800 	"/>
	<polygon fill="#8A46AE" points="440,840 400,840 400,880 440,880 480,880 480,840 	"/>
	<polygon fill="#8A46AE" points="680,840 640,840 640,880 680,880 720,880 720,840 	"/>
	<polygon fill="#8A46AE" points="320,920 320,880 280,880 240,880 240,920 280,920 	"/>
	<polygon fill="#8A46AE" points="520,880 480,880 480,920 520,920 560,920 560,880 	"/>
	<polygon fill="#8A46AE" points="480,960 480,920 440,920 400,920 400,960 440,960 	"/>
	<polygon fill="#8A46AE" points="600,920 560,920 560,960 600,960 640,960 640,920 	"/>
	<polygon fill="#8A46AE" points="240,1000 240,960 200,960 160,960 160,1000 200,1000 	"/>
	<polygon fill="#8A46AE" points="360,960 320,960 320,1000 360,1000 400,1000 400,960 	"/>
	<polygon fill="#8A46AE" points="160,1080 160,1040 120,1040 80,1040 80,1080 120,1080 	"/>
	<polygon fill="#8A46AE" points="360,1040 320,1040 320,1080 360,1080 400,1080 400,1040 	"/>
	<polygon fill="#8A46AE" points="80,1120 80,1080 40,1080 0,1080 0,1120 40,1120 	"/>
	<polygon fill="#8A46AE" points="280,1080 240,1080 240,1120 280,1120 320,1120 320,1080 	"/>
	<polygon fill="#8A46AE" points="480,1080 480,1120 520,1120 560,1120 560,1080 520,1080 	"/>
	<polygon fill="#8A46AE" points="80,1200 80,1160 40,1160 0,1160 0,1200 40,1200 	"/>
	<polygon fill="#8A46AE" points="200,1160 160,1160 160,1200 200,1200 240,1200 240,1160 	"/>
	<polygon fill="#8A46AE" points="400,1160 400,1200 440,1200 480,1200 480,1160 440,1160 	"/>
</g>
</svg>
