<?xml version="1.0" encoding="utf-8"?>
<!-- Generator: Adobe Illustrator 15.0.0, SVG Export Plug-In . SVG Version: 6.00 Build 0)  -->
<!DOCTYPE svg PUBLIC "-//W3C//DTD SVG 1.1//EN" "http://www.w3.org/Graphics/SVG/1.1/DTD/svg11.dtd">
<svg version="1.1" id="Layer_1" xmlns:ev="http://www.w3.org/2001/xml-events"
	 xmlns="http://www.w3.org/2000/svg" xmlns:xlink="http://www.w3.org/1999/xlink" x="0px" y="0px" width="1280px" height="1240px"
	 viewBox="0 0 1280 1240" enable-background="new 0 0 1280 1240" xml:space="preserve">
<g>
	<polygon fill="#8A46AE" points="200,80 240,80 240,40 200,40 160,40 160,80 	"/>
	<polygon fill="#3E31A2" points="280,80 320,80 320,40 280,40 240,40 240,80 	"/>
	<polygon fill="#8A46AE" points="360,80 400,80 400,40 360,40 320,40 320,80 	"/>
	<polygon fill="#3E31A2" points="480,40 440,40 400,40 400,80 440,80 480,80 480,120 480,160 520,160 560,160 560,120 560,80 560,40 520,40 	"/>
	<polygon fill="#8A46AE" points="840,80 880,80 880,40 840,40 800,40 800,80 	"/>
	<polygon fill="#3E31A2" points="920,80 960,80 960,40 920,40 880,40 880,80 	"/>
	<polygon fill="#8A46AE" points="1000,80 1040,80 1040,40 1000,40 960,40 960,80 	"/>
	<polygon fill="#3E31A2" points="1160,40 1120,40 1080,40 1040,40 1040,80 1080,80 1120,80 1120,120 1120,160 1160,160 1200,160 1200,120 1200,80 1200,40 	"/>
	<polygon fill="#8A46AE" points="440,120 480,120 480,80 440,80 400,80 400,120 	"/>
	<polygon fill="#8A46AE" points="1080,120 1120,120 1120,80 1080,80 1040,80 1040,120 	"/>
	<polygon fill="#3E31A2" points="80,160 80,120 80,80 120,80 160,80 160,40 120,40 80,40 40,40 0,40 0,80 0,120 0,160 40,160 	"/>
	<polygon fill="#7C70DA" points="160,120 200,120 240,120 280,120 320,120 360,120 400,120 400,80 360,80 320,80 280,80 240,80 200,80 160,80 120,80 80,80 80,120 80,160 80,200 120,200 160,200 160,160 	"/>
	<polygon fill="#3E31A2" points="200,120 160,120 160,160 200,160 240,160 240,120 	"/>
	<polygon fill="#8A46AE" points="280,120 240,120 240,160 280,160 320,160 320,120 	"/>
	<polygon fill="#3E31A2" points="360,120 320,120 320,160 360,160 400,160 400,120 	"/>
	<polygon fill="#000000" points="400,120 400,160 440,160 480,160 480,120 440,120 	"/>
	<polygon fill="#3E31A2" points="720,160 720,120 720,80 760,80 800,80 800,40 760,40 720,40 680,40 640,40 640,80 640,120 640,160 680,160 	"/>
	<polygon fill="#7C70DA" points="800,120 840,120 880,120 920,120 960,120 1000,120 1040,120 1040,80 1000,80 960,80 920,80 880,80 840,80 800,80 760,80 720,80 720,120 720,160 720,200 760,200 800,200 800,160 	"/>
	<polygon fill="#3E31A2" points="840,120 800,120 800,160 840,160 880,160 880,120 	"/>
	<polygon fill="#8A46AE" points="920,120 880,120 880,160 920,160 960,160 960,120 	"/>
	<polygon fill="#3E31A2" points="1000,120 960,120 960,160 1000,160 1040,160 1040,120 	"/>
	<polygon fill="#000000" points="1040,120 1040,160 1080,160 1120,160 1120,120 1080,120 	"/>
	<polygon fill="#8A46AE" points="40,160 0,160 0,200 40,200 80,200 80,160 	"/>
	<polygon fill="#8A46AE" points="200,160 160,160 160,200 200,200 240,200 240,160 	"/>
	<polygon fill="#7C70DA" points="280,160 240,160 240,200 280,200 320,200 320,160 	"/>
	<polygon fill="#8A46AE" points="360,160 320,160 320,200 360,200 400,200 400,160 	"/>
	<polygon fill="#3E31A2" points="440,160 400,160 400,200 440,200 480,200 480,160 	"/>
	<polygon fill="#8A46AE" points="480,160 480,200 520,200 560,200 560,160 520,160 	"/>
	<polygon fill="#8A46AE" points="680,160 640,160 640,200 680,200 720,200 720,160 	"/>
	<polygon fill="#8A46AE" points="840,160 800,160 800,200 840,200 880,200 880,160 	"/>
	<polygon fill="#7C70DA" points="920,160 880,160 880,200 920,200 960,200 960,160 	"/>
	<polygon fill="#8A46AE" points="1000,160 960,160 960,200 1000,200 1040,200 1040,160 	"/>
	<polygon fill="#3E31A2" points="1080,160 1040,160 1040,200 1080,200 1120,200 1120,160 	"/>
	<polygon fill="#8A46AE" points="1120,160 1120,200 1160,200 1200,200 1200,160 1160,160 	"/>
</g>
</svg>
