<?xml version="1.0" encoding="utf-8"?>
<!-- Generator: Adobe Illustrator 15.0.0, SVG Export Plug-In . SVG Version: 6.00 Build 0)  -->
<!DOCTYPE svg PUBLIC "-//W3C//DTD SVG 1.1//EN" "http://www.w3.org/Graphics/SVG/1.1/DTD/svg11.dtd">
<svg version="1.1" id="Layer_1" xmlns:ev="http://www.w3.org/2001/xml-events"
	 xmlns="http://www.w3.org/2000/svg" xmlns:xlink="http://www.w3.org/1999/xlink" x="0px" y="0px" width="1600px" height="1240px"
	 viewBox="0 0 1600 1240" enable-background="new 0 0 1600 1240" xml:space="preserve">
<g>
	<polygon fill="#3E31A2" points="720,40 760,40 800,40 800,0 760,0 720,0 680,0 640,0 640,40 680,40 	"/>
	<polygon fill="#8A46AE" points="840,40 880,40 880,0 840,0 800,0 800,40 	"/>
	<polygon fill="#3E31A2" points="920,40 960,40 960,0 920,0 880,0 880,40 	"/>
	<polygon fill="#8A46AE" points="1000,40 1040,40 1040,0 1000,0 960,0 960,40 	"/>
	<polygon fill="#3E31A2" points="1080,40 1120,40 1120,0 1080,0 1040,0 1040,40 	"/>
	<polygon fill="#3E31A2" points="560,80 560,40 520,40 480,40 480,80 520,80 	"/>
	<polygon fill="#7C70DA" points="680,80 720,80 720,40 680,40 640,40 640,80 	"/>
	<polygon fill="#8A46AE" points="800,80 800,40 760,40 720,40 720,80 760,80 	"/>
	<polygon fill="#7C70DA" points="840,80 880,80 920,80 960,80 1000,80 1040,80 1040,40 1000,40 960,40 920,40 880,40 840,40 800,40 800,80 	"/>
	<polygon fill="#000000" points="1040,40 1040,80 1080,80 1120,80 1120,40 1080,40 	"/>
	<polygon fill="#8A46AE" points="480,120 480,80 440,80 400,80 400,120 440,120 	"/>
	<polygon fill="#7C70DA" points="520,120 560,120 560,80 520,80 480,80 480,120 	"/>
	<polygon fill="#8A46AE" points="560,120 600,120 640,120 680,120 720,120 720,80 680,80 640,80 640,40 600,40 560,40 560,80 	"/>
	<polygon fill="#3E31A2" points="760,80 720,80 720,120 760,120 800,120 800,80 	"/>
	<polygon fill="#000000" points="840,80 800,80 800,120 840,120 880,120 880,80 	"/>
	<polygon fill="#3E31A2" points="920,80 880,80 880,120 920,120 960,120 960,80 	"/>
	<polygon fill="#000000" points="1000,80 960,80 960,120 1000,120 1040,120 1040,80 	"/>
	<polygon fill="#3E31A2" points="1040,80 1040,120 1080,120 1120,120 1120,80 1080,80 	"/>
	<polygon fill="#8A46AE" points="400,160 400,120 360,120 320,120 320,160 360,160 	"/>
	<polygon fill="#7C70DA" points="440,160 480,160 480,120 440,120 400,120 400,160 	"/>
	<polygon fill="#8A46AE" points="560,160 560,120 520,120 480,120 480,160 520,160 	"/>
	<polygon fill="#3E31A2" points="640,120 600,120 560,120 560,160 600,160 640,160 680,160 720,160 720,120 680,120 	"/>
	<polygon fill="#8A46AE" points="320,200 320,160 280,160 240,160 240,200 280,200 	"/>
	<polygon fill="#8A46AE" points="560,160 560,200 600,200 640,200 640,160 600,160 	"/>
	<polygon fill="#8A46AE" points="480,240 480,200 480,160 440,160 400,160 400,200 400,240 440,240 	"/>
	<polygon fill="#3E31A2" points="560,200 560,160 520,160 480,160 480,200 480,240 520,240 560,240 600,240 640,240 640,200 600,200 	"/>
	<polygon fill="#8A46AE" points="240,280 240,240 200,240 160,240 160,280 200,280 	"/>
	<polygon fill="#8A46AE" points="480,240 480,280 480,320 520,320 560,320 560,280 560,240 520,240 	"/>
	<polygon fill="#8A46AE" points="400,320 400,280 400,240 360,240 320,240 320,280 320,320 360,320 	"/>
	<polygon fill="#8A46AE" points="280,320 240,320 240,360 280,360 320,360 320,320 	"/>
	<polygon fill="#7C70DA" points="400,360 400,320 360,320 320,320 320,360 360,360 	"/>
	<polygon fill="#7C70DA" points="480,320 480,360 520,360 560,360 560,320 520,320 	"/>
	<polygon fill="#3E31A2" points="160,400 160,360 160,320 120,320 80,320 80,360 80,400 120,400 	"/>
	<polygon fill="#7C70DA" points="160,400 160,440 200,440 240,440 280,440 320,440 320,480 320,520 360,520 400,520 400,480 400,440 400,400 360,400 320,400 320,360 280,360 240,360 240,320 280,320 320,320 320,280 320,240 360,240 400,240 400,200 400,160 360,160 320,160 320,200 280,200 240,200 240,240 240,280 200,280 160,280 160,320 160,360 	"/>
	<polygon fill="#8A46AE" points="360,360 320,360 320,400 360,400 400,400 400,360 	"/>
	<polygon fill="#3E31A2" points="480,400 480,360 480,320 480,280 480,240 440,240 400,240 400,280 400,320 400,360 400,400 440,400 	"/>
	<polygon fill="#8A46AE" points="480,360 480,400 520,400 560,400 560,360 520,360 	"/>
	<polygon fill="#8A46AE" points="160,440 160,400 120,400 80,400 80,440 120,440 	"/>
	<polygon fill="#8A46AE" points="480,440 480,400 440,400 400,400 400,440 440,440 	"/>
	<polygon fill="#7C70DA" points="480,400 480,440 520,440 560,440 560,400 520,400 	"/>
	<polygon fill="#3E31A2" points="240,480 240,440 200,440 160,440 160,480 200,480 	"/>
	<polygon fill="#8A46AE" points="280,480 320,480 320,440 280,440 240,440 240,480 	"/>
	<polygon fill="#3E31A2" points="480,480 480,440 440,440 400,440 400,480 440,480 	"/>
	<polygon fill="#8A46AE" points="480,440 480,480 520,480 560,480 560,440 520,440 	"/>
	<polygon fill="#3E31A2" points="80,520 80,480 40,480 0,480 0,520 40,520 	"/>
	<polygon fill="#7C70DA" points="120,520 160,520 160,480 160,440 120,440 80,440 80,480 80,520 	"/>
	<polygon fill="#3E31A2" points="240,480 240,520 240,560 280,560 320,560 320,520 320,480 280,480 	"/>
	<polygon fill="#8A46AE" points="480,520 480,480 440,480 400,480 400,520 440,520 	"/>
	<polygon fill="#7C70DA" points="480,480 480,520 480,560 480,600 520,600 560,600 560,560 560,520 560,480 520,480 	"/>
	<polygon fill="#000000" points="80,560 80,520 40,520 0,520 0,560 40,560 	"/>
	<polygon fill="#8A46AE" points="160,560 160,520 120,520 80,520 80,560 120,560 	"/>
	<polygon fill="#000000" points="200,560 240,560 240,520 240,480 200,480 160,480 160,520 160,560 	"/>
	<polygon fill="#8A46AE" points="360,560 400,560 400,520 360,520 320,520 320,560 	"/>
	<polygon fill="#3E31A2" points="440,560 480,560 480,520 440,520 400,520 400,560 	"/>
	<polygon fill="#7C70DA" points="160,600 160,560 120,560 80,560 80,600 120,600 	"/>
	<polygon fill="#3E31A2" points="240,600 240,560 200,560 160,560 160,600 200,600 	"/>
	<polygon fill="#000000" points="280,560 240,560 240,600 280,600 320,600 320,560 	"/>
	<polygon fill="#3E31A2" points="320,560 320,600 360,600 400,600 400,560 360,560 	"/>
	<polygon fill="#8A46AE" points="160,640 160,600 120,600 80,600 80,640 120,640 	"/>
	<polygon fill="#000000" points="200,600 160,600 160,640 200,640 240,640 240,600 	"/>
	<polygon fill="#3E31A2" points="240,600 240,640 280,640 320,640 320,600 280,600 	"/>
	<polygon fill="#8A46AE" points="480,600 480,640 520,640 560,640 560,600 520,600 	"/>
	<polygon fill="#7C70DA" points="160,680 160,640 120,640 80,640 80,680 120,680 	"/>
	<polygon fill="#000000" points="240,640 240,680 280,680 320,680 320,640 280,640 	"/>
	<polygon fill="#3E31A2" points="360,680 400,680 400,640 360,640 320,640 320,680 	"/>
	<polygon fill="#3E31A2" points="480,640 480,680 520,680 560,680 560,640 520,640 	"/>
	<polygon fill="#3E31A2" points="80,720 80,680 80,640 80,600 80,560 40,560 0,560 0,600 0,640 0,680 0,720 40,720 	"/>
	<polygon fill="#8A46AE" points="160,720 160,680 120,680 80,680 80,720 120,720 	"/>
	<polygon fill="#000000" points="480,680 480,640 480,600 480,560 440,560 400,560 400,600 360,600 320,600 320,640 360,640 400,640 400,680 360,680 320,680 320,720 360,720 400,720 400,760 400,800 440,800 480,800 480,760 480,720 520,720 560,720 560,680 520,680 	"/>
	<polygon fill="#8A46AE" points="80,760 80,720 40,720 0,720 0,760 40,760 	"/>
	<polygon fill="#7C70DA" points="160,760 160,720 120,720 80,720 80,760 120,760 	"/>
	<polygon fill="#3E31A2" points="480,720 480,760 480,800 520,800 560,800 560,760 560,720 520,720 	"/>
	<polygon fill="#3E31A2" points="80,800 80,760 40,760 0,760 0,800 40,800 	"/>
	<polygon fill="#8A46AE" points="120,760 80,760 80,800 120,800 160,800 160,760 	"/>
	<polygon fill="#3E31A2" points="240,800 240,760 280,760 320,760 320,800 360,800 400,800 400,760 400,720 360,720 320,720 320,680 280,680 240,680 240,640 200,640 160,640 160,680 160,720 160,760 160,800 200,800 	"/>
	<polygon fill="#8A46AE" points="320,800 320,760 280,760 240,760 240,800 280,800 	"/>
	<polygon fill="#8A46AE" points="80,840 80,800 40,800 0,800 0,840 40,840 	"/>
	<polygon fill="#8A46AE" points="240,840 240,800 200,800 160,800 160,840 200,840 	"/>
	<polygon fill="#3E31A2" points="320,840 320,800 280,800 240,800 240,840 280,840 	"/>
	<polygon fill="#8A46AE" points="320,800 320,840 360,840 400,840 400,800 360,800 	"/>
	<polygon fill="#3E31A2" points="440,840 480,840 480,800 440,800 400,800 400,840 	"/>
	<polygon fill="#8A46AE" points="480,800 480,840 520,840 560,840 560,800 520,800 	"/>
	<polygon fill="#7C70DA" points="600,840 640,840 640,880 680,880 720,880 720,840 760,840 800,840 800,800 760,800 720,800 680,800 640,800 600,800 560,800 560,840 	"/>
	<polygon fill="#8A46AE" points="840,840 880,840 880,800 840,800 800,800 800,840 	"/>
	<polygon fill="#3E31A2" points="80,880 80,840 40,840 0,840 0,880 40,880 	"/>
	<polygon fill="#3E31A2" points="240,880 240,840 200,840 160,840 160,880 200,880 	"/>
	<polygon fill="#8A46AE" points="280,840 240,840 240,880 280,880 320,880 320,840 	"/>
	<polygon fill="#3E31A2" points="360,840 320,840 320,880 360,880 400,880 400,840 	"/>
	<polygon fill="#000000" points="400,840 400,880 440,880 480,880 480,840 440,840 	"/>
	<polygon fill="#3E31A2" points="520,880 560,880 560,840 520,840 480,840 480,880 	"/>
	<polygon fill="#8A46AE" points="600,880 640,880 640,840 600,840 560,840 560,880 	"/>
	<polygon fill="#8A46AE" points="800,880 800,840 760,840 720,840 720,880 760,880 	"/>
	<polygon fill="#3E31A2" points="800,840 800,880 840,880 880,880 880,840 840,840 	"/>
	<polygon fill="#3E31A2" points="240,880 240,920 280,920 320,920 320,880 280,880 	"/>
	<polygon fill="#3E31A2" points="440,880 400,880 400,920 400,960 440,960 480,960 480,920 480,880 	"/>
	<polygon fill="#000000" points="520,880 480,880 480,920 520,920 560,920 560,880 	"/>
	<polygon fill="#3E31A2" points="560,880 560,920 600,920 640,920 640,880 600,880 	"/>
	<polygon fill="#000000" points="680,920 720,920 720,880 680,880 640,880 640,920 	"/>
	<polygon fill="#3E31A2" points="760,920 800,920 800,880 760,880 720,880 720,920 	"/>
	<polygon fill="#8A46AE" points="800,880 800,920 840,920 880,920 880,880 840,880 	"/>
	<polygon fill="#8A46AE" points="520,920 480,920 480,960 520,960 560,960 560,920 	"/>
	<polygon fill="#7C70DA" points="600,920 560,920 560,960 600,960 640,960 640,920 	"/>
	<polygon fill="#8A46AE" points="680,920 640,920 640,960 680,960 720,960 720,920 	"/>
	<polygon fill="#7C70DA" points="800,920 760,920 720,920 720,960 760,960 800,960 840,960 880,960 880,920 840,920 	"/>
	<polygon fill="#8A46AE" points="320,1000 320,960 360,960 400,960 400,920 400,880 360,880 320,880 320,920 280,920 240,920 240,880 200,880 160,880 160,920 160,960 200,960 240,960 240,1000 280,1000 	"/>
	<polygon fill="#7C70DA" points="400,1000 400,960 360,960 320,960 320,1000 360,1000 	"/>
	<polygon fill="#8A46AE" points="400,960 400,1000 440,1000 480,1000 480,960 440,960 	"/>
	<polygon fill="#7C70DA" points="480,960 480,1000 520,1000 560,1000 560,960 520,960 	"/>
	<polygon fill="#8A46AE" points="80,1040 80,1000 80,960 80,920 80,880 40,880 0,880 0,920 0,960 0,1000 0,1040 40,1040 	"/>
	<polygon fill="#8A46AE" points="200,1000 160,1000 160,1040 200,1040 240,1040 240,1000 	"/>
	<polygon fill="#7C70DA" points="320,1040 320,1000 280,1000 240,1000 240,1040 280,1040 	"/>
	<polygon fill="#8A46AE" points="360,1000 320,1000 320,1040 360,1040 400,1040 400,1000 	"/>
	<polygon fill="#3E31A2" points="400,1000 400,1040 440,1040 480,1040 480,1000 440,1000 	"/>
	<polygon fill="#8A46AE" points="480,1000 480,1040 520,1040 560,1040 560,1000 520,1000 	"/>
	<polygon fill="#8A46AE" points="280,1040 240,1040 240,1080 280,1080 320,1080 320,1040 	"/>
	<polygon fill="#7C70DA" points="400,1080 400,1040 360,1040 320,1040 320,1080 360,1080 	"/>
	<polygon fill="#8A46AE" points="400,1040 400,1080 440,1080 480,1080 480,1040 440,1040 	"/>
	<polygon fill="#7C70DA" points="480,1040 480,1080 440,1080 400,1080 400,1120 440,1120 480,1120 480,1160 520,1160 560,1160 560,1120 600,1120 640,1120 640,1160 680,1160 720,1160 720,1120 760,1120 800,1120 800,1160 840,1160 880,1160 880,1120 920,1120 960,1120 960,1160 1000,1160 1040,1160 1040,1120 1080,1120 1120,1120 1160,1120 1200,1120 1200,1080 1160,1080 1120,1080 1080,1080 1040,1080 1000,1080 960,1080 920,1080 880,1080 840,1080 800,1080 760,1080 720,1080 720,1040 680,1040 640,1040 640,1080 600,1080 560,1080 560,1040 520,1040 	"/>
	<polygon fill="#8A46AE" points="600,1080 640,1080 640,1040 600,1040 560,1040 560,1080 	"/>
	<polygon fill="#8A46AE" points="760,1080 800,1080 840,1080 880,1080 880,1040 840,1040 800,1040 760,1040 720,1040 720,1080 	"/>
	<polygon fill="#3E31A2" points="920,1080 960,1080 960,1040 920,1040 880,1040 880,1080 	"/>
	<polygon fill="#8A46AE" points="1000,1080 1040,1080 1040,1040 1000,1040 960,1040 960,1080 	"/>
	<polygon fill="#3E31A2" points="1080,1080 1120,1080 1120,1040 1080,1040 1040,1040 1040,1080 	"/>
	<polygon fill="#8A46AE" points="1160,1080 1200,1080 1200,1040 1160,1040 1120,1040 1120,1080 	"/>
	<polygon fill="#3E31A2" points="1480,1040 1440,1040 1400,1040 1360,1040 1320,1040 1280,1040 1240,1040 1200,1040 1200,1080 1240,1080 1280,1080 1320,1080 1360,1080 1400,1080 1440,1080 1440,1120 1480,1120 1520,1120 1520,1080 1520,1040 	"/>
	<polygon fill="#8A46AE" points="80,1120 80,1080 40,1080 0,1080 0,1120 40,1120 	"/>
	<polygon fill="#8A46AE" points="160,1080 160,1120 200,1120 240,1120 240,1080 200,1080 	"/>
	<polygon fill="#8A46AE" points="360,1080 320,1080 320,1120 360,1120 400,1120 400,1080 	"/>
	<polygon fill="#8A46AE" points="1240,1120 1280,1120 1280,1080 1240,1080 1200,1080 1200,1120 	"/>
	<polygon fill="#7C70DA" points="1320,1120 1360,1120 1360,1080 1320,1080 1280,1080 1280,1120 	"/>
	<polygon fill="#000000" points="1400,1120 1440,1120 1440,1080 1400,1080 1360,1080 1360,1120 	"/>
	<polygon fill="#8A46AE" points="480,1160 480,1120 440,1120 400,1120 400,1160 440,1160 	"/>
	<polygon fill="#8A46AE" points="640,1160 640,1120 600,1120 560,1120 560,1160 600,1160 	"/>
	<polygon fill="#8A46AE" points="800,1160 800,1120 760,1120 720,1120 720,1160 760,1160 	"/>
	<polygon fill="#8A46AE" points="960,1160 960,1120 920,1120 880,1120 880,1160 920,1160 	"/>
	<polygon fill="#8A46AE" points="1120,1160 1160,1160 1200,1160 1200,1120 1160,1120 1120,1120 1080,1120 1040,1120 1040,1160 1080,1160 	"/>
	<polygon fill="#8A46AE" points="1320,1160 1360,1160 1360,1120 1320,1120 1280,1120 1280,1160 	"/>
	<polygon fill="#3E31A2" points="1360,1120 1360,1160 1320,1160 1280,1160 1280,1120 1240,1120 1200,1120 1200,1160 1160,1160 1120,1160 1080,1160 1040,1160 1000,1160 960,1160 920,1160 880,1160 880,1200 920,1200 960,1200 1000,1200 1040,1200 1080,1200 1120,1200 1160,1200 1200,1200 1240,1200 1280,1200 1320,1200 1360,1200 1400,1200 1440,1200 1440,1160 1440,1120 1400,1120 	"/>
	<polygon fill="#8A46AE" points="1440,1120 1440,1160 1440,1200 1480,1200 1520,1200 1520,1160 1520,1120 1480,1120 	"/>
	<polygon fill="#8A46AE" points="80,1200 80,1160 40,1160 0,1160 0,1200 40,1200 	"/>
	<polygon fill="#8A46AE" points="360,1160 320,1160 280,1160 240,1160 200,1160 160,1160 160,1200 200,1200 240,1200 280,1200 320,1200 360,1200 400,1200 400,1160 	"/>
	<polygon fill="#3E31A2" points="440,1160 400,1160 400,1200 440,1200 480,1200 480,1160 	"/>
	<polygon fill="#8A46AE" points="520,1160 480,1160 480,1200 520,1200 560,1200 560,1160 	"/>
	<polygon fill="#3E31A2" points="600,1160 560,1160 560,1200 600,1200 640,1200 640,1160 	"/>
	<polygon fill="#8A46AE" points="680,1160 640,1160 640,1200 680,1200 720,1200 720,1160 	"/>
	<polygon fill="#3E31A2" points="760,1160 720,1160 720,1200 760,1200 800,1200 800,1160 	"/>
	<polygon fill="#8A46AE" points="840,1160 800,1160 800,1200 840,1200 880,1200 880,1160 	"/>
	<polygon fill="#7C70DA" points="1000,1200 960,1200 920,1200 880,1200 840,1200 800,1200 760,1200 720,1200 680,1200 640,1200 600,1200 560,1200 520,1200 480,1200 440,1200 400,1200 360,1200 320,1200 280,1200 240,1200 200,1200 160,1200 160,1160 200,1160 240,1160 280,1160 320,1160 360,1160 400,1160 400,1120 360,1120 320,1120 320,1080 280,1080 240,1080 240,1120 200,1120 160,1120 160,1080 200,1080 240,1080 240,1040 200,1040 160,1040 160,1000 200,1000 240,1000 240,960 200,960 160,960 160,920 160,880 160,840 160,800 120,800 80,800 80,840 80,880 80,920 80,960 80,1000 80,1040 40,1040 0,1040 0,1080 40,1080 80,1080 80,1120 40,1120 0,1120 0,1160 40,1160 80,1160 80,1200 40,1200 0,1200 0,1240 40,1240 80,1240 120,1240 160,1240 200,1240 240,1240 280,1240 320,1240 360,1240 400,1240 440,1240 480,1240 520,1240 560,1240 600,1240 640,1240 680,1240 720,1240 760,1240 800,1240 840,1240 880,1240 920,1240 960,1240 1000,1240 1040,1240 1040,1200 	"/>
	<polygon fill="#8A46AE" points="1080,1200 1040,1200 1040,1240 1080,1240 1120,1240 1120,1200 	"/>
	<polygon fill="#7C70DA" points="1160,1200 1120,1200 1120,1240 1160,1240 1200,1240 1200,1200 	"/>
	<polygon fill="#8A46AE" points="1240,1200 1200,1200 1200,1240 1240,1240 1280,1240 1280,1200 	"/>
	<polygon fill="#7C70DA" points="1320,1200 1280,1200 1280,1240 1320,1240 1360,1240 1360,1200 	"/>
	<polygon fill="#8A46AE" points="1400,1200 1360,1200 1360,1240 1400,1240 1440,1240 1440,1200 	"/>
	<polygon fill="#7C70DA" points="1440,1200 1440,1240 1480,1240 1520,1240 1520,1200 1480,1200 	"/>
</g>
</svg>
