<?xml version="1.0" encoding="utf-8"?>
<!-- Generator: Adobe Illustrator 15.0.0, SVG Export Plug-In . SVG Version: 6.00 Build 0)  -->
<!DOCTYPE svg PUBLIC "-//W3C//DTD SVG 1.1//EN" "http://www.w3.org/Graphics/SVG/1.1/DTD/svg11.dtd">
<svg version="1.1" id="Layer_1" xmlns:ev="http://www.w3.org/2001/xml-events"
	 xmlns="http://www.w3.org/2000/svg" xmlns:xlink="http://www.w3.org/1999/xlink" x="0px" y="0px" width="1600px" height="1240px"
	 viewBox="0 0 1600 1240" enable-background="new 0 0 1600 1240" xml:space="preserve">
<g>
	<polygon fill="#8A46AE" points="200,40 240,40 240,0 200,0 160,0 160,40 	"/>
	<polygon fill="#3E31A2" points="280,40 320,40 320,0 280,0 240,0 240,40 	"/>
	<polygon fill="#8A46AE" points="360,40 400,40 400,0 360,0 320,0 320,40 	"/>
	<polygon fill="#3E31A2" points="440,40 480,40 480,80 480,120 520,120 560,120 560,80 560,40 560,0 520,0 480,0 440,0 400,0 400,40 	"/>
	<polygon fill="#3E31A2" points="1480,0 1440,0 1400,0 1360,0 1320,0 1280,0 1240,0 1200,0 1160,0 1120,0 1080,0 1040,0 1000,0 960,0 960,40 960,80 960,120 960,160 960,200 1000,200 1040,200 1040,160 1040,120 1040,80 1040,40 1080,40 1120,40 1160,40 1200,40 1240,40 1280,40 1320,40 1360,40 1400,40 1440,40 1440,80 1440,120 1440,160 1440,200 1480,200 1520,200 1520,160 1520,120 1520,80 1520,40 1520,0 	"/>
	<polygon fill="#8A46AE" points="480,80 480,40 440,40 400,40 400,80 440,80 	"/>
	<polygon fill="#8A46AE" points="1240,80 1280,80 1280,40 1240,40 1200,40 1200,80 	"/>
	<polygon fill="#7C70DA" points="1320,80 1360,80 1360,40 1320,40 1280,40 1280,80 	"/>
	<polygon fill="#8A46AE" points="1400,80 1440,80 1440,40 1400,40 1360,40 1360,80 	"/>
	<polygon fill="#3E31A2" points="80,120 80,80 80,40 120,40 160,40 160,0 120,0 80,0 40,0 0,0 0,40 0,80 0,120 40,120 	"/>
	<polygon fill="#3E31A2" points="240,120 240,80 200,80 160,80 160,120 200,120 	"/>
	<polygon fill="#8A46AE" points="280,120 320,120 320,80 280,80 240,80 240,120 	"/>
	<polygon fill="#3E31A2" points="360,120 400,120 400,80 360,80 320,80 320,120 	"/>
	<polygon fill="#000000" points="440,120 480,120 480,80 440,80 400,80 400,120 	"/>
	<polygon fill="#000000" points="1200,120 1200,80 1160,80 1120,80 1120,120 1160,120 	"/>
	<polygon fill="#3E31A2" points="1240,120 1280,120 1280,80 1240,80 1200,80 1200,120 	"/>
	<polygon fill="#000000" points="1360,80 1320,80 1280,80 1280,120 1320,120 1360,120 1360,160 1320,160 1280,160 1280,200 1320,200 1360,200 1360,240 1360,280 1400,280 1440,280 1440,240 1440,200 1440,160 1440,120 1440,80 1400,80 	"/>
	<polygon fill="#8A46AE" points="80,160 80,120 40,120 0,120 0,160 40,160 	"/>
	<polygon fill="#8A46AE" points="200,120 160,120 160,160 200,160 240,160 240,120 	"/>
	<polygon fill="#3E31A2" points="320,160 320,120 280,120 240,120 240,160 280,160 	"/>
	<polygon fill="#3E31A2" points="400,120 400,160 440,160 480,160 480,120 440,120 	"/>
	<polygon fill="#8A46AE" points="480,120 480,160 520,160 560,160 560,120 520,120 	"/>
	<polygon fill="#7C70DA" points="1120,160 1120,120 1120,80 1160,80 1200,80 1200,40 1160,40 1120,40 1080,40 1040,40 1040,80 1040,120 1040,160 1080,160 	"/>
	<polygon fill="#000000" points="1200,120 1200,160 1240,160 1280,160 1280,120 1240,120 	"/>
	<polygon fill="#3E31A2" points="1320,160 1360,160 1360,120 1320,120 1280,120 1280,160 	"/>
	<polygon fill="#8A46AE" points="320,200 320,240 360,240 400,240 400,200 400,160 400,120 360,120 320,120 320,160 280,160 240,160 240,200 280,200 	"/>
	<polygon fill="#000000" points="400,160 400,200 440,200 480,200 480,160 440,160 	"/>
	<polygon fill="#3E31A2" points="480,160 480,200 520,200 560,200 560,160 520,160 	"/>
	<polygon fill="#8A46AE" points="1120,200 1120,160 1080,160 1040,160 1040,200 1080,200 	"/>
	<polygon fill="#8A46AE" points="80,240 80,200 40,200 0,200 0,240 40,240 	"/>
	<polygon fill="#8A46AE" points="200,200 160,200 160,240 200,240 240,240 240,200 	"/>
	<polygon fill="#7C70DA" points="320,240 320,200 280,200 240,200 240,240 280,240 	"/>
	<polygon fill="#3E31A2" points="400,200 400,240 440,240 480,240 480,200 440,200 	"/>
	<polygon fill="#8A46AE" points="480,200 480,240 520,240 560,240 560,200 520,200 	"/>
	<polygon fill="#8A46AE" points="1040,240 1040,200 1000,200 960,200 960,240 1000,240 	"/>
	<polygon fill="#7C70DA" points="1080,240 1120,240 1120,200 1080,200 1040,200 1040,240 	"/>
	<polygon fill="#8A46AE" points="1200,240 1200,200 1160,200 1120,200 1120,240 1160,240 	"/>
	<polygon fill="#8A46AE" points="1440,200 1440,240 1480,240 1520,240 1520,200 1480,200 	"/>
	<polygon fill="#8A46AE" points="280,240 240,240 240,280 280,280 320,280 320,240 	"/>
	<polygon fill="#7C70DA" points="400,280 400,240 360,240 320,240 320,280 360,280 	"/>
	<polygon fill="#000000" points="400,240 400,280 440,280 480,280 480,240 440,240 	"/>
	<polygon fill="#7C70DA" points="480,240 480,280 520,280 560,280 560,240 520,240 	"/>
	<polygon fill="#3E31A2" points="1040,280 1040,240 1000,240 960,240 960,280 1000,280 	"/>
	<polygon fill="#8A46AE" points="1080,240 1040,240 1040,280 1080,280 1120,280 1120,240 	"/>
	<polygon fill="#3E31A2" points="1200,280 1200,240 1160,240 1120,240 1120,280 1160,280 	"/>
	<polygon fill="#8A46AE" points="1240,280 1280,280 1280,240 1240,240 1200,240 1200,280 	"/>
	<polygon fill="#3E31A2" points="1440,240 1440,280 1480,280 1520,280 1520,240 1480,240 	"/>
	<polygon fill="#7C70DA" points="80,320 80,360 80,400 80,440 80,480 80,520 120,520 160,520 160,480 160,440 160,400 200,400 240,400 240,440 280,440 320,440 320,480 320,520 360,520 400,520 400,480 400,440 400,400 360,400 320,400 320,360 360,360 400,360 400,320 360,320 320,320 320,280 280,280 240,280 240,320 200,320 160,320 160,280 200,280 240,280 240,240 200,240 160,240 160,200 200,200 240,200 240,160 200,160 160,160 160,120 160,80 200,80 240,80 280,80 320,80 360,80 400,80 400,40 360,40 320,40 280,40 240,40 200,40 160,40 120,40 80,40 80,80 80,120 80,160 40,160 0,160 0,200 40,200 80,200 80,240 40,240 0,240 0,280 0,320 40,320 	"/>
	<polygon fill="#8A46AE" points="160,280 160,320 200,320 240,320 240,280 200,280 	"/>
	<polygon fill="#8A46AE" points="360,280 320,280 320,320 360,320 400,320 400,280 	"/>
	<polygon fill="#8A46AE" points="480,280 480,320 520,320 560,320 560,280 520,280 	"/>
	<polygon fill="#8A46AE" points="1200,320 1200,280 1160,280 1120,280 1120,320 1160,320 	"/>
	<polygon fill="#3E31A2" points="1360,280 1360,240 1360,200 1320,200 1280,200 1280,160 1240,160 1200,160 1200,120 1160,120 1120,120 1120,160 1120,200 1160,200 1200,200 1200,240 1240,240 1280,240 1280,280 1240,280 1200,280 1200,320 1240,320 1280,320 1280,360 1320,360 1360,360 1360,320 1400,320 1440,320 1440,280 1400,280 	"/>
	<polygon fill="#8A46AE" points="1440,280 1440,320 1480,320 1520,320 1520,280 1480,280 	"/>
	<polygon fill="#8A46AE" points="80,360 80,320 40,320 0,320 0,360 40,360 	"/>
	<polygon fill="#7C70DA" points="480,320 480,360 520,360 560,360 560,320 520,320 	"/>
	<polygon fill="#3E31A2" points="1200,360 1200,320 1160,320 1120,320 1120,360 1160,360 	"/>
	<polygon fill="#8A46AE" points="1240,360 1280,360 1280,320 1240,320 1200,320 1200,360 	"/>
	<polygon fill="#000000" points="1360,320 1360,360 1400,360 1440,360 1440,320 1400,320 	"/>
	<polygon fill="#3E31A2" points="1440,320 1440,360 1480,360 1520,360 1520,320 1480,320 	"/>
	<polygon fill="#8A46AE" points="360,360 320,360 320,400 360,400 400,400 400,360 	"/>
	<polygon fill="#3E31A2" points="480,400 480,360 480,320 480,280 440,280 400,280 400,320 400,360 400,400 440,400 	"/>
	<polygon fill="#8A46AE" points="480,360 480,400 520,400 560,400 560,360 520,360 	"/>
	<polygon fill="#8A46AE" points="1040,400 1040,360 1040,320 1040,280 1000,280 960,280 960,320 960,360 960,400 1000,400 	"/>
	<polygon fill="#8A46AE" points="1200,400 1200,360 1160,360 1120,360 1120,400 1160,400 	"/>
	<polygon fill="#3E31A2" points="1200,360 1200,400 1240,400 1280,400 1280,360 1240,360 	"/>
	<polygon fill="#8A46AE" points="1320,400 1360,400 1360,360 1320,360 1280,360 1280,400 	"/>
	<polygon fill="#3E31A2" points="1360,360 1360,400 1400,400 1440,400 1440,360 1400,360 	"/>
	<polygon fill="#8A46AE" points="1440,360 1440,400 1440,440 1440,480 1480,480 1520,480 1520,440 1520,400 1520,360 1480,360 	"/>
	<polygon fill="#8A46AE" points="240,440 240,400 200,400 160,400 160,440 200,440 	"/>
	<polygon fill="#8A46AE" points="480,440 480,400 440,400 400,400 400,440 440,440 	"/>
	<polygon fill="#7C70DA" points="480,400 480,440 520,440 560,440 560,400 520,400 	"/>
	<polygon fill="#3E31A2" points="1200,440 1200,400 1160,400 1120,400 1120,440 1160,440 	"/>
	<polygon fill="#3E31A2" points="1280,400 1280,440 1320,440 1360,440 1360,400 1320,400 	"/>
	<polygon fill="#000000" points="1360,400 1360,440 1400,440 1440,440 1440,400 1400,400 	"/>
	<polygon fill="#3E31A2" points="240,480 240,440 200,440 160,440 160,480 200,480 	"/>
	<polygon fill="#8A46AE" points="280,480 320,480 320,440 280,440 240,440 240,480 	"/>
	<polygon fill="#3E31A2" points="480,480 480,440 440,440 400,440 400,480 440,480 	"/>
	<polygon fill="#8A46AE" points="480,440 480,480 520,480 560,480 560,440 520,440 	"/>
	<polygon fill="#8A46AE" points="1040,480 1040,440 1000,440 960,440 960,480 1000,480 	"/>
	<polygon fill="#3E31A2" points="1360,440 1360,480 1360,520 1360,560 1400,560 1440,560 1440,520 1440,480 1440,440 1400,440 	"/>
	<polygon fill="#3E31A2" points="80,520 80,480 80,440 80,400 80,360 40,360 0,360 0,400 0,440 0,480 0,520 40,520 	"/>
	<polygon fill="#3E31A2" points="240,480 240,520 240,560 280,560 320,560 320,520 320,480 280,480 	"/>
	<polygon fill="#8A46AE" points="480,520 480,480 440,480 400,480 400,520 440,520 	"/>
	<polygon fill="#7C70DA" points="480,480 480,520 480,560 480,600 520,600 560,600 560,560 560,520 560,480 520,480 	"/>
	<polygon fill="#8A46AE" points="1280,520 1280,480 1320,480 1360,480 1360,440 1320,440 1280,440 1280,400 1240,400 1200,400 1200,440 1160,440 1120,440 1120,480 1160,480 1200,480 1200,520 1240,520 	"/>
	<polygon fill="#7C70DA" points="1280,480 1280,520 1320,520 1360,520 1360,480 1320,480 	"/>
	<polygon fill="#7C70DA" points="1440,480 1440,520 1480,520 1520,520 1520,480 1480,480 	"/>
	<polygon fill="#000000" points="80,560 80,520 40,520 0,520 0,560 40,560 	"/>
	<polygon fill="#8A46AE" points="160,560 160,520 120,520 80,520 80,560 120,560 	"/>
	<polygon fill="#000000" points="200,560 240,560 240,520 240,480 200,480 160,480 160,520 160,560 	"/>
	<polygon fill="#8A46AE" points="360,560 400,560 400,520 360,520 320,520 320,560 	"/>
	<polygon fill="#3E31A2" points="440,560 480,560 480,520 440,520 400,520 400,560 	"/>
	<polygon fill="#8A46AE" points="1040,560 1040,520 1000,520 960,520 960,560 1000,560 	"/>
	<polygon fill="#8A46AE" points="1160,520 1120,520 1120,560 1160,560 1200,560 1200,520 	"/>
	<polygon fill="#7C70DA" points="1280,560 1280,520 1240,520 1200,520 1200,560 1240,560 	"/>
	<polygon fill="#8A46AE" points="1280,520 1280,560 1320,560 1360,560 1360,520 1320,520 	"/>
	<polygon fill="#8A46AE" points="1440,520 1440,560 1480,560 1520,560 1520,520 1480,520 	"/>
	<polygon fill="#7C70DA" points="160,600 160,560 120,560 80,560 80,600 120,600 	"/>
	<polygon fill="#3E31A2" points="240,600 240,560 200,560 160,560 160,600 200,600 	"/>
	<polygon fill="#000000" points="280,560 240,560 240,600 280,600 320,600 320,560 	"/>
	<polygon fill="#3E31A2" points="320,560 320,600 360,600 400,600 400,560 360,560 	"/>
	<polygon fill="#8A46AE" points="1280,600 1280,560 1240,560 1200,560 1200,600 1240,600 	"/>
	<polygon fill="#7C70DA" points="1280,560 1280,600 1320,600 1360,600 1360,560 1320,560 	"/>
	<polygon fill="#8A46AE" points="1360,560 1360,600 1400,600 1440,600 1440,560 1400,560 	"/>
	<polygon fill="#7C70DA" points="1440,560 1440,600 1480,600 1520,600 1520,560 1480,560 	"/>
	<polygon fill="#8A46AE" points="160,640 160,600 120,600 80,600 80,640 120,640 	"/>
	<polygon fill="#000000" points="200,600 160,600 160,640 200,640 240,640 240,600 	"/>
	<polygon fill="#3E31A2" points="240,600 240,640 280,640 320,640 320,600 280,600 	"/>
	<polygon fill="#8A46AE" points="480,600 480,640 520,640 560,640 560,600 520,600 	"/>
	<polygon fill="#8A46AE" points="1040,640 1040,600 1000,600 960,600 960,640 1000,640 	"/>
	<polygon fill="#8A46AE" points="1160,600 1120,600 1120,640 1160,640 1200,640 1200,600 	"/>
	<polygon fill="#7C70DA" points="1240,600 1200,600 1200,640 1240,640 1280,640 1280,600 	"/>
	<polygon fill="#8A46AE" points="1320,600 1280,600 1280,640 1320,640 1360,640 1360,600 	"/>
	<polygon fill="#3E31A2" points="1360,600 1360,640 1400,640 1440,640 1440,600 1400,600 	"/>
	<polygon fill="#8A46AE" points="1440,600 1440,640 1480,640 1520,640 1520,600 1480,600 	"/>
	<polygon fill="#7C70DA" points="160,680 160,640 120,640 80,640 80,680 120,680 	"/>
	<polygon fill="#000000" points="240,640 240,680 280,680 320,680 320,640 280,640 	"/>
	<polygon fill="#3E31A2" points="360,680 400,680 400,640 360,640 320,640 320,680 	"/>
	<polygon fill="#3E31A2" points="480,640 480,680 520,680 560,680 560,640 520,640 	"/>
	<polygon fill="#7C70DA" points="1040,680 1040,720 1040,760 1080,760 1120,760 1120,720 1160,720 1200,720 1200,760 1240,760 1280,760 1320,760 1360,760 1360,720 1360,680 1360,640 1320,640 1280,640 1280,680 1240,680 1200,680 1200,640 1160,640 1120,640 1120,600 1160,600 1200,600 1200,560 1160,560 1120,560 1120,520 1160,520 1200,520 1200,480 1160,480 1120,480 1120,440 1120,400 1120,360 1120,320 1120,280 1080,280 1040,280 1040,320 1040,360 1040,400 1000,400 960,400 960,440 1000,440 1040,440 1040,480 1000,480 960,480 960,520 1000,520 1040,520 1040,560 1000,560 960,560 960,600 1000,600 1040,600 1040,640 1000,640 960,640 960,680 1000,680 	"/>
	<polygon fill="#8A46AE" points="1200,640 1200,680 1240,680 1280,680 1280,640 1240,640 	"/>
	<polygon fill="#8A46AE" points="1360,640 1360,680 1360,720 1400,720 1440,720 1440,680 1440,640 1400,640 	"/>
	<polygon fill="#7C70DA" points="1440,640 1440,680 1440,720 1440,760 1440,800 1480,800 1520,800 1520,760 1520,720 1520,680 1520,640 1480,640 	"/>
	<polygon fill="#3E31A2" points="80,720 80,680 80,640 80,600 80,560 40,560 0,560 0,600 0,640 0,680 0,720 40,720 	"/>
	<polygon fill="#8A46AE" points="160,720 160,680 120,680 80,680 80,720 120,720 	"/>
	<polygon fill="#000000" points="480,680 480,640 480,600 480,560 440,560 400,560 400,600 360,600 320,600 320,640 360,640 400,640 400,680 360,680 320,680 320,720 360,720 400,720 400,760 400,800 440,800 480,800 480,760 480,720 520,720 560,720 560,680 520,680 	"/>
	<polygon fill="#8A46AE" points="1040,720 1040,680 1000,680 960,680 960,720 1000,720 	"/>
	<polygon fill="#8A46AE" points="80,760 80,720 40,720 0,720 0,760 40,760 	"/>
	<polygon fill="#7C70DA" points="160,760 160,720 120,720 80,720 80,760 120,760 	"/>
	<polygon fill="#3E31A2" points="480,720 480,760 480,800 520,800 560,800 560,760 560,720 520,720 	"/>
	<polygon fill="#3E31A2" points="1040,760 1040,720 1000,720 960,720 960,760 1000,760 	"/>
	<polygon fill="#8A46AE" points="1200,760 1200,720 1160,720 1120,720 1120,760 1160,760 	"/>
	<polygon fill="#3E31A2" points="1360,720 1360,760 1400,760 1440,760 1440,720 1400,720 	"/>
	<polygon fill="#3E31A2" points="80,800 80,760 40,760 0,760 0,800 40,800 	"/>
	<polygon fill="#8A46AE" points="120,760 80,760 80,800 120,800 160,800 160,760 	"/>
	<polygon fill="#3E31A2" points="240,800 240,760 280,760 320,760 320,800 360,800 400,800 400,760 400,720 360,720 320,720 320,680 280,680 240,680 240,640 200,640 160,640 160,680 160,720 160,760 160,800 200,800 	"/>
	<polygon fill="#8A46AE" points="320,800 320,760 280,760 240,760 240,800 280,800 	"/>
	<polygon fill="#000000" points="1040,800 1040,760 1000,760 960,760 960,800 1000,800 	"/>
	<polygon fill="#8A46AE" points="1120,800 1120,760 1080,760 1040,760 1040,800 1080,800 	"/>
	<polygon fill="#000000" points="1160,800 1200,800 1200,760 1160,760 1120,760 1120,800 	"/>
	<polygon fill="#3E31A2" points="1240,800 1280,800 1280,760 1240,760 1200,760 1200,800 	"/>
	<polygon fill="#8A46AE" points="1280,760 1280,800 1320,800 1360,800 1360,760 1320,760 	"/>
	<polygon fill="#8A46AE" points="80,840 80,800 40,800 0,800 0,840 40,840 	"/>
	<polygon fill="#8A46AE" points="240,840 240,800 200,800 160,800 160,840 200,840 	"/>
	<polygon fill="#3E31A2" points="320,840 320,800 280,800 240,800 240,840 280,840 	"/>
	<polygon fill="#8A46AE" points="320,800 320,840 360,840 400,840 400,800 360,800 	"/>
	<polygon fill="#3E31A2" points="440,840 480,840 480,800 440,800 400,800 400,840 	"/>
	<polygon fill="#8A46AE" points="480,800 480,840 520,840 560,840 560,800 520,800 	"/>
	<polygon fill="#3E31A2" points="1040,840 1040,800 1000,800 960,800 960,840 1000,840 	"/>
	<polygon fill="#7C70DA" points="1120,840 1120,800 1080,800 1040,800 1040,840 1080,840 	"/>
	<polygon fill="#3E31A2" points="1120,800 1120,840 1160,840 1200,840 1200,800 1160,800 	"/>
	<polygon fill="#000000" points="1240,800 1200,800 1200,840 1240,840 1280,840 1280,800 	"/>
	<polygon fill="#3E31A2" points="1280,800 1280,840 1320,840 1360,840 1360,800 1320,800 	"/>
	<polygon fill="#3E31A2" points="1440,800 1440,840 1480,840 1520,840 1520,800 1480,800 	"/>
	<polygon fill="#3E31A2" points="80,880 80,840 40,840 0,840 0,880 40,880 	"/>
	<polygon fill="#3E31A2" points="240,880 240,840 200,840 160,840 160,880 200,880 	"/>
	<polygon fill="#8A46AE" points="280,840 240,840 240,880 280,880 320,880 320,840 	"/>
	<polygon fill="#3E31A2" points="360,840 320,840 320,880 360,880 400,880 400,840 	"/>
	<polygon fill="#000000" points="400,840 400,880 440,880 480,880 480,840 440,840 	"/>
	<polygon fill="#3E31A2" points="480,840 480,880 520,880 560,880 560,840 520,840 	"/>
	<polygon fill="#000000" points="1040,880 1040,840 1000,840 960,840 960,880 1000,880 	"/>
	<polygon fill="#8A46AE" points="1120,880 1120,840 1080,840 1040,840 1040,880 1080,880 	"/>
	<polygon fill="#000000" points="1120,840 1120,880 1160,880 1200,880 1200,840 1160,840 	"/>
	<polygon fill="#3E31A2" points="1200,840 1200,880 1240,880 1280,880 1280,840 1240,840 	"/>
	<polygon fill="#000000" points="1440,840 1440,800 1440,760 1400,760 1360,760 1360,800 1360,840 1320,840 1280,840 1280,880 1320,880 1360,880 1360,920 1360,960 1360,1000 1360,1040 1400,1040 1440,1040 1440,1000 1440,960 1440,920 1440,880 1480,880 1520,880 1520,840 1480,840 	"/>
	<polygon fill="#3E31A2" points="240,880 240,920 280,920 320,920 320,880 280,880 	"/>
	<polygon fill="#3E31A2" points="400,880 400,920 440,920 480,920 480,880 440,880 	"/>
	<polygon fill="#8A46AE" points="480,880 480,920 520,920 560,920 560,880 520,880 	"/>
	<polygon fill="#3E31A2" points="600,920 640,920 640,880 600,880 560,880 560,920 	"/>
	<polygon fill="#8A46AE" points="680,920 720,920 720,880 680,880 640,880 640,920 	"/>
	<polygon fill="#3E31A2" points="760,920 800,920 840,920 880,920 920,920 960,920 1000,920 1040,920 1040,880 1000,880 960,880 920,880 880,880 840,880 800,880 760,880 720,880 720,920 	"/>
	<polygon fill="#000000" points="1200,880 1200,920 1240,920 1280,920 1280,880 1240,880 	"/>
	<polygon fill="#3E31A2" points="1440,880 1440,920 1440,960 1480,960 1520,960 1520,920 1520,880 1480,880 	"/>
	<polygon fill="#7C70DA" points="520,960 560,960 560,920 520,920 480,920 480,960 	"/>
	<polygon fill="#8A46AE" points="600,960 640,960 640,920 600,920 560,920 560,960 	"/>
	<polygon fill="#7C70DA" points="680,960 720,960 720,920 680,920 640,920 640,960 	"/>
	<polygon fill="#8A46AE" points="760,960 800,960 800,920 760,920 720,920 720,960 	"/>
	<polygon fill="#7C70DA" points="840,960 880,960 920,960 960,960 1000,960 1040,960 1080,960 1120,960 1120,920 1120,880 1080,880 1040,880 1040,920 1000,920 960,920 920,920 880,920 840,920 800,920 800,960 	"/>
	<polygon fill="#3E31A2" points="1240,920 1200,920 1200,880 1160,880 1120,880 1120,920 1120,960 1160,960 1200,960 1200,1000 1240,1000 1280,1000 1280,960 1320,960 1360,960 1360,920 1360,880 1320,880 1280,880 1280,920 	"/>
	<polygon fill="#8A46AE" points="320,1000 320,960 360,960 400,960 400,1000 440,1000 480,1000 520,1000 560,1000 560,960 520,960 480,960 480,920 440,920 400,920 400,880 360,880 320,880 320,920 280,920 240,920 240,880 200,880 160,880 160,920 160,960 200,960 240,960 240,1000 280,1000 	"/>
	<polygon fill="#7C70DA" points="360,960 320,960 320,1000 360,1000 400,1000 400,960 	"/>
	<polygon fill="#3E31A2" points="600,960 560,960 560,1000 600,1000 640,1000 640,960 	"/>
	<polygon fill="#8A46AE" points="680,960 640,960 640,1000 680,1000 720,1000 720,960 	"/>
	<polygon fill="#3E31A2" points="760,960 720,960 720,1000 760,1000 800,1000 800,960 	"/>
	<polygon fill="#8A46AE" points="840,960 800,960 800,1000 840,1000 880,1000 880,960 	"/>
	<polygon fill="#3E31A2" points="920,960 880,960 880,1000 920,1000 960,1000 960,960 	"/>
	<polygon fill="#8A46AE" points="1000,960 960,960 960,1000 1000,1000 1040,1000 1040,960 	"/>
	<polygon fill="#3E31A2" points="1040,960 1040,1000 1080,1000 1120,1000 1120,960 1080,960 	"/>
	<polygon fill="#8A46AE" points="1160,1000 1200,1000 1200,960 1160,960 1120,960 1120,1000 	"/>
	<polygon fill="#8A46AE" points="1280,960 1280,1000 1320,1000 1360,1000 1360,960 1320,960 	"/>
	<polygon fill="#8A46AE" points="1440,960 1440,1000 1480,1000 1520,1000 1520,960 1480,960 	"/>
	<polygon fill="#8A46AE" points="80,1040 80,1000 80,960 80,920 80,880 40,880 0,880 0,920 0,960 0,1000 0,1040 40,1040 	"/>
	<polygon fill="#8A46AE" points="200,1000 160,1000 160,1040 200,1040 240,1040 240,1000 	"/>
	<polygon fill="#7C70DA" points="320,1040 320,1000 280,1000 240,1000 240,1040 280,1040 	"/>
	<polygon fill="#8A46AE" points="320,1000 320,1040 360,1040 400,1040 400,1000 360,1000 	"/>
	<polygon fill="#3E31A2" points="520,1000 480,1000 440,1000 400,1000 400,1040 400,1080 400,1120 440,1120 480,1120 480,1080 480,1040 520,1040 560,1040 560,1000 	"/>
	<polygon fill="#000000" points="600,1000 560,1000 560,1040 600,1040 640,1040 640,1000 	"/>
	<polygon fill="#3E31A2" points="680,1000 640,1000 640,1040 680,1040 720,1040 720,1000 	"/>
	<polygon fill="#000000" points="920,1000 880,1000 840,1000 800,1000 760,1000 720,1000 720,1040 760,1040 800,1040 840,1040 880,1040 920,1040 960,1040 960,1000 	"/>
	<polygon fill="#3E31A2" points="1000,1000 960,1000 960,1040 1000,1040 1040,1040 1040,1000 	"/>
	<polygon fill="#8A46AE" points="1080,1000 1040,1000 1040,1040 1080,1040 1120,1040 1120,1000 	"/>
	<polygon fill="#3E31A2" points="1200,1040 1200,1000 1160,1000 1120,1000 1120,1040 1160,1040 	"/>
	<polygon fill="#8A46AE" points="1240,1040 1280,1040 1280,1000 1240,1000 1200,1000 1200,1040 	"/>
	<polygon fill="#3E31A2" points="1280,1000 1280,1040 1320,1040 1360,1040 1360,1000 1320,1000 	"/>
	<polygon fill="#3E31A2" points="1440,1000 1440,1040 1480,1040 1520,1040 1520,1000 1480,1000 	"/>
	<polygon fill="#8A46AE" points="280,1040 240,1040 240,1080 280,1080 320,1080 320,1040 	"/>
	<polygon fill="#7C70DA" points="400,1080 400,1040 360,1040 320,1040 320,1080 360,1080 	"/>
	<polygon fill="#7C70DA" points="520,1040 480,1040 480,1080 520,1080 560,1080 560,1040 	"/>
	<polygon fill="#3E31A2" points="600,1040 560,1040 560,1080 600,1080 640,1080 640,1040 	"/>
	<polygon fill="#8A46AE" points="680,1040 640,1040 640,1080 680,1080 720,1080 720,1040 	"/>
	<polygon fill="#3E31A2" points="760,1040 720,1040 720,1080 760,1080 800,1080 800,1040 	"/>
	<polygon fill="#8A46AE" points="840,1040 800,1040 800,1080 840,1080 880,1080 880,1040 	"/>
	<polygon fill="#3E31A2" points="920,1040 880,1040 880,1080 920,1080 960,1080 960,1040 	"/>
	<polygon fill="#8A46AE" points="1200,1080 1200,1040 1160,1040 1120,1040 1120,1080 1160,1080 	"/>
	<polygon fill="#3E31A2" points="1200,1040 1200,1080 1240,1080 1280,1080 1280,1040 1240,1040 	"/>
	<polygon fill="#8A46AE" points="1280,1040 1280,1080 1320,1080 1360,1080 1360,1040 1320,1040 	"/>
	<polygon fill="#3E31A2" points="1400,1080 1440,1080 1440,1040 1400,1040 1360,1040 1360,1080 	"/>
	<polygon fill="#8A46AE" points="1440,1040 1440,1080 1480,1080 1520,1080 1520,1040 1480,1040 	"/>
	<polygon fill="#8A46AE" points="80,1120 80,1080 40,1080 0,1080 0,1120 40,1120 	"/>
	<polygon fill="#8A46AE" points="360,1080 320,1080 320,1120 360,1120 400,1120 400,1080 	"/>
	<polygon fill="#8A46AE" points="480,1080 480,1120 520,1120 560,1120 560,1080 520,1080 	"/>
	<polygon fill="#8A46AE" points="1040,1120 1040,1080 1040,1040 1000,1040 960,1040 960,1080 960,1120 1000,1120 	"/>
	<polygon fill="#3E31A2" points="1200,1120 1200,1080 1160,1080 1120,1080 1120,1120 1160,1120 	"/>
	<polygon fill="#3E31A2" points="1320,1120 1360,1120 1360,1080 1320,1080 1280,1080 1280,1120 	"/>
	<polygon fill="#000000" points="1360,1080 1360,1120 1400,1120 1440,1120 1440,1080 1400,1080 	"/>
	<polygon fill="#3E31A2" points="1440,1080 1440,1120 1480,1120 1520,1120 1520,1080 1480,1080 	"/>
	<polygon fill="#8A46AE" points="400,1120 400,1160 440,1160 480,1160 480,1120 440,1120 	"/>
	<polygon fill="#7C70DA" points="480,1120 480,1160 480,1200 440,1200 400,1200 360,1200 320,1200 280,1200 240,1200 200,1200 160,1200 160,1160 200,1160 240,1160 280,1160 320,1160 360,1160 400,1160 400,1120 360,1120 320,1120 320,1080 280,1080 240,1080 240,1040 200,1040 160,1040 160,1000 200,1000 240,1000 240,960 200,960 160,960 160,920 160,880 160,840 160,800 120,800 80,800 80,840 80,880 80,920 80,960 80,1000 80,1040 40,1040 0,1040 0,1080 40,1080 80,1080 80,1120 40,1120 0,1120 0,1160 40,1160 80,1160 80,1200 40,1200 0,1200 0,1240 40,1240 80,1240 120,1240 160,1240 200,1240 240,1240 280,1240 320,1240 360,1240 400,1240 440,1240 480,1240 520,1240 560,1240 560,1200 560,1160 560,1120 520,1120 	"/>
	<polygon fill="#7C70DA" points="1040,1160 1040,1200 1080,1200 1120,1200 1120,1160 1120,1120 1120,1080 1120,1040 1080,1040 1040,1040 1040,1080 1040,1120 1000,1120 960,1120 960,1160 1000,1160 	"/>
	<polygon fill="#8A46AE" points="1240,1160 1280,1160 1320,1160 1360,1160 1360,1120 1320,1120 1280,1120 1280,1080 1240,1080 1200,1080 1200,1120 1160,1120 1120,1120 1120,1160 1120,1200 1160,1200 1200,1200 1200,1160 	"/>
	<polygon fill="#3E31A2" points="1360,1120 1360,1160 1320,1160 1280,1160 1240,1160 1200,1160 1200,1200 1240,1200 1280,1200 1320,1200 1360,1200 1400,1200 1440,1200 1440,1160 1440,1120 1400,1120 	"/>
	<polygon fill="#8A46AE" points="1440,1120 1440,1160 1440,1200 1480,1200 1520,1200 1520,1160 1520,1120 1480,1120 	"/>
	<polygon fill="#8A46AE" points="80,1200 80,1160 40,1160 0,1160 0,1200 40,1200 	"/>
	<polygon fill="#8A46AE" points="360,1160 320,1160 280,1160 240,1160 200,1160 160,1160 160,1200 200,1200 240,1200 280,1200 320,1200 360,1200 400,1200 400,1160 	"/>
	<polygon fill="#3E31A2" points="400,1160 400,1200 440,1200 480,1200 480,1160 440,1160 	"/>
	<polygon fill="#8A46AE" points="1040,1200 1040,1160 1000,1160 960,1160 960,1200 1000,1200 	"/>
	<polygon fill="#7C70DA" points="1000,1200 960,1200 960,1240 1000,1240 1040,1240 1040,1200 	"/>
	<polygon fill="#8A46AE" points="1080,1200 1040,1200 1040,1240 1080,1240 1120,1240 1120,1200 	"/>
	<polygon fill="#7C70DA" points="1160,1200 1120,1200 1120,1240 1160,1240 1200,1240 1200,1200 	"/>
	<polygon fill="#8A46AE" points="1240,1200 1200,1200 1200,1240 1240,1240 1280,1240 1280,1200 	"/>
	<polygon fill="#7C70DA" points="1320,1200 1280,1200 1280,1240 1320,1240 1360,1240 1360,1200 	"/>
	<polygon fill="#8A46AE" points="1400,1200 1360,1200 1360,1240 1400,1240 1440,1240 1440,1200 	"/>
	<polygon fill="#7C70DA" points="1440,1200 1440,1240 1480,1240 1520,1240 1520,1200 1480,1200 	"/>
</g>
</svg>
