<?xml version="1.0" encoding="utf-8"?>
<!-- Generator: Adobe Illustrator 15.0.0, SVG Export Plug-In . SVG Version: 6.00 Build 0)  -->
<!DOCTYPE svg PUBLIC "-//W3C//DTD SVG 1.1//EN" "http://www.w3.org/Graphics/SVG/1.1/DTD/svg11.dtd">
<svg version="1.1" id="Layer_1" xmlns:ev="http://www.w3.org/2001/xml-events"
	 xmlns="http://www.w3.org/2000/svg" xmlns:xlink="http://www.w3.org/1999/xlink" x="0px" y="0px" width="1280px" height="1240px"
	 viewBox="0 0 1280 1240" enable-background="new 0 0 1280 1240" xml:space="preserve">
<path fill="#8A46AE" d="M1160,1040c-93.333,0-186.667,0-280,0c0-346.667,0-693.333,0-1040C693.333,0,506.666,0,320,0
	c0,26.667,0,53.333,0,80c-26.667,0-53.333,0-80,0v40c-53.333,0-106.667,0-160,0v40c-26.667,0-53.333,0-80,0c0,40,0,80,0,120
	c106.667,0,213.333,0,320,0c0,253.333,0,506.667,0,760c-106.667,0-213.333,0-320,0c0,66.667,0,133.333,0,200c400,0,800,0,1200,0
	c0-66.667,0-133.333,0-200H1160L1160,1040z"/>
</svg>
