<?xml version="1.0" encoding="utf-8"?>
<!-- Generator: Adobe Illustrator 15.0.0, SVG Export Plug-In . SVG Version: 6.00 Build 0)  -->
<!DOCTYPE svg PUBLIC "-//W3C//DTD SVG 1.1//EN" "http://www.w3.org/Graphics/SVG/1.1/DTD/svg11.dtd">
<svg version="1.1" id="Layer_1" xmlns:ev="http://www.w3.org/2001/xml-events"
	 xmlns="http://www.w3.org/2000/svg" xmlns:xlink="http://www.w3.org/1999/xlink" x="0px" y="0px" width="1600px" height="1240px"
	 viewBox="0 0 1600 1240" enable-background="new 0 0 1600 1240" xml:space="preserve">
<path fill="#8A46AE" d="M1480,0c-173.333,0-346.667,0-520,0c0,320,0,640,0,960c-26.667,0-53.333,0-80,0v40c-26.667,0-53.333,0-80,0
	v40c-26.667,0-53.333,0-80,0v-40c-26.667,0-53.333,0-80,0v-40c-26.667,0-53.333,0-80,0c0-320,0-640,0-960C373.333,0,186.666,0,0,0
	c0,306.667,0,613.333,0,920c26.667,0,53.333,0,80,0v40c26.667,0,53.333,0,80,0v40c26.667,0,53.333,0,80,0v40c26.667,0,53.333,0,80,0
	v40c26.667,0,53.333,0,80,0v40c26.667,0,53.333,0,80,0v40c26.667,0,53.333,0,80,0v40c26.667,0,53.333,0,80,0v40c80,0,160,0,240,0
	v-40c26.667,0,53.333,0,80,0v-40c26.667,0,53.333,0,80,0v-40c26.667,0,53.333,0,80,0v-40c26.667,0,53.333,0,80,0v-40
	c26.667,0,53.333,0,80,0v-40c26.667,0,53.333,0,80,0v-40c26.667,0,53.333,0,80,0v-40c26.667,0,53.333,0,80,0
	c0-306.667,0-613.333,0-920H1480L1480,0z"/>
</svg>
