<?xml version="1.0" encoding="utf-8"?>
<!-- Generator: Adobe Illustrator 15.0.0, SVG Export Plug-In . SVG Version: 6.00 Build 0)  -->
<!DOCTYPE svg PUBLIC "-//W3C//DTD SVG 1.1//EN" "http://www.w3.org/Graphics/SVG/1.1/DTD/svg11.dtd">
<svg version="1.1" id="Layer_1" xmlns:ev="http://www.w3.org/2001/xml-events"
	 xmlns="http://www.w3.org/2000/svg" xmlns:xlink="http://www.w3.org/1999/xlink" x="0px" y="0px" width="1600px" height="1240px"
	 viewBox="0 0 1600 1240" enable-background="new 0 0 1600 1240" xml:space="preserve">
<g>
	<polygon fill="#8A46AE" points="1400,1120 1360,1120 1360,1080 1280,1080 1280,1040 1200,1040 1200,1000 1120,1000 1120,960 
		1040,960 1040,920 960,920 960,880 880,880 880,840 800,840 800,880 720,880 720,1000 800,1000 800,1040 880,1040 880,1080 
		960,1080 960,1120 1040,1120 1040,1160 1120,1160 1120,1200 1200,1200 1200,1240 1520,1240 1520,1160 1440,1160 1440,1120 
		1400,1120 	"/>
	<polygon fill="#8A46AE" points="1040,1200 1040,1160 960,1160 960,1120 880,1120 880,1080 800,1080 800,1040 560,1040 560,240 
		640,240 640,160 720,160 720,120 800,120 800,160 880,160 880,240 960,240 960,880 1040,880 1040,920 1120,920 1120,960 1200,960 
		1200,1000 1280,1000 1280,1040 1360,1040 1360,1080 1440,1080 1440,1120 1520,1120 1520,440 1440,440 1440,320 1360,320 1360,240 
		1280,240 1280,160 1200,160 1200,120 1120,120 1120,80 1040,80 1040,40 880,40 880,0 640,0 640,40 480,40 480,80 400,80 400,120 
		320,120 320,160 240,160 240,240 160,240 160,320 80,320 80,480 0,480 0,1240 1120,1240 1120,1200 1040,1200 	"/>
	
		<line fill="none" stroke="#FFFFFF" stroke-width="0" stroke-linecap="round" stroke-linejoin="round" x1="840" y1="1080" x2="880" y2="1080"/>
</g>
</svg>
