<?xml version="1.0" encoding="utf-8"?>
<!-- Generator: Adobe Illustrator 15.0.0, SVG Export Plug-In . SVG Version: 6.00 Build 0)  -->
<!DOCTYPE svg PUBLIC "-//W3C//DTD SVG 1.1//EN" "http://www.w3.org/Graphics/SVG/1.1/DTD/svg11.dtd">
<svg version="1.1" id="Layer_1" xmlns:ev="http://www.w3.org/2001/xml-events"
	 xmlns="http://www.w3.org/2000/svg" xmlns:xlink="http://www.w3.org/1999/xlink" x="0px" y="0px" width="1920px" height="1240px"
	 viewBox="0 0 1920 1240" enable-background="new 0 0 1920 1240" xml:space="preserve">
<path fill="#7C70DA" d="M1800,0c-173.333,0-346.667,0-520,0c0,26.667,0,53.333,0,80c-26.667,0-53.333,0-80,0c0,40,0,80,0,120
	c-26.667,0-53.333,0-80,0c0,40,0,80,0,120c-26.667,0-53.333,0-80,0c0,40,0,80,0,120c-26.667,0-53.333,0-80,0c0,40,0,80,0,120
	c-26.667,0-53.333,0-80,0c0-40,0-80,0-120c-26.667,0-53.333,0-80,0c0-40,0-80,0-120c-26.667,0-53.333,0-80,0c0-40,0-80,0-120
	c-26.667,0-53.333,0-80,0c0-40,0-80,0-120c-26.667,0-53.333,0-80,0c0-26.667,0-53.333,0-80C373.333,0,186.666,0,0,0c0,40,0,80,0,120
	c26.667,0,53.333,0,80,0v40c26.667,0,53.333,0,80,0c0,26.667,0,53.333,0,80c26.667,0,53.333,0,80,0v40c26.667,0,53.333,0,80,0
	c0,26.667,0,53.333,0,80c26.667,0,53.333,0,80,0v40c26.667,0,53.333,0,80,0c0,26.667,0,53.333,0,80c26.667,0,53.333,0,80,0v40
	c26.667,0,53.333,0,80,0c0,26.667,0,53.333,0,80c26.667,0,53.333,0,80,0v40c-26.667,0-53.333,0-80,0c0,26.667,0,53.333,0,80
	c-26.667,0-53.333,0-80,0v40c-26.667,0-53.333,0-80,0c0,26.667,0,53.333,0,80c-26.667,0-53.333,0-80,0v40c-26.667,0-53.333,0-80,0
	c0,26.667,0,53.333,0,80c-26.667,0-53.333,0-80,0v40c-26.667,0-53.333,0-80,0c0,26.667,0,53.333,0,80c-26.667,0-53.333,0-80,0v40
	c-26.667,0-53.333,0-80,0c0,40,0,80,0,120c186.667,0,373.333,0,560,0c0-26.667,0-53.333,0-80c26.667,0,53.333,0,80,0
	c0-40,0-80,0-120c26.667,0,53.333,0,80,0c0-40,0-80,0-120c26.667,0,53.333,0,80,0c0-40,0-80,0-120c26.667,0,53.333,0,80,0
	c0-40,0-80,0-120c26.667,0,53.333,0,80,0c0,40,0,80,0,120c26.667,0,53.333,0,80,0c0,40,0,80,0,120c26.667,0,53.333,0,80,0
	c0,40,0,80,0,120c26.667,0,53.333,0,80,0c0,40,0,80,0,120c26.667,0,53.333,0,80,0c0,26.667,0,53.333,0,80c186.667,0,373.333,0,560,0
	c0-40,0-80,0-120c-26.667,0-53.333,0-80,0v-40c-26.667,0-53.333,0-80,0c0-26.667,0-53.333,0-80c-26.667,0-53.333,0-80,0v-40
	c-26.667,0-53.333,0-80,0c0-26.667,0-53.333,0-80c-26.667,0-53.333,0-80,0v-40c-26.667,0-53.333,0-80,0c0-26.667,0-53.333,0-80
	c-26.667,0-53.333,0-80,0v-40c-26.667,0-53.333,0-80,0c0-26.667,0-53.333,0-80c-26.667,0-53.333,0-80,0v-40c26.667,0,53.333,0,80,0
	c0-26.667,0-53.333,0-80c26.667,0,53.333,0,80,0v-40c26.667,0,53.333,0,80,0c0-26.667,0-53.333,0-80c26.667,0,53.333,0,80,0v-40
	c26.667,0,53.333,0,80,0c0-26.667,0-53.333,0-80c26.667,0,53.333,0,80,0v-40c26.667,0,53.333,0,80,0c0-26.667,0-53.333,0-80
	c26.667,0,53.333,0,80,0v-40c26.667,0,53.333,0,80,0c0-40,0-80,0-120H1800L1800,0z"/>
</svg>
