<?xml version="1.0" encoding="utf-8"?>
<!-- Generator: Adobe Illustrator 15.0.0, SVG Export Plug-In . SVG Version: 6.00 Build 0)  -->
<!DOCTYPE svg PUBLIC "-//W3C//DTD SVG 1.1//EN" "http://www.w3.org/Graphics/SVG/1.1/DTD/svg11.dtd">
<svg version="1.1" id="Layer_1" xmlns:ev="http://www.w3.org/2001/xml-events"
	 xmlns="http://www.w3.org/2000/svg" xmlns:xlink="http://www.w3.org/1999/xlink" x="0px" y="0px" width="1600px" height="1240px"
	 viewBox="0 0 1600 1240" enable-background="new 0 0 1600 1240" xml:space="preserve">
<path fill="#7C70DA" d="M1480,440h-40V320h-80v-80h-80v-80h-80v-40h-80V80h-80V40H880V0H640v40H480v40h-80v40h-80v40h-80v80h-80v80
	H80v160H0v760h560v-160h400v160h560V440H1480L1480,440z M960,280v600H560V240h80v-80h80v-40h80v40h80v80h80V280L960,280z"/>
</svg>
