<?xml version="1.0" standalone="no"?>
<!DOCTYPE svg PUBLIC "-//W3C//DTD SVG 1.1//EN" "http://www.w3.org/Graphics/SVG/1.1/DTD/svg11.dtd" >
<svg xmlns="http://www.w3.org/2000/svg">
<metadata>Generated by IcoMoon</metadata>
<defs>
<font id="Compyx-One" horiz-adv-x="1024">
<font-face units-per-em="1024" ascent="960" descent="-64" />
<missing-glyph horiz-adv-x="1024" />
<glyph unicode="&#x20;" d="" horiz-adv-x="512" />
<glyph unicode="&#x21;" d="M330.323 893.935v-33.032h66.065v33.032h-33.032zM330.323 827.871v-33.032h66.065v33.032h-33.032zM330.323 761.806v-33.032h66.065v33.032h-33.032zM66.065 497.548v33.032h-66.065v-33.032h33.032zM165.161 497.548h33.032v66.065h-66.065v-66.065zM231.226 497.548h-33.032v-33.032h66.065v33.032zM132.129 464.516v-33.032h66.065v33.032h-33.032zM198.194 431.484v-33.032h66.065v33.032h-33.032zM396.387 398.452v99.097h-66.065v-33.032h-66.065v-33.032h66.065v-33.032h-66.065v-33.032h66.065v-132.129h66.065v132.129h66.065v33.032h-33.032zM165.161 233.29h-33.032v-33.032h66.065v33.032zM264.258 233.29v-33.032h66.065v33.032h-33.032z" horiz-adv-x="529" />
<glyph unicode="&#x22;" d="M330.323 860.903v-33.032h66.065v33.032h-33.032zM858.839 860.903v-33.032h66.065v33.032h-33.032z" horiz-adv-x="1057" />
<glyph unicode="&#x2f;" d="M693.677 563.613h-33.032v-33.032h66.065v33.032zM858.839 563.613v33.032h-66.065v-66.065h-66.065v-33.032h-66.065v-33.032h66.065v-33.032h66.065v33.032h66.065v66.065zM627.613 530.581h-33.032v-33.032h66.065v33.032zM594.581 464.516v-33.032h66.065v33.032h-33.032zM660.645 431.484v-33.032h66.065v33.032h-33.032zM594.581 398.452v-66.065h66.065v66.065h-33.032zM528.516 332.387v-33.032h66.065v33.032h-33.032z" horiz-adv-x="1321" />
<glyph unicode="&#x30;" d="M792.774 893.935v-33.032h66.065v33.032h-33.032zM858.839 860.903v-33.032h66.065v33.032h-33.032zM924.903 827.871v-33.032h66.065v33.032h-33.032zM990.968 761.806v-33.032h66.065v33.032h-33.032zM66.065 497.548v33.032h-66.065v-33.032h33.032zM165.161 497.548h33.032v66.065h-66.065v-66.065zM231.226 464.516h33.032v33.032h-66.065v-33.032zM198.194 431.484v33.032h-66.065v-33.032h33.032zM297.29 464.516h-33.032v-33.032h66.065v-33.032h-66.065v-33.032h66.065v-66.065h66.065v66.065h66.065v33.032h-66.065v99.097h-66.065v-33.032zM231.226 431.484h-33.032v-33.032h66.065v33.032zM198.194 365.419v33.032h-66.065v-33.032h33.032zM792.774 332.387v-33.032h66.065v33.032h-33.032zM957.935 299.355h33.032v33.032h-66.065v-33.032zM1024 299.355h-33.032v-33.032h66.065v33.032zM396.387 233.29v33.032h-66.065v-33.032h33.032zM858.839 233.29v33.032h-66.065v-33.032h33.032zM924.903 266.323v-33.032h66.065v33.032h-33.032zM1189.161 266.323v66.065h-66.065v-66.065h-66.065v-33.032h66.065v-132.129h66.065v132.129h66.065v33.032h-33.032zM66.065 200.258v33.032h-66.065v-33.032h33.032zM990.968 233.29v-33.032h66.065v33.032h-33.032zM1123.097 68.129v-33.032h66.065v33.032h-33.032z" horiz-adv-x="1321" />
<glyph unicode="&#x31;" d="M594.581 893.935v-33.032h66.065v33.032h-33.032zM594.581 827.871v-33.032h66.065v33.032h-33.032zM165.161 761.806h-33.032v-33.032h66.065v33.032zM330.323 728.774v33.032h-66.065v-33.032h33.032zM594.581 761.806v-33.032h66.065v33.032h-33.032zM330.323 662.71v33.032h-66.065v-33.032h33.032zM330.323 596.645v33.032h-66.065v-33.032h33.032zM462.452 497.548v66.065h-66.065v-66.065h33.032zM495.484 497.548h-33.032v-33.032h66.065v33.032zM462.452 431.484v33.032h-66.065v-33.032h33.032zM462.452 431.484v-33.032h66.065v33.032h-33.032zM660.645 398.452v99.097h-66.065v-33.032h-66.065v-33.032h66.065v-33.032h-66.065v-33.032h66.065v-132.129h66.065v132.129h66.065v33.032h-33.032zM594.581 200.258v-33.032h66.065v33.032h-33.032zM231.226 2.065h-33.032v-33.032h66.065v33.032zM759.742 2.065h-33.032v-33.032h66.065v33.032zM858.839 2.065v-33.032h66.065v33.032h-33.032z" horiz-adv-x="1057" />
<glyph unicode="&#x32;" d="M792.774 893.935v-33.032h66.065v33.032h-33.032zM858.839 860.903v-33.032h66.065v33.032h-33.032zM924.903 827.871v-33.032h66.065v33.032h-33.032zM990.968 761.806v-33.032h66.065v33.032h-33.032zM1156.129 35.097h33.032v33.032h-66.065v-33.032z" horiz-adv-x="1321" />
<glyph unicode="&#x33;" d="M792.774 893.935v-33.032h66.065v33.032h-33.032zM858.839 860.903v-33.032h66.065v33.032h-33.032zM924.903 827.871v-33.032h66.065v33.032h-33.032zM990.968 761.806v-33.032h66.065v33.032h-33.032zM561.548 398.452h-33.032v-33.032h66.065v33.032z" horiz-adv-x="1321" />
<glyph unicode="&#x34;" d="M363.355 860.903h33.032v33.032h-66.065v-33.032zM990.968 860.903v33.032h-66.065v-33.032h33.032zM1123.097 893.935h-66.065v-33.032h66.065v-33.032h-66.065v-33.032h66.065v-66.065h66.065v165.161h-33.032zM990.968 860.903v-33.032h66.065v33.032h-33.032zM330.323 827.871v-33.032h66.065v33.032h-33.032zM330.323 761.806v-33.032h66.065v33.032h-33.032zM1123.097 695.742v-33.032h66.065v33.032h-33.032zM1123.097 629.677v-33.032h66.065v33.032h-33.032zM66.065 497.548v33.032h-66.065v-33.032h33.032zM165.161 497.548h33.032v66.065h-66.065v-66.065zM231.226 497.548h-33.032v-33.032h66.065v33.032zM165.161 464.516h-33.032v-33.032h66.065v33.032zM198.194 431.484v-33.032h66.065v33.032h-33.032zM396.387 398.452v99.097h-66.065v-33.032h-66.065v-33.032h66.065v-33.032h-66.065v-33.032h66.065v-66.065h66.065v66.065h66.065v33.032h-33.032zM858.839 299.355v33.032h-66.065v-33.032h33.032zM957.935 299.355h33.032v33.032h-66.065v-33.032zM1024 299.355h-33.032v-33.032h66.065v33.032zM330.323 266.323v-33.032h66.065v33.032h-33.032zM858.839 233.29v33.032h-66.065v-33.032h33.032zM924.903 266.323v-33.032h66.065v33.032h-33.032zM1189.161 266.323v66.065h-66.065v-66.065h-66.065v-33.032h66.065v-132.129h66.065v132.129h66.065v33.032h-33.032zM990.968 233.29v-33.032h66.065v33.032h-33.032zM495.484 134.194h-33.032v-33.032h66.065v33.032zM759.742 134.194h-165.161v-33.032h198.194v33.032zM1123.097 68.129v-33.032h66.065v33.032h-33.032z" horiz-adv-x="1321" />
<glyph unicode="&#x35;" d="M858.839 926.968v-33.032h66.065v33.032h-33.032zM363.355 860.903h33.032v33.032h-66.065v-33.032zM693.677 893.935h-33.032v-33.032h66.065v33.032zM825.806 893.935h-33.032v-33.032h66.065v33.032zM330.323 827.871v-33.032h66.065v33.032h-33.032zM330.323 761.806v-33.032h66.065v33.032h-33.032zM66.065 563.613v33.032h-66.065v-33.032h33.032zM66.065 497.548v33.032h-66.065v-33.032h33.032zM165.161 497.548h33.032v66.065h-66.065v-66.065zM231.226 497.548h-33.032v-33.032h66.065v33.032zM165.161 464.516h-33.032v-33.032h66.065v33.032zM429.419 398.452h-33.032v99.097h-66.065v-33.032h-66.065v-33.032h66.065v-33.032h-66.065v33.032h-66.065v-33.032h-66.065v-33.032h330.323v33.032zM561.548 398.452h-33.032v-33.032h66.065v33.032z" horiz-adv-x="1321" />
<glyph unicode="&#x36;" d="M858.839 926.968v-33.032h66.065v33.032h-33.032zM693.677 893.935h-33.032v-33.032h66.065v33.032zM825.806 893.935h-33.032v-33.032h66.065v33.032zM66.065 497.548v33.032h-66.065v-33.032h33.032zM165.161 497.548h33.032v66.065h-66.065v-66.065zM231.226 464.516h33.032v33.032h-66.065v-33.032zM330.323 497.548v-33.032h-66.065v-33.032h66.065v-33.032h-66.065v-33.032h66.065v-66.065h66.065v66.065h66.065v33.032h-66.065v99.097h-33.032zM165.161 464.516h-33.032v-33.032h66.065v33.032zM231.226 431.484h-33.032v-33.032h66.065v33.032zM561.548 365.419h33.032v33.032h-66.065v-33.032zM396.387 233.29v33.032h-66.065v-33.032h33.032z" horiz-adv-x="1321" />
<glyph unicode="&#x37;" d="M231.226 926.968h33.032v33.032h-66.065v-33.032zM363.355 926.968h33.032v33.032h-66.065v-33.032zM99.097 893.935h-33.032v-33.032h66.065v33.032zM231.226 893.935h-33.032v-33.032h66.065v33.032zM363.355 893.935h-33.032v-33.032h66.065v33.032zM693.677 563.613h-33.032v-33.032h66.065v33.032zM858.839 563.613v33.032h-66.065v-66.065h-66.065v-33.032h-66.065v-33.032h66.065v-33.032h66.065v33.032h66.065v66.065zM627.613 530.581h-33.032v-33.032h66.065v33.032zM594.581 464.516v-33.032h66.065v33.032h-33.032zM660.645 431.484v-33.032h66.065v33.032h-33.032zM594.581 398.452v-66.065h66.065v66.065h-33.032zM528.516 332.387v-33.032h66.065v33.032h-33.032z" horiz-adv-x="1321" />
<glyph unicode="&#x38;" d="M792.774 893.935v-33.032h66.065v33.032h-33.032zM858.839 860.903v-33.032h66.065v33.032h-33.032zM924.903 827.871v-33.032h66.065v33.032h-33.032zM990.968 761.806v-33.032h66.065v33.032h-33.032zM66.065 497.548v33.032h-66.065v-33.032h33.032zM165.161 497.548h33.032v66.065h-66.065v-66.065zM231.226 464.516h33.032v33.032h-66.065v-33.032zM363.355 464.516h33.032v33.032h-66.065v-33.032zM198.194 431.484v33.032h-66.065v-33.032h33.032zM297.29 464.516h-33.032v-33.032h66.065v33.032zM231.226 431.484h-33.032v-33.032h66.065v33.032z" horiz-adv-x="1321" />
<glyph unicode="&#x39;" d="M792.774 893.935v-33.032h66.065v33.032h-33.032zM858.839 860.903v-33.032h66.065v33.032h-33.032zM924.903 827.871v-33.032h66.065v33.032h-33.032zM990.968 761.806v-33.032h66.065v33.032h-33.032zM66.065 497.548v33.032h-66.065v-33.032h33.032zM165.161 497.548h33.032v66.065h-66.065v-66.065zM957.935 530.581h-33.032v-33.032h66.065v33.032zM231.226 464.516h33.032v33.032h-66.065v-33.032zM330.323 497.548v-33.032h66.065v33.032h-33.032zM1024 497.548h-33.032v-33.032h66.065v33.032zM1123.097 497.548v-33.032h-66.065v-33.032h66.065v-33.032h-66.065v-33.032h66.065v-132.129h66.065v264.258h-33.032zM198.194 431.484v33.032h-66.065v-33.032h33.032zM297.29 464.516h-33.032v-33.032h66.065v33.032zM957.935 464.516h-33.032v-33.032h66.065v33.032zM231.226 431.484h-33.032v-33.032h66.065v33.032zM990.968 431.484v-33.032h66.065v33.032h-33.032zM1123.097 200.258v-33.032h66.065v33.032h-33.032zM1123.097 134.194v-33.032h66.065v33.032h-33.032z" horiz-adv-x="1321" />
<glyph unicode="&#x3f;" d="M792.774 893.935v-33.032h66.065v33.032h-33.032zM858.839 860.903v-33.032h66.065v33.032h-33.032zM924.903 827.871v-33.032h66.065v33.032h-33.032zM990.968 761.806v-33.032h66.065v33.032h-33.032z" horiz-adv-x="1255" />
<glyph unicode="&#x61;" d="M792.774 893.935v-33.032h66.065v33.032h-33.032zM858.839 860.903v-33.032h66.065v33.032h-33.032zM924.903 827.871v-33.032h66.065v33.032h-33.032zM990.968 761.806v-33.032h66.065v33.032h-33.032zM66.065 497.548v33.032h-66.065v-33.032h33.032zM165.161 497.548h33.032v66.065h-66.065v-66.065zM231.226 464.516h33.032v33.032h-66.065v-33.032zM165.161 464.516h-33.032v-33.032h66.065v33.032zM231.226 431.484h-33.032v-33.032h66.065v33.032zM396.387 299.355v66.065h66.065v33.032h-66.065v99.097h-66.065v-33.032h-66.065v-33.032h66.065v-33.032h-66.065v-33.032h66.065v-66.065h33.032zM792.774 332.387v-33.032h66.065v33.032h-33.032zM957.935 299.355h33.032v33.032h-66.065v-33.032zM1024 299.355h-33.032v-33.032h66.065v33.032zM396.387 233.29v33.032h-66.065v-33.032h33.032zM858.839 233.29v33.032h-66.065v-33.032h33.032zM924.903 266.323v-33.032h66.065v33.032h-33.032zM1189.161 266.323v66.065h-66.065v-66.065h-66.065v-33.032h66.065v-132.129h66.065v132.129h66.065v33.032h-33.032zM990.968 233.29v-33.032h66.065v33.032h-33.032zM495.484 134.194h-33.032v-33.032h66.065v33.032zM759.742 134.194h-165.161v-33.032h198.194v33.032zM1123.097 68.129v-33.032h66.065v33.032h-33.032z" horiz-adv-x="1321" />
<glyph unicode="&#x62;" d="M363.355 860.903h33.032v33.032h-66.065v-33.032zM792.774 893.935v-33.032h66.065v33.032h-33.032zM858.839 860.903v-33.032h66.065v33.032h-33.032zM396.387 794.839v33.032h-66.065v-33.032h33.032zM924.903 827.871v-33.032h66.065v33.032h-33.032zM363.355 761.806h-33.032v-33.032h66.065v33.032zM990.968 761.806v-33.032h66.065v33.032h-33.032zM66.065 497.548v33.032h-66.065v-33.032h33.032zM165.161 497.548h33.032v66.065h-66.065v-66.065zM231.226 464.516h33.032v33.032h-66.065v-33.032zM165.161 464.516h-33.032v-33.032h66.065v33.032zM231.226 431.484h-33.032v-33.032h66.065v33.032zM528.516 398.452v-33.032h66.065v33.032h-33.032zM396.387 299.355v66.065h66.065v33.032h-66.065v99.097h-66.065v-33.032h-66.065v-33.032h66.065v-33.032h-66.065v-33.032h66.065v-66.065h33.032zM396.387 233.29v33.032h-66.065v-33.032h33.032z" horiz-adv-x="1321" />
<glyph unicode="&#x63;" d="M858.839 926.968v-33.032h66.065v33.032h-33.032zM693.677 893.935h-33.032v-33.032h66.065v33.032zM825.806 893.935h-33.032v-33.032h66.065v33.032zM66.065 497.548v33.032h-66.065v-33.032h33.032zM165.161 497.548h33.032v66.065h-66.065v-66.065zM231.226 497.548h-33.032v-33.032h66.065v33.032zM165.161 464.516h-33.032v-33.032h66.065v33.032zM198.194 431.484v-33.032h66.065v33.032h-33.032zM396.387 398.452v99.097h-66.065v-33.032h-66.065v-33.032h66.065v-33.032h-66.065v-33.032h66.065v-66.065h66.065v66.065h66.065v33.032h-33.032zM330.323 266.323v-33.032h66.065v33.032h-33.032zM1156.129 35.097h33.032v33.032h-66.065v-33.032z" horiz-adv-x="1321" />
<glyph unicode="&#x64;" d="M363.355 860.903h33.032v33.032h-66.065v-33.032zM792.774 893.935v-33.032h66.065v33.032h-33.032zM858.839 860.903v-33.032h66.065v33.032h-33.032zM396.387 794.839v33.032h-66.065v-33.032h33.032zM924.903 827.871v-33.032h66.065v33.032h-33.032zM363.355 761.806h-33.032v-33.032h66.065v33.032zM990.968 761.806v-33.032h66.065v33.032h-33.032zM66.065 497.548v33.032h-66.065v-33.032h33.032zM165.161 497.548h33.032v66.065h-66.065v-66.065zM231.226 464.516h33.032v33.032h-66.065v-33.032zM165.161 464.516h-33.032v-33.032h66.065v33.032zM231.226 431.484h-33.032v-33.032h66.065v33.032zM396.387 299.355v66.065h66.065v33.032h-66.065v99.097h-66.065v-33.032h-66.065v-33.032h66.065v-33.032h-66.065v-33.032h66.065v-66.065h33.032zM792.774 332.387v-33.032h66.065v33.032h-33.032zM957.935 299.355h33.032v33.032h-66.065v-33.032zM1024 299.355h-33.032v-33.032h66.065v33.032zM396.387 233.29v33.032h-66.065v-33.032h33.032zM858.839 233.29v33.032h-66.065v-33.032h33.032zM924.903 266.323v-33.032h66.065v33.032h-33.032zM1189.161 266.323v66.065h-66.065v-66.065h-66.065v-33.032h66.065v-132.129h66.065v132.129h66.065v33.032h-33.032zM990.968 233.29v-33.032h66.065v33.032h-33.032zM1123.097 68.129v-33.032h66.065v33.032h-33.032z" horiz-adv-x="1321" />
<glyph unicode="&#x65;" d="M858.839 926.968v-33.032h66.065v33.032h-33.032zM693.677 893.935h-33.032v-33.032h66.065v33.032zM825.806 893.935h-33.032v-33.032h66.065v33.032zM66.065 497.548v33.032h-66.065v-33.032h33.032zM165.161 497.548h33.032v66.065h-66.065v-66.065zM231.226 497.548h-33.032v-33.032h66.065v33.032zM165.161 464.516h-33.032v-33.032h66.065v33.032zM198.194 431.484v-33.032h66.065v33.032h-33.032zM396.387 398.452v99.097h-66.065v-33.032h-66.065v-33.032h66.065v-33.032h-66.065v-33.032h66.065v-66.065h66.065v66.065h66.065v33.032h-33.032zM330.323 266.323v-33.032h66.065v33.032h-33.032zM429.419 233.29h-33.032v-33.032h66.065v33.032zM561.548 200.258h33.032v33.032h-66.065v-33.032zM1156.129 35.097h33.032v33.032h-66.065v-33.032z" horiz-adv-x="1321" />
<glyph unicode="&#x66;" d="M858.839 926.968v-33.032h66.065v33.032h-33.032zM693.677 893.935h-33.032v-33.032h66.065v33.032zM825.806 893.935h-33.032v-33.032h66.065v33.032zM66.065 497.548v33.032h-66.065v-33.032h33.032zM165.161 497.548h33.032v66.065h-66.065v-66.065zM231.226 497.548h-33.032v-33.032h66.065v33.032zM132.129 464.516v-33.032h66.065v33.032h-33.032zM198.194 431.484v-33.032h66.065v33.032h-33.032zM396.387 398.452v99.097h-66.065v-33.032h-66.065v-33.032h66.065v-33.032h-66.065v-33.032h66.065v-66.065h66.065v66.065h66.065v33.032h-33.032zM330.323 266.323v-33.032h66.065v33.032h-33.032zM495.484 134.194h-33.032v-33.032h66.065v33.032zM594.581 134.194v-33.032h66.065v33.032h-33.032z" horiz-adv-x="991" />
<glyph unicode="&#x67;" d="M858.839 926.968v-33.032h66.065v33.032h-33.032zM693.677 893.935h-33.032v-33.032h66.065v33.032zM825.806 893.935h-33.032v-33.032h66.065v33.032zM66.065 497.548v33.032h-66.065v-33.032h33.032zM165.161 497.548h33.032v66.065h-66.065v-66.065zM231.226 497.548h-33.032v-33.032h66.065v33.032zM165.161 464.516h-33.032v-33.032h66.065v33.032zM198.194 431.484v-33.032h66.065v33.032h-33.032zM396.387 398.452v99.097h-66.065v-33.032h-66.065v-33.032h66.065v-33.032h-66.065v-33.032h66.065v-66.065h66.065v66.065h66.065v33.032h-33.032zM330.323 266.323v-33.032h66.065v33.032h-33.032zM924.903 266.323v-33.032h66.065v33.032h-33.032zM1123.097 266.323h-66.065v-33.032h66.065v-66.065h66.065v99.097h-33.032zM1123.097 134.194v-33.032h66.065v33.032h-33.032zM1123.097 68.129v-33.032h66.065v33.032h-33.032z" horiz-adv-x="1321" />
<glyph unicode="&#x68;" d="M363.355 860.903h33.032v33.032h-66.065v-33.032zM990.968 860.903v33.032h-66.065v-33.032h33.032zM1123.097 893.935h-66.065v-33.032h66.065v-33.032h-66.065v-33.032h66.065v-66.065h66.065v165.161h-33.032zM990.968 860.903v-33.032h66.065v33.032h-33.032zM330.323 827.871v-33.032h66.065v33.032h-33.032zM330.323 761.806v-33.032h66.065v33.032h-33.032zM1123.097 695.742v-33.032h66.065v33.032h-33.032zM1123.097 629.677v-33.032h66.065v33.032h-33.032zM66.065 497.548v33.032h-66.065v-33.032h33.032zM165.161 497.548h33.032v66.065h-66.065v-66.065zM231.226 497.548h-33.032v-33.032h66.065v33.032zM165.161 464.516h-33.032v-33.032h66.065v33.032zM198.194 431.484v-33.032h66.065v33.032h-33.032zM396.387 398.452v99.097h-66.065v-33.032h-66.065v-33.032h66.065v-33.032h-66.065v-33.032h66.065v-66.065h66.065v66.065h66.065v33.032h-33.032zM858.839 299.355v33.032h-66.065v-33.032h33.032zM957.935 299.355h33.032v33.032h-66.065v-33.032zM1024 299.355h-33.032v-33.032h66.065v33.032zM330.323 266.323v-33.032h66.065v33.032h-33.032zM858.839 233.29v33.032h-66.065v-33.032h33.032zM924.903 266.323v-33.032h66.065v33.032h-33.032zM1189.161 266.323v66.065h-66.065v-66.065h-66.065v-33.032h66.065v-132.129h66.065v132.129h66.065v33.032h-33.032zM990.968 233.29v-33.032h66.065v33.032h-33.032zM495.484 134.194h-33.032v-33.032h66.065v33.032zM759.742 134.194h-165.161v-33.032h198.194v33.032zM1123.097 68.129v-33.032h66.065v33.032h-33.032z" horiz-adv-x="1321" />
<glyph unicode="&#x69;" d="M330.323 893.935v-33.032h66.065v33.032h-33.032zM330.323 827.871v-33.032h66.065v33.032h-33.032zM330.323 761.806v-33.032h66.065v33.032h-33.032zM66.065 497.548v33.032h-66.065v-33.032h33.032zM165.161 497.548h33.032v66.065h-66.065v-66.065zM231.226 497.548h-33.032v-33.032h66.065v33.032zM132.129 464.516v-33.032h66.065v33.032h-33.032zM198.194 431.484v-33.032h66.065v33.032h-33.032zM396.387 398.452v99.097h-66.065v-33.032h-66.065v-33.032h66.065v-33.032h-66.065v-33.032h66.065v-132.129h66.065v132.129h66.065v33.032h-33.032zM330.323 200.258v-33.032h66.065v33.032h-33.032z" horiz-adv-x="529" />
<glyph unicode="&#x6a;" d="M990.968 860.903v33.032h-66.065v-33.032h33.032zM1123.097 893.935h-66.065v-33.032h66.065v-33.032h-66.065v-33.032h66.065v-66.065h66.065v165.161h-33.032zM990.968 860.903v-33.032h66.065v33.032h-33.032zM1123.097 695.742v-33.032h66.065v33.032h-33.032zM1123.097 629.677v-33.032h66.065v33.032h-33.032zM858.839 299.355v33.032h-66.065v-33.032h33.032zM957.935 299.355h33.032v33.032h-66.065v-33.032zM1024 299.355h-33.032v-33.032h66.065v33.032zM858.839 233.29v33.032h-66.065v-33.032h33.032zM924.903 266.323v-33.032h66.065v33.032h-33.032zM1189.161 266.323v66.065h-66.065v-66.065h-66.065v-33.032h66.065v-132.129h66.065v132.129h66.065v33.032h-33.032zM990.968 233.29v-33.032h66.065v33.032h-33.032zM1123.097 68.129v-33.032h66.065v33.032h-33.032z" horiz-adv-x="1255" />
<glyph unicode="&#x6b;" d="M363.355 860.903h33.032v33.032h-66.065v-33.032zM957.935 893.935h-33.032v-33.032h66.065v33.032zM1123.097 893.935h-66.065v-33.032h-66.065v-33.032h-66.065v-33.032h66.065v-33.032h66.065v66.065h66.065v33.032zM891.871 860.903h-33.032v-33.032h66.065v33.032zM330.323 827.871v-33.032h66.065v33.032h-33.032zM858.839 794.839v33.032h-66.065v-33.032h33.032zM858.839 794.839v-33.032h66.065v33.032h-33.032zM330.323 761.806v-33.032h66.065v33.032h-33.032zM957.935 761.806h-33.032v-33.032h66.065v33.032zM858.839 728.774v-33.032h66.065v33.032h-33.032zM858.839 695.742h-66.065v-66.065h66.065v33.032zM726.71 629.677v-33.032h66.065v33.032h-33.032zM66.065 497.548v33.032h-66.065v-33.032h33.032zM165.161 497.548h33.032v66.065h-66.065v-66.065zM231.226 497.548h-33.032v-33.032h66.065v33.032zM132.129 464.516v-33.032h66.065v33.032h-33.032zM198.194 431.484v-33.032h66.065v33.032h-33.032zM396.387 398.452v99.097h-66.065v-33.032h-66.065v-33.032h66.065v-33.032h-66.065v-33.032h66.065v-66.065h66.065v66.065h66.065v33.032h-33.032zM330.323 266.323v-33.032h66.065v33.032h-33.032z" horiz-adv-x="1321" />
<glyph unicode="&#x6c;" d="M363.355 860.903h33.032v33.032h-66.065v-33.032zM330.323 827.871v-33.032h66.065v33.032h-33.032zM330.323 761.806v-33.032h66.065v33.032h-33.032zM66.065 497.548v33.032h-66.065v-33.032h33.032zM165.161 497.548h33.032v66.065h-66.065v-66.065zM231.226 497.548h-33.032v-33.032h66.065v33.032zM165.161 464.516h-33.032v-33.032h66.065v33.032zM198.194 431.484v-33.032h66.065v33.032h-33.032zM396.387 398.452v99.097h-66.065v-33.032h-66.065v-33.032h66.065v-33.032h-66.065v-33.032h66.065v-132.129h66.065v132.129h66.065v33.032h-33.032zM858.839 35.097v-33.032h-66.065v-33.032h132.129v66.065h-33.032zM561.548 2.065h-33.032v-33.032h66.065v33.032zM693.677 2.065h-33.032v-33.032h66.065v33.032z" horiz-adv-x="1057" />
<glyph unicode="&#x6d;" d="M330.323 893.935v-33.032h66.065v33.032h-33.032zM1123.097 893.935v-33.032h66.065v33.032h-33.032zM1585.548 893.935v-33.032h66.065v33.032h-33.032zM1651.613 860.903v-33.032h66.065v33.032h-33.032zM330.323 827.871v-33.032h66.065v33.032h-33.032zM1123.097 827.871v-33.032h66.065v33.032h-33.032zM1717.677 827.871v-33.032h66.065v33.032h-33.032zM330.323 761.806v-33.032h66.065v33.032h-33.032zM1123.097 761.806v-33.032h66.065v33.032h-33.032zM1783.742 761.806v-33.032h66.065v33.032h-33.032zM66.065 497.548v33.032h-66.065v-33.032h33.032zM165.161 497.548h33.032v66.065h-66.065v-66.065zM858.839 497.548v33.032h-66.065v-33.032h33.032zM957.935 497.548h33.032v66.065h-66.065v-66.065zM231.226 497.548h-33.032v-33.032h66.065v33.032zM1024 497.548h-33.032v-33.032h66.065v33.032zM132.129 464.516v-33.032h66.065v33.032h-33.032zM924.903 464.516v-33.032h66.065v33.032h-33.032zM198.194 431.484v-33.032h66.065v33.032h-33.032zM990.968 431.484v-33.032h66.065v33.032h-33.032zM396.387 398.452v99.097h-66.065v-33.032h-66.065v-33.032h66.065v-33.032h-66.065v-33.032h66.065v-66.065h66.065v66.065h66.065v33.032h-33.032zM1189.161 398.452v99.097h-66.065v-33.032h-66.065v-33.032h66.065v-33.032h-66.065v-33.032h66.065v-66.065h66.065v66.065h66.065v33.032h-33.032zM1651.613 299.355v33.032h-66.065v-33.032h33.032zM1750.71 299.355h33.032v33.032h-66.065v-33.032zM1816.774 299.355h-33.032v-33.032h66.065v33.032zM330.323 266.323v-33.032h66.065v33.032h-33.032zM1123.097 266.323v-33.032h66.065v33.032h-33.032zM1651.613 233.29v33.032h-66.065v-33.032h33.032zM1717.677 266.323v-33.032h66.065v33.032h-33.032zM1981.935 266.323v66.065h-66.065v-66.065h-66.065v-33.032h66.065v-132.129h66.065v132.129h66.065v33.032h-33.032zM1783.742 233.29v-33.032h66.065v33.032h-33.032zM1915.871 68.129v-33.032h66.065v33.032h-33.032z" horiz-adv-x="2114" />
<glyph unicode="&#x6e;" d="M363.355 860.903h33.032v33.032h-66.065v-33.032zM990.968 860.903v33.032h-66.065v-33.032h33.032zM1123.097 893.935h-66.065v-33.032h66.065v-33.032h-66.065v-33.032h66.065v-66.065h66.065v165.161h-33.032zM990.968 860.903v-33.032h66.065v33.032h-33.032zM330.323 827.871v-66.065h66.065v66.065h-33.032zM396.387 695.742v33.032h-66.065v-33.032h33.032zM1123.097 695.742v-33.032h66.065v33.032h-33.032zM1123.097 629.677v-33.032h66.065v33.032h-33.032zM66.065 497.548v33.032h-66.065v-33.032h33.032zM165.161 497.548h33.032v66.065h-66.065v-66.065zM231.226 497.548h-33.032v-33.032h66.065v33.032zM132.129 464.516v-33.032h66.065v33.032h-33.032zM198.194 431.484v-33.032h66.065v33.032h-33.032zM396.387 398.452v99.097h-66.065v-33.032h-66.065v-33.032h66.065v-33.032h-66.065v-33.032h66.065v-132.129h66.065v132.129h66.065v33.032h-33.032zM858.839 299.355v33.032h-66.065v-33.032h33.032zM957.935 299.355h33.032v33.032h-66.065v-33.032zM1024 299.355h-33.032v-33.032h66.065v33.032zM858.839 233.29v33.032h-66.065v-33.032h33.032zM924.903 266.323v-33.032h66.065v33.032h-33.032zM1189.161 266.323v66.065h-66.065v-66.065h-66.065v-33.032h66.065v-132.129h66.065v132.129h66.065v33.032h-33.032zM990.968 233.29v-33.032h66.065v33.032h-33.032zM330.323 200.258v-33.032h66.065v33.032h-33.032zM1123.097 68.129v-33.032h66.065v33.032h-33.032z" horiz-adv-x="1321" />
<glyph unicode="&#x6f;" d="M792.774 893.935v-33.032h66.065v33.032h-33.032zM858.839 860.903v-33.032h66.065v33.032h-33.032zM924.903 827.871v-33.032h66.065v33.032h-33.032zM990.968 761.806v-33.032h66.065v33.032h-33.032zM66.065 497.548v33.032h-66.065v-33.032h33.032zM165.161 497.548h33.032v66.065h-66.065v-66.065zM231.226 464.516h33.032v33.032h-66.065v-33.032zM165.161 464.516h-33.032v-33.032h66.065v33.032zM231.226 431.484h-33.032v-33.032h66.065v33.032zM396.387 299.355v66.065h66.065v33.032h-66.065v99.097h-66.065v-33.032h-66.065v-33.032h66.065v-33.032h-66.065v-33.032h66.065v-66.065h33.032zM792.774 332.387v-33.032h66.065v33.032h-33.032zM957.935 299.355h33.032v33.032h-66.065v-33.032zM1024 299.355h-33.032v-33.032h66.065v33.032zM396.387 233.29v33.032h-66.065v-33.032h33.032zM858.839 233.29v33.032h-66.065v-33.032h33.032zM924.903 266.323v-33.032h66.065v33.032h-33.032zM1189.161 266.323v66.065h-66.065v-66.065h-66.065v-33.032h66.065v-132.129h66.065v132.129h66.065v33.032h-33.032zM990.968 233.29v-33.032h66.065v33.032h-33.032zM1123.097 68.129v-33.032h66.065v33.032h-33.032z" horiz-adv-x="1321" />
<glyph unicode="&#x70;" d="M363.355 860.903h33.032v33.032h-66.065v-33.032zM792.774 893.935v-33.032h66.065v33.032h-33.032zM858.839 860.903v-33.032h66.065v33.032h-33.032zM396.387 794.839v33.032h-66.065v-33.032h33.032zM924.903 827.871v-33.032h66.065v33.032h-33.032zM363.355 761.806h-33.032v-33.032h66.065v33.032zM990.968 761.806v-33.032h66.065v33.032h-33.032zM66.065 497.548v33.032h-66.065v-33.032h33.032zM165.161 497.548h33.032v66.065h-66.065v-66.065zM231.226 497.548h-33.032v-33.032h66.065v33.032zM165.161 464.516h-33.032v-33.032h66.065v33.032zM198.194 431.484v-33.032h66.065v33.032h-33.032zM429.419 398.452h-33.032v99.097h-66.065v-33.032h-66.065v-33.032h66.065v-33.032h-66.065v-33.032h66.065v-66.065h66.065v66.065h66.065v33.032zM330.323 266.323v-33.032h66.065v33.032h-33.032z" horiz-adv-x="1321" />
<glyph unicode="&#x71;" d="M792.774 893.935v-33.032h66.065v33.032h-33.032zM858.839 860.903v-33.032h66.065v33.032h-33.032zM924.903 827.871v-33.032h66.065v33.032h-33.032zM990.968 761.806v-33.032h66.065v33.032h-33.032zM66.065 497.548v33.032h-66.065v-33.032h33.032zM165.161 497.548h33.032v66.065h-66.065v-66.065zM231.226 464.516h33.032v33.032h-66.065v-33.032zM165.161 464.516h-33.032v-33.032h66.065v33.032zM231.226 431.484h-33.032v-33.032h66.065v33.032zM396.387 299.355v66.065h66.065v33.032h-66.065v99.097h-66.065v-33.032h-66.065v-33.032h66.065v-33.032h-66.065v-33.032h66.065v-66.065h33.032zM792.774 332.387v-33.032h66.065v33.032h-33.032zM957.935 299.355h33.032v33.032h-66.065v-33.032zM1024 299.355h-33.032v-33.032h66.065v33.032zM396.387 233.29v33.032h-66.065v-33.032h33.032zM924.903 266.323v-33.032h66.065v33.032h-33.032zM1189.161 266.323v66.065h-66.065v-66.065h-66.065v-33.032h66.065v-165.161h66.065v165.161h66.065v33.032h-33.032zM990.968 233.29v-33.032h66.065v33.032h-33.032zM726.71 134.194v33.032h-66.065v-33.032h33.032zM792.774 101.161v33.032h-66.065v-33.032h33.032zM825.806 101.161h-33.032v-33.032h66.065v33.032zM891.871 68.129h-33.032v-33.032h66.065v33.032zM957.935 35.097h-33.032v-33.032h66.065v33.032zM1057.032-30.968v33.032h-66.065v-33.032h33.032z" horiz-adv-x="1321" />
<glyph unicode="&#x72;" d="M363.355 860.903h33.032v33.032h-66.065v-33.032zM792.774 893.935v-33.032h66.065v33.032h-33.032zM858.839 860.903v-33.032h66.065v33.032h-33.032zM396.387 794.839v33.032h-66.065v-33.032h33.032zM924.903 827.871v-33.032h66.065v33.032h-33.032zM363.355 761.806h-33.032v-33.032h66.065v33.032zM990.968 761.806v-33.032h66.065v33.032h-33.032zM66.065 497.548v33.032h-66.065v-33.032h33.032zM165.161 497.548h33.032v66.065h-66.065v-66.065zM231.226 497.548h-33.032v-33.032h66.065v33.032zM165.161 464.516h-33.032v-33.032h66.065v33.032zM198.194 431.484v-33.032h66.065v33.032h-33.032zM429.419 398.452h-33.032v99.097h-66.065v-33.032h-66.065v-33.032h66.065v-33.032h-66.065v-33.032h66.065v-66.065h66.065v66.065h66.065v33.032zM330.323 266.323v-33.032h66.065v33.032h-33.032z" horiz-adv-x="1321" />
<glyph unicode="&#x73;" d="M858.839 926.968v-33.032h66.065v33.032h-33.032zM693.677 893.935h-33.032v-33.032h66.065v33.032zM825.806 893.935h-33.032v-33.032h66.065v33.032zM66.065 497.548v33.032h-66.065v-33.032h33.032zM165.161 497.548h33.032v66.065h-66.065v-66.065zM231.226 497.548h-33.032v-33.032h66.065v33.032zM165.161 464.516h-33.032v-33.032h66.065v33.032zM429.419 398.452h-33.032v99.097h-66.065v-33.032h-66.065v-33.032h66.065v-33.032h-66.065v33.032h-66.065v-33.032h-66.065v-33.032h330.323v33.032zM561.548 398.452h-33.032v-33.032h66.065v33.032z" horiz-adv-x="1321" />
<glyph unicode="&#x74;" d="M924.903 926.968v-33.032h66.065v33.032h-33.032zM594.581 893.935v-33.032h66.065v33.032h-33.032zM759.742 893.935h-33.032v-33.032h66.065v33.032zM891.871 893.935h-33.032v-33.032h66.065v33.032zM594.581 827.871v-33.032h66.065v33.032h-33.032zM594.581 761.806v-33.032h66.065v33.032h-33.032zM330.323 497.548v33.032h-66.065v-33.032h33.032zM429.419 497.548h33.032v66.065h-66.065v-66.065zM495.484 497.548h-33.032v-33.032h66.065v33.032zM396.387 464.516v-33.032h66.065v33.032h-33.032zM462.452 431.484v-33.032h66.065v33.032h-33.032zM660.645 398.452v99.097h-66.065v-33.032h-66.065v-33.032h66.065v-33.032h-66.065v-33.032h66.065v-132.129h66.065v132.129h66.065v33.032h-33.032zM594.581 200.258v-33.032h66.065v33.032h-33.032z" horiz-adv-x="1057" />
<glyph unicode="&#x75;" d="M363.355 860.903h33.032v33.032h-66.065v-33.032zM990.968 860.903v33.032h-66.065v-33.032h33.032zM1123.097 893.935h-66.065v-33.032h66.065v-33.032h-66.065v-33.032h66.065v-66.065h66.065v165.161h-33.032zM990.968 860.903v-33.032h66.065v33.032h-33.032zM330.323 827.871v-33.032h66.065v33.032h-33.032zM330.323 761.806v-33.032h66.065v33.032h-33.032zM1123.097 695.742v-33.032h66.065v33.032h-33.032zM1123.097 629.677v-33.032h66.065v33.032h-33.032zM66.065 497.548v33.032h-66.065v-33.032h33.032zM165.161 497.548h33.032v66.065h-66.065v-66.065zM231.226 497.548h-33.032v-33.032h66.065v33.032zM165.161 464.516h-33.032v-33.032h66.065v33.032zM198.194 431.484v-33.032h66.065v33.032h-33.032zM396.387 398.452v99.097h-66.065v-33.032h-66.065v-33.032h66.065v-33.032h-66.065v-33.032h66.065v-66.065h66.065v66.065h66.065v33.032h-33.032zM858.839 299.355v33.032h-66.065v-33.032h33.032zM957.935 299.355h33.032v33.032h-66.065v-33.032zM1024 299.355h-33.032v-33.032h66.065v33.032zM330.323 266.323v-33.032h66.065v33.032h-33.032zM858.839 233.29v33.032h-66.065v-33.032h33.032zM924.903 266.323v-33.032h66.065v33.032h-33.032zM1189.161 266.323v66.065h-66.065v-66.065h-66.065v-33.032h66.065v-132.129h66.065v132.129h66.065v33.032h-33.032zM990.968 233.29v-33.032h66.065v33.032h-33.032zM1123.097 68.129v-33.032h66.065v33.032h-33.032z" horiz-adv-x="1321" />
<glyph unicode="&#x76;" d="M363.355 860.903h33.032v33.032h-66.065v-33.032zM990.968 860.903v33.032h-66.065v-33.032h33.032zM1123.097 893.935h-66.065v-33.032h66.065v-33.032h-66.065v-33.032h66.065v-66.065h66.065v165.161h-33.032zM990.968 860.903v-33.032h66.065v33.032h-33.032zM330.323 827.871v-33.032h66.065v33.032h-33.032zM330.323 761.806v-33.032h66.065v33.032h-33.032zM1123.097 695.742v-33.032h66.065v33.032h-33.032zM1123.097 629.677v-33.032h66.065v33.032h-33.032zM66.065 497.548v33.032h-66.065v-33.032h33.032zM165.161 497.548h33.032v66.065h-66.065v-66.065zM231.226 497.548h-33.032v-33.032h66.065v33.032zM165.161 464.516h-33.032v-33.032h66.065v33.032zM198.194 431.484v-33.032h66.065v33.032h-33.032zM396.387 398.452v99.097h-66.065v-33.032h-66.065v-33.032h66.065v-33.032h-66.065v-33.032h66.065v-66.065h66.065v66.065h66.065v33.032h-33.032zM858.839 299.355v33.032h-66.065v-33.032h33.032zM957.935 299.355h33.032v33.032h-66.065v-33.032zM1024 299.355h-33.032v-33.032h66.065v33.032zM330.323 266.323v-33.032h66.065v33.032h-33.032zM858.839 233.29v33.032h-66.065v-33.032h33.032zM957.935 266.323h-33.032v-33.032h66.065v33.032zM1189.161 266.323v66.065h-66.065v-66.065h-66.065v-33.032h66.065v-33.032h66.065v33.032h66.065v33.032h-33.032zM990.968 233.29v-33.032h66.065v33.032h-33.032z" horiz-adv-x="1321" />
<glyph unicode="&#x77;" d="M363.355 860.903h33.032v33.032h-66.065v-33.032zM1156.129 860.903h33.032v33.032h-66.065v-33.032zM1783.742 860.903v33.032h-66.065v-33.032h33.032zM1915.871 893.935h-66.065v-33.032h66.065v-33.032h-66.065v-33.032h66.065v-66.065h66.065v165.161h-33.032zM1783.742 860.903v-33.032h66.065v33.032h-33.032zM330.323 827.871v-33.032h66.065v33.032h-33.032zM1123.097 827.871v-33.032h66.065v33.032h-33.032zM330.323 761.806v-33.032h66.065v33.032h-33.032zM1123.097 761.806v-33.032h66.065v33.032h-33.032zM1915.871 695.742v-33.032h66.065v33.032h-33.032zM1915.871 629.677v-33.032h66.065v33.032h-33.032zM66.065 497.548v33.032h-66.065v-33.032h33.032zM165.161 497.548h33.032v66.065h-66.065v-66.065zM858.839 497.548v33.032h-66.065v-33.032h33.032zM957.935 497.548h33.032v66.065h-66.065v-66.065zM231.226 497.548h-33.032v-33.032h66.065v33.032zM1024 497.548h-33.032v-33.032h66.065v33.032zM165.161 464.516h-33.032v-33.032h66.065v33.032zM957.935 464.516h-33.032v-33.032h66.065v33.032zM198.194 431.484v-33.032h66.065v33.032h-33.032zM990.968 431.484v-33.032h66.065v33.032h-33.032zM396.387 398.452v99.097h-66.065v-33.032h-66.065v-33.032h66.065v-33.032h-66.065v-33.032h66.065v-66.065h66.065v66.065h66.065v33.032h-33.032zM1189.161 398.452v99.097h-66.065v-33.032h-66.065v-33.032h66.065v-33.032h-66.065v-33.032h66.065v-66.065h66.065v66.065h66.065v33.032h-33.032zM1651.613 299.355v33.032h-66.065v-33.032h33.032zM1750.71 299.355h33.032v33.032h-66.065v-33.032zM1816.774 299.355h-33.032v-33.032h66.065v33.032zM330.323 266.323v-33.032h66.065v33.032h-33.032zM1123.097 266.323v-33.032h66.065v33.032h-33.032zM1651.613 233.29v33.032h-66.065v-33.032h33.032zM1717.677 266.323v-33.032h66.065v33.032h-33.032zM1981.935 266.323v66.065h-66.065v-66.065h-66.065v-33.032h66.065v-132.129h66.065v132.129h66.065v33.032h-33.032zM1783.742 233.29v-33.032h66.065v33.032h-33.032zM1915.871 68.129v-33.032h66.065v33.032h-33.032z" horiz-adv-x="2114" />
<glyph unicode="&#x78;" d="M297.29 893.935h-33.032v-33.032h66.065v33.032zM396.387 893.935v-33.032h-66.065v-33.032h66.065v-33.032h66.065v99.097h-33.032zM1222.194 893.935h-33.032v-33.032h66.065v33.032zM1387.355 893.935h-66.065v-33.032h-66.065v-33.032h-66.065v-33.032h66.065v-33.032h66.065v66.065h66.065v33.032zM1156.129 860.903h-33.032v-33.032h66.065v33.032zM330.323 794.839v33.032h-66.065v-33.032h33.032zM1123.097 794.839v33.032h-66.065v-33.032h33.032zM396.387 761.806v33.032h-66.065v-33.032h33.032zM462.452 794.839v-33.032h66.065v33.032h-33.032zM1123.097 794.839v-33.032h66.065v33.032h-33.032zM1222.194 761.806h-33.032v-33.032h66.065v33.032zM462.452 728.774v-33.032h66.065v33.032h-33.032zM1123.097 728.774v-33.032h66.065v33.032h-33.032zM528.516 695.742v-33.032h66.065v33.032h-33.032zM1123.097 695.742h-66.065v-66.065h66.065v33.032zM990.968 629.677v-33.032h66.065v33.032h-33.032zM627.613 332.387h-33.032v-33.032h66.065v33.032zM594.581 266.323h-66.065v-66.065h66.065v33.032zM462.452 167.226v-33.032h66.065v33.032h-33.032z" horiz-adv-x="1586" />
<glyph unicode="&#x79;" d="M297.29 893.935h-33.032v-33.032h66.065v33.032zM396.387 893.935v-33.032h-66.065v-33.032h66.065v-33.032h66.065v99.097h-33.032zM1222.194 893.935h-33.032v-33.032h66.065v33.032zM1387.355 893.935h-66.065v-33.032h-66.065v-33.032h-66.065v-33.032h66.065v-33.032h66.065v66.065h66.065v33.032zM1156.129 860.903h-33.032v-33.032h66.065v33.032zM330.323 794.839v33.032h-66.065v-33.032h33.032zM1123.097 794.839v33.032h-66.065v-33.032h33.032zM396.387 761.806v33.032h-66.065v-33.032h33.032zM462.452 794.839v-33.032h66.065v33.032h-33.032zM1123.097 794.839v-33.032h66.065v33.032h-33.032zM1222.194 761.806h-33.032v-33.032h66.065v33.032zM462.452 728.774v-33.032h66.065v33.032h-33.032zM1123.097 728.774v-33.032h66.065v33.032h-33.032zM528.516 695.742v-33.032h66.065v33.032h-33.032zM1123.097 695.742h-66.065v-66.065h66.065v33.032zM1057.032 629.677h-66.065v-66.065h66.065v33.032zM924.903 497.548v33.032h-66.065v-66.065h66.065v-33.032h-132.129v-33.032h-66.065v33.032h-66.065v-165.161h66.065v33.032h66.065v-33.032h66.065v33.032h66.065v33.032h-66.065v66.065h66.065v-66.065h66.065v165.161h-66.065zM759.742 332.387h-33.032v33.032h66.065v-33.032h-33.032zM891.871 431.484h33.032v33.032h-66.065v-33.032zM924.903 398.452h-66.065v-66.065h66.065v33.032zM924.903 266.323v33.032h-66.065v-33.032h33.032zM858.839 233.29v-33.032h66.065v33.032h-33.032z" horiz-adv-x="1586" />
<glyph unicode="&#x7a;" d="M231.226 926.968h33.032v33.032h-66.065v-33.032zM363.355 926.968h33.032v33.032h-66.065v-33.032zM99.097 893.935h-33.032v-33.032h66.065v33.032zM231.226 893.935h-33.032v-33.032h66.065v33.032zM363.355 893.935h-33.032v-33.032h66.065v33.032zM693.677 563.613h-33.032v-33.032h66.065v33.032zM858.839 563.613v33.032h-66.065v-66.065h-66.065v-33.032h-66.065v-33.032h66.065v-33.032h66.065v33.032h66.065v66.065zM627.613 530.581h-33.032v-33.032h66.065v33.032zM594.581 464.516v-33.032h66.065v33.032h-33.032zM660.645 431.484v-33.032h66.065v33.032h-33.032zM594.581 398.452v-66.065h66.065v66.065h-33.032zM528.516 332.387v-33.032h66.065v33.032h-33.032zM1156.129 35.097h33.032v33.032h-66.065v-33.032z" horiz-adv-x="1321" />
</font>
</defs>
</svg>
