<?xml version="1.0" standalone="no"?>
<!DOCTYPE svg PUBLIC "-//W3C//DTD SVG 1.1//EN" "http://www.w3.org/Graphics/SVG/1.1/DTD/svg11.dtd" >
<svg xmlns="http://www.w3.org/2000/svg">
<metadata>Generated by IcoMoon</metadata>
<defs>
<font id="Compyx-Solid" horiz-adv-x="1024">
<font-face units-per-em="1024" ascent="960" descent="-64" />
<missing-glyph horiz-adv-x="1024" />
<glyph unicode="&#x20;" d="" horiz-adv-x="512" />
<glyph unicode="&#x21;" d="M429.419 960c-143.14 0-286.28 0-429.419 0 0-264.258 0-528.516 0-792.774 154.151 0 308.301 0 462.452 0 0 264.258 0 528.516 0 792.774h-33.032zM396.387 134.194c-132.129 0-264.258 0-396.387 0 0-66.065 0-132.129 0-198.194 154.151 0 308.301 0 462.452 0 0 66.065 0 132.129 0 198.194-22.022 0-44.043 0-66.065 0v0z" horiz-adv-x="529" />
<glyph unicode="&#x22;" d="M396.387 926.968c-132.129 0-264.258 0-396.387 0 0-44.043 0-88.086 0-132.129 154.151 0 308.301 0 462.452 0 0 44.043 0 88.086 0 132.129-22.022 0-44.044 0-66.065 0v0zM957.935 926.968c-143.14 0-286.28 0-429.419 0 0-44.043 0-88.086 0-132.129 154.151 0 308.301 0 462.452 0 0 44.043 0 88.086 0 132.129h-33.032z" horiz-adv-x="1057" />
<glyph unicode="&#x27;" d="M429.419 926.968c-99.097 0-198.194 0-297.29 0v-33.032c-22.022 0-44.043 0-66.065 0 0-33.032 0-66.065 0-99.097-22.022 0-44.043 0-66.065 0 0-44.043 0-88.086 0-132.129 88.086 0 176.172 0 264.258 0 0 22.022 0 44.043 0 66.065 22.022 0 44.043 0 66.065 0v33.032c22.022 0 44.043 0 66.065 0 0 22.022 0 44.043 0 66.065 22.022 0 44.043 0 66.065 0 0 33.032 0 66.065 0 99.097h-33.032z" horiz-adv-x="529" />
<glyph unicode="&#x2c;" d="M429.419 134.194c-77.075 0-154.151 0-231.226 0v-33.032c-22.022 0-44.043 0-66.065 0 0-22.022 0-44.043 0-66.065-22.022 0-44.043 0-66.065 0 0-22.022 0-44.043 0-66.065-22.022 0-44.043 0-66.065 0v-33.032c110.107 0 220.215 0 330.323 0v33.032c22.022 0 44.043 0 66.065 0 0 22.022 0 44.043 0 66.065 22.022 0 44.043 0 66.065 0 0 33.032 0 66.065 0 99.097h-33.032z" horiz-adv-x="529" />
<glyph unicode="&#x2e;" d="M429.419 134.194c-143.14 0-286.28 0-429.419 0 0-66.065 0-132.129 0-198.194 154.151 0 308.301 0 462.452 0 0 66.065 0 132.129 0 198.194h-33.032z" horiz-adv-x="529" />
<glyph unicode="&#x2f;" d="M1222.194 960c-99.097 0-198.194 0-297.29 0v-33.032c-22.022 0-44.043 0-66.065 0 0-22.022 0-44.043 0-66.065-22.022 0-44.043 0-66.065 0 0-22.022 0-44.043 0-66.065-22.022 0-44.043 0-66.065 0 0-22.022 0-44.043 0-66.065-22.022 0-44.043 0-66.065 0 0-22.022 0-44.043 0-66.065-22.022 0-44.043 0-66.065 0 0-22.022 0-44.043 0-66.065-22.022 0-44.043 0-66.065 0 0-22.022 0-44.043 0-66.065-22.022 0-44.043 0-66.065 0 0-22.022 0-44.043 0-66.065-22.022 0-44.043 0-66.065 0 0-22.022 0-44.043 0-66.065-22.022 0-44.043 0-66.065 0 0-22.022 0-44.043 0-66.065-22.022 0-44.043 0-66.065 0 0-22.022 0-44.043 0-66.065-22.022 0-44.043 0-66.065 0 0-22.022 0-44.043 0-66.065-22.022 0-44.043 0-66.065 0 0-22.022 0-44.043 0-66.065-22.022 0-44.043 0-66.065 0 0-22.022 0-44.043 0-66.065-22.022 0-44.043 0-66.065 0 0-44.043 0-88.086 0-132.129 110.107 0 220.215 0 330.323 0v33.032c22.022 0 44.043 0 66.065 0 0 22.022 0 44.043 0 66.065 22.022 0 44.043 0 66.065 0 0 22.022 0 44.043 0 66.065 22.022 0 44.043 0 66.065 0 0 22.022 0 44.043 0 66.065 22.022 0 44.043 0 66.065 0 0 22.022 0 44.043 0 66.065 22.022 0 44.043 0 66.065 0 0 22.022 0 44.043 0 66.065 22.022 0 44.043 0 66.065 0 0 22.022 0 44.043 0 66.065 22.022 0 44.043 0 66.065 0 0 22.022 0 44.043 0 66.065 22.022 0 44.043 0 66.065 0 0 22.022 0 44.043 0 66.065 22.022 0 44.043 0 66.065 0 0 22.022 0 44.043 0 66.065 22.022 0 44.043 0 66.065 0 0 22.022 0 44.043 0 66.065 22.022 0 44.043 0 66.065 0 0 22.022 0 44.043 0 66.065 22.022 0 44.043 0 66.065 0 0 22.022 0 44.043 0 66.065 22.022 0 44.043 0 66.065 0 0 22.022 0 44.043 0 66.065 22.022 0 44.043 0 66.065 0 0 44.043 0 88.086 0 132.129h-33.032z" horiz-adv-x="1321" />
<glyph unicode="&#x30;" d="M1222.194 596.645h-33.032v99.097h-66.065v66.065h-66.065v66.065h-66.065v33.032h-66.065v33.032h-66.065v33.032h-132.129v33.032h-198.194v-33.032h-132.129v-33.032h-66.065v-33.032h-66.065v-33.032h-66.065v-66.065h-66.065v-66.065h-66.065v-132.129h-66.065v-627.613h1255.226v660.645h-33.032zM792.774 101.161h-330.323v33.032h66.065v66.065h66.065v66.065h66.065v66.065h66.065v66.065h66.065v-297.29zM792.774 662.71h-66.065v-66.065h-66.065v-66.065h-66.065v-66.065h-66.065v-66.065h-66.065v363.355h66.065v66.065h66.065v33.032h66.065v-33.032h66.065v-66.065h66.065v-99.097z" horiz-adv-x="1321" />
<glyph unicode="&#x31;" d="M957.935 101.161c-77.075 0-154.151 0-231.226 0 0 286.28 0 572.559 0 858.839-154.151 0-308.302 0-462.452 0 0-22.022 0-44.043 0-66.065-22.022 0-44.043 0-66.065 0v-33.032c-44.043 0-88.086 0-132.129 0v-33.032c-22.022 0-44.043 0-66.065 0 0-33.032 0-66.065 0-99.097 88.086 0 176.172 0 264.258 0 0-209.204 0-418.409 0-627.613-88.086 0-176.172 0-264.258 0 0-55.054 0-110.107 0-165.161 330.323 0 660.645 0 990.968 0 0 55.054 0 110.107 0 165.161h-33.032z" horiz-adv-x="1057" />
<glyph unicode="&#x32;" d="M1222.194 596.645h-33.032c0 33.032 0 66.065 0 99.097-22.022 0-44.043 0-66.065 0 0 22.022 0 44.043 0 66.065-22.022 0-44.043 0-66.065 0 0 22.022 0 44.043 0 66.065-22.022 0-44.043 0-66.065 0v33.032c-22.022 0-44.043 0-66.065 0v33.032c-22.022 0-44.043 0-66.065 0v33.032c-44.043 0-88.086 0-132.129 0v33.032c-242.237 0-484.473 0-726.71 0 0-33.032 0-66.065 0-99.097 220.215 0 440.43 0 660.645 0v-33.032c22.022 0 44.043 0 66.065 0 0-22.022 0-44.043 0-66.065 22.022 0 44.043 0 66.065 0 0-110.107 0-220.215 0-330.323-110.107 0-220.215 0-330.323 0v-33.032c-44.043 0-88.086 0-132.129 0v-33.032c-22.022 0-44.043 0-66.065 0v-33.032c-22.022 0-44.043 0-66.065 0 0-22.022 0-44.043 0-66.065-22.022 0-44.043 0-66.065 0 0-22.022 0-44.043 0-66.065-22.022 0-44.043 0-66.065 0 0-22.022 0-44.043 0-66.065-22.022 0-44.043 0-66.065 0 0-66.065 0-132.129 0-198.194 418.409 0 836.817 0 1255.226 0 0 55.054 0 110.107 0 165.161-264.258 0-528.516 0-792.774 0 0 44.043 0 88.086 0 132.129 22.022 0 44.043 0 66.065 0 0 22.022 0 44.043 0 66.065 22.022 0 44.043 0 66.065 0v33.032c220.215 0 440.43 0 660.645 0 0 88.086 0 176.172 0 264.258h-33.032z" horiz-adv-x="1321" />
<glyph unicode="&#x33;" d="M1222.194 596.645h-33.032c0 33.032 0 66.065 0 99.097-22.022 0-44.043 0-66.065 0 0 22.022 0 44.043 0 66.065-22.022 0-44.043 0-66.065 0 0 22.022 0 44.043 0 66.065-22.022 0-44.043 0-66.065 0v33.032c-22.022 0-44.043 0-66.065 0v33.032c-22.022 0-44.043 0-66.065 0v33.032c-44.043 0-88.086 0-132.129 0v33.032c-242.237 0-484.473 0-726.71 0 0-33.032 0-66.065 0-99.097 220.215 0 440.43 0 660.645 0v-33.032c22.022 0 44.043 0 66.065 0 0-22.022 0-44.043 0-66.065 22.022 0 44.043 0 66.065 0 0-110.107 0-220.215 0-330.323-132.129 0-264.258 0-396.387 0 0-33.032 0-66.065 0-99.097 88.086 0 176.172 0 264.258 0v-33.032c22.022 0 44.043 0 66.065 0 0-22.022 0-44.043 0-66.065 22.022 0 44.043 0 66.065 0 0-44.043 0-88.086 0-132.129-264.258 0-528.516 0-792.774 0 0-55.054 0-110.107 0-165.161 418.409 0 836.817 0 1255.226 0 0 99.097 0 198.194 0 297.29-22.022 0-44.043 0-66.065 0 0 22.022 0 44.043 0 66.065-22.022 0-44.043 0-66.065 0v33.032c44.043 0 88.086 0 132.129 0 0 88.086 0 176.172 0 264.258h-33.032z" horiz-adv-x="1321" />
<glyph unicode="&#x34;" d="M1222.194 960c-143.14 0-286.28 0-429.419 0 0-242.236 0-484.473 0-726.71-110.107 0-220.215 0-330.323 0 0 242.236 0 484.473 0 726.71-154.151 0-308.302 0-462.452 0 0-297.29 0-594.581 0-891.871 264.258 0 528.516 0 792.774 0 0-44.043 0-88.086 0-132.129 154.151 0 308.301 0 462.452 0 0 341.333 0 682.667 0 1024h-33.032z" horiz-adv-x="1321" />
<glyph unicode="&#x35;" d="M1222.194 233.29h-33.032c0 22.022 0 44.043 0 66.065-22.022 0-44.043 0-66.065 0v33.032c-22.022 0-44.043 0-66.065 0v33.032c-22.022 0-44.043 0-66.065 0v33.032c-44.043 0-88.086 0-132.129 0v33.032c-132.129 0-264.258 0-396.387 0 0 143.14 0 286.28 0 429.419 154.151 0 308.301 0 462.452 0 0 33.032 0 66.065 0 99.097-308.302 0-616.602 0-924.903 0 0-209.204 0-418.409 0-627.613 220.215 0 440.43 0 660.645 0v-33.032c22.022 0 44.043 0 66.065 0 0-22.022 0-44.043 0-66.065 22.022 0 44.043 0 66.065 0 0-44.043 0-88.086 0-132.129-264.258 0-528.516 0-792.774 0 0-55.054 0-110.107 0-165.161 418.409 0 836.817 0 1255.226 0 0 99.097 0 198.194 0 297.29h-33.032z" horiz-adv-x="1321" />
<glyph unicode="&#x36;" d="M1222.194 233.29h-33.032c0 22.021 0 44.042 0 66.065-22.021 0-44.042 0-66.065 0v33.032c-22.021 0-44.042 0-66.065 0v33.032c-22.021 0-44.042 0-66.065 0v33.032c-44.042 0-88.085 0-132.129 0v33.032c-132.129 0-264.258 0-396.387 0 0 110.106 0 220.215 0 330.323 22.023 0 44.044 0 66.065 0 0 22.022 0 44.043 0 66.065 22.023 0 44.044 0 66.065 0v33.032c110.108 0 220.216 0 330.323 0 0 33.032 0 66.065 0 99.097-132.129 0-264.258 0-396.387 0v-33.032c-44.042 0-88.085 0-132.129 0v-33.032c-22.021 0-44.042 0-66.065 0v-33.032c-22.021 0-44.042 0-66.065 0v-33.032c-22.022 0-44.043 0-66.065 0 0-22.022 0-44.043 0-66.065-22.022 0-44.043 0-66.065 0 0-22.022 0-44.043 0-66.065-22.022 0-44.043 0-66.065 0 0-44.043 0-88.087 0-132.129-22.022 0-44.043 0-66.065 0 0-209.205 0-418.41 0-627.613 418.41 0 836.818 0 1255.226 0 0 99.097 0 198.194 0 297.29h-33.032zM792.774 167.226v-66.065h-330.323v231.226h198.194v-33.032h66.065v-66.065h66.065v-66.065z" horiz-adv-x="1321" />
<glyph unicode="&#x37;" d="M1222.194 960c-407.398 0-814.796 0-1222.194 0 0-33.032 0-66.065 0-99.097 264.258 0 528.516 0 792.774 0 0-22.022 0-44.043 0-66.065-22.022 0-44.043 0-66.065 0 0-22.022 0-44.043 0-66.065-22.022 0-44.043 0-66.065 0 0-22.022 0-44.043 0-66.065-22.022 0-44.043 0-66.065 0 0-22.022 0-44.043 0-66.065-22.022 0-44.043 0-66.065 0 0-22.022 0-44.043 0-66.065-22.022 0-44.043 0-66.065 0 0-22.022 0-44.043 0-66.065-22.022 0-44.043 0-66.065 0 0-22.022 0-44.043 0-66.065-22.022 0-44.043 0-66.065 0 0-22.022 0-44.043 0-66.065-22.022 0-44.043 0-66.065 0 0-22.022 0-44.043 0-66.065-22.022 0-44.043 0-66.065 0 0-22.022 0-44.043 0-66.065-22.022 0-44.043 0-66.065 0 0-22.022 0-44.043 0-66.065-22.022 0-44.043 0-66.065 0 0-22.022 0-44.043 0-66.065-22.022 0-44.043 0-66.065 0 0-44.043 0-88.086 0-132.129 110.107 0 220.215 0 330.323 0v33.032c22.022 0 44.043 0 66.065 0 0 22.022 0 44.043 0 66.065 22.022 0 44.043 0 66.065 0 0 22.022 0 44.043 0 66.065 22.022 0 44.043 0 66.065 0 0 22.022 0 44.043 0 66.065 22.022 0 44.043 0 66.065 0 0 22.022 0 44.043 0 66.065 22.022 0 44.043 0 66.065 0 0 22.022 0 44.043 0 66.065 22.022 0 44.043 0 66.065 0 0 22.022 0 44.043 0 66.065 22.022 0 44.043 0 66.065 0 0 22.022 0 44.043 0 66.065 22.022 0 44.043 0 66.065 0 0 22.022 0 44.043 0 66.065 22.022 0 44.043 0 66.065 0 0 22.022 0 44.043 0 66.065 22.022 0 44.043 0 66.065 0 0 22.022 0 44.043 0 66.065 22.022 0 44.043 0 66.065 0 0 22.022 0 44.043 0 66.065 22.022 0 44.043 0 66.065 0 0 22.022 0 44.043 0 66.065 22.022 0 44.043 0 66.065 0 0 22.022 0 44.043 0 66.065 22.022 0 44.043 0 66.065 0 0 44.043 0 88.086 0 132.129h-33.032z" horiz-adv-x="1321" />
<glyph unicode="&#x38;" d="M1255.226 332.387c0 88.085 0 176.171 0 264.258h-66.065c0 33.032 0 66.065 0 99.097-22.021 0-44.042 0-66.065 0 0 22.022 0 44.043 0 66.065-22.021 0-44.042 0-66.065 0 0 22.022 0 44.043 0 66.065-22.021 0-44.042 0-66.065 0v33.032c-22.021 0-44.042 0-66.065 0v33.032c-22.021 0-44.042 0-66.065 0v33.032c-44.042 0-88.085 0-132.129 0v33.032c-66.065 0-132.129 0-198.194 0v-33.032c-44.042 0-88.085 0-132.129 0v-33.032c-22.021 0-44.042 0-66.065 0v-33.032c-22.021 0-44.042 0-66.065 0v-33.032c-22.022 0-44.043 0-66.065 0 0-22.022 0-44.043 0-66.065-22.022 0-44.043 0-66.065 0 0-22.022 0-44.043 0-66.065-22.022 0-44.043 0-66.065 0 0-44.043 0-88.087 0-132.129-22.022 0-44.043 0-66.065 0 0-77.076 0-154.152 0-231.226 44.043 0 88.086 0 132.129 0 0-22.023 0-44.044 0-66.065-22.022 0-44.043 0-66.065 0 0-22.023 0-44.044 0-66.065-22.022 0-44.043 0-66.065 0 0-88.087 0-176.173 0-264.258 418.41 0 836.818 0 1255.226 0 0 99.097 0 198.194 0 297.29-22.021 0-44.042 0-66.065 0 0 22.021 0 44.042 0 66.065-22.021 0-44.042 0-66.065 0v33.032c44.044 0 88.087 0 132.129 0zM792.774 167.226v-66.065h-330.323v132.129h66.065v66.065h66.065v33.032h66.065v-33.032h66.065v-66.065h66.065v-66.065zM792.774 431.484h-330.323v330.323h66.065v66.065h66.065v33.032h66.065v-33.032h66.065v-66.065h66.065v-330.323z" horiz-adv-x="1321" />
<glyph unicode="&#x39;" d="M1222.194 596.645h-33.032c0 33.032 0 66.065 0 99.097-22.021 0-44.042 0-66.065 0 0 22.022 0 44.043 0 66.065-22.021 0-44.042 0-66.065 0 0 22.022 0 44.043 0 66.065-22.021 0-44.042 0-66.065 0v33.032c-22.021 0-44.042 0-66.065 0v33.032c-22.021 0-44.042 0-66.065 0v33.032c-44.042 0-88.085 0-132.129 0v33.032c-66.065 0-132.129 0-198.194 0v-33.032c-44.042 0-88.085 0-132.129 0v-33.032c-22.021 0-44.042 0-66.065 0v-33.032c-22.021 0-44.042 0-66.065 0v-33.032c-22.022 0-44.043 0-66.065 0 0-22.022 0-44.043 0-66.065-22.022 0-44.043 0-66.065 0 0-22.022 0-44.043 0-66.065-22.022 0-44.043 0-66.065 0 0-44.043 0-88.087 0-132.129-22.022 0-44.043 0-66.065 0 0-77.076 0-154.152 0-231.226 264.258 0 528.516 0 792.774 0 0-77.076 0-154.152 0-231.226-264.258 0-528.516 0-792.774 0 0-55.055 0-110.108 0-165.161 418.41 0 836.818 0 1255.226 0 0 220.215 0 440.429 0 660.645h-33.032zM792.774 431.484h-330.323v330.323h66.065v66.065h66.065v33.032h66.065v-33.032h66.065v-66.065h66.065v-330.323z" horiz-adv-x="1321" />
<glyph unicode="&#x3f;" d="M1222.194 596.645h-33.032c0 33.032 0 66.065 0 99.097-22.022 0-44.043 0-66.065 0 0 22.022 0 44.043 0 66.065-22.022 0-44.043 0-66.065 0 0 22.022 0 44.043 0 66.065-22.022 0-44.043 0-66.065 0v33.032c-22.022 0-44.043 0-66.065 0v33.032c-22.022 0-44.043 0-66.065 0v33.032c-44.043 0-88.086 0-132.129 0v33.032c-242.237 0-484.473 0-726.71 0 0-33.032 0-66.065 0-99.097 220.215 0 440.43 0 660.645 0v-33.032c22.022 0 44.043 0 66.065 0 0-22.022 0-44.043 0-66.065 22.022 0 44.043 0 66.065 0 0-110.107 0-220.215 0-330.323-88.086 0-176.172 0-264.258 0v-33.032c-22.022 0-44.043 0-66.065 0v-33.032c-22.022 0-44.043 0-66.065 0v-33.032c-22.022 0-44.043 0-66.065 0 0-22.022 0-44.043 0-66.065-22.022 0-44.043 0-66.065 0 0-33.032 0-66.065 0-99.097 154.151 0 308.301 0 462.452 0 0 44.043 0 88.086 0 132.129 22.022 0 44.043 0 66.065 0v33.032c154.151 0 308.301 0 462.452 0 0 88.086 0 176.172 0 264.258h-33.032zM660.645 134.194c-132.129 0-264.258 0-396.387 0 0-66.065 0-132.129 0-198.194 154.151 0 308.301 0 462.452 0 0 66.065 0 132.129 0 198.194-22.022 0-44.043 0-66.065 0v0z" horiz-adv-x="1255" />
<glyph unicode="&#x61;" d="M1222.194 596.645h-33.032v99.097h-66.065v66.065h-66.065v66.065h-66.065v33.032h-66.065v33.032h-66.065v33.032h-132.129v33.032h-198.194v-33.032h-132.129v-33.032h-66.065v-33.032h-66.065v-33.032h-66.065v-66.065h-66.065v-66.065h-66.065v-132.129h-66.065v-627.613h462.452v132.129h330.323v-132.129h462.452v660.645h-33.032zM792.774 728.774v-495.484h-330.323v528.516h66.065v66.065h66.065v33.032h66.065v-33.032h66.065v-66.065h66.065v-33.032z" horiz-adv-x="1321" />
<glyph unicode="&#x62;" d="M1255.226 332.387c0 88.085 0 176.171 0 264.258h-66.065c0 33.032 0 66.065 0 99.097-22.021 0-44.042 0-66.065 0 0 22.022 0 44.043 0 66.065-22.021 0-44.042 0-66.065 0 0 22.022 0 44.043 0 66.065-22.021 0-44.042 0-66.065 0v33.032c-22.021 0-44.042 0-66.065 0v33.032c-22.021 0-44.042 0-66.065 0v33.032c-44.042 0-88.085 0-132.129 0v33.032c-242.237 0-484.473 0-726.71 0 0-341.333 0-682.668 0-1024 418.41 0 836.818 0 1255.226 0 0 99.097 0 198.194 0 297.29-22.021 0-44.042 0-66.065 0 0 22.021 0 44.042 0 66.065-22.021 0-44.042 0-66.065 0v33.032c44.044 0 88.087 0 132.129 0zM792.774 101.161h-330.323v231.226h198.194v-33.032h66.065v-66.065h66.065v-132.129zM792.774 431.484h-330.323v429.419h198.194v-33.032h66.065v-66.065h66.065v-330.323z" horiz-adv-x="1321" />
<glyph unicode="&#x63;" d="M1222.194 101.161c-253.248 0-506.494 0-759.742 0 0 220.215 0 440.43 0 660.645 22.022 0 44.043 0 66.065 0 0 22.022 0 44.043 0 66.065 22.022 0 44.043 0 66.065 0v33.032c110.107 0 220.215 0 330.323 0 0 33.032 0 66.065 0 99.097-132.129 0-264.258 0-396.387 0v-33.032c-44.043 0-88.086 0-132.129 0v-33.032c-22.022 0-44.043 0-66.065 0v-33.032c-22.022 0-44.043 0-66.065 0v-33.032c-22.022 0-44.043 0-66.065 0 0-22.022 0-44.043 0-66.065-22.022 0-44.043 0-66.065 0 0-22.022 0-44.043 0-66.065-22.022 0-44.043 0-66.065 0 0-44.043 0-88.086 0-132.129-22.022 0-44.043 0-66.065 0 0-209.204 0-418.409 0-627.613 418.409 0 836.817 0 1255.226 0 0 55.054 0 110.107 0 165.161h-33.032z" horiz-adv-x="1321" />
<glyph unicode="&#x64;" d="M1222.194 596.645h-33.032c0 33.032 0 66.065 0 99.097-22.021 0-44.042 0-66.065 0 0 22.022 0 44.043 0 66.065-22.021 0-44.042 0-66.065 0 0 22.022 0 44.043 0 66.065-22.021 0-44.042 0-66.065 0v33.032c-22.021 0-44.042 0-66.065 0v33.032c-22.021 0-44.042 0-66.065 0v33.032c-44.042 0-88.085 0-132.129 0v33.032c-242.237 0-484.473 0-726.71 0 0-341.333 0-682.668 0-1024 418.41 0 836.818 0 1255.226 0 0 220.215 0 440.429 0 660.645h-33.032zM792.774 101.161h-330.323v759.742h198.194v-33.032h66.065v-66.065h66.065v-660.645z" horiz-adv-x="1321" />
<glyph unicode="&#x65;" d="M1222.194 101.161c-253.248 0-506.494 0-759.742 0 0 22.022 0 44.043 0 66.065 88.086 0 176.172 0 264.258 0 0 44.043 0 88.086 0 132.129-88.086 0-176.172 0-264.258 0 0 154.151 0 308.301 0 462.452 22.022 0 44.043 0 66.065 0 0 22.022 0 44.043 0 66.065 22.022 0 44.043 0 66.065 0v33.032c110.107 0 220.215 0 330.323 0 0 33.032 0 66.065 0 99.097-132.129 0-264.258 0-396.387 0v-33.032c-44.043 0-88.086 0-132.129 0v-33.032c-22.022 0-44.043 0-66.065 0v-33.032c-22.022 0-44.043 0-66.065 0v-33.032c-22.022 0-44.043 0-66.065 0 0-22.022 0-44.043 0-66.065-22.022 0-44.043 0-66.065 0 0-22.022 0-44.043 0-66.065-22.022 0-44.043 0-66.065 0 0-44.043 0-88.086 0-132.129-22.022 0-44.043 0-66.065 0 0-209.204 0-418.409 0-627.613 418.409 0 836.817 0 1255.226 0 0 55.054 0 110.107 0 165.161h-33.032z" horiz-adv-x="1321" />
<glyph unicode="&#x66;" d="M891.871 960c-121.119 0-242.236 0-363.355 0v-33.032c-44.043 0-88.086 0-132.129 0v-33.032c-22.022 0-44.043 0-66.065 0v-33.032c-22.022 0-44.043 0-66.065 0v-33.032c-22.022 0-44.043 0-66.065 0 0-22.022 0-44.043 0-66.065-22.022 0-44.043 0-66.065 0 0-22.022 0-44.043 0-66.065-22.022 0-44.043 0-66.065 0 0-44.043 0-88.086 0-132.129-22.022 0-44.043 0-66.065 0 0-209.204 0-418.409 0-627.613 154.151 0 308.301 0 462.452 0 0 44.043 0 88.086 0 132.129 88.086 0 176.172 0 264.258 0 0 55.054 0 110.107 0 165.161-88.086 0-176.172 0-264.258 0 0 176.172 0 352.344 0 528.516 22.022 0 44.043 0 66.065 0 0 22.022 0 44.043 0 66.065 22.022 0 44.043 0 66.065 0v33.032c110.107 0 220.215 0 330.323 0 0 33.032 0 66.065 0 99.097h-33.032z" horiz-adv-x="991" />
<glyph unicode="&#x67;" d="M1222.194 332.387c-143.14 0-286.28 0-429.419 0 0-77.075 0-154.151 0-231.226-110.107 0-220.215 0-330.323 0 0 220.215 0 440.43 0 660.645 22.022 0 44.043 0 66.065 0 0 22.022 0 44.043 0 66.065 22.022 0 44.043 0 66.065 0v33.032c110.107 0 220.215 0 330.323 0 0 33.032 0 66.065 0 99.097-132.129 0-264.258 0-396.387 0v-33.032c-44.043 0-88.086 0-132.129 0v-33.032c-22.022 0-44.043 0-66.065 0v-33.032c-22.022 0-44.043 0-66.065 0v-33.032c-22.022 0-44.043 0-66.065 0 0-22.022 0-44.043 0-66.065-22.022 0-44.043 0-66.065 0 0-22.022 0-44.043 0-66.065-22.022 0-44.043 0-66.065 0 0-44.043 0-88.086 0-132.129-22.022 0-44.043 0-66.065 0 0-209.204 0-418.409 0-627.613 418.409 0 836.817 0 1255.226 0 0 132.129 0 264.258 0 396.387h-33.032z" horiz-adv-x="1321" />
<glyph unicode="&#x68;" d="M1222.194 960c-143.14 0-286.28 0-429.419 0 0-242.236 0-484.473 0-726.71-110.107 0-220.215 0-330.323 0 0 242.236 0 484.473 0 726.71-154.151 0-308.302 0-462.452 0 0-341.333 0-682.667 0-1024 154.151 0 308.301 0 462.452 0 0 44.043 0 88.086 0 132.129 110.107 0 220.215 0 330.323 0 0-44.043 0-88.086 0-132.129 154.151 0 308.301 0 462.452 0 0 341.333 0 682.667 0 1024h-33.032z" horiz-adv-x="1321" />
<glyph unicode="&#x69;" d="M429.419 960c-143.14 0-286.28 0-429.419 0 0-341.333 0-682.667 0-1024 154.151 0 308.301 0 462.452 0 0 341.333 0 682.667 0 1024h-33.032z" horiz-adv-x="529" />
<glyph unicode="&#x6a;" d="M1222.194 960c-143.14 0-286.28 0-429.419 0 0-286.28 0-572.559 0-858.839-264.258 0-528.516 0-792.774 0 0-55.054 0-110.107 0-165.161 418.409 0 836.817 0 1255.226 0 0 341.333 0 682.667 0 1024h-33.032z" horiz-adv-x="1255" />
<glyph unicode="&#x6b;" d="M1222.194 960c-143.14 0-286.28 0-429.419 0 0-22.022 0-44.043 0-66.065-22.022 0-44.043 0-66.065 0 0-33.032 0-66.065 0-99.097-22.022 0-44.043 0-66.065 0 0-33.032 0-66.065 0-99.097-22.022 0-44.043 0-66.065 0 0-33.032 0-66.065 0-99.097-22.022 0-44.043 0-66.065 0 0-33.032 0-66.065 0-99.097-22.022 0-44.043 0-66.065 0 0 154.151 0 308.301 0 462.452-154.151 0-308.302 0-462.452 0 0-341.333 0-682.667 0-1024 154.151 0 308.301 0 462.452 0 0 154.151 0 308.301 0 462.452 22.022 0 44.043 0 66.065 0 0-33.032 0-66.065 0-99.097 22.022 0 44.043 0 66.065 0 0-33.032 0-66.065 0-99.097 22.022 0 44.043 0 66.065 0 0-33.032 0-66.065 0-99.097 22.022 0 44.043 0 66.065 0 0-33.032 0-66.065 0-99.097 22.022 0 44.043 0 66.065 0 0-22.022 0-44.043 0-66.065 154.151 0 308.301 0 462.452 0 0 33.032 0 66.065 0 99.097-22.022 0-44.043 0-66.065 0v33.032c-22.022 0-44.043 0-66.065 0 0 22.022 0 44.043 0 66.065-22.022 0-44.043 0-66.065 0v33.032c-22.022 0-44.043 0-66.065 0 0 22.022 0 44.043 0 66.065-22.022 0-44.043 0-66.065 0v33.032c-22.022 0-44.043 0-66.065 0 0 22.022 0 44.043 0 66.065-22.022 0-44.043 0-66.065 0v33.032c-22.022 0-44.043 0-66.065 0 0 22.022 0 44.043 0 66.065-22.022 0-44.043 0-66.065 0v33.032c22.022 0 44.043 0 66.065 0 0 22.022 0 44.043 0 66.065 22.022 0 44.043 0 66.065 0v33.032c22.022 0 44.043 0 66.065 0 0 22.022 0 44.043 0 66.065 22.022 0 44.043 0 66.065 0v33.032c22.022 0 44.043 0 66.065 0 0 22.022 0 44.043 0 66.065 22.022 0 44.043 0 66.065 0v33.032c22.022 0 44.043 0 66.065 0 0 22.022 0 44.043 0 66.065 22.022 0 44.043 0 66.065 0v33.032c22.022 0 44.043 0 66.065 0 0 33.032 0 66.065 0 99.097h-33.032z" horiz-adv-x="1321" />
<glyph unicode="&#x6c;" d="M957.935 101.161c-165.161 0-330.323 0-495.484 0 0 286.28 0 572.559 0 858.839-154.151 0-308.302 0-462.452 0 0-341.333 0-682.667 0-1024 330.323 0 660.645 0 990.968 0 0 55.054 0 110.107 0 165.161h-33.032z" horiz-adv-x="1057" />
<glyph unicode="&#x6d;" d="M2014.968 596.645h-33.032c0 33.032 0 66.065 0 99.097-22.022 0-44.043 0-66.065 0 0 22.022 0 44.043 0 66.065-22.022 0-44.043 0-66.065 0 0 22.022 0 44.043 0 66.065-22.022 0-44.043 0-66.065 0v33.032c-22.022 0-44.043 0-66.065 0v33.032c-22.022 0-44.043 0-66.065 0v33.032c-44.043 0-88.086 0-132.129 0v33.032c-506.495 0-1012.99 0-1519.484 0 0-341.333 0-682.667 0-1024 154.151 0 308.301 0 462.452 0 0 308.301 0 616.602 0 924.903 110.107 0 220.215 0 330.323 0 0-308.301 0-616.602 0-924.903 154.151 0 308.301 0 462.452 0 0 308.301 0 616.602 0 924.903 66.065 0 132.129 0 198.194 0v-33.032c22.022 0 44.043 0 66.065 0 0-22.022 0-44.043 0-66.065 22.022 0 44.043 0 66.065 0 0-275.269 0-550.538 0-825.806 154.151 0 308.301 0 462.452 0 0 220.215 0 440.43 0 660.645h-33.032z" horiz-adv-x="2114" />
<glyph unicode="&#x6e;" d="M1222.194 960c-143.14 0-286.28 0-429.419 0 0-99.097 0-198.194 0-297.29-22.022 0-44.043 0-66.065 0v33.032c-22.022 0-44.043 0-66.065 0v33.032c-22.022 0-44.043 0-66.065 0v33.032c-22.022 0-44.043 0-66.065 0v33.032c-22.022 0-44.043 0-66.065 0 0 55.054 0 110.107 0 165.161-154.151 0-308.302 0-462.452 0 0-341.333 0-682.667 0-1024 154.151 0 308.301 0 462.452 0 0 231.226 0 462.452 0 693.677 22.022 0 44.043 0 66.065 0v-33.032c22.022 0 44.043 0 66.065 0v-33.032c22.022 0 44.043 0 66.065 0v-33.032c22.022 0 44.043 0 66.065 0v-33.032c22.022 0 44.043 0 66.065 0 0-187.183 0-374.365 0-561.548 154.151 0 308.301 0 462.452 0 0 341.333 0 682.667 0 1024h-33.032z" horiz-adv-x="1321" />
<glyph unicode="&#x6f;" d="M1222.194 596.645h-33.032c0 33.032 0 66.065 0 99.097-22.021 0-44.042 0-66.065 0 0 22.022 0 44.043 0 66.065-22.021 0-44.042 0-66.065 0 0 22.022 0 44.043 0 66.065-22.021 0-44.042 0-66.065 0v33.032c-22.021 0-44.042 0-66.065 0v33.032c-22.021 0-44.042 0-66.065 0v33.032c-44.042 0-88.085 0-132.129 0v33.032c-66.065 0-132.129 0-198.194 0v-33.032c-44.042 0-88.085 0-132.129 0v-33.032c-22.021 0-44.042 0-66.065 0v-33.032c-22.021 0-44.042 0-66.065 0v-33.032c-22.022 0-44.043 0-66.065 0 0-22.022 0-44.043 0-66.065-22.022 0-44.043 0-66.065 0 0-22.022 0-44.043 0-66.065-22.022 0-44.043 0-66.065 0 0-44.043 0-88.087 0-132.129-22.022 0-44.043 0-66.065 0 0-209.205 0-418.41 0-627.613 418.41 0 836.818 0 1255.226 0 0 220.215 0 440.429 0 660.645h-33.032zM792.774 101.161h-330.323v660.645h66.065v66.065h66.065v33.032h66.065v-33.032h66.065v-66.065h66.065v-660.645z" horiz-adv-x="1321" />
<glyph unicode="&#x70;" d="M1222.194 596.645h-33.032c0 33.032 0 66.065 0 99.097-22.021 0-44.042 0-66.065 0 0 22.022 0 44.043 0 66.065-22.021 0-44.042 0-66.065 0 0 22.022 0 44.043 0 66.065-22.021 0-44.042 0-66.065 0v33.032c-22.021 0-44.042 0-66.065 0v33.032c-22.021 0-44.042 0-66.065 0v33.032c-44.042 0-88.085 0-132.129 0v33.032c-242.237 0-484.473 0-726.71 0 0-341.333 0-682.668 0-1024 154.151 0 308.302 0 462.452 0 0 132.129 0 264.258 0 396.387 264.258 0 528.516 0 792.774 0 0 88.085 0 176.171 0 264.258h-33.032zM792.774 431.484h-330.323v429.419h198.194v-33.032h66.065v-66.065h66.065v-330.323z" horiz-adv-x="1321" />
<glyph unicode="&#x71;" d="M1156.129 35.097h-33.032v33.032h-66.065v33.032h-66.065v33.032h-66.065v33.032h-66.065v33.032h-66.065v33.032h-66.065v33.032h-66.065v-33.032h-66.065v-99.097h66.065v-33.032h66.065v-33.032h66.065v-33.032h66.065v-33.032h66.065v-33.032h66.065v-33.032h264.258v66.065h-66.065v33.032h-33.032zM858.839-30.968v33.032h-66.065v33.032h-66.065v33.032h-66.065v33.032h-198.194v660.645h66.065v66.065h66.065v33.032h66.065v-33.032h66.065v-66.065h66.065v-528.516h66.065v-33.032h66.065v-33.032h66.065v-33.032h66.065v-33.032h66.065v-33.032h66.065v-33.032h66.065v561.548h-66.065v99.097h-66.065v66.065h-66.065v66.065h-66.065v33.032h-66.065v33.032h-66.065v33.032h-132.129v33.032h-198.194v-33.032h-132.129v-33.032h-66.065v-33.032h-66.065v-33.032h-66.065v-66.065h-66.065v-66.065h-66.065v-132.129h-66.065v-627.613h924.903v33.032h-66.065z" horiz-adv-x="1321" />
<glyph unicode="&#x72;" d="M1255.226 332.387c0 88.085 0 176.171 0 264.258h-66.065c0 33.032 0 66.065 0 99.097-22.021 0-44.042 0-66.065 0 0 22.022 0 44.043 0 66.065-22.021 0-44.042 0-66.065 0 0 22.022 0 44.043 0 66.065-22.021 0-44.042 0-66.065 0v33.032c-22.021 0-44.042 0-66.065 0v33.032c-22.021 0-44.042 0-66.065 0v33.032c-44.042 0-88.085 0-132.129 0v33.032c-242.237 0-484.473 0-726.71 0 0-341.333 0-682.668 0-1024 154.151 0 308.302 0 462.452 0 0 132.129 0 264.258 0 396.387 22.023 0 44.044 0 66.065 0 0-33.032 0-66.065 0-99.097 22.023 0 44.044 0 66.065 0 0-22.023 0-44.044 0-66.065 22.023 0 44.044 0 66.065 0 0-33.032 0-66.065 0-99.097 22.023 0 44.044 0 66.065 0 0-22.023 0-44.044 0-66.065 22.023 0 44.044 0 66.065 0 0-22.023 0-44.044 0-66.065 154.152 0 308.302 0 462.452 0 0 44.042 0 88.085 0 132.129-22.021 0-44.042 0-66.065 0v33.032c-22.021 0-44.042 0-66.065 0v33.032c-22.021 0-44.042 0-66.065 0v33.032c-22.021 0-44.042 0-66.065 0v33.032c-22.021 0-44.042 0-66.065 0v33.032c-22.021 0-44.042 0-66.065 0v33.032c-22.021 0-44.042 0-66.065 0v33.032c-22.021 0-44.042 0-66.065 0v33.032c176.173 0 352.345 0 528.516 0zM528.516 431.484h-66.065v429.419h198.194v-33.032h66.065v-66.065h66.065v-330.323h-264.258z" horiz-adv-x="1321" />
<glyph unicode="&#x73;" d="M1222.194 233.29h-33.032c0 22.022 0 44.043 0 66.065-22.022 0-44.043 0-66.065 0v33.032c-22.022 0-44.043 0-66.065 0v33.032c-22.022 0-44.043 0-66.065 0v33.032c-44.043 0-88.086 0-132.129 0v33.032c-132.129 0-264.258 0-396.387 0 0 110.107 0 220.215 0 330.323 22.022 0 44.043 0 66.065 0 0 22.022 0 44.043 0 66.065 22.022 0 44.043 0 66.065 0v33.032c110.107 0 220.215 0 330.323 0 0 33.032 0 66.065 0 99.097-132.129 0-264.258 0-396.387 0v-33.032c-44.043 0-88.086 0-132.129 0v-33.032c-22.022 0-44.043 0-66.065 0v-33.032c-22.022 0-44.043 0-66.065 0v-33.032c-22.022 0-44.043 0-66.065 0 0-22.022 0-44.043 0-66.065-22.022 0-44.043 0-66.065 0 0-22.022 0-44.043 0-66.065-22.022 0-44.043 0-66.065 0 0-44.043 0-88.086 0-132.129-22.022 0-44.043 0-66.065 0 0-77.075 0-154.151 0-231.226 220.215 0 440.43 0 660.645 0v-33.032c22.022 0 44.043 0 66.065 0 0-22.022 0-44.043 0-66.065 22.022 0 44.043 0 66.065 0 0-44.043 0-88.086 0-132.129-264.258 0-528.516 0-792.774 0 0-55.054 0-110.107 0-165.161 418.409 0 836.817 0 1255.226 0 0 99.097 0 198.194 0 297.29h-33.032z" horiz-adv-x="1321" />
<glyph unicode="&#x74;" d="M957.935 960c-319.312 0-638.624 0-957.935 0 0-33.032 0-66.065 0-99.097 88.086 0 176.172 0 264.258 0 0-308.301 0-616.602 0-924.903 154.151 0 308.301 0 462.452 0 0 308.301 0 616.602 0 924.903 88.086 0 176.172 0 264.258 0 0 33.032 0 66.065 0 99.097h-33.032z" horiz-adv-x="1057" />
<glyph unicode="&#x75;" d="M1222.194 960c-143.14 0-286.28 0-429.419 0 0-286.28 0-572.559 0-858.839-110.107 0-220.215 0-330.323 0 0 286.28 0 572.559 0 858.839-154.151 0-308.302 0-462.452 0 0-341.333 0-682.667 0-1024 418.409 0 836.817 0 1255.226 0 0 341.333 0 682.667 0 1024h-33.032z" horiz-adv-x="1321" />
<glyph unicode="&#x76;" d="M1222.194 960c-143.14 0-286.28 0-429.419 0 0-264.258 0-528.516 0-792.774-22.022 0-44.043 0-66.065 0v-33.032c-22.022 0-44.043 0-66.065 0v-33.032c-22.022 0-44.043 0-66.065 0v33.032c-22.022 0-44.043 0-66.065 0v33.032c-22.022 0-44.043 0-66.065 0 0 264.258 0 528.516 0 792.774-154.151 0-308.302 0-462.452 0 0-253.248 0-506.494 0-759.742 22.022 0 44.043 0 66.065 0v-33.032c22.022 0 44.043 0 66.065 0v-33.032c22.022 0 44.043 0 66.065 0v-33.032c22.022 0 44.043 0 66.065 0v-33.032c22.022 0 44.043 0 66.065 0v-33.032c22.022 0 44.043 0 66.065 0v-33.032c22.022 0 44.043 0 66.065 0v-33.032c22.022 0 44.043 0 66.065 0v-33.032c66.065 0 132.129 0 198.194 0v33.032c22.022 0 44.043 0 66.065 0v33.032c22.022 0 44.043 0 66.065 0v33.032c22.022 0 44.043 0 66.065 0v33.032c22.022 0 44.043 0 66.065 0v33.032c22.022 0 44.043 0 66.065 0v33.032c22.022 0 44.043 0 66.065 0v33.032c22.022 0 44.043 0 66.065 0v33.032c22.022 0 44.043 0 66.065 0 0 253.248 0 506.494 0 759.742h-33.032z" horiz-adv-x="1321" />
<glyph unicode="&#x77;" d="M2014.968 960c-143.14 0-286.28 0-429.419 0 0-286.28 0-572.559 0-858.839-110.107 0-220.215 0-330.323 0 0 286.28 0 572.559 0 858.839-154.151 0-308.301 0-462.452 0 0-286.28 0-572.559 0-858.839-110.107 0-220.215 0-330.323 0 0 286.28 0 572.559 0 858.839-154.151 0-308.302 0-462.452 0 0-341.333 0-682.667 0-1024 682.667 0 1365.333 0 2048 0 0 341.333 0 682.667 0 1024h-33.032z" horiz-adv-x="2114" />
<glyph unicode="&#x78;" d="M1486.452 960c-143.14 0-286.28 0-429.419 0 0-22.022 0-44.043 0-66.065-22.022 0-44.043 0-66.065 0 0-33.032 0-66.065 0-99.097-22.022 0-44.043 0-66.065 0 0-33.032 0-66.065 0-99.097-22.022 0-44.043 0-66.065 0 0-33.032 0-66.065 0-99.097-22.022 0-44.043 0-66.065 0 0-33.032 0-66.065 0-99.097-22.022 0-44.043 0-66.065 0 0 33.032 0 66.065 0 99.097-22.022 0-44.043 0-66.065 0 0 33.032 0 66.065 0 99.097-22.022 0-44.043 0-66.065 0 0 33.032 0 66.065 0 99.097-22.022 0-44.043 0-66.065 0 0 33.032 0 66.065 0 99.097-22.022 0-44.043 0-66.065 0 0 22.022 0 44.043 0 66.065-154.151 0-308.302 0-462.452 0 0-33.032 0-66.065 0-99.097 22.022 0 44.043 0 66.065 0v-33.032c22.022 0 44.043 0 66.065 0 0-22.022 0-44.043 0-66.065 22.022 0 44.043 0 66.065 0v-33.032c22.022 0 44.043 0 66.065 0 0-22.022 0-44.043 0-66.065 22.022 0 44.043 0 66.065 0v-33.032c22.022 0 44.043 0 66.065 0 0-22.022 0-44.043 0-66.065 22.022 0 44.043 0 66.065 0v-33.032c22.022 0 44.043 0 66.065 0 0-22.022 0-44.043 0-66.065 22.022 0 44.043 0 66.065 0v-33.032c-22.022 0-44.043 0-66.065 0 0-22.022 0-44.043 0-66.065-22.022 0-44.043 0-66.065 0v-33.032c-22.022 0-44.043 0-66.065 0 0-22.022 0-44.043 0-66.065-22.022 0-44.043 0-66.065 0v-33.032c-22.022 0-44.043 0-66.065 0 0-22.022 0-44.043 0-66.065-22.022 0-44.043 0-66.065 0v-33.032c-22.022 0-44.043 0-66.065 0 0-22.022 0-44.043 0-66.065-22.022 0-44.043 0-66.065 0v-33.032c-22.022 0-44.043 0-66.065 0 0-33.032 0-66.065 0-99.097 154.151 0 308.301 0 462.452 0 0 22.022 0 44.043 0 66.065 22.022 0 44.043 0 66.065 0 0 33.032 0 66.065 0 99.097 22.022 0 44.043 0 66.065 0 0 33.032 0 66.065 0 99.097 22.022 0 44.043 0 66.065 0 0 33.032 0 66.065 0 99.097 22.022 0 44.043 0 66.065 0 0 33.032 0 66.065 0 99.097 22.022 0 44.043 0 66.065 0 0-33.032 0-66.065 0-99.097 22.022 0 44.043 0 66.065 0 0-33.032 0-66.065 0-99.097 22.022 0 44.043 0 66.065 0 0-33.032 0-66.065 0-99.097 22.022 0 44.043 0 66.065 0 0-33.032 0-66.065 0-99.097 22.022 0 44.043 0 66.065 0 0-22.022 0-44.043 0-66.065 154.151 0 308.301 0 462.452 0 0 33.032 0 66.065 0 99.097-22.022 0-44.043 0-66.065 0v33.032c-22.022 0-44.043 0-66.065 0 0 22.022 0 44.043 0 66.065-22.022 0-44.043 0-66.065 0v33.032c-22.022 0-44.043 0-66.065 0 0 22.022 0 44.043 0 66.065-22.022 0-44.043 0-66.065 0v33.032c-22.022 0-44.043 0-66.065 0 0 22.022 0 44.043 0 66.065-22.022 0-44.043 0-66.065 0v33.032c-22.022 0-44.043 0-66.065 0 0 22.022 0 44.043 0 66.065-22.022 0-44.043 0-66.065 0v33.032c22.022 0 44.043 0 66.065 0 0 22.022 0 44.043 0 66.065 22.022 0 44.043 0 66.065 0v33.032c22.022 0 44.043 0 66.065 0 0 22.022 0 44.043 0 66.065 22.022 0 44.043 0 66.065 0v33.032c22.022 0 44.043 0 66.065 0 0 22.022 0 44.043 0 66.065 22.022 0 44.043 0 66.065 0v33.032c22.022 0 44.043 0 66.065 0 0 22.022 0 44.043 0 66.065 22.022 0 44.043 0 66.065 0v33.032c22.022 0 44.043 0 66.065 0 0 33.032 0 66.065 0 99.097h-33.032z" horiz-adv-x="1586" />
<glyph unicode="&#x79;" d="M1486.452 960c-143.14 0-286.28 0-429.419 0 0-22.022 0-44.043 0-66.065-22.022 0-44.043 0-66.065 0 0-33.032 0-66.065 0-99.097-22.022 0-44.043 0-66.065 0 0-33.032 0-66.065 0-99.097-22.022 0-44.043 0-66.065 0 0-33.032 0-66.065 0-99.097-22.022 0-44.043 0-66.065 0 0-33.032 0-66.065 0-99.097-22.022 0-44.043 0-66.065 0 0 33.032 0 66.065 0 99.097-22.022 0-44.043 0-66.065 0 0 33.032 0 66.065 0 99.097-22.022 0-44.043 0-66.065 0 0 33.032 0 66.065 0 99.097-22.022 0-44.043 0-66.065 0 0 33.032 0 66.065 0 99.097-22.022 0-44.043 0-66.065 0 0 22.022 0 44.043 0 66.065-154.151 0-308.302 0-462.452 0 0-33.032 0-66.065 0-99.097 22.022 0 44.043 0 66.065 0v-33.032c22.022 0 44.043 0 66.065 0 0-22.022 0-44.043 0-66.065 22.022 0 44.043 0 66.065 0v-33.032c22.022 0 44.043 0 66.065 0 0-22.022 0-44.043 0-66.065 22.022 0 44.043 0 66.065 0v-33.032c22.022 0 44.043 0 66.065 0 0-22.022 0-44.043 0-66.065 22.022 0 44.043 0 66.065 0 0-22.022 0-44.043 0-66.065 22.022 0 44.043 0 66.065 0 0-187.183 0-374.365 0-561.548 154.151 0 308.301 0 462.452 0 0 187.183 0 374.365 0 561.548 22.022 0 44.043 0 66.065 0 0 22.022 0 44.043 0 66.065 22.022 0 44.043 0 66.065 0 0 22.022 0 44.043 0 66.065 22.022 0 44.043 0 66.065 0v33.032c22.022 0 44.043 0 66.065 0 0 22.022 0 44.043 0 66.065 22.022 0 44.043 0 66.065 0v33.032c22.022 0 44.043 0 66.065 0 0 22.022 0 44.043 0 66.065 22.022 0 44.043 0 66.065 0v33.032c22.022 0 44.043 0 66.065 0 0 33.032 0 66.065 0 99.097h-33.032z" horiz-adv-x="1586" />
<glyph unicode="&#x7a;" d="M1222.194 960c-407.398 0-814.796 0-1222.194 0 0-33.032 0-66.065 0-99.097 264.258 0 528.516 0 792.774 0 0-22.022 0-44.043 0-66.065-22.022 0-44.043 0-66.065 0 0-22.022 0-44.043 0-66.065-22.022 0-44.043 0-66.065 0 0-22.022 0-44.043 0-66.065-22.022 0-44.043 0-66.065 0 0-22.022 0-44.043 0-66.065-22.022 0-44.043 0-66.065 0 0-22.022 0-44.043 0-66.065-22.022 0-44.043 0-66.065 0 0-22.022 0-44.043 0-66.065-22.022 0-44.043 0-66.065 0 0-22.022 0-44.043 0-66.065-22.022 0-44.043 0-66.065 0 0-22.022 0-44.043 0-66.065-22.022 0-44.043 0-66.065 0 0-22.022 0-44.043 0-66.065-22.022 0-44.043 0-66.065 0 0-22.022 0-44.043 0-66.065-22.022 0-44.043 0-66.065 0 0-22.022 0-44.043 0-66.065-22.022 0-44.043 0-66.065 0 0-22.022 0-44.043 0-66.065-22.022 0-44.043 0-66.065 0 0-44.043 0-88.086 0-132.129 418.409 0 836.817 0 1255.226 0 0 55.054 0 110.107 0 165.161-242.236 0-484.473 0-726.71 0 0 22.022 0 44.043 0 66.065 22.022 0 44.043 0 66.065 0 0 22.022 0 44.043 0 66.065 22.022 0 44.043 0 66.065 0 0 22.022 0 44.043 0 66.065 22.022 0 44.043 0 66.065 0 0 22.022 0 44.043 0 66.065 22.022 0 44.043 0 66.065 0 0 22.022 0 44.043 0 66.065 22.022 0 44.043 0 66.065 0 0 22.022 0 44.043 0 66.065 22.022 0 44.043 0 66.065 0 0 22.022 0 44.043 0 66.065 22.022 0 44.043 0 66.065 0 0 22.022 0 44.043 0 66.065 22.022 0 44.043 0 66.065 0 0 22.022 0 44.043 0 66.065 22.022 0 44.043 0 66.065 0 0 22.022 0 44.043 0 66.065 22.022 0 44.043 0 66.065 0 0 22.022 0 44.043 0 66.065 22.022 0 44.043 0 66.065 0 0 44.043 0 88.086 0 132.129h-33.032z" horiz-adv-x="1321" />
</font>
</defs>
</svg>
